<svg width="143" height="158" viewBox="0 0 143 158" fill="none" xmlns="http://www.w3.org/2000/svg">
<path d="M47.2623 59.7786C45.3431 57.7177 42.2873 57.8594 41.008 60.4891L9.23963 124.026C7.96038 126.584 9.80818 129.498 12.651 129.498H56.8568C58.2783 129.498 59.5571 128.787 60.2681 127.366C69.7916 107.68 64.0349 77.6884 47.2623 59.7786Z" fill="url(#paint0_linear)"/>
<path d="M70.5737 1.99894C52.8062 30.1427 54.0144 61.3424 65.6703 84.7243C77.3968 108.107 86.3515 126.087 86.9914 127.366C87.6308 128.646 88.9812 129.499 90.4027 129.499H134.608C137.451 129.499 139.299 126.514 138.019 124.026C138.019 124.026 78.5339 4.9839 77.0413 1.99894C75.6909 -0.630659 72.2796 -0.701729 70.5737 1.99894Z" fill="#7A869A"/>
<path d="M78.1761 152.74C78.1761 149.684 76.5418 148.262 72.064 147.338C69.577 146.77 68.9371 146.201 68.9371 145.419C68.9371 144.424 69.8609 143.998 71.4957 143.998C73.4855 143.998 75.4753 144.638 77.3234 145.419V141.44C75.973 140.8 73.9832 140.231 71.6379 140.231C67.1605 140.231 64.8152 142.15 64.8152 145.348C64.8152 147.907 66.0234 149.897 70.643 150.821C73.4144 151.389 73.9832 151.816 73.9832 152.74C73.9832 153.663 73.4144 154.232 71.4246 154.232C69.1504 154.232 66.4495 153.45 64.7441 152.384V156.577C66.1651 157.288 68.0133 157.999 71.4246 157.999C76.2574 158.07 78.1761 155.938 78.1761 152.74Z" fill="#7A869A"/>
<path d="M94.949 152.74C94.949 149.684 93.3142 148.262 88.8369 147.338C86.3494 146.77 85.71 146.201 85.71 145.419C85.71 144.424 86.6338 143.998 88.2681 143.998C90.2584 143.998 92.2482 144.638 94.0958 145.419V141.44C92.7459 140.8 90.7556 140.231 88.4103 140.231C83.933 140.231 81.5877 142.15 81.5877 145.348C81.5877 147.907 82.7959 149.897 87.4154 150.821C90.1873 151.389 90.7556 151.816 90.7556 152.74C90.7556 153.663 90.1873 154.232 88.197 154.232C85.9228 154.232 83.2225 153.45 81.5166 152.384V156.577C82.9381 157.288 84.7857 157.999 88.197 157.999C93.0298 158.07 94.949 155.938 94.949 152.74Z" fill="#7A869A"/>
<path d="M127.073 140.514V157.855H130.768V144.636L132.332 148.119L137.52 157.855H142.14V140.514H138.444V151.672L137.094 148.474L132.9 140.514H127.073Z" fill="#7A869A"/>
<path d="M103.621 140.514H99.5693V157.784H103.621V140.514Z" fill="#7A869A"/>
<path d="M33.5454 140.514V157.855H41.8606L43.1399 154.089H37.5966V140.514H33.5454Z" fill="#7A869A"/>
<path d="M17.1992 140.514V144.281H21.6766V157.855H25.7276V144.281H30.5604V140.514H17.1992Z" fill="#7A869A"/>
<path d="M11.3712 140.514H6.04097L0 157.784H4.61956L5.47242 154.87C6.46742 155.155 7.60452 155.368 8.67058 155.368C9.73663 155.368 10.8737 155.226 11.8687 154.87L12.7216 157.784H17.3412L11.3712 140.514ZM8.67058 151.815C7.88882 151.815 7.17812 151.672 6.46742 151.53L8.67058 143.997L10.8737 151.53C10.163 151.672 9.45233 151.815 8.67058 151.815Z" fill="#7A869A"/>
<path d="M56.1459 140.514H50.8159L44.7749 157.784H49.3944L50.2471 154.87C51.242 155.155 52.3796 155.368 53.4456 155.368C54.5827 155.368 55.6487 155.226 56.6436 154.87L57.4963 157.784H62.1159L56.1459 140.514ZM53.4456 151.815C52.6635 151.815 51.953 151.672 51.242 151.53L53.4456 143.997L55.6487 151.53C54.9377 151.672 54.2272 151.815 53.4456 151.815Z" fill="#7A869A"/>
<path d="M118.118 140.514H112.788L106.747 157.784H111.366L112.219 154.87C113.214 155.155 114.351 155.368 115.417 155.368C116.554 155.368 117.62 155.226 118.615 154.87L119.468 157.784H124.088L118.118 140.514ZM115.488 151.815C114.706 151.815 113.996 151.672 113.285 151.53L115.488 143.997L117.691 151.53C116.981 151.672 116.27 151.815 115.488 151.815Z" fill="#7A869A"/>
<defs>
<linearGradient id="paint0_linear" x1="64.6867" y1="69.6022" x2="31.16" y2="127.673" gradientUnits="userSpaceOnUse">
<stop stop-color="#344563"/>
<stop offset="0.9228" stop-color="#7A869A"/>
</linearGradient>
</defs>
</svg>
