<svg width="225" height="28" viewBox="0 0 225 28" fill="none" xmlns="http://www.w3.org/2000/svg">
<path d="M8.18958 12.7457C7.93955 12.4124 7.43951 12.329 7.06448 12.6207C6.98114 12.7041 6.8978 12.7874 6.81446 12.9124L0.0638728 26.4136C-0.102808 26.8303 0.0638728 27.3303 0.480576 27.497C0.563916 27.5387 0.688927 27.5803 0.772267 27.5803H10.1897C10.4814 27.5803 10.7731 27.4137 10.8981 27.122C12.9817 22.9549 11.7315 16.5794 8.18958 12.7457Z" fill="url(#paint0_linear)"/>
<path d="M13.1484 0.45266C9.73141 5.74478 9.31471 12.412 12.1066 18.0792L16.6487 27.1633C16.7737 27.455 17.0654 27.6217 17.3571 27.6217H26.7746C27.2329 27.6217 27.5663 27.2466 27.5663 26.8299C27.5663 26.7049 27.5246 26.5799 27.4829 26.4549C27.4829 26.4549 14.8152 1.11938 14.4818 0.49433C14.3151 0.119298 13.8568 -0.0473831 13.4817 0.119298C13.3567 0.160968 13.2317 0.285979 13.1484 0.45266Z" fill="white"/>
<path d="M205.207 4.91211V27.5807H210.04V10.2876L212.082 14.913L218.916 27.5807H225V4.91211H220.166V19.5384L218.333 15.288L212.874 4.91211H205.207Z" fill="white"/>
<path d="M174.496 4.91211H169.204V27.5807H174.496V4.91211Z" fill="white"/>
<path d="M163.12 20.9123C163.12 16.9537 160.995 15.0785 155.077 13.7867C151.786 13.0783 150.994 12.3283 150.994 11.2865C150.994 9.95306 152.161 9.41135 154.327 9.41135C156.953 9.41135 159.536 10.2031 161.995 11.2865V6.1194C159.661 5.03597 157.078 4.53593 154.494 4.5776C148.619 4.5776 145.577 7.11948 145.577 11.3282C145.577 14.6618 147.118 17.3287 153.202 18.4955C156.828 19.2455 157.578 19.8289 157.578 21.0374C157.578 22.2458 156.828 22.9542 154.244 22.9542C151.16 22.9125 148.119 22.0791 145.452 20.579V26.0378C147.285 26.9545 149.702 27.9546 154.202 27.9546C160.578 27.9546 163.12 25.121 163.12 20.9123Z" fill="white"/>
<path d="M141.118 20.9123C141.118 16.9537 139.034 15.0785 133.076 13.7867C129.784 13.0783 128.992 12.3283 128.992 11.2865C128.992 9.95306 130.159 9.41135 132.325 9.41135C134.951 9.41135 137.534 10.2031 139.993 11.2865V6.1194C137.659 5.03597 135.076 4.53593 132.492 4.5776C126.617 4.5776 123.575 7.11948 123.575 11.3282C123.575 14.6618 125.117 17.3287 131.2 18.4955C134.826 19.2455 135.576 19.8289 135.576 21.0374C135.576 22.2458 134.826 22.9542 132.242 22.9542C129.159 22.9125 126.117 22.0791 123.45 20.579V26.0378C125.283 26.9545 127.7 27.9546 132.2 27.9546C138.576 27.9546 141.118 25.121 141.118 20.9123Z" fill="white"/>
<path d="M82.5713 4.91211V27.5807H93.4056L95.114 22.7053H87.8634V4.91211H82.5713Z" fill="white"/>
<path d="M61.1108 4.91211V9.8292H66.9864V27.5807H72.3201V9.8292H78.5707V4.91211H61.1108Z" fill="white"/>
<path d="M53.4017 4.91211H46.4427L38.5254 27.5807H44.5676L45.6927 23.7471C48.4429 24.5388 51.4015 24.5388 54.1517 23.7471L55.2768 27.5807H61.319L53.4017 4.91211ZM49.9014 19.7051C48.9013 19.7051 47.9429 19.58 46.9845 19.2884L49.9014 9.37083L52.8183 19.2884C51.9016 19.5384 50.9015 19.7051 49.9014 19.7051Z" fill="white"/>
<path d="M112.157 4.91211H105.198L97.2808 27.5807H103.323L104.448 23.7471C107.198 24.5388 110.157 24.5388 112.907 23.7471L114.032 27.5807H120.074L112.157 4.91211ZM108.657 19.7051C107.657 19.7051 106.698 19.58 105.74 19.2884L108.657 9.37083L111.574 19.2884C110.615 19.5384 109.657 19.7051 108.657 19.7051Z" fill="white"/>
<path d="M193.497 4.91211H186.538L178.621 27.5807H184.663L185.788 23.7471C188.539 24.5388 191.497 24.5388 194.247 23.7471L195.373 27.5807H201.415L193.497 4.91211ZM190.039 19.7051C189.039 19.7051 188.08 19.58 187.122 19.2884L190.039 9.37083L192.956 19.2884C191.997 19.5384 190.997 19.7051 190.039 19.7051Z" fill="white"/>
<defs>
<linearGradient id="paint0_linear" x1="11.8417" y1="14.7991" x2="4.70361" y2="27.1627" gradientUnits="userSpaceOnUse">
<stop stop-color="white" stop-opacity="0.4"/>
<stop offset="0.92" stop-color="white"/>
</linearGradient>
</defs>
</svg>
