<svg width="162" height="180" viewBox="0 0 162 180" fill="none" xmlns="http://www.w3.org/2000/svg">
<path d="M88.8047 173.091C88.8047 169.623 86.9492 168.01 81.8682 166.961C79.0451 166.316 78.3193 165.671 78.3193 164.783C78.3193 163.654 79.3674 163.17 81.223 163.17C83.4809 163.17 85.7393 163.896 87.8366 164.783V160.266C86.3039 159.541 84.0455 158.896 81.3841 158.896C76.3026 158.896 73.6412 161.073 73.6412 164.703C73.6412 167.607 75.0122 169.865 80.2549 170.914C83.4003 171.559 84.0455 172.043 84.0455 173.091C84.0455 174.14 83.4003 174.785 81.1418 174.785C78.561 174.785 75.4962 173.898 73.5601 172.688V177.447C75.1733 178.253 77.2706 179.06 81.1418 179.06C86.5462 179.221 88.8047 176.721 88.8047 173.091Z" fill="white"/>
<path d="M107.755 173.091C107.755 169.623 105.9 168.01 100.818 166.961C97.9952 166.316 97.2694 165.671 97.2694 164.783C97.2694 163.654 98.3181 163.17 100.173 163.17C102.432 163.17 104.69 163.896 106.787 164.783V160.266C105.255 159.541 102.996 158.896 100.334 158.896C95.2532 158.896 92.5913 161.073 92.5913 164.703C92.5913 167.607 93.9629 169.865 99.205 170.914C102.351 171.559 102.996 172.043 102.996 173.091C102.996 174.14 102.351 174.785 100.093 174.785C97.5117 174.785 94.4463 173.898 92.5107 172.688V177.447C94.124 178.253 96.2213 179.06 100.093 179.06C105.577 179.221 107.755 176.721 107.755 173.091Z" fill="white"/>
<path d="M144.217 159.3V178.9H148.411V163.898L150.186 167.931L156.074 178.9H161.316V159.3H157.122V171.964L155.59 168.253L150.831 159.3H144.217Z" fill="white"/>
<path d="M117.683 159.3H113.085V178.9H117.683V159.3Z" fill="white"/>
<path d="M38.1543 159.3V178.9H47.5102L48.9623 174.625H42.7516V159.3H38.1543Z" fill="white"/>
<path d="M19.6021 159.301V163.495H24.6835V178.901H29.2809V163.495H34.6849V159.301H19.6021Z" fill="white"/>
<path d="M12.9052 159.301H6.85587L0 178.9H5.24271L6.21068 175.594C7.33985 175.916 8.63036 176.158 9.84023 176.158C11.0501 176.158 12.3406 175.996 13.4698 175.594L14.4376 178.9H19.6804L12.9052 159.301ZM9.92087 172.045C9.03365 172.045 8.22707 171.883 7.42055 171.722L9.92087 163.172L12.4212 171.722C11.6147 171.964 10.7274 172.045 9.92087 172.045Z" fill="white"/>
<path d="M63.721 159.3H57.6714L50.8154 178.9H56.0587L57.0262 175.593C58.1555 175.915 59.4458 176.158 60.6562 176.158C61.866 176.158 63.1564 175.996 64.2857 175.593L65.2532 178.9H70.4959L63.721 159.3ZM60.6562 172.044C59.7687 172.044 58.9624 171.882 58.1555 171.721L60.6562 163.171L63.1564 171.721C62.4307 171.964 61.5432 172.044 60.6562 172.044Z" fill="white"/>
<path d="M134.133 159.3H128.084L121.228 178.9H126.47L127.438 175.593C128.568 175.915 129.858 176.158 131.068 176.158C132.358 176.158 133.568 175.996 134.697 175.593L135.665 178.9H140.908L134.133 159.3ZM131.068 172.044C130.18 172.044 129.374 171.882 128.568 171.721L131.068 163.171L133.568 171.721C132.762 171.964 131.955 172.044 131.068 172.044Z" fill="white"/>
<path d="M49.5252 68.4778C48.7183 67.5903 47.5891 67.1069 46.4599 67.268C45.4924 67.4292 44.605 68.1549 44.2017 69.0424L7.66413 142.118C6.85755 143.731 7.50286 145.586 9.11602 146.392C9.59994 146.634 10.0839 146.715 10.5678 146.715H61.4622C62.672 146.715 63.8013 146.07 64.2853 144.941C74.9319 122.841 68.3182 88.5612 49.5252 68.4778Z" fill="white"/>
<path d="M153.732 142.118C153.087 140.746 85.2549 5.08139 83.5611 1.6938C83.077 0.725911 82.1895 0.0806569 81.1414 0H81.0603C79.8505 0.0806569 78.8024 0.725911 78.1566 1.77445C59.7671 30.8916 57.6698 66.058 72.5916 95.8204L97.1113 144.94C97.6759 146.07 98.7246 146.715 100.015 146.715H150.909C152.684 146.715 154.136 145.263 154.136 143.489C154.136 143.005 153.974 142.521 153.732 142.118Z" fill="white"/>
</svg>
