<svg width="142" height="158" viewBox="0 0 142 158" fill="none" xmlns="http://www.w3.org/2000/svg">
<path d="M47.2849 59.7196C45.3675 57.6607 42.3147 57.8023 41.0367 60.4294L9.29929 123.904C8.02129 126.46 9.86728 129.371 12.7073 129.371H56.87C58.2901 129.371 59.5681 128.661 60.2779 127.241C69.721 107.574 63.97 77.6118 47.2849 59.7196Z" fill="url(#paint0_linear)"/>
<path d="M70.5009 1.99698C52.7508 30.1131 53.9579 61.2821 65.6018 84.6412C77.2463 108.001 86.2632 125.963 86.902 127.241C87.5412 128.519 88.8903 129.372 90.3104 129.372H134.472C137.313 129.372 139.159 126.39 137.881 123.904C137.881 123.904 78.4533 4.97901 76.9622 1.99698C75.6131 -0.63004 72.2762 -0.70104 70.5009 1.99698Z" fill="white"/>
<path d="M78.1697 152.59C78.1697 149.537 76.537 148.117 72.0636 147.194C69.579 146.626 68.9398 146.058 68.9398 145.276C68.9398 144.283 69.8627 143.857 71.4959 143.857C73.4837 143.857 75.4721 144.496 77.3179 145.276V141.301C75.9688 140.662 73.9809 140.094 71.6379 140.094C67.165 140.094 64.822 142.011 64.822 145.206C64.822 147.762 66.029 149.75 70.644 150.673C73.4127 151.241 73.9809 151.667 73.9809 152.59C73.9809 153.513 73.4127 154.081 71.4248 154.081C69.1529 154.081 66.4547 153.3 64.751 152.235V156.424C66.1711 157.134 68.0169 157.844 71.4248 157.844C76.1819 157.915 78.1697 155.785 78.1697 152.59Z" fill="white"/>
<path d="M126.949 140.378V157.702H130.641V144.496L132.203 147.975L137.386 157.702H142.001V140.378H138.309V151.525L136.96 148.33L132.771 140.378H126.949Z" fill="white"/>
<path d="M103.588 140.378H99.5415V157.631H103.588V140.378Z" fill="white"/>
<path d="M94.8563 152.59C94.8563 149.537 93.2231 148.117 88.7501 147.194C86.2651 146.626 85.6263 146.058 85.6263 145.276C85.6263 144.283 86.5492 143.857 88.1824 143.857C90.1703 143.857 92.1581 144.496 94.0044 145.276V141.301C92.6553 140.662 90.6675 140.094 88.3245 140.094C83.8511 140.094 81.508 142.011 81.508 145.206C81.508 147.762 82.7151 149.75 87.33 150.673C90.0992 151.241 90.6675 151.667 90.6675 152.59C90.6675 153.513 90.0992 154.081 88.1114 154.081C85.8394 154.081 83.1412 153.3 81.437 152.235V156.424C82.8571 157.134 84.7034 157.844 88.1114 157.844C92.9394 157.915 94.8563 155.785 94.8563 152.59Z" fill="white"/>
<path d="M33.5825 140.378V157.702H41.8183L43.0963 153.939H37.6295V140.378H33.5825Z" fill="white"/>
<path d="M17.2524 140.375V144.139H21.7255V157.7H25.7725V144.139H30.5295V140.375H17.2524Z" fill="white"/>
<path d="M11.3601 140.375H6.03504L0 157.628H4.61503L5.46709 154.718C6.46112 155.002 7.5971 155.214 8.66211 155.214C9.72712 155.214 10.8632 155.073 11.8571 154.718L12.7091 157.628H17.3241L11.3601 140.375ZM8.73309 151.664C7.95211 151.664 7.2421 151.523 6.5321 151.381L8.73309 143.854L10.9341 151.381C10.2241 151.523 9.4431 151.664 8.73309 151.664Z" fill="white"/>
<path d="M56.0908 140.378H50.7656L44.7305 157.631H49.3454L50.1978 154.72C51.1917 155.004 52.3277 155.217 53.3927 155.217C54.4576 155.217 55.5936 155.075 56.5875 154.72L57.4399 157.631H62.0549L56.0908 140.378ZM53.3927 151.667C52.6118 151.667 51.9015 151.525 51.1917 151.383L53.3927 143.857L55.5936 151.383C54.9548 151.525 54.174 151.667 53.3927 151.667Z" fill="white"/>
<path d="M118.074 140.378H112.748L106.714 157.631H111.329L112.181 154.72C113.175 155.004 114.311 155.217 115.376 155.217C116.512 155.217 117.577 155.075 118.57 154.72L119.423 157.631H124.038L118.074 140.378ZM115.376 151.667C114.595 151.667 113.884 151.525 113.175 151.383L115.376 143.857L117.577 151.383C116.867 151.525 116.156 151.667 115.376 151.667Z" fill="white"/>
<defs>
<linearGradient id="paint0_linear" x1="64.6438" y1="69.5336" x2="31.15" y2="127.547" gradientUnits="userSpaceOnUse">
<stop stop-color="white" stop-opacity="0.4"/>
<stop offset="0.9228" stop-color="white"/>
</linearGradient>
</defs>
</svg>
