<svg width="162" height="180" viewBox="0 0 162 180" fill="none" xmlns="http://www.w3.org/2000/svg">
<path d="M88.7216 173.091C88.7216 169.623 86.8666 168.01 81.7851 166.961C78.962 166.316 78.2362 165.671 78.2362 164.784C78.2362 163.655 79.2849 163.171 81.1399 163.171C83.3983 163.171 85.6568 163.896 87.7536 164.784V160.267C86.2214 159.541 83.963 158.896 81.301 158.896C76.2195 158.896 73.5581 161.073 73.5581 164.703C73.5581 167.607 74.9291 169.865 80.1718 170.914C83.3178 171.559 83.963 172.043 83.963 173.091C83.963 174.14 83.3178 174.785 81.0593 174.785C78.478 174.785 75.4131 173.898 73.4775 172.688V177.447C75.0908 178.254 77.1876 179.06 81.0593 179.06C86.5438 179.222 88.7216 176.721 88.7216 173.091Z" fill="#7A869A"/>
<path d="M144.218 159.3V178.9H148.412V163.898L150.186 167.931L156.074 178.9H161.317V159.3H157.123V171.964L155.591 168.254L150.831 159.3H144.218Z" fill="#7A869A"/>
<path d="M117.601 159.3H113.003V178.9H117.601V159.3Z" fill="#7A869A"/>
<path d="M107.761 173.091C107.761 169.623 105.906 168.01 100.824 166.961C98.0011 166.316 97.2753 165.671 97.2753 164.784C97.2753 163.655 98.3239 163.171 100.179 163.171C102.437 163.171 104.695 163.896 106.793 164.784V160.267C105.26 159.541 103.002 158.896 100.34 158.896C95.2585 158.896 92.5972 161.073 92.5972 164.703C92.5972 167.607 93.9682 169.865 99.2109 170.914C102.356 171.559 103.002 172.043 103.002 173.091C103.002 174.14 102.356 174.785 100.098 174.785C97.517 174.785 94.4522 173.898 92.5166 172.688V177.447C94.1293 178.254 96.2266 179.06 100.098 179.06C105.583 179.222 107.761 176.721 107.761 173.091Z" fill="#7A869A"/>
<path d="M38.0723 159.3V178.9H47.5091L48.9613 174.626H42.6698V159.3H38.0723Z" fill="#7A869A"/>
<path d="M19.5195 159.296V163.491H24.6009V178.896H29.1984V163.491H34.6831V159.296H19.5195Z" fill="#7A869A"/>
<path d="M12.9051 159.295H6.85587L0 178.895H5.24271L6.21062 175.588C7.3398 175.91 8.6303 176.153 9.84017 176.153C11.05 176.153 12.3405 175.991 13.4697 175.588L14.4376 178.895H19.6803L12.9051 159.295ZM9.84017 172.039C8.95296 172.039 8.14638 171.878 7.3398 171.716L9.84017 163.167L12.3405 171.716C11.534 171.959 10.7274 172.039 9.84017 172.039Z" fill="#7A869A"/>
<path d="M63.722 159.3H57.6724L50.8164 178.9H56.0591L57.0272 175.593C58.1564 175.915 59.4468 176.158 60.6566 176.158C61.9476 176.158 63.1574 175.996 64.2866 175.593L65.2542 178.9H70.4969L63.722 159.3ZM60.6566 172.044C59.7697 172.044 58.9633 171.882 58.1564 171.721L60.6566 163.171L63.1574 171.721C62.3505 171.964 61.5441 172.044 60.6566 172.044Z" fill="#7A869A"/>
<path d="M134.052 159.3H128.002L121.146 178.9H126.389L127.357 175.593C128.486 175.915 129.777 176.158 130.987 176.158C132.277 176.158 133.487 175.996 134.616 175.593L135.584 178.9H140.826L134.052 159.3ZM131.067 172.044C130.18 172.044 129.373 171.882 128.567 171.721L131.067 163.171L133.568 171.721C132.761 171.964 131.954 172.044 131.067 172.044Z" fill="#7A869A"/>
<path d="M49.4425 68.4778C48.6362 67.5903 47.5069 67.1069 46.3777 67.268C45.4096 67.4292 44.5226 68.1549 44.1193 69.0424L7.58162 142.118C6.77504 143.731 7.42029 145.586 9.03345 146.392C9.51738 146.634 10.0013 146.715 10.4852 146.715H61.3801C62.5899 146.715 63.7191 146.07 64.2031 144.941C74.9303 122.841 68.3166 88.5612 49.4425 68.4778Z" fill="#7A869A"/>
<path d="M153.732 142.118C153.087 140.746 85.2549 5.08139 83.5611 1.6938C83.077 0.725911 82.1895 0.0806569 81.1414 0H81.0603C79.8505 0.0806569 78.8024 0.725911 78.1566 1.77445C59.7671 30.8916 57.6698 66.058 72.5916 95.8204L97.1113 144.94C97.6759 146.07 98.7246 146.715 100.015 146.715H150.909C152.684 146.715 154.136 145.263 154.136 143.489C154.055 143.005 153.974 142.521 153.732 142.118Z" fill="#7A869A"/>
</svg>
