<svg width="20" height="21" viewBox="0 0 20 21" fill="none" xmlns="http://www.w3.org/2000/svg">
<path d="M18.6083 1.99305C16.7796 0.164271 13.8147 0.164271 11.9859 1.99301L8.07211 5.90678C6.18047 7.7985 6.35561 10.8126 8.07211 12.5292C8.35956 12.8167 8.6776 13.051 9.01343 13.2435L9.72774 12.5292C10.1963 12.0606 10.0313 11.5129 10.0229 11.1176C9.92009 11.0447 9.82007 10.9659 9.72774 10.8736C8.84688 9.99281 8.80727 8.48285 9.72774 7.56238C9.86444 7.42568 13.5585 3.73164 13.6414 3.64868C14.5545 2.73558 16.0396 2.73558 16.9527 3.64868C17.8658 4.56178 17.8658 6.0468 16.9527 6.9599L14.3657 9.54685C14.4405 9.96077 14.8895 10.9413 14.6585 12.5587C14.6698 12.5476 14.6833 12.5405 14.6946 12.5293L18.6083 8.61549C20.437 6.78671 20.437 3.82182 18.6083 1.99305Z" fill="#C63939"/>
<path d="M12.211 8.3901C11.9236 8.10265 11.6055 7.86828 11.2698 7.67578L10.5554 8.3901C10.0869 8.85861 10.2518 9.40637 10.2602 9.80164C10.3631 9.87453 10.4631 9.95332 10.5554 10.0457C11.4363 10.9265 11.4759 12.4364 10.5554 13.3569C10.4184 13.4939 6.41841 17.4939 6.33838 17.5739C5.42528 18.487 3.94025 18.487 3.02715 17.5739C2.11405 16.6608 2.11405 15.1758 3.02715 14.2627L5.91747 11.3724C5.84267 10.9585 5.39367 9.97798 5.62464 8.36056C5.61337 8.37164 5.59979 8.37886 5.58855 8.39006L1.37152 12.6072C-0.457174 14.4359 -0.457174 17.4008 1.37152 19.2296C3.2003 21.0583 6.16515 21.0583 7.99393 19.2296L12.211 15.0125C14.0676 13.156 13.9661 10.1452 12.211 8.3901Z" fill="#C63939"/>
</svg>
