<svg width="24" height="24" viewBox="0 0 24 24" fill="none" xmlns="http://www.w3.org/2000/svg">
<path d="M20.6083 3.37159C18.7796 1.54281 15.8147 1.54281 13.9859 3.37155L10.0721 7.28532C8.18047 9.17704 8.35561 12.1912 10.0721 13.9078C10.3596 14.1952 10.6776 14.4296 11.0134 14.6221L11.7277 13.9078C12.1963 13.4392 12.0313 12.8914 12.0229 12.4961C11.9201 12.4233 11.8201 12.3445 11.7277 12.2521C10.8469 11.3713 10.8073 9.86139 11.7277 8.94092C11.8644 8.80422 15.5585 5.11018 15.6414 5.02722C16.5545 4.11412 18.0396 4.11412 18.9527 5.02722C19.8658 5.94032 19.8658 7.42534 18.9527 8.33844L16.3657 10.9254C16.4405 11.3393 16.8895 12.3198 16.6585 13.9372C16.6698 13.9261 16.6833 13.919 16.6946 13.9078L20.6083 9.99403C22.437 8.16525 22.437 5.20036 20.6083 3.37159Z" fill="#F5E7D3"/>
<path d="M14.211 9.76865C13.9236 9.48121 13.6055 9.24684 13.2698 9.05434L12.5554 9.76865C12.0869 10.2372 12.2518 10.7849 12.2602 11.1802C12.3631 11.2531 12.4631 11.3319 12.5554 11.4242C13.4363 12.3051 13.4759 13.815 12.5554 14.7354C12.4184 14.8724 8.41841 18.8725 8.33838 18.9525C7.42528 19.8656 5.94025 19.8656 5.02715 18.9525C4.11405 18.0394 4.11405 16.5544 5.02715 15.6413L7.91747 12.7509C7.84267 12.337 7.39367 11.3565 7.62464 9.73911C7.61337 9.7502 7.59979 9.75741 7.58855 9.76861L3.37152 13.9857C1.54283 15.8145 1.54283 18.7794 3.37152 20.6082C5.2003 22.4369 8.16515 22.4369 9.99393 20.6082L14.211 16.3911C16.0676 14.5345 15.9661 11.5237 14.211 9.76865Z" fill="#F5E7D3"/>
</svg>
