<svg width="40" height="40" viewBox="0 0 40 40" fill="none" xmlns="http://www.w3.org/2000/svg">
<rect width="40" height="40" fill="#C63939"/>
<path d="M25.9393 12.0757L23.3777 14.0067L24.2991 17.0526L21.6362 15.251L18.9733 17.0526L19.8947 14.0067L17.3331 12.0757L20.5629 11.9861L21.6362 9L22.7094 11.9861L25.9393 12.0757ZM29.4831 18.9538L27.8226 20.198L28.42 22.1688L26.6987 21.0042L24.9774 22.1688L25.5748 20.198L23.9143 18.9538L26.0001 18.904L26.6987 16.963L27.3973 18.904L29.4831 18.9538ZM27.1746 23.8809C28.015 23.8012 28.9161 24.9758 28.3795 25.7223C28.0555 26.1702 27.7112 26.5883 27.286 26.9864C23.3271 30.8983 16.9179 30.8983 12.9692 26.9864C9.01028 23.1045 9.01028 16.7938 12.9692 12.9118C13.3742 12.5137 13.7994 12.1553 14.255 11.8368C15.0144 11.3093 16.2092 12.1952 16.1282 13.0213C15.8548 15.8681 16.8268 18.8244 19.0543 21.0042C21.2717 23.1941 24.2687 24.1496 27.1746 23.8809ZM25.5141 25.8915C22.6487 25.7323 19.8137 24.5677 17.6166 22.4376C15.4194 20.2577 14.2449 17.4607 14.0829 14.6537C11.2378 17.7792 11.3492 22.5769 14.3968 25.583C17.4546 28.579 22.3348 28.6885 25.5141 25.8915Z" fill="#F5E7D3"/>
</svg>
