<svg width="22" height="24" viewBox="0 0 22 24" fill="none" xmlns="http://www.w3.org/2000/svg">
<path d="M22 23.9999L16.225 18.8267L16.918 20.896H2.75C2.02065 20.896 1.32118 20.6235 0.805456 20.1384C0.289731 19.6533 0 18.9954 0 18.3094V2.78995C0 2.10394 0.289731 1.44604 0.805456 0.96096C1.32118 0.475883 2.02065 0.203369 2.75 0.203369H19.25C19.9793 0.203369 20.6788 0.475883 21.1945 0.96096C21.7103 1.44604 22 2.10394 22 2.78995V23.9999ZM11 6.20423C8.052 6.20423 5.984 7.39405 5.984 7.39405C7.117 6.44219 9.097 5.89384 9.097 5.89384L8.91 5.71795C7.051 5.74899 5.368 6.95951 5.368 6.95951C3.476 10.6738 3.597 13.8812 3.597 13.8812C5.137 15.7539 7.425 15.6194 7.425 15.6194L8.206 14.6882C6.831 14.4088 5.962 13.2604 5.962 13.2604C5.962 13.2604 8.03 14.5847 11 14.5847C13.97 14.5847 16.038 13.2604 16.038 13.2604C16.038 13.2604 15.169 14.4088 13.794 14.6882L14.575 15.6194C14.575 15.6194 16.863 15.7539 18.403 13.8812C18.403 13.8812 18.524 10.6738 16.632 6.95951C16.632 6.95951 14.949 5.74899 13.09 5.71795L12.903 5.89384C12.903 5.89384 14.883 6.44219 16.016 7.39405C16.016 7.39405 13.948 6.20423 11 6.20423ZM8.723 10.1255C9.438 10.1255 10.021 10.7152 10.01 11.4395C10.01 12.1534 9.438 12.7534 8.723 12.7534C8.019 12.7534 7.447 12.1534 7.447 11.4395C7.447 10.7152 8.008 10.1255 8.723 10.1255ZM13.31 10.1255C14.025 10.1255 14.597 10.7152 14.597 11.4395C14.597 12.1534 14.025 12.7534 13.31 12.7534C12.606 12.7534 12.034 12.1534 12.034 11.4395C12.034 10.7152 12.595 10.1255 13.31 10.1255Z" fill="#F5E7D3"/>
</svg>
