<svg width="22" height="24" viewBox="0 0 22 24" fill="none" xmlns="http://www.w3.org/2000/svg">
<path d="M22 23.7965L16.225 18.6234L16.918 20.6926H2.75C2.02065 20.6926 1.32118 20.4201 0.805456 19.935C0.289731 19.4499 0 18.792 0 18.106V2.58658C0 1.90057 0.289731 1.24267 0.805456 0.757591C1.32118 0.272514 2.02065 0 2.75 0H19.25C19.9793 0 20.6788 0.272514 21.1945 0.757591C21.7103 1.24267 22 1.90057 22 2.58658V23.7965ZM11 6.00086C8.052 6.00086 5.984 7.19068 5.984 7.19068C7.117 6.23882 9.097 5.69047 9.097 5.69047L8.91 5.51458C7.051 5.54562 5.368 6.75614 5.368 6.75614C3.476 10.4705 3.597 13.6778 3.597 13.6778C5.137 15.5505 7.425 15.416 7.425 15.416L8.206 14.4848C6.831 14.2055 5.962 13.057 5.962 13.057C5.962 13.057 8.03 14.3814 11 14.3814C13.97 14.3814 16.038 13.057 16.038 13.057C16.038 13.057 15.169 14.2055 13.794 14.4848L14.575 15.416C14.575 15.416 16.863 15.5505 18.403 13.6778C18.403 13.6778 18.524 10.4705 16.632 6.75614C16.632 6.75614 14.949 5.54562 13.09 5.51458L12.903 5.69047C12.903 5.69047 14.883 6.23882 16.016 7.19068C16.016 7.19068 13.948 6.00086 11 6.00086ZM8.723 9.92211C9.438 9.92211 10.021 10.5118 10.01 11.2361C10.01 11.95 9.438 12.5501 8.723 12.5501C8.019 12.5501 7.447 11.95 7.447 11.2361C7.447 10.5118 8.008 9.92211 8.723 9.92211ZM13.31 9.92211C14.025 9.92211 14.597 10.5118 14.597 11.2361C14.597 11.95 14.025 12.5501 13.31 12.5501C12.606 12.5501 12.034 11.95 12.034 11.2361C12.034 10.5118 12.595 9.92211 13.31 9.92211Z" fill="#C63939"/>
</svg>
