<svg width="24" height="24" viewBox="0 0 24 24" fill="none" xmlns="http://www.w3.org/2000/svg">
<path d="M23 23.7965L17.225 18.6234L17.918 20.6926H3.75C3.02065 20.6926 2.32118 20.4201 1.80546 19.935C1.28973 19.4499 1 18.792 1 18.106V2.58658C1 1.90057 1.28973 1.24267 1.80546 0.757591C2.32118 0.272514 3.02065 0 3.75 0H20.25C20.9793 0 21.6788 0.272514 22.1945 0.757591C22.7103 1.24267 23 1.90057 23 2.58658V23.7965ZM12 6.00086C9.052 6.00086 6.984 7.19068 6.984 7.19068C8.117 6.23882 10.097 5.69047 10.097 5.69047L9.91 5.51458C8.051 5.54562 6.368 6.75614 6.368 6.75614C4.476 10.4705 4.597 13.6778 4.597 13.6778C6.137 15.5505 8.425 15.416 8.425 15.416L9.206 14.4848C7.831 14.2055 6.962 13.057 6.962 13.057C6.962 13.057 9.03 14.3814 12 14.3814C14.97 14.3814 17.038 13.057 17.038 13.057C17.038 13.057 16.169 14.2055 14.794 14.4848L15.575 15.416C15.575 15.416 17.863 15.5505 19.403 13.6778C19.403 13.6778 19.524 10.4705 17.632 6.75614C17.632 6.75614 15.949 5.54562 14.09 5.51458L13.903 5.69047C13.903 5.69047 15.883 6.23882 17.016 7.19068C17.016 7.19068 14.948 6.00086 12 6.00086ZM9.723 9.92211C10.438 9.92211 11.021 10.5118 11.01 11.2361C11.01 11.95 10.438 12.5501 9.723 12.5501C9.019 12.5501 8.447 11.95 8.447 11.2361C8.447 10.5118 9.008 9.92211 9.723 9.92211ZM14.31 9.92211C15.025 9.92211 15.597 10.5118 15.597 11.2361C15.597 11.95 15.025 12.5501 14.31 12.5501C13.606 12.5501 13.034 11.95 13.034 11.2361C13.034 10.5118 13.595 9.92211 14.31 9.92211Z" fill="#181818"/>
</svg>
