<svg width="193" height="76" viewBox="0 0 193 76" fill="none" xmlns="http://www.w3.org/2000/svg">
<mask id="mask0" mask-type="alpha" maskUnits="userSpaceOnUse" x="0" y="0" width="193" height="76">
<path d="M4.3445 53.7906L35.5 71.7788L37.1139 68.9835L5.95843 50.9953L4.3445 53.7906Z" fill="#181818"/>
<path d="M31.2852 7.0487L62.4407 25.0369L64.0546 22.2415L32.8991 4.25338L31.2852 7.0487Z" fill="#181818"/>
<path d="M30.1397 37.6256L61.2952 55.6138L62.9091 52.8184L31.7536 34.8303L30.1397 37.6256Z" fill="#181818"/>
<path d="M4.35336 22.2301L5.96729 25.0254L37.1228 7.03723L35.5089 4.2419L4.35336 22.2301Z" fill="#181818"/>
<path d="M31.4056 38.253L33.0195 41.0483L64.175 23.0602L62.5611 20.2649L31.4056 38.253Z" fill="#181818"/>
<path d="M8.80891 20.0193H5.58105V55.9956H8.80891V20.0193Z" fill="#181818"/>
<path d="M33.4162 67.9709L34.8262 70.4131L61.9228 54.7684L60.5128 52.3263L33.4162 67.9709Z" fill="#181818"/>
<path d="M67.1908 57.1085C66.5139 58.2819 65.5042 59.2283 64.2894 59.8279C63.0746 60.4276 61.7092 60.6536 60.3659 60.4773C59.0226 60.3011 57.7618 59.7305 56.7428 58.8378C55.7238 57.9451 54.9925 56.7703 54.6413 55.462C54.2902 54.1537 54.3349 52.7707 54.7699 51.4878C55.2049 50.2049 56.0106 49.0798 57.0851 48.2548C58.1596 47.4297 59.4547 46.9418 60.8066 46.8527C62.1584 46.7636 63.5064 47.0774 64.6799 47.7542C66.2523 48.6629 67.3998 50.1583 67.8706 51.9121C68.3413 53.6658 68.0968 55.5347 67.1908 57.1085Z" fill="#181818"/>
<path d="M12.8712 25.7359C12.2162 26.9093 11.2391 27.8557 10.0634 28.4554C8.88778 29.055 7.56643 29.281 6.26648 29.1048C4.96652 28.9286 3.74634 28.358 2.76024 27.4653C1.77414 26.5725 1.06642 25.3978 0.726569 24.0895C0.386719 22.7812 0.430007 21.3981 0.850959 20.1152C1.27191 18.8324 2.05162 17.7073 3.09148 16.8822C4.13134 16.0572 5.38465 15.5693 6.69291 15.4802C8.00118 15.3911 9.30563 15.7048 10.4413 16.3817C11.963 17.2904 13.0735 18.7857 13.529 20.5395C13.9846 22.2933 13.748 24.1622 12.8712 25.7359Z" fill="#181818"/>
<path d="M1.41635 57.1118C0.739467 55.9381 0.425738 54.59 0.514833 53.238C0.603929 51.886 1.09185 50.5907 1.91688 49.5161C2.74192 48.4414 3.86702 47.6356 5.1499 47.2006C6.43278 46.7656 7.81582 46.7208 9.12412 47.072C10.4324 47.4233 11.6072 48.1547 12.4999 49.1738C13.3927 50.1928 13.9632 51.4538 14.1395 52.7973C14.3157 54.1407 14.0897 55.5063 13.49 56.7213C12.8904 57.9362 11.944 58.9461 10.7706 59.623C9.19657 60.5279 7.32808 60.7718 5.57465 60.301C3.82121 59.8303 2.32586 58.6835 1.41635 57.1118Z" fill="#181818"/>
<path d="M55.3234 25.7391C54.6466 24.5654 54.3329 23.2174 54.4221 21.8653C54.5112 20.5133 54.9991 19.2181 55.8242 18.1435C56.6492 17.0689 57.7743 16.2631 59.0571 15.828C60.34 15.393 61.723 15.3483 63.0312 15.6995C64.3395 16.0506 65.5143 16.782 66.407 17.8011C67.2997 18.8201 67.8703 20.0811 68.0466 21.4245C68.2229 22.7679 67.997 24.1335 67.3975 25.3485C66.7979 26.5635 65.8516 27.5733 64.6783 28.2504C63.1042 29.1554 61.2356 29.3992 59.482 28.9285C57.7285 28.4578 56.233 27.3109 55.3234 25.7391Z" fill="#181818"/>
<path d="M34.3025 75.9997C32.9479 75.9997 31.6237 75.598 30.4974 74.8454C29.3712 74.0929 28.4933 73.0232 27.975 71.7718C27.4566 70.5203 27.321 69.1432 27.5852 67.8147C27.8495 66.4862 28.5018 65.2658 29.4596 64.308C30.4174 63.3502 31.6378 62.6979 32.9663 62.4336C34.2949 62.1693 35.6719 62.305 36.9234 62.8233C38.1748 63.3417 39.2445 64.2195 39.9971 65.3458C40.7496 66.4721 41.1513 67.7963 41.1513 69.1508C41.1521 70.0505 40.9756 70.9414 40.6317 71.7728C40.2878 72.6041 39.7833 73.3594 39.1472 73.9956C38.511 74.6317 37.7557 75.1362 36.9244 75.4801C36.0931 75.824 35.2021 76.0005 34.3025 75.9997Z" fill="#181818"/>
<path d="M34.3025 13.6977C32.9479 13.6977 31.6237 13.296 30.4974 12.5434C29.3712 11.7909 28.4933 10.7212 27.975 9.46977C27.4566 8.21831 27.321 6.84124 27.5852 5.5127C27.8495 4.18415 28.5018 2.96381 29.4596 2.00598C30.4174 1.04815 31.6378 0.395865 32.9663 0.131602C34.2949 -0.132662 35.6719 0.0029673 36.9234 0.521339C38.1748 1.03971 39.2445 1.91754 39.9971 3.04383C40.7496 4.17011 41.1513 5.49427 41.1513 6.84884C41.1521 7.74848 40.9756 8.63945 40.6317 9.47077C40.2878 10.3021 39.7833 11.0574 39.1472 11.6936C38.511 12.3297 37.7557 12.8342 36.9244 13.178C36.0931 13.5219 35.2021 13.6985 34.3025 13.6977Z" fill="#181818"/>
<path d="M34.3025 44.6271C32.9479 44.6271 31.6237 44.2254 30.4974 43.4729C29.3712 42.7203 28.4933 41.6507 27.975 40.3992C27.4566 39.1478 27.321 37.7707 27.5852 36.4421C27.8495 35.1136 28.5018 33.8933 29.4596 32.9354C30.4174 31.9776 31.6378 31.3253 32.9663 31.061C34.2949 30.7968 35.6719 30.9324 36.9234 31.4508C38.1748 31.9692 39.2445 32.847 39.9971 33.9733C40.7496 35.0996 41.1513 36.4237 41.1513 37.7783C41.1521 38.6779 40.9756 39.5689 40.6317 40.4002C40.2878 41.2315 39.7833 41.9869 39.1472 42.623C38.511 43.2592 37.7557 43.7636 36.9244 44.1075C36.0931 44.4514 35.2021 44.628 34.3025 44.6271Z" fill="#181818"/>
<path d="M87.7742 51.8888C88.1029 51.5707 88.2938 51.1465 88.2938 50.6269C88.2938 49.4709 87.3712 48.6756 86.0774 48.6756H84.9746H83.5959V55.6747H84.2959H86.7137C88.0711 55.6747 89.0149 54.8263 89.0149 53.6174C89.0149 52.769 88.5483 52.1645 87.7742 51.8888ZM85.9608 49.9057C86.5546 49.9057 86.8728 50.2133 86.8728 50.7011C86.8728 51.1783 86.5546 51.507 85.9608 51.507H84.9746V49.9057H85.9608ZM86.6077 54.4445H84.9746V52.6842H86.6077C87.2333 52.6842 87.6045 53.0235 87.6045 53.5643C87.6045 54.1158 87.2333 54.4445 86.6077 54.4445Z" fill="#181818"/>
<path d="M97.1416 55.6747H98.6792L95.5615 48.5483H95.0843L91.9559 55.6747H93.4936L93.8859 54.7627H96.7492L97.1416 55.6747ZM96.2402 53.5855H94.395L95.3176 51.2313L96.2402 53.5855Z" fill="#181818"/>
<path d="M106.708 48.6756V52.8432L102.647 48.5483H102.18V55.6747H103.612V51.4752L107.663 55.8019H108.14V48.6756H106.708Z" fill="#181818"/>
<path d="M115.626 48.5483C113.515 48.5483 111.882 50.1178 111.882 52.1751C111.882 54.2324 113.526 55.8019 115.626 55.8019C117.121 55.8019 118.351 55.0066 118.966 53.9037V51.8358H115.605V53.0765H117.535V53.6492C117.153 54.1794 116.506 54.5188 115.689 54.5188C114.279 54.5188 113.356 53.5325 113.356 52.1751C113.356 50.8389 114.247 49.8739 115.605 49.8739C116.463 49.8739 117.089 50.2557 117.556 50.9026L118.574 50.0648C117.906 49.1104 116.877 48.5483 115.626 48.5483Z" fill="#181818"/>
<path d="M127.167 55.6747H128.704L125.587 48.5483H125.11L121.981 55.6747H123.519L123.911 54.7627H126.774L127.167 55.6747ZM126.265 53.5855H124.42L125.343 51.2313L126.265 53.5855Z" fill="#181818"/>
<path d="M133.637 48.6756H132.205V55.6747H136.702V54.3809H133.637V48.6756Z" fill="#181818"/>
<path d="M143.465 48.5483C141.408 48.5483 139.753 50.1178 139.753 52.1751C139.753 54.2324 141.408 55.8019 143.465 55.8019C145.522 55.8019 147.198 54.2324 147.198 52.1751C147.198 50.1178 145.522 48.5483 143.465 48.5483ZM143.476 49.8739C144.759 49.8739 145.724 50.8283 145.724 52.1751C145.724 53.5325 144.759 54.4763 143.476 54.4763C142.171 54.4763 141.228 53.5325 141.228 52.1751C141.228 50.8283 142.171 49.8739 143.476 49.8739Z" fill="#181818"/>
<path d="M156.862 55.6747L154.879 52.9175C155.632 52.5463 156.109 51.8358 156.109 50.9344C156.109 49.5664 155.059 48.6756 153.585 48.6756H150.955V55.6747H152.387V53.2038H153.437L155.25 55.6747H156.862ZM152.387 49.9375H153.585C154.253 49.9375 154.646 50.3511 154.646 50.9344C154.646 51.5389 154.253 51.9418 153.585 51.9418H152.387V49.9375Z" fill="#181818"/>
<path d="M164.992 48.6756H160.284V55.6747H165.119V54.3809H161.715V52.6099H164.123V51.3904H161.715V49.9694H164.992V48.6756Z" fill="#181818"/>
<path d="M91.7267 20.9021C86.3448 20.9021 82.209 24.8259 82.209 29.9691C82.209 35.1389 86.3713 39.0361 91.7267 39.0361C95.6239 39.0361 98.7522 36.9682 100.316 34.1845V28.67H91.6736V32.5938H95.7564V33.4156C94.9081 34.3966 93.5825 34.9798 91.9122 34.9798C88.7839 34.9798 86.875 32.9384 86.875 29.9691C86.875 27.0793 88.6778 25.091 91.6471 25.091C93.6355 25.091 94.9876 25.9924 96.0746 27.5035L99.256 24.7993C97.5592 22.3073 94.9611 20.9021 91.7267 20.9021Z" fill="#181818"/>
<path d="M110.154 25.25C108.802 25.25 107.635 25.8333 106.814 26.8673V25.4621H102.651V38.718H107.211V32.6733C107.211 30.3668 108.351 29.4919 110.366 29.4919H111.453V25.4621C111.082 25.3296 110.658 25.25 110.154 25.25Z" fill="#181818"/>
<path d="M118.969 25.144C116.504 25.144 114.701 26.0454 112.978 27.7952L115.099 30.6849C116.239 29.6775 117.14 29.0677 118.413 29.0677C119.844 29.0677 120.428 29.81 120.428 30.7645V30.9766H117.644C114.462 30.9766 112.448 32.4347 112.448 34.9268C112.448 37.1273 114.012 39.0361 117.008 39.0361C118.598 39.0361 119.897 38.5059 120.825 37.631V38.718H124.988V31.0296C124.988 27.1059 122.575 25.144 118.969 25.144ZM118.413 35.8017C117.538 35.8017 117.061 35.404 117.061 34.7677C117.061 34.1314 117.511 33.7603 118.28 33.7603H120.428V33.8663C120.428 35.0859 119.553 35.8017 118.413 35.8017Z" fill="#181818"/>
<path d="M135.796 25.144C134.099 25.144 132.827 25.7273 132.005 26.8407V25.4621H127.843V43.49H132.403V37.8166C133.224 38.5854 134.364 39.0361 135.796 39.0361C139.508 39.0361 142.159 36.1198 142.159 32.0635C142.159 28.0073 139.508 25.144 135.796 25.144ZM134.895 34.9003C133.596 34.9003 132.323 33.9724 132.323 32.0635C132.323 30.1282 133.622 29.2798 134.895 29.2798C136.247 29.2798 137.493 30.2342 137.493 32.09C137.493 33.9459 136.22 34.9003 134.895 34.9003Z" fill="#181818"/>
<path d="M152.471 25.144C151.092 25.144 149.899 25.6212 149.024 26.39V18.8342H144.464V38.718H149.024V31.2152C149.024 30.0221 149.819 29.2533 150.933 29.2533C152.046 29.2533 152.868 30.0221 152.868 31.2152V38.718H157.428V30.5524C157.428 27.2914 155.413 25.144 152.471 25.144Z" fill="#181818"/>
<path d="M184.727 40.998C180.485 40.998 177.728 39.6459 175.448 36.7296C177.33 35.0859 178.523 32.6998 178.523 29.9691C178.523 24.8259 174.281 20.9021 169.058 20.9021C163.836 20.9021 159.647 24.8259 159.647 29.9691C159.647 35.1389 163.836 39.0361 169.058 39.0361C169.96 39.0361 170.835 38.93 171.657 38.6914C174.599 42.9598 179.053 44.8686 183.799 44.8686C185.177 44.8686 186.291 44.7096 187.086 44.4975V40.9184C186.105 40.9714 185.284 40.998 184.727 40.998ZM164.313 29.9691C164.313 27.0528 166.275 25.091 169.085 25.091C171.789 25.091 173.857 27.0528 173.857 29.9691C173.857 32.9384 171.789 34.8473 169.085 34.8473C166.275 34.8473 164.313 32.9384 164.313 29.9691Z" fill="#181818"/>
<path d="M185.691 21.2203H181.131V38.718H192.929V34.6086H185.691V21.2203Z" fill="#181818"/>
</mask>
<g mask="url(#mask0)">
<rect x="-58.113" y="-20.5203" width="294.172" height="121.65" fill="#F5E7D3"/>
</g>
</svg>
