<svg width="192" height="70" viewBox="0 0 192 70" fill="none" xmlns="http://www.w3.org/2000/svg">
<mask id="mask0" mask-type="alpha" maskUnits="userSpaceOnUse" x="14" y="0" width="165" height="70">
<path d="M17.0929 51.7091L19.6548 53.1882L48.1953 3.75608L45.6334 2.27692L17.0929 51.7091Z" fill="#181818"/>
<path d="M73.5864 47.7607H16.5054V50.719H73.5864V47.7607Z" fill="#181818"/>
<path d="M17.6348 49.4225L46.186 65.907L47.6652 63.3451L19.114 46.8606L17.6348 49.4225Z" fill="#181818"/>
<path d="M42.4376 6.45981L70.9888 22.9443L72.4679 20.3824L43.9167 3.89792L42.4376 6.45981Z" fill="#181818"/>
<path d="M17.6424 20.3707L19.1216 22.9326L47.6728 6.44809L46.1936 3.8862L17.6424 20.3707Z" fill="#181818"/>
<path d="M41.9214 3.7573L70.4619 53.1895L73.0238 51.7103L44.4833 2.27815L41.9214 3.7573Z" fill="#181818"/>
<path d="M21.7269 18.4092H18.7686V51.3782H21.7269V18.4092Z" fill="#181818"/>
<path d="M71.3416 18.4092H68.3833V51.3782H71.3416V18.4092Z" fill="#181818"/>
<path d="M44.3906 62.4177L45.6826 64.6555L70.5144 50.3184L69.2224 48.0806L44.3906 62.4177Z" fill="#181818"/>
<path d="M75.2617 52.3412C73.5508 55.3173 69.7371 56.3331 66.761 54.6223C63.7849 52.9114 62.7691 49.0977 64.4799 46.1216C66.1907 43.1455 70.0044 42.1297 72.9806 43.8405C75.9745 45.5691 76.9903 49.365 75.2617 52.3412Z" fill="#181818"/>
<path d="M25.6122 23.6663C23.9014 26.6425 20.0877 27.6583 17.1116 25.9475C14.1355 24.2366 13.1196 20.4229 14.8305 17.4468C16.5413 14.4707 20.355 13.4549 23.3311 15.1657C26.3073 16.8943 27.3231 20.6902 25.6122 23.6663Z" fill="#181818"/>
<path d="M14.8481 52.3412C13.1372 49.365 14.153 45.5691 17.1292 43.8405C20.1053 42.1297 23.9012 43.1455 25.6298 46.1216C27.3407 49.0977 26.3248 52.8936 23.3487 54.6223C20.3548 56.3331 16.5589 55.3173 14.8481 52.3412Z" fill="#181818"/>
<path d="M64.498 23.6663C62.7871 20.6902 63.8029 16.8943 66.7791 15.1657C69.7552 13.4549 73.5511 14.4707 75.2797 17.4468C76.9906 20.4229 75.9747 24.2188 72.9986 25.9475C70.0225 27.6583 66.2088 26.6425 64.498 23.6663Z" fill="#181818"/>
<path d="M45.0555 69.7875C41.616 69.7875 38.8359 67.0074 38.8359 63.568C38.8359 60.1285 41.616 57.3484 45.0555 57.3484C48.495 57.3484 51.2751 60.1285 51.2751 63.568C51.2751 66.9896 48.495 69.7875 45.0555 69.7875Z" fill="#181818"/>
<path d="M45.0555 12.4391C41.616 12.4391 38.8359 9.65904 38.8359 6.21957C38.8359 2.78009 41.616 0 45.0555 0C48.495 0 51.2751 2.78009 51.2751 6.21957C51.2751 9.65904 48.495 12.4391 45.0555 12.4391Z" fill="#181818"/>
<path d="M99.4441 19.5795V22.5076H102.524C102.416 23.2233 102.285 23.5703 102.003 23.9607C101.461 24.6548 100.594 25.0235 99.5526 25.0235C98.4898 25.0235 97.6222 24.6765 96.9932 23.9824C96.169 23.1149 95.6919 21.7918 95.6919 20.4688C95.6919 17.8661 97.2969 15.9357 99.4441 15.9357C100.897 15.9357 101.895 16.6731 102.546 18.2348L106.124 16.7599C104.758 13.9837 102.698 12.6823 99.6176 12.6823C94.9544 12.6823 91.7661 15.8273 91.7661 20.4471C91.7661 25.0018 94.9111 28.1251 99.4875 28.1251C102.589 28.1251 104.953 26.6719 106.146 24.0258C106.667 22.8763 106.862 21.7051 106.905 19.5795H99.4441Z" fill="black"/>
<path d="M108.105 17.7793V27.6045H111.575V23.3968C111.575 21.5749 112.378 20.6423 114.005 20.6423C114.59 20.6423 114.916 20.7073 115.479 20.9893V17.6708C115.154 17.6492 115.024 17.6492 114.807 17.6492C113.311 17.6492 112.378 18.148 111.575 19.3843V17.7793H108.105Z" fill="black"/>
<path d="M123.895 17.7793V18.7336C123.027 17.8444 122.094 17.454 120.837 17.454C118.039 17.454 115.891 19.7096 115.891 22.6594C115.891 25.6308 118.06 27.9299 120.858 27.9299C122.181 27.9299 123.136 27.4961 123.895 26.5201V27.6045H127.365V17.7793H123.895ZM121.747 20.4471C123.005 20.4471 124.003 21.4448 124.003 22.6811C124.003 23.939 123.005 24.9368 121.769 24.9368C120.511 24.9368 119.513 23.939 119.513 22.6594C119.513 21.4448 120.533 20.4471 121.747 20.4471Z" fill="black"/>
<path d="M132.334 32.528V26.6502C133.202 27.5395 134.135 27.9299 135.393 27.9299C138.19 27.9299 140.338 25.6525 140.338 22.7245C140.338 19.753 138.169 17.454 135.371 17.454C134.048 17.454 133.093 17.8877 132.334 18.8638V17.7793H128.864V32.528H132.334ZM134.46 20.4471C135.718 20.4471 136.716 21.4448 136.716 22.7245C136.716 23.9174 135.696 24.9368 134.482 24.9368C133.245 24.9368 132.226 23.939 132.226 22.6811C132.226 21.4448 133.224 20.4471 134.46 20.4471Z" fill="black"/>
<path d="M141.446 11.7063V27.6045H144.917V22.334C144.917 21.6834 145.025 21.3146 145.285 20.9676C145.632 20.5772 146.175 20.3169 146.739 20.3169C147.346 20.3169 147.91 20.6206 148.127 21.0761C148.322 21.4448 148.344 21.64 148.344 22.6377V27.6045H151.814V21.358C151.814 20.0133 151.597 19.3409 150.903 18.6469C150.209 17.9094 149.276 17.5624 148.062 17.5624C146.652 17.5624 145.849 17.9311 144.917 19.0156V11.7063H141.446Z" fill="black"/>
<path d="M169.554 28.0166L167.103 25.5224C168.448 23.7872 168.99 22.334 168.99 20.4037C168.99 15.9574 165.628 12.7257 160.965 12.7257C158.753 12.7257 156.887 13.4198 155.456 14.7428C153.894 16.196 152.983 18.2782 152.983 20.382C152.983 22.1822 153.634 23.939 154.805 25.3922C156.28 27.1924 158.449 28.1034 161.182 28.1034C162.722 28.1034 163.719 27.8648 164.934 27.1708L166.105 28.5372L169.554 28.0166ZM163.372 21.5315L159.837 21.9653L162.136 24.2861C161.659 24.4162 161.399 24.4596 160.965 24.4596C158.644 24.4596 156.909 22.7461 156.909 20.4905C156.909 18.1914 158.709 16.3695 160.987 16.3695C163.199 16.3695 165.064 18.2131 165.064 20.4254C165.064 21.2279 164.847 21.9003 164.37 22.5943L163.372 21.5315Z" fill="black"/>
<path d="M174.268 13.1378H170.516V27.6045H178.78V24.4162H174.268V13.1378Z" fill="black"/>
<path d="M101.852 39.5948C100.398 38.8356 98.7934 38.4235 97.2752 38.4235C94.3471 38.4235 92.3517 40.3973 92.3517 43.3036C92.3517 44.5833 92.7421 45.5376 93.5013 46.1666C94.0218 46.6004 94.6508 46.8607 96.2558 47.3378C98.0126 47.8584 98.5115 48.2271 98.5115 49.0079C98.5115 49.8538 97.7957 50.4177 96.6896 50.4177C95.5834 50.4177 94.5423 49.9622 93.3711 48.9428L91.7661 51.9793C93.3061 53.0421 95.0629 53.606 96.7763 53.606C98.4464 53.606 99.9213 53.1289 100.962 52.2396C101.938 51.3937 102.437 50.1357 102.437 48.4874C102.437 46.3401 101.396 45.1689 98.8802 44.4315C97.1884 43.9326 97.0366 43.8675 96.6245 43.5205C96.4076 43.347 96.2775 43.065 96.2775 42.8048C96.2775 42.089 96.9715 41.5468 97.8825 41.5468C98.7501 41.5468 99.5092 41.8504 100.355 42.5228L101.852 39.5948Z" fill="black"/>
<path d="M106.791 51.9143L103.45 58.1608H107.333L115.228 43.4121H111.258L108.699 48.444L106.075 43.4121H102.041L106.791 51.9143Z" fill="black"/>
<path d="M123.175 37.3391V44.3664C122.307 43.4771 121.374 43.0867 120.116 43.0867C117.318 43.0867 115.171 45.3424 115.171 48.2922C115.171 51.2636 117.34 53.5627 120.138 53.5627C121.461 53.5627 122.415 53.1289 123.175 52.1529V53.2373H126.645V37.3391H123.175ZM121.027 46.0799C122.285 46.0799 123.283 47.0776 123.283 48.3139C123.283 49.5718 122.285 50.5695 121.049 50.5695C119.791 50.5695 118.793 49.5718 118.793 48.2922C118.793 47.0776 119.813 46.0799 121.027 46.0799Z" fill="black"/>
<path d="M128.144 43.4121V53.2373H131.614V47.9668C131.614 47.3161 131.723 46.9474 131.983 46.6004C132.33 46.21 132.872 45.9497 133.436 45.9497C134.043 45.9497 134.607 46.2534 134.824 46.7088C135.019 47.0776 135.041 47.2728 135.041 48.2705V53.2373H138.511V46.9908C138.511 45.6461 138.295 44.9737 137.6 44.2796C136.906 43.5422 135.974 43.1952 134.759 43.1952C133.349 43.1952 132.547 43.5639 131.614 44.6484V43.4121H128.144Z" fill="black"/>
<path d="M150.439 48.9645V48.6175C150.439 45.1906 148.422 43.1301 145.081 43.1301C141.72 43.1301 139.616 45.1689 139.616 48.4006C139.616 51.5672 141.828 53.6277 145.233 53.6277C146.99 53.6277 148.53 53.0204 149.419 51.9793C149.831 51.5022 150.048 51.0684 150.287 50.2442H146.947C146.513 50.9383 146.057 51.1768 145.233 51.1768C143.845 51.1768 143.151 50.4611 143.129 48.9645H150.439ZM143.216 46.9474C143.39 45.9497 144.105 45.3641 145.168 45.3641C146.209 45.3641 146.968 45.9497 147.207 46.9474H143.216Z" fill="black"/>
<path d="M154.557 51.9143L151.217 58.1608H155.099L162.994 43.4121H159.025L156.466 48.444L153.841 43.4121H149.807L154.557 51.9143Z" fill="black"/>
</mask>
<g mask="url(#mask0)">
<rect x="14" width="165.627" height="69.9972" fill="#F5E7D3"/>
</g>
</svg>
