<svg width="192" height="70" viewBox="0 0 192 70" fill="none" xmlns="http://www.w3.org/2000/svg">
<mask id="mask0" mask-type="alpha" maskUnits="userSpaceOnUse" x="14" y="0" width="165" height="70">
<path d="M17.0929 51.7088L19.6548 53.188L48.1953 3.75583L45.6334 2.27668L17.0929 51.7088Z" fill="#181818"/>
<path d="M73.5864 47.7607H16.5054V50.719H73.5864V47.7607Z" fill="#181818"/>
<path d="M17.6348 49.4227L46.186 65.9072L47.6652 63.3453L19.114 46.8608L17.6348 49.4227Z" fill="#181818"/>
<path d="M42.4376 6.45981L70.9888 22.9443L72.4679 20.3824L43.9167 3.89792L42.4376 6.45981Z" fill="#181818"/>
<path d="M17.6424 20.3707L19.1216 22.9326L47.6728 6.44809L46.1936 3.8862L17.6424 20.3707Z" fill="#181818"/>
<path d="M41.9214 3.75681L70.4619 53.189L73.0238 51.7098L44.4833 2.27766L41.9214 3.75681Z" fill="#181818"/>
<path d="M21.7269 18.4092H18.7686V51.3782H21.7269V18.4092Z" fill="#181818"/>
<path d="M71.3416 18.4092H68.3833V51.3782H71.3416V18.4092Z" fill="#181818"/>
<path d="M44.3906 62.4175L45.6826 64.6553L70.5144 50.3182L69.2224 48.0804L44.3906 62.4175Z" fill="#181818"/>
<path d="M75.2617 52.3414C73.5508 55.3175 69.7371 56.3333 66.761 54.6225C63.7849 52.9117 62.7691 49.098 64.4799 46.1218C66.1907 43.1457 70.0044 42.1299 72.9806 43.8407C75.9745 45.5694 76.9903 49.3653 75.2617 52.3414Z" fill="#181818"/>
<path d="M25.6122 23.6661C23.9014 26.6422 20.0877 27.658 17.1116 25.9472C14.1355 24.2364 13.1196 20.4227 14.8305 17.4465C16.5413 14.4704 20.355 13.4546 23.3311 15.1654C26.3073 16.8941 27.3231 20.69 25.6122 23.6661Z" fill="#181818"/>
<path d="M14.8481 52.3414C13.1372 49.3653 14.153 45.5694 17.1292 43.8407C20.1053 42.1299 23.9012 43.1457 25.6298 46.1218C27.3407 49.098 26.3248 52.8939 23.3487 54.6225C20.3548 56.3333 16.5589 55.3175 14.8481 52.3414Z" fill="#181818"/>
<path d="M64.498 23.6661C62.7871 20.69 63.8029 16.8941 66.7791 15.1654C69.7552 13.4546 73.5511 14.4704 75.2797 17.4465C76.9906 20.4227 75.9747 24.2186 72.9986 25.9472C70.0225 27.658 66.2088 26.6422 64.498 23.6661Z" fill="#181818"/>
<path d="M45.0555 69.7873C41.616 69.7873 38.8359 67.0072 38.8359 63.5677C38.8359 60.1282 41.616 57.3481 45.0555 57.3481C48.495 57.3481 51.2751 60.1282 51.2751 63.5677C51.2751 66.9894 48.495 69.7873 45.0555 69.7873Z" fill="#181818"/>
<path d="M45.0555 12.4391C41.616 12.4391 38.8359 9.65904 38.8359 6.21957C38.8359 2.78009 41.616 0 45.0555 0C48.495 0 51.2751 2.78009 51.2751 6.21957C51.2751 9.65904 48.495 12.4391 45.0555 12.4391Z" fill="#181818"/>
<path d="M99.4441 19.5793V22.5073H102.524C102.416 23.2231 102.285 23.5701 102.003 23.9605C101.461 24.6546 100.594 25.0233 99.5526 25.0233C98.4898 25.0233 97.6222 24.6762 96.9932 23.9822C96.169 23.1146 95.6919 21.7916 95.6919 20.4685C95.6919 17.8658 97.2969 15.9355 99.4441 15.9355C100.897 15.9355 101.895 16.6729 102.546 18.2345L106.124 16.7597C104.758 13.9834 102.698 12.6821 99.6176 12.6821C94.9544 12.6821 91.7661 15.827 91.7661 20.4468C91.7661 25.0016 94.9111 28.1248 99.4875 28.1248C102.589 28.1248 104.953 26.6717 106.146 24.0256C106.667 22.876 106.862 21.7048 106.905 19.5793H99.4441Z" fill="black"/>
<path d="M108.105 17.7791V27.6043H111.575V23.3966C111.575 21.5747 112.378 20.642 114.005 20.642C114.59 20.642 114.916 20.7071 115.479 20.9891V17.6706C115.154 17.6489 115.024 17.6489 114.807 17.6489C113.311 17.6489 112.378 18.1478 111.575 19.3841V17.7791H108.105Z" fill="black"/>
<path d="M123.895 17.7791V18.7334C123.027 17.8441 122.094 17.4537 120.837 17.4537C118.039 17.4537 115.891 19.7094 115.891 22.6591C115.891 25.6306 118.06 27.9296 120.858 27.9296C122.181 27.9296 123.136 27.4958 123.895 26.5198V27.6043H127.365V17.7791H123.895ZM121.747 20.4468C123.005 20.4468 124.003 21.4445 124.003 22.6808C124.003 23.9388 123.005 24.9365 121.769 24.9365C120.511 24.9365 119.513 23.9388 119.513 22.6591C119.513 21.4445 120.533 20.4468 121.747 20.4468Z" fill="black"/>
<path d="M132.334 32.5278V26.65C133.202 27.5392 134.135 27.9296 135.393 27.9296C138.19 27.9296 140.338 25.6523 140.338 22.7242C140.338 19.7528 138.169 17.4537 135.371 17.4537C134.048 17.4537 133.093 17.8875 132.334 18.8635V17.7791H128.864V32.5278H132.334ZM134.46 20.4468C135.718 20.4468 136.716 21.4445 136.716 22.7242C136.716 23.9171 135.696 24.9365 134.482 24.9365C133.245 24.9365 132.226 23.9388 132.226 22.6808C132.226 21.4445 133.224 20.4468 134.46 20.4468Z" fill="black"/>
<path d="M141.446 11.7061V27.6043H144.917V22.3338C144.917 21.6831 145.025 21.3144 145.285 20.9674C145.632 20.577 146.175 20.3167 146.739 20.3167C147.346 20.3167 147.91 20.6203 148.127 21.0758C148.322 21.4445 148.344 21.6397 148.344 22.6375V27.6043H151.814V21.3578C151.814 20.013 151.597 19.3407 150.903 18.6466C150.209 17.9092 149.276 17.5622 148.062 17.5622C146.652 17.5622 145.849 17.9309 144.917 19.0153V11.7061H141.446Z" fill="black"/>
<path d="M169.554 28.0164L167.103 25.5221C168.448 23.787 168.99 22.3338 168.99 20.4035C168.99 15.9572 165.628 12.7255 160.965 12.7255C158.753 12.7255 156.887 13.4195 155.456 14.7426C153.894 16.1957 152.983 18.2779 152.983 20.3818C152.983 22.182 153.634 23.9388 154.805 25.392C156.28 27.1922 158.449 28.1031 161.182 28.1031C162.722 28.1031 163.719 27.8646 164.934 27.1705L166.105 28.5369L169.554 28.0164ZM163.372 21.5313L159.837 21.9651L162.136 24.2858C161.659 24.416 161.399 24.4593 160.965 24.4593C158.644 24.4593 156.909 22.7459 156.909 20.4902C156.909 18.1911 158.709 16.3692 160.987 16.3692C163.199 16.3692 165.064 18.2128 165.064 20.4251C165.064 21.2276 164.847 21.9 164.37 22.5941L163.372 21.5313Z" fill="black"/>
<path d="M174.268 13.1375H170.516V27.6043H178.78V24.416H174.268V13.1375Z" fill="black"/>
<path d="M101.852 39.5945C100.398 38.8354 98.7934 38.4233 97.2752 38.4233C94.3471 38.4233 92.3517 40.397 92.3517 43.3034C92.3517 44.583 92.7421 45.5374 93.5013 46.1664C94.0218 46.6002 94.6508 46.8604 96.2558 47.3376C98.0126 47.8581 98.5115 48.2268 98.5115 49.0077C98.5115 49.8535 97.7957 50.4175 96.6896 50.4175C95.5834 50.4175 94.5423 49.962 93.3711 48.9426L91.7661 51.9791C93.3061 53.0419 95.0629 53.6058 96.7763 53.6058C98.4464 53.6058 99.9213 53.1286 100.962 52.2394C101.938 51.3935 102.437 50.1355 102.437 48.4871C102.437 46.3399 101.396 45.1687 98.8802 44.4312C97.1884 43.9324 97.0366 43.8673 96.6245 43.5203C96.4076 43.3468 96.2775 43.0648 96.2775 42.8045C96.2775 42.0888 96.9715 41.5466 97.8825 41.5466C98.7501 41.5466 99.5092 41.8502 100.355 42.5226L101.852 39.5945Z" fill="black"/>
<path d="M106.791 51.914L103.45 58.1605H107.333L115.228 43.4118H111.258L108.699 48.4437L106.075 43.4118H102.041L106.791 51.914Z" fill="black"/>
<path d="M123.175 37.3388V44.3662C122.307 43.4769 121.374 43.0865 120.116 43.0865C117.318 43.0865 115.171 45.3422 115.171 48.2919C115.171 51.2633 117.34 53.5624 120.138 53.5624C121.461 53.5624 122.415 53.1286 123.175 52.1526V53.2371H126.645V37.3388H123.175ZM121.027 46.0796C122.285 46.0796 123.283 47.0773 123.283 48.3136C123.283 49.5716 122.285 50.5693 121.049 50.5693C119.791 50.5693 118.793 49.5716 118.793 48.2919C118.793 47.0773 119.813 46.0796 121.027 46.0796Z" fill="black"/>
<path d="M128.144 43.4118V53.2371H131.614V47.9666C131.614 47.3159 131.723 46.9472 131.983 46.6002C132.33 46.2097 132.872 45.9495 133.436 45.9495C134.043 45.9495 134.607 46.2531 134.824 46.7086C135.019 47.0773 135.041 47.2725 135.041 48.2702V53.2371H138.511V46.9906C138.511 45.6458 138.295 44.9735 137.6 44.2794C136.906 43.542 135.974 43.1949 134.759 43.1949C133.349 43.1949 132.547 43.5637 131.614 44.6481V43.4118H128.144Z" fill="black"/>
<path d="M150.439 48.9643V48.6173C150.439 45.1903 148.422 43.1299 145.081 43.1299C141.72 43.1299 139.616 45.1687 139.616 48.4004C139.616 51.567 141.828 53.6275 145.233 53.6275C146.99 53.6275 148.53 53.0202 149.419 51.9791C149.831 51.5019 150.048 51.0681 150.287 50.2439H146.947C146.513 50.938 146.057 51.1766 145.233 51.1766C143.845 51.1766 143.151 50.4608 143.129 48.9643H150.439ZM143.216 46.9472C143.39 45.9495 144.105 45.3639 145.168 45.3639C146.209 45.3639 146.968 45.9495 147.207 46.9472H143.216Z" fill="black"/>
<path d="M154.557 51.914L151.217 58.1605H155.099L162.994 43.4118H159.025L156.466 48.4437L153.841 43.4118H149.807L154.557 51.914Z" fill="black"/>
</mask>
<g mask="url(#mask0)">
<rect x="14" width="165.627" height="69.9972" fill="black"/>
</g>
</svg>
