<svg width="192" height="70" viewBox="0 0 192 70" fill="none" xmlns="http://www.w3.org/2000/svg">
<mask id="mask0" mask-type="alpha" maskUnits="userSpaceOnUse" x="3" y="0" width="187" height="70">
<path d="M85.385 47.212C85.7091 46.8984 85.8973 46.4802 85.8973 45.9679C85.8973 44.8283 84.9877 44.0442 83.7123 44.0442H81.2658V50.9444H84.3395C85.6778 50.9444 86.6082 50.108 86.6082 48.9162C86.6082 48.0798 86.1482 47.4839 85.385 47.212ZM83.5972 45.257C84.1827 45.257 84.4964 45.5602 84.4964 46.0411C84.4964 46.5116 84.1827 46.8357 83.5972 46.8357H82.6249V45.257H83.5972ZM84.235 49.7317H82.6249V47.9962H84.235C84.8518 47.9962 85.2178 48.3307 85.2178 48.8639C85.2178 49.4076 84.8518 49.7317 84.235 49.7317Z" fill="#181818"/>
<path d="M94.6201 50.9444H96.1361L93.0623 43.9188H92.5919L89.5077 50.9444H91.0236L91.4105 50.0453H94.2333L94.6201 50.9444ZM93.7315 48.8848H91.9123L92.8219 46.5638L93.7315 48.8848Z" fill="#181818"/>
<path d="M104.052 44.0442V48.153L100.048 43.9188H99.5876V50.9444H100.999V46.8043L104.993 51.0699H105.463V44.0442H104.052Z" fill="#181818"/>
<path d="M112.843 43.9188C110.763 43.9188 109.153 45.4661 109.153 47.4943C109.153 49.5226 110.773 51.0699 112.843 51.0699C114.317 51.0699 115.53 50.2858 116.136 49.1985V47.1598H112.822V48.383H114.725V48.9476C114.349 49.4703 113.711 49.8049 112.906 49.8049C111.515 49.8049 110.606 48.8326 110.606 47.4943C110.606 46.177 111.484 45.2256 112.822 45.2256C113.669 45.2256 114.286 45.602 114.746 46.2397L115.75 45.4138C115.091 44.4729 114.077 43.9188 112.843 43.9188Z" fill="#181818"/>
<path d="M124.221 50.9444H125.737L122.664 43.9188H122.193L119.109 50.9444H120.625L121.012 50.0453H123.834L124.221 50.9444ZM123.333 48.8848H121.513L122.423 46.5638L123.333 48.8848Z" fill="#181818"/>
<path d="M130.6 44.0442H129.189V50.9444H133.622V49.6689H130.6V44.0442Z" fill="#181818"/>
<path d="M140.289 43.9188C138.261 43.9188 136.63 45.4661 136.63 47.4943C136.63 49.5226 138.261 51.0699 140.289 51.0699C142.318 51.0699 143.969 49.5226 143.969 47.4943C143.969 45.4661 142.318 43.9188 140.289 43.9188ZM140.3 45.2256C141.565 45.2256 142.516 46.1666 142.516 47.4943C142.516 48.8326 141.565 49.763 140.3 49.763C139.014 49.763 138.083 48.8326 138.083 47.4943C138.083 46.1666 139.014 45.2256 140.3 45.2256Z" fill="#181818"/>
<path d="M153.497 50.9444L151.542 48.2262C152.284 47.8602 152.755 47.1598 152.755 46.2711C152.755 44.9224 151.72 44.0442 150.267 44.0442H147.674V50.9444H149.085V48.5084H150.12L151.908 50.9444H153.497ZM149.085 45.2883H150.267C150.925 45.2883 151.312 45.6961 151.312 46.2711C151.312 46.867 150.925 47.2643 150.267 47.2643H149.085V45.2883Z" fill="#181818"/>
<path d="M161.512 44.0442H156.87V50.9444H161.638V49.6689H158.282V47.923H160.655V46.7207H158.282V45.3197H161.512V44.0442Z" fill="#181818"/>
<path d="M89.2817 16.663C83.9758 16.663 79.8984 20.5313 79.8984 25.6019C79.8984 30.6986 84.002 34.5408 89.2817 34.5408C93.1239 34.5408 96.208 32.5021 97.7501 29.7577V24.3212H89.2294V28.1895H93.2545V28.9997C92.4181 29.9668 91.1113 30.5418 89.4646 30.5418C86.3805 30.5418 84.4986 28.5292 84.4986 25.6019C84.4986 22.7529 86.2759 20.7926 89.2033 20.7926C91.1636 20.7926 92.4966 21.6813 93.5682 23.1711L96.7046 20.5051C95.0319 18.0482 92.4704 16.663 89.2817 16.663Z" fill="#181818"/>
<path d="M107.449 20.9495C106.116 20.9495 104.966 21.5245 104.156 22.5438V21.1586H100.052V34.2272H104.548V28.2679C104.548 25.9939 105.672 25.1314 107.658 25.1314H108.73V21.1586C108.364 21.0279 107.945 20.9495 107.449 20.9495Z" fill="#181818"/>
<path d="M116.14 20.8449C113.709 20.8449 111.932 21.7336 110.233 23.4586L112.324 26.3076C113.448 25.3144 114.336 24.7132 115.591 24.7132C117.002 24.7132 117.577 25.4451 117.577 26.386V26.5951H114.833C111.696 26.5951 109.71 28.0326 109.71 30.4895C109.71 32.6589 111.252 34.5408 114.206 34.5408C115.774 34.5408 117.054 34.0181 117.969 33.1555V34.2272H122.073V26.6474C122.073 22.7791 119.694 20.8449 116.14 20.8449ZM115.591 31.3521C114.728 31.3521 114.258 30.96 114.258 30.3327C114.258 29.7054 114.702 29.3395 115.46 29.3395H117.577V29.4441C117.577 30.6464 116.715 31.3521 115.591 31.3521Z" fill="#181818"/>
<path d="M132.729 20.8449C131.056 20.8449 129.801 21.4199 128.991 22.5177V21.1586H124.887V38.9319H129.383V33.3385C130.193 34.0965 131.317 34.5408 132.729 34.5408C136.388 34.5408 139.002 31.6657 139.002 27.6667C139.002 23.6677 136.388 20.8449 132.729 20.8449ZM131.84 30.4634C130.559 30.4634 129.305 29.5486 129.305 27.6667C129.305 25.7587 130.585 24.9223 131.84 24.9223C133.173 24.9223 134.401 25.8633 134.401 27.6929C134.401 29.5225 133.147 30.4634 131.84 30.4634Z" fill="#181818"/>
<path d="M149.168 20.8449C147.809 20.8449 146.632 21.3154 145.77 22.0734V14.6243H141.274V34.2272H145.77V26.8303C145.77 25.6542 146.554 24.8962 147.652 24.8962C148.749 24.8962 149.56 25.6542 149.56 26.8303V34.2272H154.055V26.1769C154.055 22.962 152.069 20.8449 149.168 20.8449Z" fill="#181818"/>
<path d="M180.968 36.475C176.786 36.475 174.068 35.142 171.82 32.2669C173.676 30.6464 174.852 28.294 174.852 25.6019C174.852 20.5313 170.67 16.663 165.521 16.663C160.372 16.663 156.242 20.5313 156.242 25.6019C156.242 30.6986 160.372 34.5408 165.521 34.5408C166.41 34.5408 167.272 34.4363 168.083 34.201C170.984 38.4091 175.375 40.291 180.053 40.291C181.413 40.291 182.51 40.1342 183.294 39.9251V36.3965C182.327 36.4488 181.517 36.475 180.968 36.475ZM160.843 25.6019C160.843 22.7268 162.777 20.7926 165.547 20.7926C168.213 20.7926 170.252 22.7268 170.252 25.6019C170.252 28.5292 168.213 30.4111 165.547 30.4111C162.777 30.4111 160.843 28.5292 160.843 25.6019Z" fill="#181818"/>
<path d="M181.919 16.9766H177.423V34.2272H189.054V30.1759H181.919V16.9766Z" fill="#181818"/>
<path d="M6.09289 51.7091L8.65479 53.1882L37.1953 3.75608L34.6334 2.27692L6.09289 51.7091Z" fill="#181818"/>
<path d="M62.5869 47.7607H5.50586V50.719H62.5869V47.7607Z" fill="#181818"/>
<path d="M6.63533 49.4225L35.1865 65.907L36.6657 63.3451L8.11448 46.8606L6.63533 49.4225Z" fill="#181818"/>
<path d="M31.4371 6.45981L59.9883 22.9443L61.4674 20.3824L32.9162 3.89792L31.4371 6.45981Z" fill="#181818"/>
<path d="M6.64292 20.3707L8.12207 22.9326L36.6733 6.44809L35.1941 3.8862L6.64292 20.3707Z" fill="#181818"/>
<path d="M30.9214 3.7573L59.4619 53.1895L62.0238 51.7103L33.4833 2.27815L30.9214 3.7573Z" fill="#181818"/>
<path d="M10.7269 18.4092H7.76855V51.3782H10.7269V18.4092Z" fill="#181818"/>
<path d="M60.3416 18.4092H57.3833V51.3782H60.3416V18.4092Z" fill="#181818"/>
<path d="M33.3911 62.4177L34.6831 64.6555L59.5149 50.3184L58.2229 48.0806L33.3911 62.4177Z" fill="#181818"/>
<path d="M64.2621 52.3412C62.5513 55.3173 58.7376 56.3331 55.7615 54.6223C52.7854 52.9114 51.7696 49.0977 53.4804 46.1216C55.1912 43.1455 59.0049 42.1297 61.981 43.8405C64.975 45.5691 65.9908 49.365 64.2621 52.3412Z" fill="#181818"/>
<path d="M14.6122 23.6663C12.9014 26.6425 9.0877 27.6583 6.11158 25.9475C3.13545 24.2366 2.11965 20.4229 3.83048 17.4468C5.5413 14.4707 9.35502 13.4549 12.3311 15.1657C15.3073 16.8943 16.3231 20.6902 14.6122 23.6663Z" fill="#181818"/>
<path d="M3.84805 52.3412C2.13723 49.365 3.15303 45.5691 6.12916 43.8405C9.10528 42.1297 12.9012 43.1455 14.6298 46.1216C16.3407 49.0977 15.3248 52.8936 12.3487 54.6223C9.35478 56.3331 5.55888 55.3173 3.84805 52.3412Z" fill="#181818"/>
<path d="M53.498 23.6663C51.7871 20.6902 52.8029 16.8943 55.7791 15.1657C58.7552 13.4549 62.5511 14.4707 64.2797 17.4468C65.9906 20.4229 64.9747 24.2188 61.9986 25.9475C59.0225 27.6583 55.2088 26.6425 53.498 23.6663Z" fill="#181818"/>
<path d="M34.0555 69.7875C30.616 69.7875 27.8359 67.0074 27.8359 63.568C27.8359 60.1285 30.616 57.3484 34.0555 57.3484C37.495 57.3484 40.2751 60.1285 40.2751 63.568C40.2751 66.9896 37.495 69.7875 34.0555 69.7875Z" fill="#181818"/>
<path d="M34.0555 12.4391C30.616 12.4391 27.8359 9.65904 27.8359 6.21957C27.8359 2.78009 30.616 0 34.0555 0C37.495 0 40.2751 2.78009 40.2751 6.21957C40.2751 9.65904 37.495 12.4391 34.0555 12.4391Z" fill="#181818"/>
</mask>
<g mask="url(#mask0)">
<rect x="3" width="186.331" height="71.969" fill="#F5E7D3"/>
</g>
</svg>
