<svg width="192" height="70" viewBox="0 0 192 70" fill="none" xmlns="http://www.w3.org/2000/svg">
<mask id="mask0" mask-type="alpha" maskUnits="userSpaceOnUse" x="3" y="0" width="187" height="70">
<path d="M85.385 47.2123C85.7091 46.8986 85.8973 46.4804 85.8973 45.9682C85.8973 44.8286 84.9877 44.0445 83.7123 44.0445H81.2658V50.9447H84.3395C85.6778 50.9447 86.6082 50.1083 86.6082 48.9164C86.6082 48.08 86.1482 47.4841 85.385 47.2123ZM83.5972 45.2572C84.1827 45.2572 84.4964 45.5604 84.4964 46.0413C84.4964 46.5118 84.1827 46.8359 83.5972 46.8359H82.6249V45.2572H83.5972ZM84.235 49.7319H82.6249V47.9964H84.235C84.8518 47.9964 85.2178 48.331 85.2178 48.8642C85.2178 49.4078 84.8518 49.7319 84.235 49.7319Z" fill="#181818"/>
<path d="M94.6201 50.9447H96.1361L93.0623 43.919H92.5919L89.5077 50.9447H91.0236L91.4105 50.0456H94.2333L94.6201 50.9447ZM93.7315 48.8851H91.9123L92.8219 46.5641L93.7315 48.8851Z" fill="#181818"/>
<path d="M104.052 44.0445V48.1532L100.048 43.919H99.5876V50.9447H100.999V46.8045L104.993 51.0701H105.463V44.0445H104.052Z" fill="#181818"/>
<path d="M112.843 43.919C110.763 43.919 109.153 45.4663 109.153 47.4946C109.153 49.5228 110.773 51.0701 112.843 51.0701C114.317 51.0701 115.53 50.286 116.136 49.1987V47.16H112.822V48.3832H114.725V48.9478C114.349 49.4705 113.711 49.8051 112.906 49.8051C111.515 49.8051 110.606 48.8328 110.606 47.4946C110.606 46.1773 111.484 45.2259 112.822 45.2259C113.669 45.2259 114.286 45.6022 114.746 46.24L115.75 45.414C115.091 44.4731 114.077 43.919 112.843 43.919Z" fill="#181818"/>
<path d="M124.221 50.9447H125.737L122.664 43.919H122.193L119.109 50.9447H120.625L121.012 50.0456H123.834L124.221 50.9447ZM123.333 48.8851H121.513L122.423 46.5641L123.333 48.8851Z" fill="#181818"/>
<path d="M130.6 44.0445H129.189V50.9447H133.622V49.6692H130.6V44.0445Z" fill="#181818"/>
<path d="M140.289 43.919C138.261 43.919 136.63 45.4663 136.63 47.4946C136.63 49.5228 138.261 51.0701 140.289 51.0701C142.318 51.0701 143.969 49.5228 143.969 47.4946C143.969 45.4663 142.318 43.919 140.289 43.919ZM140.3 45.2259C141.565 45.2259 142.516 46.1668 142.516 47.4946C142.516 48.8328 141.565 49.7633 140.3 49.7633C139.014 49.7633 138.083 48.8328 138.083 47.4946C138.083 46.1668 139.014 45.2259 140.3 45.2259Z" fill="#181818"/>
<path d="M153.497 50.9447L151.542 48.2264C152.284 47.8605 152.755 47.16 152.755 46.2714C152.755 44.9227 151.72 44.0445 150.267 44.0445H147.674V50.9447H149.085V48.5087H150.12L151.908 50.9447H153.497ZM149.085 45.2886H150.267C150.925 45.2886 151.312 45.6963 151.312 46.2714C151.312 46.8673 150.925 47.2646 150.267 47.2646H149.085V45.2886Z" fill="#181818"/>
<path d="M161.512 44.0445H156.87V50.9447H161.638V49.6692H158.282V47.9232H160.655V46.7209H158.282V45.32H161.512V44.0445Z" fill="#181818"/>
<path d="M89.2817 16.6632C83.9758 16.6632 79.8984 20.5315 79.8984 25.6021C79.8984 30.6989 84.002 34.541 89.2817 34.541C93.1239 34.541 96.208 32.5023 97.7501 29.7579V24.3214H89.2294V28.1897H93.2545V29C92.4181 29.967 91.1113 30.5421 89.4646 30.5421C86.3805 30.5421 84.4986 28.5295 84.4986 25.6021C84.4986 22.7532 86.2759 20.7929 89.2033 20.7929C91.1636 20.7929 92.4966 21.6816 93.5682 23.1714L96.7046 20.5054C95.0319 18.0485 92.4704 16.6632 89.2817 16.6632Z" fill="#181818"/>
<path d="M107.449 20.9497C106.116 20.9497 104.966 21.5247 104.156 22.5441V21.1588H100.052V34.2274H104.548V28.2681C104.548 25.9942 105.672 25.1317 107.658 25.1317H108.73V21.1588C108.364 21.0281 107.945 20.9497 107.449 20.9497Z" fill="#181818"/>
<path d="M116.14 20.8452C113.709 20.8452 111.932 21.7338 110.233 23.4589L112.324 26.3078C113.448 25.3146 114.336 24.7135 115.591 24.7135C117.002 24.7135 117.577 25.4453 117.577 26.3862V26.5953H114.833C111.696 26.5953 109.71 28.0329 109.71 30.4898C109.71 32.6592 111.252 34.541 114.206 34.541C115.774 34.541 117.054 34.0183 117.969 33.1558V34.2274H122.073V26.6476C122.073 22.7793 119.694 20.8452 116.14 20.8452ZM115.591 31.3523C114.728 31.3523 114.258 30.9603 114.258 30.333C114.258 29.7057 114.702 29.3397 115.46 29.3397H117.577V29.4443C117.577 30.6466 116.715 31.3523 115.591 31.3523Z" fill="#181818"/>
<path d="M132.729 20.8452C131.056 20.8452 129.801 21.4202 128.991 22.5179V21.1588H124.887V38.9321H129.383V33.3387C130.193 34.0967 131.317 34.541 132.729 34.541C136.388 34.541 139.002 31.666 139.002 27.667C139.002 23.668 136.388 20.8452 132.729 20.8452ZM131.84 30.4636C130.559 30.4636 129.305 29.5488 129.305 27.667C129.305 25.759 130.585 24.9226 131.84 24.9226C133.173 24.9226 134.401 25.8635 134.401 27.6931C134.401 29.5227 133.147 30.4636 131.84 30.4636Z" fill="#181818"/>
<path d="M149.168 20.8452C147.809 20.8452 146.632 21.3156 145.77 22.0736V14.6245H141.274V34.2274H145.77V26.8306C145.77 25.6544 146.554 24.8964 147.652 24.8964C148.749 24.8964 149.56 25.6544 149.56 26.8306V34.2274H154.055V26.1771C154.055 22.9623 152.069 20.8452 149.168 20.8452Z" fill="#181818"/>
<path d="M180.968 36.4752C176.786 36.4752 174.068 35.1422 171.82 32.2671C173.676 30.6466 174.852 28.2943 174.852 25.6021C174.852 20.5315 170.67 16.6632 165.521 16.6632C160.372 16.6632 156.242 20.5315 156.242 25.6021C156.242 30.6989 160.372 34.541 165.521 34.541C166.41 34.541 167.272 34.4365 168.083 34.2013C170.984 38.4093 175.375 40.2912 180.053 40.2912C181.413 40.2912 182.51 40.1344 183.294 39.9253V36.3968C182.327 36.4491 181.517 36.4752 180.968 36.4752ZM160.843 25.6021C160.843 22.727 162.777 20.7929 165.547 20.7929C168.213 20.7929 170.252 22.727 170.252 25.6021C170.252 28.5295 168.213 30.4114 165.547 30.4114C162.777 30.4114 160.843 28.5295 160.843 25.6021Z" fill="#181818"/>
<path d="M181.919 16.9769H177.423V34.2274H189.054V30.1761H181.919V16.9769Z" fill="#181818"/>
<path d="M6.09289 51.7088L8.65479 53.188L37.1953 3.75583L34.6334 2.27668L6.09289 51.7088Z" fill="#181818"/>
<path d="M62.5869 47.7607H5.50586V50.719H62.5869V47.7607Z" fill="#181818"/>
<path d="M6.63533 49.4227L35.1865 65.9072L36.6657 63.3453L8.11448 46.8608L6.63533 49.4227Z" fill="#181818"/>
<path d="M31.4371 6.45981L59.9883 22.9443L61.4674 20.3824L32.9162 3.89792L31.4371 6.45981Z" fill="#181818"/>
<path d="M6.64292 20.3707L8.12207 22.9326L36.6733 6.44809L35.1941 3.8862L6.64292 20.3707Z" fill="#181818"/>
<path d="M30.9214 3.75681L59.4619 53.189L62.0238 51.7098L33.4833 2.27766L30.9214 3.75681Z" fill="#181818"/>
<path d="M10.7269 18.4092H7.76855V51.3782H10.7269V18.4092Z" fill="#181818"/>
<path d="M60.3416 18.4092H57.3833V51.3782H60.3416V18.4092Z" fill="#181818"/>
<path d="M33.3911 62.4175L34.6831 64.6553L59.5149 50.3182L58.2229 48.0804L33.3911 62.4175Z" fill="#181818"/>
<path d="M64.2621 52.3414C62.5513 55.3175 58.7376 56.3333 55.7615 54.6225C52.7854 52.9117 51.7696 49.098 53.4804 46.1218C55.1912 43.1457 59.0049 42.1299 61.981 43.8407C64.975 45.5694 65.9908 49.3653 64.2621 52.3414Z" fill="#181818"/>
<path d="M14.6122 23.6661C12.9014 26.6422 9.0877 27.658 6.11158 25.9472C3.13545 24.2364 2.11965 20.4227 3.83048 17.4465C5.5413 14.4704 9.35502 13.4546 12.3311 15.1654C15.3073 16.8941 16.3231 20.69 14.6122 23.6661Z" fill="#181818"/>
<path d="M3.84805 52.3414C2.13723 49.3653 3.15303 45.5694 6.12916 43.8407C9.10528 42.1299 12.9012 43.1457 14.6298 46.1218C16.3407 49.098 15.3248 52.8939 12.3487 54.6225C9.35478 56.3333 5.55888 55.3175 3.84805 52.3414Z" fill="#181818"/>
<path d="M53.498 23.6661C51.7871 20.69 52.8029 16.8941 55.7791 15.1654C58.7552 13.4546 62.5511 14.4704 64.2797 17.4465C65.9906 20.4227 64.9747 24.2186 61.9986 25.9472C59.0225 27.658 55.2088 26.6422 53.498 23.6661Z" fill="#181818"/>
<path d="M34.0555 69.7873C30.616 69.7873 27.8359 67.0072 27.8359 63.5677C27.8359 60.1282 30.616 57.3481 34.0555 57.3481C37.495 57.3481 40.2751 60.1282 40.2751 63.5677C40.2751 66.9894 37.495 69.7873 34.0555 69.7873Z" fill="#181818"/>
<path d="M34.0555 12.4391C30.616 12.4391 27.8359 9.65904 27.8359 6.21957C27.8359 2.78009 30.616 0 34.0555 0C37.495 0 40.2751 2.78009 40.2751 6.21957C40.2751 9.65904 37.495 12.4391 34.0555 12.4391Z" fill="#181818"/>
</mask>
<g mask="url(#mask0)">
<rect x="3" width="186.331" height="71.969" fill="black"/>
</g>
</svg>
