<svg width="40" height="40" viewBox="0 0 40 40" fill="none" xmlns="http://www.w3.org/2000/svg">
<rect width="40" height="40" fill="#F5E7D3"/>
<path d="M11.5819 26.9068L13.0095 28.3103L14.832 26.5286L13.3942 25.1151L11.5819 26.9068ZM19.125 30.7987C19.449 30.7987 21.15 30.7987 21.15 30.7987V27.8624H19.125V30.7987ZM20.1375 13.9271C18.5263 13.9271 16.9811 14.5563 15.8418 15.6763C14.7025 16.7964 14.0625 18.3154 14.0625 19.8994C14.0625 21.4833 14.7025 23.0024 15.8418 24.1224C16.9811 25.2424 18.5263 25.8716 20.1375 25.8716C21.7487 25.8716 23.2939 25.2424 24.4332 24.1224C25.5725 23.0024 26.2125 21.4833 26.2125 19.8994C26.2125 16.5947 23.4889 13.9271 20.1375 13.9271ZM28.2375 20.8947H31.275V18.904H28.2375V20.8947ZM25.443 26.5286L27.2655 28.3103L28.6931 26.9068L26.8807 25.1151L25.443 26.5286ZM28.6931 12.8919L27.2655 11.4884L25.443 13.2702L26.8807 14.6836L28.6931 12.8919ZM21.15 9H19.125V11.9364H21.15V9ZM12.0375 18.904H9V20.8947H12.0375V18.904ZM14.832 13.2702L13.0095 11.4884L11.5819 12.8919L13.3942 14.6836L14.832 13.2702Z" fill="#C63939"/>
</svg>
