<svg width="21" height="21" viewBox="0 0 21 21" fill="none" xmlns="http://www.w3.org/2000/svg">
<path d="M17.9044 0.398438C18.4932 0.398438 19.0578 0.632328 19.4742 1.04866C19.8905 1.46498 20.1244 2.02965 20.1244 2.61842V18.1583C20.1244 18.7471 19.8905 19.3118 19.4742 19.7281C19.0578 20.1444 18.4932 20.3783 17.9044 20.3783H2.36452C1.77574 20.3783 1.21108 20.1444 0.79475 19.7281C0.378422 19.3118 0.144531 18.7471 0.144531 18.1583V2.61842C0.144531 2.02965 0.378422 1.46498 0.79475 1.04866C1.21108 0.632328 1.77574 0.398438 2.36452 0.398438H17.9044ZM17.3494 17.6033V11.7204C17.3494 10.7607 16.9682 9.84026 16.2896 9.16164C15.6109 8.48303 14.6905 8.10179 13.7308 8.10179C12.7873 8.10179 11.6885 8.67898 11.1557 9.54478V8.31268H8.05878V17.6033H11.1557V12.1311C11.1557 11.2764 11.8439 10.5771 12.6985 10.5771C13.1107 10.5771 13.506 10.7408 13.7974 11.0322C14.0888 11.3237 14.2525 11.7189 14.2525 12.1311V17.6033H17.3494ZM4.4513 6.57C4.94587 6.57 5.42019 6.37353 5.76991 6.02381C6.11962 5.6741 6.31609 5.19978 6.31609 4.70521C6.31609 3.67292 5.4836 2.82932 4.4513 2.82932C3.95379 2.82932 3.47665 3.02696 3.12485 3.37876C2.77305 3.73055 2.57541 4.20769 2.57541 4.70521C2.57541 5.7375 3.41901 6.57 4.4513 6.57ZM5.99419 17.6033V8.31268H2.91951V17.6033H5.99419Z" fill="#C63939"/>
</svg>
