<svg width="20" height="21" viewBox="0 0 20 21" fill="none" xmlns="http://www.w3.org/2000/svg">
<path d="M17.7778 0.870117C18.3671 0.870117 18.9324 1.10424 19.3491 1.52098C19.7659 1.93772 20 2.50294 20 3.0923V18.6476C20 19.2369 19.7659 19.8021 19.3491 20.2189C18.9324 20.6356 18.3671 20.8697 17.7778 20.8697H2.22222C1.63285 20.8697 1.06762 20.6356 0.650874 20.2189C0.234126 19.8021 0 19.2369 0 18.6476V3.0923C0 2.50294 0.234126 1.93772 0.650874 1.52098C1.06762 1.10424 1.63285 0.870117 2.22222 0.870117H17.7778ZM17.2222 18.092V12.2032C17.2222 11.2426 16.8406 10.3213 16.1613 9.64199C15.482 8.9627 14.5607 8.58109 13.6 8.58109C12.6556 8.58109 11.5556 9.15885 11.0222 10.0255V8.79219H7.92222V18.092H11.0222V12.6143C11.0222 11.7588 11.7111 11.0588 12.5667 11.0588C12.9792 11.0588 13.3749 11.2227 13.6666 11.5144C13.9583 11.8061 14.1222 12.2018 14.1222 12.6143V18.092H17.2222ZM4.31111 7.04778C4.80618 7.04778 5.28098 6.85112 5.63104 6.50106C5.98111 6.151 6.17778 5.67621 6.17778 5.18115C6.17778 4.14783 5.34444 3.30341 4.31111 3.30341C3.81309 3.30341 3.33547 3.50124 2.98332 3.85338C2.63117 4.20553 2.43333 4.68314 2.43333 5.18115C2.43333 6.21446 3.27778 7.04778 4.31111 7.04778ZM5.85556 18.092V8.79219H2.77778V18.092H5.85556Z" fill="#C63939"/>
</svg>
