<svg width="20" height="21" viewBox="0 0 20 21" fill="none" xmlns="http://www.w3.org/2000/svg">
<path d="M17.7778 0.0734863C18.3671 0.0734863 18.9324 0.307608 19.3491 0.724348C19.7659 1.14109 20 1.70631 20 2.29567V17.8509C20 18.4403 19.7659 19.0055 19.3491 19.4223C18.9324 19.839 18.3671 20.0731 17.7778 20.0731H2.22222C1.63285 20.0731 1.06762 19.839 0.650874 19.4223C0.234126 19.0055 0 18.4403 0 17.8509V2.29567C0 1.70631 0.234126 1.14109 0.650874 0.724348C1.06762 0.307608 1.63285 0.0734863 2.22222 0.0734863H17.7778ZM17.2222 17.2954V11.4066C17.2222 10.446 16.8406 9.52464 16.1613 8.84536C15.482 8.16607 14.5607 7.78445 13.6 7.78445C12.6556 7.78445 11.5556 8.36222 11.0222 9.22887V7.99556H7.92222V17.2954H11.0222V11.8177C11.0222 10.9622 11.7111 10.2622 12.5667 10.2622C12.9792 10.2622 13.3749 10.4261 13.6666 10.7178C13.9583 11.0095 14.1222 11.4052 14.1222 11.8177V17.2954H17.2222ZM4.31111 6.25115C4.80618 6.25115 5.28098 6.05449 5.63104 5.70443C5.98111 5.35436 6.17778 4.87958 6.17778 4.38452C6.17778 3.3512 5.34444 2.50677 4.31111 2.50677C3.81309 2.50677 3.33547 2.70461 2.98332 3.05675C2.63117 3.4089 2.43333 3.88651 2.43333 4.38452C2.43333 5.41783 3.27778 6.25115 4.31111 6.25115ZM5.85556 17.2954V7.99556H2.77778V17.2954H5.85556Z" fill="#181818"/>
</svg>
