<svg width="139" height="108" viewBox="0 0 139 108" fill="none" xmlns="http://www.w3.org/2000/svg">
<path d="M138.857 0H0V108H138.857V0Z" fill="#F5E7D3"/>
<path d="M131.143 7.71436H7.71436V84.8572H131.143V7.71436Z" fill="#C63939"/>
<rect width="7.71429" height="42.4286" transform="matrix(4.37114e-08 1 1 -4.37114e-08 15.4287 15.429)" fill="#F5E7D3"/>
<path fill-rule="evenodd" clip-rule="evenodd" d="M92.5716 15.4282L100.286 15.4282L100.286 34.7139L123.429 34.7139V42.4282L100.286 42.4282V42.4282H92.5716L92.5716 42.4282H92.5715L92.5715 34.7139H92.5716L92.5716 15.4282Z" fill="#F5E7D3"/>
<path fill-rule="evenodd" clip-rule="evenodd" d="M123.429 50.1426L123.429 77.1426H115.714L115.714 69.4283H100.286L100.286 77.1426H92.5715V50.1426H123.429ZM115.714 61.714V57.8569L100.286 57.8569L100.286 61.714H115.714Z" fill="#F5E7D3"/>
<path fill-rule="evenodd" clip-rule="evenodd" d="M38.5716 30.8569H46.2859V77.1426H15.4287V69.4284H38.5716V59.65C36.3022 60.9628 33.6675 61.7141 30.8573 61.7141C22.3363 61.7141 15.4287 54.8065 15.4287 46.2855C15.4287 37.7645 22.3363 30.8569 30.8573 30.8569C33.6675 30.8569 36.3022 31.6083 38.5716 32.921V30.8569ZM30.8573 53.9998C35.1178 53.9998 38.5716 50.546 38.5716 46.2855C38.5716 42.025 35.1178 38.5712 30.8573 38.5712C26.5968 38.5712 23.143 42.025 23.143 46.2855C23.143 50.546 26.5968 53.9998 30.8573 53.9998Z" fill="#F5E7D3"/>
<path fill-rule="evenodd" clip-rule="evenodd" d="M84.8571 15.4282H65.5714V31.3429C58.917 33.0556 54 39.0963 54 46.2854C54 53.4745 58.917 59.5151 65.5714 61.2279V69.4282H54V77.1425H84.8571V69.4282H73.2857V61.2279C79.9402 59.5151 84.8571 53.4745 84.8571 46.2854C84.8571 39.0963 79.9402 33.0556 73.2857 31.3429V23.1425H84.8571V15.4282ZM69.4286 53.9997C73.6891 53.9997 77.1429 50.5458 77.1429 46.2854C77.1429 42.0249 73.6891 38.5711 69.4286 38.5711C65.1681 38.5711 61.7143 42.0249 61.7143 46.2854C61.7143 50.5458 65.1681 53.9997 69.4286 53.9997Z" fill="#F5E7D3"/>
<path d="M10.6653 96.1983H13.8111V97.3943C13.8111 98.9599 13.4172 99.6892 10.7236 99.6892C8.03006 99.6892 7.63623 98.8675 7.63623 96.3441C7.63623 93.8402 8.03006 92.999 10.7236 92.999C13.4172 92.999 13.8111 93.7915 13.8111 95.1967H12.3865C12.3865 94.2194 12.1482 93.952 10.7236 93.952C9.29906 93.952 9.06082 94.1708 9.06082 96.3441C9.06082 98.5321 9.29906 98.7363 10.7236 98.7363C12.1482 98.7363 12.3865 98.5369 12.3865 97.3992V97.161H10.6653V96.1983Z" fill="#C63939"/>
<path d="M19.6799 93.0894C21.4351 93.0894 22.2325 93.9305 22.2325 95.0974C22.2325 95.7684 21.9456 96.3615 21.3087 96.5901V96.6873C21.9505 96.9353 22.2325 97.3874 22.2325 98.1119V99.5851H20.8079V98.0633C20.8079 97.5868 20.6669 97.0131 19.7382 97.0131H17.6038V99.5948H16.1792V93.0942H19.6799V93.0894ZM19.6215 96.0552C20.5453 96.0552 20.8079 95.7197 20.8079 95.0974C20.8079 94.475 20.5453 94.0472 19.6215 94.0472H17.6038V96.0552H19.6215Z" fill="#C63939"/>
<path d="M26.7977 93.0453H28.339L30.8916 99.259V99.5945H29.5886L29.044 98.2574H26.1025L25.5579 99.5945H24.2549V99.259L26.7977 93.0453ZM27.5125 94.3824L27.2159 95.4812L26.4817 97.2996H28.6648L27.9306 95.4812L27.6292 94.3824H27.5125Z" fill="#C63939"/>
<path d="M36.5266 93.0894C38.2818 93.0894 39.0792 93.8819 39.0792 95.1946C39.0792 96.4928 38.2818 97.2999 36.5266 97.2999H34.4505V99.5948H33.0259V93.0942H36.5266V93.0894ZM36.4682 96.3421C37.392 96.3421 37.6546 95.958 37.6546 95.1946C37.6546 94.4313 37.392 94.0472 36.4682 94.0472H34.4505V96.3421H36.4682Z" fill="#C63939"/>
<path d="M42.8719 96.77V99.59H41.4473V93.0894H42.8719V95.8121H45.9593V93.0894H47.3839V99.59H45.9593V96.77H42.8719Z" fill="#C63939"/>
<path d="M56.1159 101.331C55.7221 101.428 55.022 101.501 54.599 101.501C53.364 101.501 52.1777 100.888 52.129 99.6628C50.0772 99.5121 49.7563 98.6224 49.7563 96.3372C49.7563 93.8332 50.1502 92.9921 52.8438 92.9921C55.5374 92.9921 55.9312 93.8332 55.9312 96.3372C55.9312 98.6224 55.6103 99.5121 53.5585 99.6628C53.5925 100.378 54.1614 100.533 54.8858 100.533C55.2554 100.533 55.6443 100.485 55.9555 100.416L56.1159 101.331ZM52.8389 98.6369C54.2051 98.6369 54.4385 98.4376 54.4385 96.342C54.4385 94.2659 54.2003 94.0471 52.8389 94.0471C51.4727 94.0471 51.2393 94.2659 51.2393 96.342C51.2393 98.4376 51.4775 98.6369 52.8389 98.6369Z" fill="#C63939"/>
<path d="M58.5327 99.5945V93.0939H59.9573V98.6415H62.6849V97.3968H64.1095V99.5945H58.5327Z" fill="#C63939"/>
<path d="M77.3388 93.0453H78.88L81.4326 99.259V99.5945H80.1296L79.585 98.2574H76.6435L76.0989 99.5945H74.7959V99.259L77.3388 93.0453ZM78.0486 94.3824L77.752 95.4812L77.0179 97.2996H79.2009L78.4668 95.4812L78.1702 94.3824H78.0486Z" fill="#C63939"/>
<path d="M84.8704 97.2991C84.8704 98.5341 85.1087 98.7335 86.5332 98.7335C87.9578 98.7335 88.1961 98.5341 88.1961 97.8729C88.1961 96.5358 83.509 97.2019 83.509 94.907C83.509 93.8374 84.1994 92.9962 86.5332 92.9962C89.1101 92.9962 89.5575 93.7401 89.5575 95.3884H88.1329C88.1329 94.1728 87.8946 93.954 86.5332 93.954C85.2253 93.954 84.9336 94.1728 84.9336 94.9119C84.9336 96.1566 89.6207 95.4856 89.6207 97.7805C89.6207 98.8696 89.2268 99.6913 86.5381 99.6913C83.8445 99.6913 83.4507 98.9668 83.4507 97.2991H84.8704Z" fill="#C63939"/>
<path d="M95.669 94.0472V98.637H97.4485V99.5948H92.4648V98.637H94.2444V94.0472H92.4648V93.0894H97.4485V94.0472H95.669Z" fill="#C63939"/>
<path d="M102.607 93.0453H104.149L106.701 99.259V99.5945H105.393L104.849 98.2574H101.907L101.363 99.5945H100.06V99.259L102.607 93.0453ZM103.322 94.3824L103.025 95.4812L102.291 97.2996H104.474L103.74 95.4812L103.444 94.3824H103.322Z" fill="#C63939"/>
<path d="M112.516 93.0894V95.287H111.568L111.092 94.2368V93.0894H112.516Z" fill="#C63939"/>
<path d="M121.885 98.6368V97.679H123.31V99.5898H117.14V98.0582C117.14 95.7633 121.827 96.2884 121.827 94.9027C121.827 94.1685 121.53 93.9449 120.227 93.9449C118.861 93.9449 118.628 94.1637 118.628 95.3792H117.203C117.203 93.7358 117.655 92.9871 120.227 92.9871C122.566 92.9871 123.252 93.8282 123.252 94.8979C123.252 97.3289 118.564 96.619 118.564 98.1506V98.6271H121.885V98.6368Z" fill="#C63939"/>
<path d="M129.363 93.0451V98.6365H131.143V99.5944H126.159V98.6365H127.939V94.144L126.159 94.4308V93.473L128.415 93.0403H129.363V93.0451Z" fill="#C63939"/>
</svg>
