<svg width="139" height="125" viewBox="0 0 139 125" fill="none" xmlns="http://www.w3.org/2000/svg">
<path d="M139 0H0V125H139V0Z" fill="#F5E7D3"/>
<path d="M131.143 7.71436H7.71436V84.8572H131.143V7.71436Z" fill="#C63939"/>
<rect width="7.71429" height="42.4286" transform="matrix(4.37114e-08 1 1 -4.37114e-08 15.4287 15.4287)" fill="#F5E7D3"/>
<path fill-rule="evenodd" clip-rule="evenodd" d="M92.5716 15.4282L100.286 15.4282L100.286 34.7139L123.429 34.7139V42.4282L100.286 42.4282V42.4282H92.5716L92.5716 42.4282H92.5715L92.5715 34.7139H92.5716L92.5716 15.4282Z" fill="#F5E7D3"/>
<path fill-rule="evenodd" clip-rule="evenodd" d="M123.429 50.1426L123.429 77.1426H115.714L115.714 69.4283H100.286L100.286 77.1426H92.5715V50.1426H123.429ZM115.714 61.714V57.8569L100.286 57.8569L100.286 61.714H115.714Z" fill="#F5E7D3"/>
<path fill-rule="evenodd" clip-rule="evenodd" d="M38.5716 30.8569H46.2859V77.1426H15.4287V69.4284H38.5716V59.65C36.3022 60.9628 33.6675 61.7141 30.8573 61.7141C22.3363 61.7141 15.4287 54.8065 15.4287 46.2855C15.4287 37.7645 22.3363 30.8569 30.8573 30.8569C33.6675 30.8569 36.3022 31.6083 38.5716 32.921V30.8569ZM30.8573 53.9998C35.1178 53.9998 38.5716 50.546 38.5716 46.2855C38.5716 42.025 35.1178 38.5712 30.8573 38.5712C26.5968 38.5712 23.143 42.025 23.143 46.2855C23.143 50.546 26.5968 53.9998 30.8573 53.9998Z" fill="#F5E7D3"/>
<path fill-rule="evenodd" clip-rule="evenodd" d="M84.8571 15.4282H65.5714V31.3429C58.917 33.0556 54 39.0963 54 46.2854C54 53.4745 58.917 59.5151 65.5714 61.2279V69.4282H54V77.1425H84.8571V69.4282H73.2857V61.2279C79.9402 59.5151 84.8571 53.4745 84.8571 46.2854C84.8571 39.0963 79.9402 33.0556 73.2857 31.3429V23.1425H84.8571V15.4282ZM69.4286 53.9997C73.6891 53.9997 77.1429 50.5458 77.1429 46.2854C77.1429 42.0249 73.6891 38.5711 69.4286 38.5711C65.1681 38.5711 61.7143 42.0249 61.7143 46.2854C61.7143 50.5458 65.1681 53.9997 69.4286 53.9997Z" fill="#F5E7D3"/>
<path d="M10.6653 96.1983H13.8111V97.3943C13.8111 98.9599 13.4172 99.6892 10.7236 99.6892C8.03006 99.6892 7.63623 98.8675 7.63623 96.3441C7.63623 93.8402 8.03006 92.999 10.7236 92.999C13.4172 92.999 13.8111 93.7915 13.8111 95.1967H12.3865C12.3865 94.2194 12.1482 93.952 10.7236 93.952C9.29906 93.952 9.06082 94.1708 9.06082 96.3441C9.06082 98.5321 9.29906 98.7363 10.7236 98.7363C12.1482 98.7363 12.3865 98.5369 12.3865 97.3992V97.161H10.6653V96.1983Z" fill="#C63939"/>
<path d="M19.6797 93.0894C21.4349 93.0894 22.2322 93.9305 22.2322 95.0974C22.2322 95.7684 21.9454 96.3615 21.3084 96.5901V96.6873C21.9502 96.9353 22.2322 97.3874 22.2322 98.1119V99.5851H20.8077V98.0633C20.8077 97.5868 20.6667 97.0131 19.738 97.0131H17.6035V99.5948H16.179V93.0942H19.6797V93.0894ZM19.6213 96.0552C20.5451 96.0552 20.8077 95.7197 20.8077 95.0974C20.8077 94.475 20.5451 94.0472 19.6213 94.0472H17.6035V96.0552H19.6213Z" fill="#C63939"/>
<path d="M26.7977 93.0454H28.339L30.8916 99.2591V99.5946H29.5886L29.044 98.2576H26.1025L25.5579 99.5946H24.2549V99.2591L26.7977 93.0454ZM27.5125 94.3825L27.2159 95.4813L26.4817 97.2997H28.6648L27.9306 95.4813L27.6292 94.3825H27.5125Z" fill="#C63939"/>
<path d="M36.5268 93.0894C38.282 93.0894 39.0794 93.8819 39.0794 95.1946C39.0794 96.4928 38.282 97.2999 36.5268 97.2999H34.4507V99.5948H33.0261V93.0942H36.5268V93.0894ZM36.4685 96.3421C37.3923 96.3421 37.6548 95.958 37.6548 95.1946C37.6548 94.4313 37.3923 94.0472 36.4685 94.0472H34.4507V96.3421H36.4685Z" fill="#C63939"/>
<path d="M42.8719 96.77V99.59H41.4473V93.0894H42.8719V95.8121H45.9593V93.0894H47.3839V99.59H45.9593V96.77H42.8719Z" fill="#C63939"/>
<path d="M56.1159 101.331C55.7221 101.428 55.022 101.501 54.599 101.501C53.364 101.501 52.1777 100.888 52.129 99.663C50.0772 99.5122 49.7563 98.6225 49.7563 96.3373C49.7563 93.8333 50.1502 92.9922 52.8438 92.9922C55.5374 92.9922 55.9312 93.8333 55.9312 96.3373C55.9312 98.6225 55.6103 99.5122 53.5585 99.663C53.5925 100.378 54.1614 100.533 54.8858 100.533C55.2554 100.533 55.6443 100.485 55.9555 100.417L56.1159 101.331ZM52.8389 98.6371C54.2051 98.6371 54.4385 98.4377 54.4385 96.3422C54.4385 94.2661 54.2003 94.0473 52.8389 94.0473C51.4727 94.0473 51.2393 94.2661 51.2393 96.3422C51.2393 98.4377 51.4775 98.6371 52.8389 98.6371Z" fill="#C63939"/>
<path d="M58.5325 99.5948V93.0942H59.9571V98.6419H62.6847V97.3972H64.1093V99.5948H58.5325Z" fill="#C63939"/>
<path d="M77.3388 93.0454H78.88L81.4326 99.2591V99.5946H80.1296L79.585 98.2576H76.6435L76.0989 99.5946H74.7959V99.2591L77.3388 93.0454ZM78.0486 94.3825L77.752 95.4813L77.0179 97.2997H79.2009L78.4668 95.4813L78.1702 94.3825H78.0486Z" fill="#C63939"/>
<path d="M84.8704 97.2995C84.8704 98.5345 85.1087 98.7338 86.5332 98.7338C87.9578 98.7338 88.1961 98.5345 88.1961 97.8732C88.1961 96.5362 83.509 97.2023 83.509 94.9074C83.509 93.8377 84.1994 92.9966 86.5332 92.9966C89.1101 92.9966 89.5575 93.7405 89.5575 95.3887H88.1329C88.1329 94.1732 87.8946 93.9544 86.5332 93.9544C85.2253 93.9544 84.9336 94.1732 84.9336 94.9122C84.9336 96.1569 89.6207 95.486 89.6207 97.7809C89.6207 98.87 89.2268 99.6917 86.5381 99.6917C83.8445 99.6917 83.4507 98.9672 83.4507 97.2995H84.8704Z" fill="#C63939"/>
<path d="M95.669 94.0472V98.637H97.4485V99.5948H92.4648V98.637H94.2444V94.0472H92.4648V93.0894H97.4485V94.0472H95.669Z" fill="#C63939"/>
<path d="M102.607 93.0454H104.149L106.701 99.2591V99.5946H105.393L104.849 98.2576H101.907L101.363 99.5946H100.06V99.2591L102.607 93.0454ZM103.322 94.3825L103.025 95.4813L102.291 97.2997H104.474L103.74 95.4813L103.444 94.3825H103.322Z" fill="#C63939"/>
<path d="M112.516 93.0894V95.287H111.568L111.092 94.2368V93.0894H112.516Z" fill="#C63939"/>
<path d="M121.885 98.637V97.6792H123.31V99.59H117.14V98.0584C117.14 95.7635 121.827 96.2887 121.827 94.903C121.827 94.1688 121.53 93.9451 120.227 93.9451C118.861 93.9451 118.628 94.1639 118.628 95.3794H117.203C117.203 93.7361 117.655 92.9873 120.227 92.9873C122.566 92.9873 123.252 93.8284 123.252 94.8981C123.252 97.3291 118.564 96.6193 118.564 98.1508V98.6273H121.885V98.637Z" fill="#C63939"/>
<path d="M129.363 93.0454V98.6368H131.143V99.5946H126.159V98.6368H127.939V94.1442L126.159 94.4311V93.4733L128.415 93.0405H129.363V93.0454Z" fill="#C63939"/>
<path d="M32 116.865V115.665C32.008 115.657 32.112 115.609 32.312 115.521C32.512 115.425 32.764 115.297 33.068 115.137C33.372 114.977 33.692 114.785 34.028 114.561C34.364 114.337 34.676 114.093 34.964 113.829C35.252 113.557 35.472 113.269 35.624 112.965C35.792 112.613 35.844 112.305 35.78 112.041C35.724 111.777 35.588 111.577 35.372 111.441C35.164 111.297 34.924 111.225 34.652 111.225C34.236 111.225 33.908 111.373 33.668 111.669C33.436 111.957 33.368 112.405 33.464 113.013L32.12 112.821C32.04 112.229 32.108 111.725 32.324 111.309C32.548 110.885 32.876 110.565 33.308 110.349C33.74 110.125 34.236 110.013 34.796 110.013C35.228 110.013 35.62 110.093 35.972 110.253C36.332 110.413 36.62 110.637 36.836 110.925C37.06 111.205 37.188 111.529 37.22 111.897C37.26 112.265 37.18 112.657 36.98 113.073C36.812 113.401 36.596 113.697 36.332 113.961C36.076 114.217 35.796 114.445 35.492 114.645C35.196 114.845 34.904 115.017 34.616 115.161C34.336 115.297 34.088 115.405 33.872 115.485C33.664 115.557 33.52 115.605 33.44 115.629H37.34V116.865H32Z" fill="#C63939"/>
<path d="M38.2784 115.593V114.357C38.6944 114.181 39.0624 113.929 39.3824 113.601C39.7024 113.273 39.9704 112.909 40.1864 112.509C40.4024 112.101 40.5624 111.689 40.6664 111.273C40.7784 110.857 40.8344 110.469 40.8344 110.109H42.4064C42.4064 110.589 42.2984 111.093 42.0824 111.621C41.8744 112.141 41.5664 112.641 41.1584 113.121C40.7584 113.593 40.2744 114.005 39.7064 114.357H41.6264V113.493H43.0784V114.357H43.8704V115.593H43.0784V116.865H41.6264V115.593H38.2784Z" fill="#C63939"/>
<path d="M46.5835 116.865C46.1515 116.865 45.8155 116.761 45.5755 116.553C45.3355 116.345 45.2155 115.985 45.2155 115.473V112.917H44.5075V111.921C44.7155 111.921 44.8835 111.897 45.0115 111.849C45.1475 111.793 45.2475 111.677 45.3115 111.501C45.3835 111.317 45.4195 111.037 45.4195 110.661H46.5715V111.921H47.6995V112.917H46.5715V115.749H47.7235V116.865H46.5835Z" fill="#C63939"/>
<path d="M48.7112 116.865V110.109H50.2112V112.905H50.2352C50.2352 112.897 50.2552 112.841 50.2952 112.737C50.3432 112.633 50.4232 112.521 50.5352 112.401C50.6472 112.273 50.8032 112.161 51.0032 112.065C51.2032 111.969 51.4592 111.921 51.7712 111.921C52.1152 111.921 52.3992 111.985 52.6232 112.113C52.8472 112.233 53.0232 112.397 53.1512 112.605C53.2792 112.805 53.3712 113.021 53.4272 113.253C53.4832 113.485 53.5192 113.709 53.5352 113.925C53.5512 114.141 53.5592 114.325 53.5592 114.477V116.865H52.1432V114.465C52.1432 114.249 52.1232 114.045 52.0832 113.853C52.0432 113.661 51.9552 113.505 51.8192 113.385C51.6912 113.257 51.4832 113.193 51.1952 113.193C50.9072 113.193 50.6912 113.257 50.5472 113.385C50.4032 113.513 50.3112 113.677 50.2712 113.877C50.2312 114.077 50.2112 114.281 50.2112 114.489V116.865H48.7112Z" fill="#C63939"/>
<path d="M63.713 116.901C63.425 116.773 63.149 116.645 62.885 116.517C62.629 116.381 62.377 116.237 62.129 116.085C61.769 116.381 61.369 116.605 60.929 116.757C60.489 116.901 60.049 116.969 59.609 116.961C59.169 116.961 58.765 116.885 58.397 116.733C58.029 116.581 57.733 116.357 57.509 116.061C57.285 115.757 57.173 115.381 57.173 114.933C57.173 114.589 57.241 114.305 57.377 114.081C57.513 113.857 57.673 113.681 57.857 113.553C58.049 113.417 58.221 113.317 58.373 113.253C58.533 113.189 58.633 113.149 58.673 113.133C58.649 113.101 58.573 113.021 58.445 112.893C58.325 112.757 58.209 112.581 58.097 112.365C57.985 112.141 57.929 111.877 57.929 111.573C57.929 111.237 58.021 110.953 58.205 110.721C58.389 110.489 58.629 110.313 58.925 110.193C59.229 110.073 59.545 110.009 59.873 110.001C60.209 109.993 60.525 110.045 60.821 110.157C61.117 110.269 61.357 110.441 61.541 110.673C61.733 110.905 61.829 111.197 61.829 111.549C61.829 111.837 61.761 112.089 61.625 112.305C61.497 112.521 61.345 112.701 61.169 112.845C60.993 112.989 60.837 113.101 60.701 113.181C60.565 113.253 60.489 113.293 60.473 113.301C60.513 113.357 60.633 113.485 60.833 113.685C61.033 113.877 61.293 114.105 61.613 114.369C61.645 114.329 61.693 114.241 61.757 114.105C61.829 113.969 61.869 113.821 61.877 113.661C61.885 113.493 61.805 113.337 61.637 113.193L62.861 112.413C62.885 112.437 62.941 112.533 63.029 112.701C63.125 112.869 63.205 113.085 63.269 113.349C63.341 113.605 63.357 113.893 63.317 114.213C63.285 114.525 63.149 114.841 62.909 115.161C63.077 115.265 63.261 115.373 63.461 115.485C63.669 115.597 63.933 115.717 64.253 115.845L63.713 116.901ZM59.669 112.629C59.861 112.525 60.057 112.401 60.257 112.257C60.457 112.105 60.569 111.941 60.593 111.765C60.617 111.557 60.561 111.397 60.425 111.285C60.289 111.173 60.125 111.113 59.933 111.105C59.749 111.089 59.581 111.133 59.429 111.237C59.285 111.341 59.217 111.501 59.225 111.717C59.233 112.005 59.381 112.309 59.669 112.629ZM61.001 115.257C60.689 115.017 60.409 114.781 60.161 114.549C59.921 114.317 59.685 114.069 59.453 113.805C59.237 113.909 59.037 114.029 58.853 114.165C58.677 114.301 58.589 114.501 58.589 114.765C58.589 115.021 58.673 115.229 58.841 115.389C59.009 115.541 59.221 115.645 59.477 115.701C59.741 115.749 60.009 115.737 60.281 115.665C60.553 115.593 60.793 115.457 61.001 115.257Z" fill="#C63939"/>
<path d="M67.4609 116.865V115.665C67.4689 115.657 67.5729 115.609 67.7729 115.521C67.9729 115.425 68.2249 115.297 68.5289 115.137C68.8329 114.977 69.1529 114.785 69.4889 114.561C69.8249 114.337 70.1369 114.093 70.4249 113.829C70.7129 113.557 70.9329 113.269 71.0849 112.965C71.2529 112.613 71.3049 112.305 71.2409 112.041C71.1849 111.777 71.0489 111.577 70.8329 111.441C70.6249 111.297 70.3849 111.225 70.1129 111.225C69.6969 111.225 69.3689 111.373 69.1289 111.669C68.8969 111.957 68.8289 112.405 68.9249 113.013L67.5809 112.821C67.5009 112.229 67.5689 111.725 67.7849 111.309C68.0089 110.885 68.3369 110.565 68.7689 110.349C69.2009 110.125 69.6969 110.013 70.2569 110.013C70.6889 110.013 71.0809 110.093 71.4329 110.253C71.7929 110.413 72.0809 110.637 72.2969 110.925C72.5209 111.205 72.6489 111.529 72.6809 111.897C72.7209 112.265 72.6409 112.657 72.4409 113.073C72.2729 113.401 72.0569 113.697 71.7929 113.961C71.5369 114.217 71.2569 114.445 70.9529 114.645C70.6569 114.845 70.3649 115.017 70.0769 115.161C69.7969 115.297 69.5489 115.405 69.3329 115.485C69.1249 115.557 68.9809 115.605 68.9009 115.629H72.8009V116.865H67.4609Z" fill="#C63939"/>
<path d="M76.5234 116.985C75.9474 116.985 75.4674 116.885 75.0834 116.685C74.7074 116.485 74.4154 116.233 74.2074 115.929C74.0074 115.617 73.8834 115.305 73.8354 114.993L75.2754 114.777C75.2834 114.865 75.3314 114.989 75.4194 115.149C75.5074 115.301 75.6434 115.445 75.8274 115.581C76.0114 115.709 76.2554 115.773 76.5594 115.773C76.9434 115.773 77.2394 115.657 77.4474 115.425C77.6554 115.193 77.7754 114.937 77.8074 114.657C77.8234 114.441 77.7874 114.233 77.6994 114.033C77.6194 113.833 77.4834 113.669 77.2914 113.541C77.1074 113.413 76.8714 113.349 76.5834 113.349C76.3194 113.349 76.1114 113.401 75.9594 113.505C75.8074 113.601 75.6994 113.701 75.6354 113.805C75.5714 113.901 75.5354 113.953 75.5274 113.961L74.0154 113.721L74.3874 110.109H78.9234V111.345H75.3954L75.1794 113.337C75.1794 113.337 75.2114 113.289 75.2754 113.193C75.3394 113.097 75.4434 112.989 75.5874 112.869C75.7314 112.741 75.9194 112.629 76.1514 112.533C76.3914 112.437 76.6794 112.389 77.0154 112.389C77.5514 112.389 77.9874 112.501 78.3234 112.725C78.6594 112.941 78.9034 113.225 79.0554 113.577C79.2074 113.929 79.2714 114.293 79.2474 114.669C79.2154 115.053 79.0834 115.425 78.8514 115.785C78.6274 116.137 78.3194 116.425 77.9274 116.649C77.5354 116.873 77.0674 116.985 76.5234 116.985Z" fill="#C63939"/>
<path d="M81.9741 116.865C81.5421 116.865 81.2061 116.761 80.9661 116.553C80.7261 116.345 80.6061 115.985 80.6061 115.473V112.917H79.8981V111.921C80.1061 111.921 80.2741 111.897 80.4021 111.849C80.5381 111.793 80.6381 111.677 80.7021 111.501C80.7741 111.317 80.8101 111.037 80.8101 110.661H81.9621V111.921H83.0901V112.917H81.9621V115.749H83.1141V116.865H81.9741Z" fill="#C63939"/>
<path d="M84.1018 116.865V110.109H85.6018V112.905H85.6258C85.6258 112.897 85.6458 112.841 85.6858 112.737C85.7338 112.633 85.8138 112.521 85.9258 112.401C86.0378 112.273 86.1938 112.161 86.3938 112.065C86.5938 111.969 86.8498 111.921 87.1618 111.921C87.5058 111.921 87.7898 111.985 88.0138 112.113C88.2378 112.233 88.4138 112.397 88.5418 112.605C88.6698 112.805 88.7618 113.021 88.8178 113.253C88.8738 113.485 88.9098 113.709 88.9258 113.925C88.9418 114.141 88.9498 114.325 88.9498 114.477V116.865H87.5338V114.465C87.5338 114.249 87.5138 114.045 87.4738 113.853C87.4338 113.661 87.3458 113.505 87.2098 113.385C87.0818 113.257 86.8738 113.193 86.5858 113.193C86.2978 113.193 86.0818 113.257 85.9378 113.385C85.7938 113.513 85.7018 113.677 85.6618 113.877C85.6218 114.077 85.6018 114.281 85.6018 114.489V116.865H84.1018Z" fill="#C63939"/>
<path d="M94.1716 116.865H92.7556V110.109H97.6276V111.345H94.1716V112.761H96.7756V113.925H94.1716V116.865Z" fill="#C63939"/>
<path d="M99.9985 116.985C99.4145 116.985 98.9385 116.865 98.5705 116.625C98.2105 116.385 97.9425 116.077 97.7665 115.701C97.5985 115.317 97.5105 114.913 97.5025 114.489C97.4945 113.969 97.5905 113.513 97.7905 113.121C97.9905 112.729 98.2745 112.425 98.6425 112.209C99.0185 111.993 99.4545 111.885 99.9505 111.885C100.406 111.885 100.814 111.981 101.174 112.173C101.534 112.365 101.818 112.641 102.026 113.001C102.234 113.353 102.342 113.773 102.35 114.261C102.35 114.269 102.35 114.313 102.35 114.393C102.35 114.473 102.35 114.533 102.35 114.573H98.8825C98.8825 114.981 98.9785 115.285 99.1705 115.485C99.3705 115.685 99.6385 115.785 99.9745 115.785C100.238 115.785 100.454 115.721 100.622 115.593C100.798 115.465 100.902 115.297 100.934 115.089H102.338C102.29 115.609 102.066 116.057 101.666 116.433C101.274 116.801 100.718 116.985 99.9985 116.985ZM98.9065 113.961H100.898C100.898 113.929 100.89 113.865 100.874 113.769C100.858 113.673 100.818 113.573 100.754 113.469C100.69 113.357 100.59 113.261 100.454 113.181C100.326 113.101 100.146 113.061 99.9145 113.061C99.6105 113.061 99.3865 113.125 99.2425 113.253C99.1065 113.373 99.0185 113.509 98.9785 113.661C98.9385 113.805 98.9145 113.905 98.9065 113.961Z" fill="#C63939"/>
<path d="M106.44 116.985C106.144 116.985 105.896 116.941 105.696 116.853C105.496 116.765 105.332 116.665 105.204 116.553C105.076 116.441 104.984 116.341 104.928 116.253C104.872 116.157 104.84 116.101 104.832 116.085H104.808L104.58 116.865H103.32V110.109H104.808L104.82 112.905H104.844C104.844 112.897 104.868 112.845 104.916 112.749C104.972 112.645 105.06 112.529 105.18 112.401C105.3 112.273 105.46 112.161 105.66 112.065C105.868 111.969 106.128 111.921 106.44 111.921C107.168 111.921 107.68 112.149 107.976 112.605C108.28 113.061 108.432 113.689 108.432 114.489C108.432 115.249 108.284 115.857 107.988 116.313C107.692 116.761 107.176 116.985 106.44 116.985ZM105.924 115.773C106.228 115.773 106.456 115.713 106.608 115.593C106.768 115.465 106.876 115.305 106.932 115.113C106.988 114.913 107.016 114.701 107.016 114.477C107.016 114.261 106.988 114.057 106.932 113.865C106.876 113.665 106.768 113.505 106.608 113.385C106.448 113.257 106.216 113.193 105.912 113.193C105.472 113.193 105.18 113.321 105.036 113.577C104.892 113.825 104.82 114.125 104.82 114.477C104.82 114.837 104.892 115.145 105.036 115.401C105.188 115.649 105.484 115.773 105.924 115.773Z" fill="#C63939"/>
<path d="M17.0881 113.501C17.0881 113.501 16.7881 112.94 16.2929 112.602C15.7964 112.266 15.347 112.612 15.3375 112.929C15.3281 113.247 15.8435 113.322 15.8435 113.5C15.8435 113.677 15.3281 113.753 15.3375 114.07C15.347 114.388 15.7964 114.735 16.2929 114.397C16.7894 114.062 17.0881 113.501 17.0881 113.501Z" fill="#C63939"/>
<path d="M18.0285 112.404C17.423 111.993 16.874 112.415 16.8632 112.804C16.8525 113.193 17.4808 113.284 17.4808 113.501C17.4808 113.718 16.8525 113.809 16.8632 114.198C16.874 114.587 17.423 115.009 18.0285 114.598C18.634 114.187 19 113.501 19 113.501C19 113.501 18.634 112.815 18.0285 112.404Z" fill="#C63939"/>
<path d="M15.0065 112.226C15.1653 112.353 15.7466 112.249 16.0735 112.277C16.4019 112.306 16.4907 112.596 16.6064 112.582C16.7234 112.568 16.6723 112.207 16.9428 112.151C17.2146 112.094 17.4016 112.094 17.3599 111.926C17.3182 111.758 16.387 111.369 15.764 111.613C15.1424 111.856 14.8477 112.1 15.0065 112.226Z" fill="#C63939"/>
<path d="M16.6064 114.418C16.4893 114.405 16.4005 114.694 16.0735 114.723C15.7466 114.751 15.1653 114.647 15.0065 114.774C14.8477 114.9 15.1424 115.144 15.764 115.387C16.3857 115.631 17.3182 115.242 17.3599 115.074C17.4016 114.906 17.2146 114.906 16.9428 114.849C16.6723 114.794 16.7234 114.433 16.6064 114.418Z" fill="#C63939"/>
<path d="M14.07 111.661C14.3875 111.652 14.7347 111.202 14.3969 110.706C14.0605 110.209 13.4994 109.911 13.4981 109.911C13.4981 109.911 12.937 110.211 12.5992 110.706C12.2629 111.202 12.6087 111.652 12.9276 111.661C13.2451 111.671 13.3205 111.155 13.4981 111.155C13.6771 111.157 13.7524 111.671 14.07 111.661Z" fill="#C63939"/>
<path d="M12.8023 110.138C13.1912 110.149 13.2827 109.521 13.4993 109.521C13.716 109.521 13.8075 110.149 14.1964 110.138C14.5852 110.127 15.0077 109.578 14.596 108.973C14.1856 108.366 13.4993 108 13.4993 108C13.4993 108 12.8131 108.366 12.4027 108.972C11.9909 109.578 12.4135 110.126 12.8023 110.138Z" fill="#C63939"/>
<path d="M12.225 111.993C12.3515 111.835 12.2479 111.253 12.2762 110.926C12.3044 110.598 12.5951 110.509 12.5803 110.392C12.5668 110.275 12.2062 110.326 12.1497 110.056C12.0932 109.784 12.0932 109.597 11.925 109.639C11.7568 109.68 11.3679 110.611 11.6114 111.234C11.8563 111.857 12.0985 112.154 12.225 111.993Z" fill="#C63939"/>
<path d="M14.8488 110.056C14.7923 110.328 14.4317 110.275 14.4182 110.392C14.4047 110.509 14.694 110.598 14.7223 110.926C14.7506 111.253 14.6469 111.835 14.7734 111.994C14.8999 112.152 15.1435 111.858 15.387 111.236C15.6306 110.613 15.2417 109.682 15.0735 109.64C14.904 109.598 14.904 109.785 14.8488 110.056Z" fill="#C63939"/>
<path d="M11.1553 113.501C11.1553 113.323 11.6707 113.248 11.6612 112.93C11.6518 112.613 11.2024 112.266 10.7072 112.603C10.2107 112.94 9.912 113.501 9.912 113.502C9.912 113.502 10.2121 114.063 10.7072 114.401C11.2038 114.737 11.6518 114.392 11.6612 114.074C11.6693 113.754 11.1553 113.678 11.1553 113.501Z" fill="#C63939"/>
<path d="M10.1368 114.198C10.1489 113.809 9.51917 113.718 9.51917 113.501C9.51917 113.284 10.1476 113.193 10.1368 112.804C10.126 112.415 9.57703 111.993 8.97152 112.404C8.36601 112.816 8.00001 113.501 8.00001 113.501C8.00001 113.501 8.36601 114.187 8.97152 114.598C9.57703 115.009 10.1247 114.587 10.1368 114.198Z" fill="#C63939"/>
<path d="M11.9923 114.775C11.8335 114.649 11.2522 114.752 10.9252 114.724C10.5969 114.696 10.5081 114.405 10.391 114.42C10.274 114.433 10.3251 114.794 10.0546 114.851C9.78283 114.907 9.5958 114.907 9.63751 115.075C9.67922 115.243 10.6104 115.632 11.2334 115.389C11.8564 115.145 12.1524 114.902 11.9923 114.775Z" fill="#C63939"/>
<path d="M10.3922 112.583C10.5093 112.596 10.5981 112.307 10.9264 112.279C11.2534 112.251 11.8347 112.354 11.9935 112.228C12.1523 112.101 11.8576 111.858 11.2359 111.614C10.6129 111.371 9.68178 111.76 9.64007 111.928C9.59836 112.096 9.78539 112.096 10.0572 112.152C10.3263 112.208 10.2752 112.568 10.3922 112.583Z" fill="#C63939"/>
<path d="M12.9289 115.34C12.61 115.35 12.2642 115.799 12.6006 116.294C12.937 116.791 13.4994 117.09 13.4994 117.09C13.4994 117.09 14.0605 116.79 14.3983 116.294C14.7347 115.798 14.3888 115.35 14.0713 115.34C13.7524 115.331 13.6784 115.846 13.5008 115.846C13.3218 115.845 13.2464 115.331 12.9289 115.34Z" fill="#C63939"/>
<path d="M14.1964 116.863C13.8075 116.853 13.716 117.481 13.4993 117.481C13.2827 117.481 13.1912 116.853 12.8023 116.863C12.4135 116.874 11.991 117.423 12.4027 118.029C12.8144 118.634 13.4993 119 13.4993 119C13.4993 119 14.1856 118.634 14.5973 118.029C15.0077 117.423 14.5852 116.876 14.1964 116.863Z" fill="#C63939"/>
<path d="M14.7734 115.008C14.6469 115.167 14.7506 115.748 14.7223 116.075C14.694 116.403 14.4034 116.492 14.4182 116.609C14.4317 116.726 14.7923 116.675 14.8488 116.945C14.9053 117.217 14.9053 117.404 15.0735 117.362C15.2417 117.321 15.6306 116.39 15.387 115.767C15.1435 115.144 14.8999 114.848 14.7734 115.008Z" fill="#C63939"/>
<path d="M12.151 116.945C12.2075 116.674 12.5668 116.726 12.5816 116.609C12.595 116.492 12.3057 116.403 12.2775 116.075C12.2492 115.748 12.3528 115.167 12.2263 115.008C12.0999 114.849 11.8563 115.144 11.6128 115.765C11.3692 116.388 11.7581 117.319 11.9263 117.361C12.0945 117.403 12.0945 117.216 12.151 116.945Z" fill="#C63939"/>
<path d="M11.9398 113.501C11.9398 112.641 12.6395 111.941 13.4993 111.941C14.3591 111.941 15.0588 112.641 15.0588 113.501C15.0588 114.361 14.3591 115.06 13.4993 115.06C12.6395 115.06 11.9398 114.361 11.9398 113.501ZM13.4993 114.657C14.1371 114.657 14.6552 114.137 14.6552 113.501C14.6552 112.863 14.1358 112.345 13.4993 112.345C12.8615 112.345 12.3435 112.864 12.3435 113.501C12.3435 114.139 12.8615 114.657 13.4993 114.657Z" fill="#C63939"/>
<path d="M13.4994 114.215C13.1051 114.215 12.7849 113.895 12.7849 113.501C12.7849 113.106 13.1051 112.786 13.4994 112.786C13.8936 112.786 14.2139 113.106 14.2139 113.501C14.2139 113.895 13.8936 114.215 13.4994 114.215ZM13.4994 113.811C13.6703 113.811 13.8102 113.673 13.8102 113.501C13.8102 113.33 13.6703 113.19 13.4994 113.19C13.3285 113.19 13.1885 113.33 13.1885 113.501C13.1885 113.672 13.3285 113.811 13.4994 113.811Z" fill="#C63939"/>
<path d="M129.088 113.501C129.088 113.501 128.788 112.94 128.293 112.602C127.796 112.266 127.347 112.612 127.338 112.929C127.328 113.247 127.843 113.322 127.843 113.5C127.843 113.677 127.328 113.753 127.338 114.07C127.347 114.388 127.796 114.735 128.293 114.397C128.789 114.062 129.088 113.501 129.088 113.501Z" fill="#C63939"/>
<path d="M130.028 112.404C129.423 111.993 128.874 112.415 128.863 112.804C128.852 113.193 129.481 113.284 129.481 113.501C129.481 113.718 128.852 113.809 128.863 114.198C128.874 114.587 129.423 115.009 130.028 114.598C130.634 114.187 131 113.501 131 113.501C131 113.501 130.634 112.815 130.028 112.404Z" fill="#C63939"/>
<path d="M127.006 112.226C127.165 112.353 127.747 112.249 128.074 112.277C128.402 112.306 128.491 112.596 128.606 112.582C128.723 112.568 128.672 112.207 128.943 112.151C129.215 112.094 129.402 112.094 129.36 111.926C129.318 111.758 128.387 111.369 127.764 111.613C127.142 111.856 126.848 112.1 127.006 112.226Z" fill="#C63939"/>
<path d="M128.606 114.418C128.489 114.405 128.401 114.694 128.074 114.723C127.747 114.751 127.165 114.647 127.006 114.774C126.848 114.9 127.142 115.144 127.764 115.387C128.386 115.631 129.318 115.242 129.36 115.074C129.402 114.906 129.215 114.906 128.943 114.849C128.672 114.794 128.723 114.433 128.606 114.418Z" fill="#C63939"/>
<path d="M126.07 111.661C126.388 111.652 126.735 111.202 126.397 110.706C126.061 110.209 125.499 109.911 125.498 109.911C125.498 109.911 124.937 110.211 124.599 110.706C124.263 111.202 124.609 111.652 124.928 111.661C125.245 111.671 125.32 111.155 125.498 111.155C125.677 111.157 125.752 111.671 126.07 111.661Z" fill="#C63939"/>
<path d="M124.802 110.138C125.191 110.149 125.283 109.521 125.499 109.521C125.716 109.521 125.807 110.149 126.196 110.138C126.585 110.127 127.008 109.578 126.596 108.973C126.186 108.366 125.499 108 125.499 108C125.499 108 124.813 108.366 124.403 108.972C123.991 109.578 124.413 110.126 124.802 110.138Z" fill="#C63939"/>
<path d="M124.225 111.993C124.352 111.835 124.248 111.253 124.276 110.926C124.304 110.598 124.595 110.509 124.58 110.392C124.567 110.275 124.206 110.326 124.15 110.056C124.093 109.784 124.093 109.597 123.925 109.639C123.757 109.68 123.368 110.611 123.611 111.234C123.856 111.857 124.099 112.154 124.225 111.993Z" fill="#C63939"/>
<path d="M126.849 110.056C126.792 110.328 126.432 110.275 126.418 110.392C126.405 110.509 126.694 110.598 126.722 110.926C126.751 111.253 126.647 111.835 126.773 111.994C126.9 112.152 127.143 111.858 127.387 111.236C127.631 110.613 127.242 109.682 127.073 109.64C126.904 109.598 126.904 109.785 126.849 110.056Z" fill="#C63939"/>
<path d="M123.155 113.501C123.155 113.323 123.671 113.248 123.661 112.93C123.652 112.613 123.202 112.266 122.707 112.603C122.211 112.94 121.912 113.501 121.912 113.502C121.912 113.502 122.212 114.063 122.707 114.401C123.204 114.737 123.652 114.392 123.661 114.074C123.669 113.754 123.155 113.678 123.155 113.501Z" fill="#C63939"/>
<path d="M122.137 114.198C122.149 113.809 121.519 113.718 121.519 113.501C121.519 113.284 122.148 113.193 122.137 112.804C122.126 112.415 121.577 111.993 120.972 112.404C120.366 112.816 120 113.501 120 113.501C120 113.501 120.366 114.187 120.972 114.598C121.577 115.009 122.125 114.587 122.137 114.198Z" fill="#C63939"/>
<path d="M123.992 114.775C123.833 114.649 123.252 114.752 122.925 114.724C122.597 114.696 122.508 114.405 122.391 114.42C122.274 114.433 122.325 114.794 122.055 114.851C121.783 114.907 121.596 114.907 121.638 115.075C121.679 115.243 122.61 115.632 123.233 115.389C123.856 115.145 124.152 114.902 123.992 114.775Z" fill="#C63939"/>
<path d="M122.392 112.583C122.509 112.596 122.598 112.307 122.926 112.279C123.253 112.251 123.835 112.354 123.993 112.228C124.152 112.101 123.858 111.858 123.236 111.614C122.613 111.371 121.682 111.76 121.64 111.928C121.598 112.096 121.785 112.096 122.057 112.152C122.326 112.208 122.275 112.568 122.392 112.583Z" fill="#C63939"/>
<path d="M124.929 115.34C124.61 115.35 124.264 115.799 124.601 116.294C124.937 116.791 125.499 117.09 125.499 117.09C125.499 117.09 126.061 116.79 126.398 116.294C126.735 115.798 126.389 115.35 126.071 115.34C125.752 115.331 125.678 115.846 125.501 115.846C125.322 115.845 125.246 115.331 124.929 115.34Z" fill="#C63939"/>
<path d="M126.196 116.863C125.807 116.853 125.716 117.481 125.499 117.481C125.283 117.481 125.191 116.853 124.802 116.863C124.413 116.874 123.991 117.423 124.403 118.029C124.814 118.634 125.499 119 125.499 119C125.499 119 126.186 118.634 126.597 118.029C127.008 117.423 126.585 116.876 126.196 116.863Z" fill="#C63939"/>
<path d="M126.773 115.008C126.647 115.167 126.751 115.748 126.722 116.075C126.694 116.403 126.403 116.492 126.418 116.609C126.432 116.726 126.792 116.675 126.849 116.945C126.905 117.217 126.905 117.404 127.073 117.362C127.242 117.321 127.631 116.39 127.387 115.767C127.143 115.144 126.9 114.848 126.773 115.008Z" fill="#C63939"/>
<path d="M124.151 116.945C124.208 116.674 124.567 116.726 124.582 116.609C124.595 116.492 124.306 116.403 124.277 116.075C124.249 115.748 124.353 115.167 124.226 115.008C124.1 114.849 123.856 115.144 123.613 115.765C123.369 116.388 123.758 117.319 123.926 117.361C124.094 117.403 124.094 117.216 124.151 116.945Z" fill="#C63939"/>
<path d="M123.94 113.501C123.94 112.641 124.639 111.941 125.499 111.941C126.359 111.941 127.059 112.641 127.059 113.501C127.059 114.361 126.359 115.06 125.499 115.06C124.639 115.06 123.94 114.361 123.94 113.501ZM125.499 114.657C126.137 114.657 126.655 114.137 126.655 113.501C126.655 112.863 126.136 112.345 125.499 112.345C124.862 112.345 124.343 112.864 124.343 113.501C124.343 114.139 124.862 114.657 125.499 114.657Z" fill="#C63939"/>
<path d="M125.499 114.215C125.105 114.215 124.785 113.895 124.785 113.501C124.785 113.106 125.105 112.786 125.499 112.786C125.894 112.786 126.214 113.106 126.214 113.501C126.214 113.895 125.894 114.215 125.499 114.215ZM125.499 113.811C125.67 113.811 125.81 113.673 125.81 113.501C125.81 113.33 125.67 113.19 125.499 113.19C125.328 113.19 125.189 113.33 125.189 113.501C125.189 113.672 125.328 113.811 125.499 113.811Z" fill="#C63939"/>
</svg>
