<svg width="139" height="109" viewBox="0 0 139 109" fill="none" xmlns="http://www.w3.org/2000/svg">
<path d="M138.857 0.5H0V108.5H138.857V0.5Z" fill="#181818"/>
<path d="M131.143 8.21436H7.71436V85.3572H131.143V8.21436Z" fill="#F5E7D3"/>
<rect width="7.71429" height="42.4286" transform="matrix(4.37114e-08 1 1 -4.37114e-08 15.4287 15.929)" fill="#181818"/>
<path fill-rule="evenodd" clip-rule="evenodd" d="M92.5714 15.9282L100.286 15.9282L100.286 35.2139L123.428 35.2139V42.9282L100.286 42.9282V42.9282H92.5714L92.5714 42.9282H92.5713L92.5713 35.2139H92.5714L92.5714 15.9282Z" fill="#181818"/>
<path fill-rule="evenodd" clip-rule="evenodd" d="M123.429 50.6426L123.429 77.6426H115.715L115.715 69.9283H100.286L100.286 77.6426H92.5718V50.6426H123.429ZM115.715 62.214V58.3569L100.286 58.3569L100.286 62.214H115.715Z" fill="#181818"/>
<path fill-rule="evenodd" clip-rule="evenodd" d="M38.5716 31.3569H46.2859V77.6426H15.4287V69.9284H38.5716V60.15C36.3022 61.4628 33.6675 62.2141 30.8573 62.2141C22.3363 62.2141 15.4287 55.3065 15.4287 46.7855C15.4287 38.2645 22.3363 31.3569 30.8573 31.3569C33.6675 31.3569 36.3022 32.1083 38.5716 33.421V31.3569ZM30.8573 54.4998C35.1178 54.4998 38.5716 51.046 38.5716 46.7855C38.5716 42.525 35.1178 39.0712 30.8573 39.0712C26.5968 39.0712 23.143 42.525 23.143 46.7855C23.143 51.046 26.5968 54.4998 30.8573 54.4998Z" fill="#181818"/>
<path fill-rule="evenodd" clip-rule="evenodd" d="M84.8571 15.9282H65.5714V31.8429C58.917 33.5556 54 39.5963 54 46.7854C54 53.9745 58.917 60.0151 65.5714 61.7279V69.9282H54V77.6425H84.8571V69.9282H73.2857V61.7279C79.9402 60.0151 84.8571 53.9745 84.8571 46.7854C84.8571 39.5963 79.9402 33.5556 73.2857 31.8429V23.6425H84.8571V15.9282ZM69.4286 54.4997C73.6891 54.4997 77.1429 51.0458 77.1429 46.7854C77.1429 42.5249 73.6891 39.0711 69.4286 39.0711C65.1681 39.0711 61.7143 42.5249 61.7143 46.7854C61.7143 51.0458 65.1681 54.4997 69.4286 54.4997Z" fill="#181818"/>
<path d="M10.6653 96.6983H13.8111V97.8943C13.8111 99.4599 13.4172 100.189 10.7236 100.189C8.03006 100.189 7.63623 99.3675 7.63623 96.8441C7.63623 94.3402 8.03006 93.499 10.7236 93.499C13.4172 93.499 13.8111 94.2915 13.8111 95.6967H12.3865C12.3865 94.7194 12.1482 94.452 10.7236 94.452C9.29906 94.452 9.06082 94.6708 9.06082 96.8441C9.06082 99.0321 9.29906 99.2363 10.7236 99.2363C12.1482 99.2363 12.3865 99.0369 12.3865 97.8992V97.661H10.6653V96.6983Z" fill="#F5E7D3"/>
<path d="M19.6799 93.5894C21.4351 93.5894 22.2325 94.4305 22.2325 95.5974C22.2325 96.2684 21.9456 96.8615 21.3087 97.0901V97.1873C21.9505 97.4353 22.2325 97.8874 22.2325 98.6119V100.085H20.8079V98.5633C20.8079 98.0868 20.6669 97.5131 19.7382 97.5131H17.6038V100.095H16.1792V93.5942H19.6799V93.5894ZM19.6215 96.5552C20.5453 96.5552 20.8079 96.2197 20.8079 95.5974C20.8079 94.975 20.5453 94.5472 19.6215 94.5472H17.6038V96.5552H19.6215Z" fill="#F5E7D3"/>
<path d="M26.7977 93.5453H28.339L30.8916 99.759V100.095H29.5886L29.044 98.7574H26.1025L25.5579 100.095H24.2549V99.759L26.7977 93.5453ZM27.5125 94.8824L27.2159 95.9812L26.4817 97.7996H28.6648L27.9306 95.9812L27.6292 94.8824H27.5125Z" fill="#F5E7D3"/>
<path d="M36.5266 93.5894C38.2818 93.5894 39.0792 94.3819 39.0792 95.6946C39.0792 96.9928 38.2818 97.7999 36.5266 97.7999H34.4505V100.095H33.0259V93.5942H36.5266V93.5894ZM36.4682 96.8421C37.392 96.8421 37.6546 96.458 37.6546 95.6946C37.6546 94.9313 37.392 94.5472 36.4682 94.5472H34.4505V96.8421H36.4682Z" fill="#F5E7D3"/>
<path d="M42.8719 97.27V100.09H41.4473V93.5894H42.8719V96.3121H45.9593V93.5894H47.3839V100.09H45.9593V97.27H42.8719Z" fill="#F5E7D3"/>
<path d="M56.1159 101.831C55.7221 101.928 55.022 102.001 54.599 102.001C53.364 102.001 52.1777 101.388 52.129 100.163C50.0772 100.012 49.7563 99.1224 49.7563 96.8372C49.7563 94.3332 50.1502 93.4921 52.8438 93.4921C55.5374 93.4921 55.9312 94.3332 55.9312 96.8372C55.9312 99.1224 55.6103 100.012 53.5585 100.163C53.5925 100.878 54.1614 101.033 54.8858 101.033C55.2554 101.033 55.6443 100.985 55.9555 100.916L56.1159 101.831ZM52.8389 99.1369C54.2051 99.1369 54.4385 98.9376 54.4385 96.842C54.4385 94.7659 54.2003 94.5471 52.8389 94.5471C51.4727 94.5471 51.2393 94.7659 51.2393 96.842C51.2393 98.9376 51.4775 99.1369 52.8389 99.1369Z" fill="#F5E7D3"/>
<path d="M58.5327 100.094V93.5939H59.9573V99.1415H62.6849V97.8968H64.1095V100.094H58.5327Z" fill="#F5E7D3"/>
<path d="M77.3388 93.5453H78.88L81.4326 99.759V100.095H80.1296L79.585 98.7574H76.6435L76.0989 100.095H74.7959V99.759L77.3388 93.5453ZM78.0486 94.8824L77.752 95.9812L77.0179 97.7996H79.2009L78.4668 95.9812L78.1702 94.8824H78.0486Z" fill="#F5E7D3"/>
<path d="M84.8704 97.7991C84.8704 99.0341 85.1087 99.2335 86.5332 99.2335C87.9578 99.2335 88.1961 99.0341 88.1961 98.3729C88.1961 97.0358 83.509 97.7019 83.509 95.407C83.509 94.3374 84.1994 93.4962 86.5332 93.4962C89.1101 93.4962 89.5575 94.2401 89.5575 95.8884H88.1329C88.1329 94.6728 87.8946 94.454 86.5332 94.454C85.2253 94.454 84.9336 94.6728 84.9336 95.4119C84.9336 96.6566 89.6207 95.9856 89.6207 98.2805C89.6207 99.3696 89.2268 100.191 86.5381 100.191C83.8445 100.191 83.4507 99.4668 83.4507 97.7991H84.8704Z" fill="#F5E7D3"/>
<path d="M95.669 94.5472V99.137H97.4485V100.095H92.4648V99.137H94.2444V94.5472H92.4648V93.5894H97.4485V94.5472H95.669Z" fill="#F5E7D3"/>
<path d="M102.607 93.5453H104.149L106.701 99.759V100.095H105.393L104.849 98.7574H101.907L101.363 100.095H100.06V99.759L102.607 93.5453ZM103.322 94.8824L103.025 95.9812L102.291 97.7996H104.474L103.74 95.9812L103.444 94.8824H103.322Z" fill="#F5E7D3"/>
<path d="M112.516 93.5894V95.787H111.568L111.091 94.7368V93.5894H112.516Z" fill="#F5E7D3"/>
<path d="M121.885 99.1368V98.179H123.31V100.09H117.14V98.5582C117.14 96.2633 121.827 96.7884 121.827 95.4027C121.827 94.6685 121.53 94.4449 120.227 94.4449C118.861 94.4449 118.627 94.6637 118.627 95.8792H117.203C117.203 94.2358 117.655 93.4871 120.227 93.4871C122.566 93.4871 123.251 94.3282 123.251 95.3979C123.251 97.8289 118.564 97.119 118.564 98.6506V99.1271H121.885V99.1368Z" fill="#F5E7D3"/>
<path d="M129.363 93.5451V99.1365H131.143V100.094H126.159V99.1365H127.939V94.644L126.159 94.9308V93.973L128.415 93.5403H129.363V93.5451Z" fill="#F5E7D3"/>
</svg>
