<svg width="199" height="298" viewBox="0 0 199 298" fill="none" xmlns="http://www.w3.org/2000/svg">
<mask id="mask0" mask-type="alpha" maskUnits="userSpaceOnUse" x="100" y="198" width="99" height="100">
<path d="M199 297.375L199 198L100 198L100 297.375L199 297.375Z" fill="#C63939"/>
</mask>
<g mask="url(#mask0)">
<path d="M199 297.375L199 198L100 198L100 297.375L199 297.375Z" fill="#C63939"/>
<path d="M151.444 246.592L159.348 244.674C159.671 244.596 159.998 244.794 160.076 245.122C160.157 245.447 159.956 245.774 159.629 245.853L152.067 247.69L159.629 249.527C159.953 249.605 160.154 249.932 160.076 250.257C159.998 250.582 159.671 250.783 159.348 250.705L151.444 248.787L155.547 252.906C157.326 254.692 160.219 254.692 161.999 252.906L163.316 251.583C164.353 250.543 164.922 249.16 164.922 247.69C164.922 246.219 164.353 244.836 163.316 243.796L161.999 242.473C160.219 240.687 157.326 240.687 155.547 242.473L151.444 246.592Z" fill="#F5E7D3"/>
<path d="M153.378 233.814C151.24 231.667 147.759 231.667 145.621 233.814L144.303 235.137C142.524 236.923 142.524 239.83 144.303 241.616L148.406 245.735L146.495 237.801C146.483 237.753 146.477 237.705 146.477 237.656C146.477 237.383 146.663 237.133 146.938 237.067C147.262 236.989 147.588 237.187 147.666 237.515L149.496 245.107L151.326 237.515C151.404 237.19 151.731 236.989 152.054 237.067C152.378 237.145 152.578 237.473 152.501 237.798L150.59 245.732L154.693 241.613C155.583 240.72 156.026 239.548 156.026 238.375C156.026 237.202 155.583 236.03 154.693 235.137L153.378 233.814Z" fill="#F5E7D3"/>
<path d="M147.553 248.784L139.648 250.702C139.325 250.78 138.998 250.582 138.921 250.254C138.909 250.206 138.903 250.158 138.903 250.11C138.903 249.836 139.088 249.587 139.364 249.521L146.927 247.684L139.364 245.847C139.088 245.781 138.903 245.531 138.903 245.257C138.903 245.209 138.909 245.161 138.921 245.113C138.998 244.788 139.325 244.587 139.648 244.665L147.553 246.583L143.449 242.464C141.67 240.679 138.774 240.679 136.998 242.464L135.68 243.787C133.541 245.934 133.541 249.428 135.68 251.574L136.998 252.897C138.777 254.683 141.67 254.683 143.449 252.897L147.553 248.784Z" fill="#F5E7D3"/>
<path d="M150.59 249.64L152.501 257.574C152.579 257.899 152.381 258.227 152.055 258.305C151.731 258.383 151.405 258.185 151.327 257.857L149.497 250.266L147.667 257.857C147.589 258.182 147.262 258.383 146.939 258.305C146.663 258.239 146.478 257.989 146.478 257.716C146.478 257.668 146.484 257.62 146.496 257.571L148.407 249.637L144.303 253.756C142.524 255.542 142.524 258.449 144.303 260.235L145.621 261.558C147.76 263.705 151.24 263.705 153.379 261.558L154.696 260.235C156.476 258.449 156.476 255.545 154.696 253.756L150.59 249.64Z" fill="#F5E7D3"/>
<path d="M157.235 240.221C159.245 239.545 161.557 240.011 163.154 241.613L164.472 242.936C165.736 244.205 166.434 245.891 166.434 247.686C166.434 249.481 165.739 251.168 164.472 252.437L163.154 253.759C161.554 255.365 159.245 255.828 157.235 255.151C157.909 257.169 157.445 259.49 155.849 261.092L154.531 262.415C151.922 265.034 147.675 265.034 145.066 262.415L143.748 261.092C142.622 259.962 142.062 258.48 142.062 256.997C142.062 256.372 142.164 255.75 142.361 255.151C140.351 255.828 138.039 255.365 136.443 253.759L135.125 252.437C133.819 251.126 133.166 249.406 133.166 247.686C133.166 245.966 133.819 244.244 135.125 242.936L136.443 241.613C138.042 240.008 140.351 239.545 142.361 240.221C142.161 239.623 142.062 239 142.062 238.375C142.062 236.893 142.625 235.408 143.748 234.28L145.066 232.957C147.675 230.338 151.922 230.338 154.531 232.957L155.849 234.28C157.445 235.883 157.909 238.204 157.235 240.221ZM143.748 252.903L147.851 248.784L139.947 250.702C139.624 250.78 139.297 250.581 139.219 250.254C139.207 250.206 139.201 250.158 139.201 250.109C139.201 249.836 139.387 249.586 139.663 249.52L147.225 247.683L139.663 245.846C139.387 245.78 139.201 245.531 139.201 245.257C139.201 245.209 139.207 245.161 139.219 245.113C139.297 244.788 139.624 244.586 139.947 244.665L147.851 246.583L143.748 242.464C141.969 240.678 139.073 240.678 137.296 242.464L135.979 243.787C133.84 245.933 133.84 249.427 135.979 251.574L137.296 252.897C139.073 254.688 141.969 254.688 143.748 252.903ZM154.995 253.759L150.892 249.64L152.802 257.575C152.88 257.899 152.683 258.227 152.356 258.305C152.033 258.383 151.706 258.185 151.628 257.857L149.798 250.266L147.968 257.857C147.89 258.182 147.564 258.383 147.24 258.305C146.965 258.239 146.779 257.99 146.779 257.716C146.779 257.668 146.785 257.62 146.797 257.572L148.708 249.637L144.605 253.756C142.826 255.542 142.826 258.45 144.605 260.235L145.923 261.558C148.061 263.705 151.542 263.705 153.68 261.558L154.998 260.235C156.771 258.453 156.771 255.545 154.995 253.759ZM155.849 242.47L151.745 246.589L159.649 244.671C159.973 244.592 160.299 244.791 160.377 245.119C160.458 245.443 160.258 245.771 159.931 245.849L152.368 247.686L159.931 249.523C160.255 249.601 160.455 249.929 160.377 250.254C160.299 250.578 159.973 250.78 159.649 250.702L151.745 248.784L155.849 252.903C157.628 254.688 160.521 254.688 162.3 252.903L163.618 251.58C164.654 250.539 165.224 249.156 165.224 247.686C165.224 246.216 164.654 244.833 163.618 243.793L162.3 242.47C160.521 240.687 157.628 240.687 155.849 242.47ZM156.328 238.375C156.328 237.202 155.885 236.03 154.995 235.137L153.677 233.814C151.539 231.667 148.058 231.667 145.92 233.814L144.602 235.137C142.823 236.923 142.823 239.83 144.602 241.616L148.705 245.735L146.794 237.801C146.782 237.753 146.776 237.704 146.776 237.656C146.776 237.383 146.962 237.133 147.237 237.067C147.561 236.989 147.887 237.187 147.965 237.515L149.795 245.107L151.625 237.515C151.703 237.19 152.03 236.989 152.353 237.067C152.677 237.145 152.877 237.473 152.799 237.798L150.889 245.732L154.992 241.613C155.885 240.72 156.328 239.548 156.328 238.375Z" fill="black"/>
<path d="M151.444 296.462L159.348 294.544C159.671 294.465 159.998 294.664 160.076 294.992C160.157 295.316 159.956 295.644 159.629 295.722L152.067 297.559L159.629 299.396C159.953 299.474 160.154 299.802 160.076 300.127C159.998 300.451 159.671 300.653 159.348 300.575L151.444 298.657L155.547 302.776C157.326 304.561 160.219 304.561 161.999 302.776L163.316 301.453C164.353 300.412 164.922 299.029 164.922 297.559C164.922 296.089 164.353 294.706 163.316 293.666L161.999 292.343C160.219 290.557 157.326 290.557 155.547 292.343L151.444 296.462Z" fill="#F5E7D3"/>
<path d="M153.378 283.683C151.24 281.537 147.759 281.537 145.621 283.683L144.303 285.006C142.524 286.792 142.524 289.699 144.303 291.485L148.406 295.604L146.495 287.67C146.483 287.622 146.477 287.574 146.477 287.526C146.477 287.252 146.663 287.002 146.938 286.936C147.262 286.858 147.588 287.057 147.666 287.384L149.496 294.976L151.326 287.384C151.404 287.06 151.731 286.858 152.054 286.936C152.378 287.014 152.578 287.342 152.501 287.667L150.59 295.601L154.693 291.482C155.583 290.589 156.026 289.417 156.026 288.244C156.026 287.072 155.583 285.899 154.693 285.006L153.378 283.683Z" fill="#F5E7D3"/>
<path d="M147.553 298.653L139.648 300.571C139.325 300.65 138.998 300.451 138.921 300.123C138.909 300.075 138.903 300.027 138.903 299.979C138.903 299.706 139.088 299.456 139.364 299.39L146.927 297.553L139.364 295.716C139.088 295.65 138.903 295.4 138.903 295.127C138.903 295.079 138.909 295.03 138.921 294.982C138.998 294.658 139.325 294.456 139.648 294.534L147.553 296.453L143.449 292.334C141.67 290.548 138.774 290.548 136.998 292.334L135.68 293.656C133.541 295.803 133.541 299.297 135.68 301.443L136.998 302.766C138.777 304.552 141.67 304.552 143.449 302.766L147.553 298.653Z" fill="#F5E7D3"/>
<path d="M157.235 290.091C159.245 289.414 161.557 289.88 163.154 291.483L164.472 292.806C165.736 294.074 166.434 295.761 166.434 297.556C166.434 299.351 165.739 301.037 164.472 302.306L163.154 303.629C161.554 305.235 159.245 305.698 157.235 305.021C157.909 307.038 157.445 309.359 155.849 310.962L154.531 312.285C151.922 314.904 147.675 314.904 145.066 312.285L143.748 310.962C142.622 309.832 142.062 308.349 142.062 306.867C142.062 306.242 142.164 305.619 142.361 305.021C140.351 305.698 138.039 305.235 136.443 303.629L135.125 302.306C133.819 300.995 133.166 299.276 133.166 297.556C133.166 295.836 133.819 294.113 135.125 292.806L136.443 291.483C138.042 289.877 140.351 289.414 142.361 290.091C142.161 289.492 142.062 288.87 142.062 288.245C142.062 286.762 142.625 285.277 143.748 284.15L145.066 282.827C147.675 280.208 151.922 280.208 154.531 282.827L155.849 284.15C157.445 285.752 157.909 288.073 157.235 290.091ZM143.748 302.772L147.851 298.653L139.947 300.571C139.624 300.65 139.297 300.451 139.219 300.123C139.207 300.075 139.201 300.027 139.201 299.979C139.201 299.706 139.387 299.456 139.663 299.39L147.225 297.553L139.663 295.716C139.387 295.65 139.201 295.4 139.201 295.127C139.201 295.078 139.207 295.03 139.219 294.982C139.297 294.658 139.624 294.456 139.947 294.534L147.851 296.452L143.748 292.333C141.969 290.548 139.073 290.548 137.296 292.333L135.979 293.656C133.84 295.803 133.84 299.297 135.979 301.443L137.296 302.766C139.073 304.558 141.969 304.558 143.748 302.772ZM154.995 303.629L150.892 299.51L152.802 307.444C152.88 307.769 152.683 308.097 152.356 308.175C152.033 308.253 151.706 308.055 151.628 307.727L149.798 300.135L147.968 307.727C147.89 308.052 147.564 308.253 147.24 308.175C146.965 308.109 146.779 307.859 146.779 307.586C146.779 307.538 146.785 307.489 146.797 307.441L148.708 299.507L144.605 303.626C142.826 305.412 142.826 308.319 144.605 310.105L145.923 311.428C148.061 313.575 151.542 313.575 153.68 311.428L154.998 310.105C156.771 308.322 156.771 305.415 154.995 303.629ZM155.849 292.339L151.745 296.458L159.649 294.54C159.973 294.462 160.299 294.661 160.377 294.988C160.458 295.313 160.258 295.641 159.931 295.719L152.368 297.556L159.931 299.393C160.255 299.471 160.455 299.799 160.377 300.123C160.299 300.448 159.973 300.65 159.649 300.571L151.745 298.653L155.849 302.772C157.628 304.558 160.521 304.558 162.3 302.772L163.618 301.449C164.654 300.409 165.224 299.026 165.224 297.556C165.224 296.086 164.654 294.703 163.618 293.662L162.3 292.339C160.521 290.557 157.628 290.557 155.849 292.339ZM156.328 288.245C156.328 287.072 155.885 285.899 154.995 285.007L153.677 283.684C151.539 281.537 148.058 281.537 145.92 283.684L144.602 285.007C142.823 286.792 142.823 289.7 144.602 291.486L148.705 295.605L146.794 287.67C146.782 287.622 146.776 287.574 146.776 287.526C146.776 287.252 146.962 287.003 147.237 286.937C147.561 286.859 147.887 287.057 147.965 287.385L149.795 294.976L151.625 287.385C151.703 287.06 152.03 286.859 152.353 286.937C152.677 287.015 152.877 287.343 152.799 287.667L150.889 295.602L154.992 291.483C155.885 290.59 156.328 289.417 156.328 288.245Z" fill="black"/>
<path d="M202.87 233.827C200.732 231.68 197.251 231.68 195.113 233.827L193.795 235.15C192.016 236.936 192.016 239.843 193.795 241.629L197.898 245.748L195.987 237.814C195.975 237.766 195.969 237.718 195.969 237.67C195.969 237.396 196.155 237.146 196.431 237.08C196.754 237.002 197.081 237.2 197.158 237.528L198.988 245.12L200.822 237.528C200.899 237.204 201.226 237.002 201.549 237.08C201.873 237.158 202.074 237.486 201.996 237.811L200.085 245.745L204.188 241.626C205.078 240.733 205.521 239.561 205.521 238.388C205.521 237.216 205.078 236.043 204.188 235.15L202.87 233.827Z" fill="#F5E7D3"/>
<path d="M197.048 248.796L189.144 250.714C188.82 250.792 188.494 250.594 188.416 250.266C188.404 250.218 188.398 250.17 188.398 250.122C188.398 249.848 188.583 249.598 188.859 249.532L196.422 247.695L188.859 245.858C188.583 245.792 188.398 245.543 188.398 245.269C188.398 245.221 188.404 245.173 188.416 245.125C188.494 244.8 188.82 244.599 189.144 244.677L197.048 246.595L192.944 242.476C191.165 240.69 188.269 240.69 186.493 242.476L185.175 243.799C183.036 245.946 183.036 249.439 185.175 251.586L186.493 252.909C188.272 254.695 191.165 254.695 192.944 252.909L197.048 248.796Z" fill="#F5E7D3"/>
<path d="M200.085 249.653L201.996 257.588C202.073 257.912 201.876 258.24 201.549 258.318C201.226 258.396 200.899 258.198 200.821 257.87L198.991 250.279L197.161 257.87C197.083 258.195 196.757 258.396 196.433 258.318C196.158 258.252 195.972 258.002 195.972 257.729C195.972 257.681 195.978 257.633 195.99 257.585L197.901 249.65L193.798 253.769C192.019 255.555 192.019 258.462 193.798 260.248L195.116 261.571C197.254 263.718 200.735 263.718 202.873 261.571L204.191 260.248C205.97 258.462 205.97 255.558 204.191 253.769L200.085 249.653Z" fill="#F5E7D3"/>
<path d="M206.728 240.233C208.737 239.557 211.05 240.023 212.646 241.625L213.964 242.948C215.228 244.217 215.926 245.903 215.926 247.698C215.926 249.493 215.231 251.18 213.964 252.449L212.646 253.771C211.047 255.377 208.737 255.84 206.728 255.164C207.401 257.181 206.937 259.502 205.341 261.104L204.023 262.427C201.414 265.046 197.167 265.046 194.558 262.427L193.24 261.104C192.114 259.974 191.554 258.492 191.554 257.01C191.554 256.384 191.656 255.762 191.853 255.164C189.844 255.84 187.531 255.377 185.935 253.771L184.617 252.449C183.311 251.138 182.658 249.418 182.658 247.698C182.658 245.979 183.311 244.256 184.617 242.948L185.935 241.625C187.534 240.02 189.844 239.557 191.853 240.233C191.653 239.635 191.554 239.012 191.554 238.387C191.554 236.905 192.117 235.42 193.24 234.292L194.558 232.969C197.167 230.351 201.414 230.351 204.023 232.969L205.341 234.292C206.94 235.898 207.401 238.216 206.728 240.233ZM193.24 252.915L197.344 248.796L189.439 250.714C189.116 250.792 188.789 250.594 188.711 250.266C188.7 250.218 188.694 250.17 188.694 250.122C188.694 249.848 188.879 249.598 189.155 249.532L196.718 247.695L189.155 245.858C188.879 245.792 188.694 245.543 188.694 245.269C188.694 245.221 188.7 245.173 188.711 245.125C188.789 244.8 189.116 244.599 189.439 244.677L197.344 246.595L193.24 242.476C191.461 240.69 188.565 240.69 186.789 242.476L185.471 243.799C183.332 245.945 183.332 249.439 185.471 251.586L186.789 252.909C188.568 254.701 191.461 254.7 193.24 252.915ZM204.487 253.771L200.384 249.653L202.295 257.587C202.373 257.911 202.175 258.239 201.848 258.317C201.525 258.396 201.198 258.197 201.121 257.869L199.29 250.278L197.46 257.869C197.383 258.194 197.056 258.396 196.733 258.317C196.457 258.251 196.271 258.002 196.271 257.728C196.271 257.68 196.277 257.632 196.289 257.584L198.2 249.65L194.097 253.768C192.318 255.554 192.318 258.462 194.097 260.248L195.415 261.57C197.553 263.717 201.034 263.717 203.172 261.57L204.49 260.248C206.266 258.465 206.266 255.557 204.487 253.771ZM205.341 242.485L201.237 246.604L209.142 244.686C209.465 244.608 209.792 244.806 209.87 245.134C209.95 245.458 209.75 245.786 209.423 245.864L201.86 247.701L209.423 249.538C209.747 249.616 209.947 249.944 209.87 250.269C209.792 250.594 209.465 250.795 209.142 250.717L201.237 248.799L205.341 252.918C207.12 254.704 210.013 254.704 211.792 252.918L213.11 251.595C214.147 250.554 214.716 249.171 214.716 247.701C214.716 246.231 214.147 244.848 213.11 243.808L211.792 242.485C210.016 240.699 207.12 240.699 205.341 242.485ZM205.823 238.387C205.823 237.214 205.38 236.042 204.49 235.149L203.172 233.826C201.034 231.679 197.553 231.679 195.415 233.826L194.097 235.149C192.318 236.935 192.318 239.842 194.097 241.628L198.2 245.747L196.289 237.813C196.277 237.765 196.271 237.717 196.271 237.668C196.271 237.395 196.457 237.145 196.733 237.079C197.056 237.001 197.383 237.199 197.46 237.527L199.291 245.119L201.121 237.527C201.198 237.202 201.525 237.001 201.848 237.079C202.172 237.157 202.373 237.485 202.295 237.81L200.384 245.744L204.487 241.625C205.377 240.735 205.823 239.563 205.823 238.387Z" fill="black"/>
<path d="M101.945 246.635L109.849 244.716C110.173 244.638 110.499 244.837 110.577 245.164C110.658 245.489 110.457 245.817 110.131 245.895L102.568 247.732L110.131 249.569C110.454 249.647 110.655 249.975 110.577 250.3C110.499 250.624 110.173 250.826 109.849 250.748L101.945 248.829L106.048 252.948C107.828 254.734 110.721 254.734 112.5 252.948L113.818 251.625C114.854 250.585 115.423 249.202 115.423 247.732C115.423 246.262 114.854 244.879 113.818 243.839L112.5 242.516C110.721 240.73 107.828 240.73 106.048 242.516L101.945 246.635Z" fill="#F5E7D3"/>
<path d="M103.88 233.859C101.741 231.712 98.2606 231.712 96.1221 233.859L94.8042 235.182C93.025 236.968 93.025 239.875 94.8042 241.661L98.9076 245.78L96.9966 237.846C96.9847 237.798 96.9787 237.749 96.9787 237.701C96.9787 237.428 97.1644 237.178 97.4399 237.112C97.7634 237.034 98.0899 237.232 98.1678 237.56L99.9978 245.152L101.828 237.56C101.906 237.235 102.232 237.034 102.556 237.112C102.879 237.19 103.08 237.518 103.002 237.843L101.091 245.777L105.194 241.658C106.084 240.765 106.527 239.592 106.527 238.42C106.527 237.247 106.084 236.075 105.194 235.182L103.88 233.859Z" fill="#F5E7D3"/>
<path d="M101.091 249.683L103.002 257.617C103.08 257.942 102.882 258.27 102.556 258.348C102.232 258.426 101.906 258.228 101.828 257.9L99.9977 250.309L98.1677 257.9C98.0898 258.225 97.7633 258.426 97.4398 258.348C97.1643 258.282 96.9786 258.032 96.9786 257.759C96.9786 257.711 96.9846 257.663 96.9966 257.614L98.9075 249.68L94.8041 253.799C93.0249 255.585 93.0249 258.492 94.8041 260.275L96.122 261.598C98.2605 263.745 101.741 263.745 103.879 261.598L105.197 260.275C106.977 258.489 106.977 255.585 105.197 253.799L101.091 249.683Z" fill="#F5E7D3"/>
<path d="M107.737 240.266C109.747 239.59 112.059 240.056 113.655 241.658L114.973 242.981C116.237 244.25 116.935 245.937 116.935 247.732C116.935 249.527 116.24 251.213 114.973 252.482L113.655 253.805C112.056 255.41 109.747 255.873 107.737 255.197C108.411 257.214 107.946 259.535 106.35 261.138L105.032 262.461C102.423 265.079 98.1762 265.079 95.5674 262.461L94.2495 261.138C93.1233 260.007 92.5632 258.525 92.5632 257.043C92.5632 256.417 92.665 255.795 92.8627 255.197C90.853 255.873 88.5407 255.41 86.9442 253.805L85.6263 252.482C84.3204 251.171 83.6675 249.451 83.6675 247.732C83.6675 246.012 84.3204 244.289 85.6263 242.981L86.9442 241.658C88.5437 240.053 90.853 239.59 92.8627 240.266C92.662 239.668 92.5632 239.046 92.5632 238.42C92.5632 236.938 93.1263 235.453 94.2495 234.325L95.5674 233.003C98.1762 230.384 102.423 230.384 105.032 233.003L106.35 234.325C107.946 235.928 108.408 238.246 107.737 240.266ZM94.2495 252.945L98.3529 248.826L90.4486 250.744C90.1251 250.822 89.7986 250.624 89.7208 250.296C89.7088 250.248 89.7028 250.2 89.7028 250.152C89.7028 249.878 89.8885 249.629 90.1641 249.563L97.7269 247.726L90.1641 245.889C89.8885 245.822 89.7028 245.573 89.7028 245.299C89.7028 245.251 89.7088 245.203 89.7208 245.155C89.7986 244.83 90.1251 244.629 90.4486 244.707L98.3529 246.625L94.2495 242.506C92.4704 240.72 89.574 240.72 87.7979 242.506L86.48 243.829C84.3414 245.976 84.3414 249.469 86.48 251.616L87.7979 252.939C89.574 254.731 92.4704 254.731 94.2495 252.945ZM105.496 253.805L101.393 249.686L103.304 257.62C103.382 257.945 103.184 258.273 102.858 258.351C102.534 258.429 102.208 258.23 102.13 257.903L100.3 250.311L98.4697 257.903C98.3918 258.227 98.0654 258.429 97.7419 258.351C97.4663 258.285 97.2806 258.035 97.2806 257.761C97.2806 257.713 97.2866 257.665 97.2986 257.617L99.2095 249.683L95.1061 253.802C93.327 255.588 93.327 258.495 95.1061 260.278L96.424 261.601C98.5626 263.747 102.043 263.747 104.182 261.601L105.499 260.278C107.273 258.495 107.273 255.591 105.496 253.805ZM106.35 242.515L102.247 246.634L110.151 244.716C110.474 244.638 110.801 244.836 110.879 245.164C110.96 245.489 110.759 245.816 110.433 245.895L102.87 247.732L110.433 249.569C110.756 249.647 110.957 249.974 110.879 250.299C110.801 250.624 110.474 250.825 110.151 250.747L102.247 248.829L106.35 252.948C108.129 254.734 111.023 254.734 112.802 252.948L114.12 251.625C115.156 250.585 115.725 249.202 115.725 247.732C115.725 246.261 115.156 244.878 114.12 243.838L112.802 242.515C111.023 240.729 108.129 240.729 106.35 242.515ZM106.829 238.42C106.829 237.248 106.386 236.075 105.496 235.182L104.179 233.859C102.04 231.713 98.5596 231.713 96.421 233.859L95.1031 235.182C93.324 236.968 93.324 239.876 95.1031 241.661L99.2065 245.78L97.2956 237.846C97.2836 237.798 97.2776 237.75 97.2776 237.702C97.2776 237.428 97.4633 237.179 97.7389 237.113C98.0624 237.034 98.3888 237.233 98.4667 237.561L100.297 245.152L102.127 237.561C102.205 237.236 102.531 237.034 102.855 237.113C103.178 237.191 103.379 237.518 103.301 237.843L101.39 245.777L105.493 241.658C106.386 240.765 106.829 239.593 106.829 238.42Z" fill="black"/>
<path d="M151.444 196.903L159.348 194.985C159.671 194.907 159.998 195.105 160.076 195.433C160.157 195.758 159.956 196.085 159.629 196.164L152.067 198.001L159.629 199.838C159.953 199.916 160.154 200.243 160.076 200.568C159.998 200.893 159.671 201.094 159.348 201.016L151.444 199.098L155.547 203.217C157.326 205.003 160.219 205.003 161.999 203.217L163.316 201.894C164.353 200.854 164.922 199.471 164.922 198.001C164.922 196.53 164.353 195.147 163.316 194.107L161.999 192.784C160.219 190.998 157.326 190.998 155.547 192.784L151.444 196.903Z" fill="#F5E7D3"/>
<path d="M147.553 199.096L139.648 201.014C139.325 201.092 138.998 200.894 138.921 200.566C138.909 200.518 138.903 200.47 138.903 200.422C138.903 200.148 139.088 199.898 139.364 199.832L146.927 197.995L139.364 196.158C139.088 196.092 138.903 195.843 138.903 195.569C138.903 195.521 138.909 195.473 138.921 195.425C138.998 195.1 139.325 194.899 139.648 194.977L147.553 196.895L143.449 192.776C141.67 190.99 138.774 190.99 136.998 192.776L135.68 194.099C133.541 196.245 133.541 199.739 135.68 201.886L136.998 203.209C138.777 204.994 141.67 204.994 143.449 203.209L147.553 199.096Z" fill="#F5E7D3"/>
<path d="M150.59 199.952L152.501 207.886C152.579 208.211 152.381 208.539 152.055 208.617C151.731 208.695 151.405 208.497 151.327 208.169L149.497 200.578L147.667 208.169C147.589 208.494 147.262 208.695 146.939 208.617C146.663 208.551 146.478 208.301 146.478 208.028C146.478 207.98 146.484 207.932 146.496 207.883L148.407 199.949L144.303 204.068C142.524 205.854 142.524 208.761 144.303 210.544L145.621 211.867C147.76 214.014 151.24 214.014 153.379 211.867L154.696 210.544C156.476 208.758 156.476 205.854 154.696 204.068L150.59 199.952Z" fill="#F5E7D3"/>
<path d="M157.235 190.535C159.245 189.858 161.557 190.324 163.154 191.927L164.472 193.25C165.736 194.519 166.434 196.205 166.434 198C166.434 199.795 165.739 201.482 164.472 202.75L163.154 204.073C161.554 205.679 159.245 206.142 157.235 205.465C157.909 207.483 157.445 209.804 155.849 211.406L154.531 212.729C151.922 215.348 147.675 215.348 145.066 212.729L143.748 211.406C142.622 210.276 142.062 208.794 142.062 207.311C142.062 206.686 142.164 206.064 142.361 205.465C140.351 206.142 138.039 205.679 136.443 204.073L135.125 202.75C133.819 201.44 133.166 199.72 133.166 198C133.166 196.28 133.819 194.558 135.125 193.25L136.443 191.927C138.042 190.321 140.351 189.858 142.361 190.535C142.161 189.937 142.062 189.314 142.062 188.689C142.062 187.207 142.625 185.721 143.748 184.594L145.066 183.271C147.675 180.652 151.922 180.652 154.531 183.271L155.849 184.594C157.445 186.197 157.909 188.515 157.235 190.535ZM143.748 203.213L147.851 199.095L139.947 201.013C139.624 201.091 139.297 200.892 139.219 200.565C139.207 200.517 139.201 200.469 139.201 200.42C139.201 200.147 139.387 199.897 139.663 199.831L147.225 197.994L139.663 196.157C139.387 196.091 139.201 195.841 139.201 195.568C139.201 195.52 139.207 195.472 139.219 195.424C139.297 195.099 139.624 194.897 139.947 194.976L147.851 196.894L143.748 192.775C141.969 190.989 139.073 190.989 137.296 192.775L135.979 194.098C133.84 196.244 133.84 199.738 135.979 201.885L137.296 203.207C139.073 204.999 141.969 204.999 143.748 203.213ZM154.995 204.073L150.892 199.954L152.802 207.889C152.88 208.213 152.683 208.541 152.356 208.619C152.033 208.697 151.706 208.499 151.628 208.171L149.798 200.58L147.968 208.171C147.89 208.496 147.564 208.697 147.24 208.619C146.965 208.553 146.779 208.304 146.779 208.03C146.779 207.982 146.785 207.934 146.797 207.886L148.708 199.951L144.605 204.07C142.826 205.856 142.826 208.764 144.605 210.546L145.923 211.869C148.061 214.016 151.542 214.016 153.68 211.869L154.998 210.546C156.771 208.764 156.771 205.859 154.995 204.073ZM155.849 192.784L151.745 196.903L159.646 194.985C159.97 194.906 160.296 195.105 160.374 195.433C160.455 195.757 160.255 196.085 159.928 196.163L152.365 198L159.928 199.837C160.252 199.915 160.452 200.243 160.374 200.568C160.296 200.892 159.97 201.094 159.646 201.016L151.742 199.098L155.846 203.217C157.625 205.002 160.518 205.002 162.297 203.217L163.615 201.894C164.651 200.853 165.221 199.47 165.221 198C165.221 196.53 164.651 195.147 163.615 194.107L162.297 192.784C160.521 190.998 157.628 190.998 155.849 192.784ZM156.328 188.689C156.328 187.516 155.885 186.344 154.995 185.451L153.677 184.128C151.539 181.981 148.058 181.981 145.92 184.128L144.602 185.451C142.823 187.237 142.823 190.144 144.602 191.93L148.705 196.049L146.794 188.115C146.782 188.067 146.776 188.018 146.776 187.97C146.776 187.697 146.962 187.447 147.237 187.381C147.561 187.303 147.887 187.501 147.965 187.829L149.795 195.421L151.625 187.829C151.703 187.504 152.03 187.303 152.353 187.381C152.677 187.459 152.877 187.787 152.799 188.112L150.889 196.046L154.992 191.927C155.885 191.034 156.328 189.861 156.328 188.689Z" fill="black"/>
<path d="M175.836 221.108L183.74 219.19C184.063 219.112 184.39 219.31 184.468 219.638C184.549 219.963 184.348 220.29 184.021 220.369L176.459 222.206L184.021 224.043C184.345 224.121 184.546 224.449 184.468 224.773C184.39 225.098 184.063 225.299 183.74 225.221L175.836 223.303L179.939 227.422C181.718 229.208 184.612 229.208 186.391 227.422L187.709 226.099C188.745 225.059 189.314 223.676 189.314 222.206C189.314 220.735 188.745 219.352 187.709 218.312L186.391 216.989C184.612 215.203 181.718 215.203 179.939 216.989L175.836 221.108Z" fill="#F5E7D3"/>
<path d="M177.767 208.334C175.629 206.187 172.148 206.187 170.01 208.334L168.692 209.657C166.913 211.442 166.913 214.35 168.692 216.136L172.795 220.255L170.884 212.32C170.872 212.272 170.866 212.224 170.866 212.176C170.866 211.902 171.052 211.653 171.328 211.587C171.651 211.509 171.978 211.707 172.055 212.035L173.886 219.626L175.716 212.035C175.793 211.71 176.12 211.509 176.443 211.587C176.767 211.665 176.968 211.993 176.89 212.317L174.979 220.252L179.082 216.133C179.972 215.24 180.415 214.067 180.415 212.895C180.415 211.722 179.972 210.549 179.082 209.657L177.767 208.334Z" fill="#F5E7D3"/>
<path d="M171.944 223.3L164.04 225.218C163.717 225.296 163.39 225.098 163.312 224.77C163.3 224.722 163.294 224.674 163.294 224.626C163.294 224.352 163.48 224.103 163.755 224.036L171.318 222.199L163.755 220.362C163.48 220.296 163.294 220.047 163.294 219.773C163.294 219.725 163.3 219.677 163.312 219.629C163.39 219.304 163.717 219.103 164.04 219.181L171.944 221.099L167.841 216.98C166.062 215.194 163.165 215.194 161.389 216.98L160.071 218.303C157.933 220.45 157.933 223.943 160.071 226.09L161.389 227.413C163.168 229.199 166.062 229.199 167.841 227.413L171.944 223.3Z" fill="#F5E7D3"/>
<path d="M174.982 224.16L176.893 232.094C176.971 232.419 176.773 232.746 176.447 232.825C176.123 232.903 175.797 232.704 175.719 232.377L173.889 224.785L172.059 232.377C171.981 232.701 171.654 232.903 171.331 232.825C171.055 232.758 170.87 232.509 170.87 232.235C170.87 232.187 170.876 232.139 170.888 232.091L172.799 224.157L168.695 228.276C166.916 230.062 166.916 232.969 168.695 234.755L170.013 236.078C172.152 238.224 175.632 238.224 177.771 236.078L179.088 234.755C180.868 232.969 180.868 230.065 179.088 228.276L174.982 224.16Z" fill="#F5E7D3"/>
<path d="M181.628 214.741C183.638 214.064 185.95 214.53 187.546 216.133L188.864 217.455C190.128 218.724 190.826 220.411 190.826 222.206C190.826 224.001 190.131 225.687 188.864 226.956L187.546 228.279C185.947 229.884 183.638 230.347 181.628 229.671C182.302 231.688 181.838 234.009 180.241 235.612L178.923 236.935C176.314 239.553 172.067 239.553 169.458 236.935L168.141 235.612C167.014 234.481 166.454 232.999 166.454 231.517C166.454 230.892 166.556 230.269 166.754 229.671C164.744 230.347 162.432 229.884 160.835 228.279L159.517 226.956C158.212 225.645 157.559 223.925 157.559 222.206C157.559 220.486 158.212 218.763 159.517 217.455L160.835 216.133C162.435 214.527 164.744 214.064 166.754 214.741C166.553 214.142 166.454 213.52 166.454 212.894C166.454 211.412 167.017 209.927 168.141 208.8L169.458 207.477C172.067 204.858 176.314 204.858 178.923 207.477L180.241 208.8C181.838 210.402 182.299 212.72 181.628 214.741ZM168.141 227.422L172.244 223.303L164.34 225.221C164.016 225.299 163.69 225.101 163.612 224.773C163.6 224.725 163.594 224.677 163.594 224.629C163.594 224.355 163.78 224.106 164.055 224.04L171.618 222.203L164.055 220.366C163.78 220.3 163.594 220.05 163.594 219.776C163.594 219.728 163.6 219.68 163.612 219.632C163.69 219.307 164.016 219.106 164.34 219.184L172.244 221.102L168.141 216.983C166.361 215.197 163.465 215.197 161.689 216.983L160.371 218.306C158.233 220.453 158.233 223.947 160.371 226.093L161.689 227.416C163.465 229.208 166.361 229.208 168.141 227.422ZM179.385 228.279L175.281 224.16L177.192 232.094C177.27 232.419 177.072 232.747 176.746 232.825C176.422 232.903 176.096 232.705 176.018 232.377L174.188 224.785L172.358 232.377C172.28 232.702 171.953 232.903 171.63 232.825C171.354 232.759 171.169 232.509 171.169 232.236C171.169 232.187 171.175 232.139 171.187 232.091L173.098 224.157L168.994 228.276C167.215 230.062 167.215 232.969 168.994 234.755L170.312 236.078C172.451 238.225 175.931 238.225 178.07 236.078L179.388 234.755C181.164 232.969 181.164 230.065 179.385 228.279ZM180.238 216.989L176.135 221.108L184.039 219.19C184.363 219.112 184.689 219.31 184.767 219.638C184.848 219.963 184.647 220.291 184.321 220.369L176.758 222.206L184.321 224.043C184.644 224.121 184.845 224.449 184.767 224.773C184.689 225.098 184.363 225.299 184.039 225.221L176.135 223.303L180.238 227.422C182.017 229.208 184.911 229.208 186.69 227.422L188.008 226.099C189.044 225.059 189.613 223.676 189.613 222.206C189.613 220.736 189.044 219.353 188.008 218.312L186.69 216.989C184.914 215.204 182.017 215.204 180.238 216.989ZM180.72 212.894C180.72 211.722 180.277 210.549 179.388 209.656L178.07 208.334C175.931 206.187 172.451 206.187 170.312 208.334L168.994 209.656C167.215 211.442 167.215 214.35 168.994 216.136L173.098 220.254L171.187 212.32C171.175 212.272 171.169 212.224 171.169 212.176C171.169 211.902 171.354 211.653 171.63 211.587C171.953 211.508 172.28 211.707 172.358 212.035L174.188 219.626L176.018 212.035C176.096 211.71 176.422 211.508 176.746 211.587C177.069 211.665 177.27 211.993 177.192 212.317L175.281 220.251L179.385 216.133C180.274 215.24 180.72 214.067 180.72 212.894Z" fill="black"/>
<path d="M197.048 199.106L189.144 201.024C188.82 201.102 188.494 200.904 188.416 200.576C188.404 200.528 188.398 200.48 188.398 200.432C188.398 200.158 188.583 199.909 188.859 199.843L196.422 198.006L188.859 196.169C188.583 196.103 188.398 195.853 188.398 195.579C188.398 195.531 188.404 195.483 188.416 195.435C188.494 195.11 188.82 194.909 189.144 194.987L197.048 196.905L192.944 192.786C191.165 191 188.269 191 186.493 192.786L185.175 194.109C183.036 196.256 183.036 199.749 185.175 201.896L186.493 203.219C188.272 205.005 191.165 205.005 192.944 203.219L197.048 199.106Z" fill="#F5E7D3"/>
<path d="M200.085 199.966L201.996 207.9C202.073 208.225 201.876 208.553 201.549 208.631C201.226 208.709 200.899 208.511 200.821 208.183L198.991 200.591L197.161 208.183C197.083 208.508 196.757 208.709 196.433 208.631C196.158 208.565 195.972 208.315 195.972 208.042C195.972 207.993 195.978 207.945 195.99 207.897L197.901 199.963L193.798 204.082C192.019 205.868 192.019 208.775 193.798 210.558L195.116 211.881C197.254 214.028 200.735 214.028 202.873 211.881L204.191 210.558C205.97 208.772 205.97 205.868 204.191 204.082L200.085 199.966Z" fill="#F5E7D3"/>
<path d="M206.728 190.548C208.737 189.871 211.05 190.337 212.646 191.94L213.964 193.263C215.231 194.531 215.926 196.218 215.926 198.013C215.926 199.808 215.231 201.495 213.964 202.763L212.646 204.086C211.047 205.692 208.737 206.155 206.728 205.478C207.401 207.496 206.937 209.817 205.341 211.419L204.023 212.742C201.414 215.361 197.167 215.361 194.558 212.742L193.24 211.419C192.114 210.289 191.554 208.806 191.554 207.324C191.554 206.699 191.656 206.077 191.853 205.478C189.844 206.155 187.531 205.692 185.935 204.086L184.617 202.763C183.311 201.452 182.658 199.733 182.658 198.013C182.658 196.293 183.311 194.57 184.617 193.263L185.935 191.94C187.534 190.334 189.844 189.871 191.853 190.548C191.653 189.949 191.554 189.327 191.554 188.702C191.554 187.22 192.117 185.734 193.24 184.607L194.558 183.284C197.167 180.665 201.414 180.665 204.023 183.284L205.341 184.607C206.94 186.209 207.401 188.527 206.728 190.548ZM193.24 203.229L197.344 199.11L189.439 201.029C189.116 201.107 188.789 200.908 188.711 200.581C188.7 200.532 188.694 200.484 188.694 200.436C188.694 200.163 188.879 199.913 189.155 199.847L196.718 198.01L189.155 196.173C188.879 196.107 188.694 195.857 188.694 195.584C188.694 195.536 188.7 195.487 188.711 195.439C188.789 195.115 189.116 194.913 189.439 194.991L197.344 196.91L193.24 192.791C191.461 191.005 188.565 191.005 186.789 192.791L185.471 194.114C183.332 196.26 183.332 199.754 185.471 201.9L186.789 203.223C188.568 205.015 191.461 205.015 193.24 203.229ZM204.487 204.086L200.384 199.967L202.295 207.901C202.373 208.226 202.175 208.554 201.848 208.632C201.525 208.71 201.198 208.512 201.121 208.184L199.29 200.593L197.46 208.184C197.383 208.509 197.056 208.71 196.733 208.632C196.457 208.566 196.271 208.316 196.271 208.043C196.271 207.995 196.277 207.947 196.289 207.898L198.2 199.964L194.097 204.083C192.318 205.869 192.318 208.776 194.097 210.559L195.415 211.882C197.553 214.029 201.034 214.029 203.172 211.882L204.49 210.559C206.266 208.776 206.266 205.872 204.487 204.086ZM205.341 192.797L201.237 196.916L209.142 194.997C209.465 194.919 209.792 195.118 209.87 195.445C209.95 195.77 209.75 196.098 209.423 196.176L201.86 198.013L209.423 199.85C209.747 199.928 209.947 200.256 209.87 200.581C209.792 200.905 209.465 201.107 209.142 201.029L201.237 199.11L205.341 203.229C207.12 205.015 210.013 205.015 211.792 203.229L213.11 201.906C214.147 200.866 214.716 199.483 214.716 198.013C214.716 196.543 214.147 195.16 213.11 194.12L211.792 192.797C210.016 191.011 207.12 191.011 205.341 192.797ZM205.823 188.702C205.823 187.529 205.38 186.357 204.49 185.464L203.172 184.141C201.034 181.994 197.553 181.994 195.415 184.141L194.097 185.464C192.318 187.25 192.318 190.157 194.097 191.943L198.2 196.062L196.289 188.127C196.277 188.079 196.271 188.031 196.271 187.983C196.271 187.71 196.457 187.46 196.733 187.394C197.056 187.316 197.383 187.514 197.46 187.842L199.291 195.433L201.121 187.842C201.198 187.517 201.525 187.316 201.848 187.394C202.172 187.472 202.373 187.8 202.295 188.124L200.384 196.059L204.487 191.94C205.377 191.047 205.823 189.874 205.823 188.702Z" fill="black"/>
<path d="M101.944 196.932L109.849 195.014C110.172 194.936 110.499 195.134 110.577 195.462C110.657 195.787 110.457 196.114 110.13 196.192L102.567 198.029L110.13 199.866C110.454 199.945 110.655 200.272 110.577 200.597C110.499 200.922 110.172 201.123 109.849 201.045L101.944 199.127L106.048 203.246C107.827 205.032 110.72 205.032 112.5 203.246L113.817 201.923C114.854 200.883 115.423 199.5 115.423 198.029C115.423 196.559 114.854 195.176 113.817 194.136L112.5 192.813C110.72 191.027 107.827 191.027 106.048 192.813L101.944 196.932Z" fill="#F5E7D3"/>
<path d="M101.091 199.982L103.002 207.916C103.08 208.24 102.882 208.568 102.556 208.646C102.232 208.725 101.906 208.526 101.828 208.198L99.9977 200.607L98.1677 208.198C98.0898 208.523 97.7633 208.725 97.4398 208.646C97.1643 208.58 96.9786 208.331 96.9786 208.057C96.9786 208.009 96.9846 207.961 96.9966 207.913L98.9075 199.979L94.8041 204.097C93.0249 205.883 93.0249 208.791 94.8041 210.574L96.122 211.896C98.2605 214.043 101.741 214.043 103.879 211.896L105.197 210.574C106.977 208.788 106.977 205.883 105.197 204.097L101.091 199.982Z" fill="#F5E7D3"/>
<path d="M107.851 190.564C109.86 189.888 112.173 190.354 113.769 191.956L115.087 193.279C116.351 194.548 117.049 196.235 117.049 198.029C117.049 199.824 116.354 201.511 115.087 202.78L113.769 204.103C112.17 205.708 109.86 206.171 107.851 205.495C108.525 207.512 108.06 209.833 106.464 211.436L105.146 212.758C102.537 215.377 98.29 215.377 95.6811 212.758L94.3633 211.436C93.2371 210.305 92.677 208.823 92.677 207.341C92.677 206.715 92.7788 206.093 92.9765 205.495C90.9667 206.171 88.6544 205.708 87.058 204.103L85.7401 202.78C84.4342 201.469 83.7813 199.749 83.7813 198.029C83.7813 196.31 84.4342 194.587 85.7401 193.279L87.058 191.956C88.6574 190.351 90.9667 189.888 92.9765 190.564C92.7758 189.966 92.677 189.344 92.677 188.718C92.677 187.236 93.2401 185.751 94.3633 184.623L95.6812 183.3C98.29 180.682 102.537 180.682 105.146 183.3L106.464 184.623C108.06 186.226 108.522 188.544 107.851 190.564ZM94.3633 203.246L98.4667 199.127L90.5624 201.045C90.2389 201.123 89.9124 200.925 89.8345 200.597C89.8226 200.549 89.8166 200.501 89.8166 200.453C89.8166 200.179 90.0023 199.93 90.2778 199.863L97.8407 198.026L90.2778 196.189C90.0023 196.123 89.8166 195.874 89.8166 195.6C89.8166 195.552 89.8226 195.504 89.8345 195.456C89.9124 195.131 90.2389 194.93 90.5624 195.008L98.4667 196.926L94.3633 192.807C92.5841 191.021 89.6878 191.021 87.9116 192.807L86.5937 194.13C84.4552 196.277 84.4552 199.77 86.5937 201.917L87.9116 203.24C89.6878 205.032 92.5841 205.032 94.3633 203.246ZM105.61 204.103L101.507 199.984L103.418 207.918C103.496 208.243 103.298 208.57 102.971 208.649C102.648 208.727 102.321 208.528 102.244 208.201L100.414 200.609L98.5835 208.201C98.5056 208.525 98.1791 208.727 97.8557 208.649C97.5801 208.582 97.3944 208.333 97.3944 208.059C97.3944 208.011 97.4004 207.963 97.4124 207.915L99.3233 199.981L95.2199 204.1C93.4407 205.886 93.4407 208.793 95.2199 210.576L96.5378 211.899C98.6763 214.045 102.157 214.045 104.295 211.899L105.613 210.576C107.386 208.793 107.386 205.889 105.61 204.103ZM106.464 192.813L102.36 196.932L110.265 195.014C110.588 194.936 110.915 195.134 110.993 195.462C111.073 195.787 110.873 196.114 110.546 196.192L102.983 198.029L110.546 199.866C110.87 199.945 111.07 200.272 110.993 200.597C110.915 200.922 110.588 201.123 110.265 201.045L102.36 199.127L106.464 203.246C108.243 205.032 111.136 205.032 112.915 203.246L114.233 201.923C115.27 200.883 115.839 199.5 115.839 198.029C115.839 196.559 115.27 195.176 114.233 194.136L112.915 192.813C111.136 191.027 108.243 191.027 106.464 192.813ZM106.943 188.718C106.943 187.546 106.5 186.373 105.61 185.48L104.292 184.157C102.154 182.011 98.6733 182.011 96.5348 184.157L95.2169 185.48C93.4377 187.266 93.4377 190.173 95.2169 191.959L99.3203 196.078L97.4094 188.144C97.3974 188.096 97.3914 188.048 97.3914 188C97.3914 187.726 97.5771 187.477 97.8527 187.41C98.1761 187.332 98.5026 187.531 98.5805 187.858L100.411 195.45L102.241 187.858C102.318 187.534 102.645 187.332 102.968 187.41C103.292 187.489 103.493 187.816 103.415 188.141L101.504 196.075L105.607 191.956C106.5 191.063 106.943 189.891 106.943 188.718Z" fill="black"/>
<path d="M101.944 296.061L109.849 294.143C110.172 294.065 110.499 294.263 110.577 294.591C110.657 294.916 110.457 295.244 110.13 295.322L102.567 297.159L110.13 298.996C110.454 299.074 110.655 299.402 110.577 299.726C110.499 300.051 110.172 300.253 109.849 300.174L101.944 298.256L106.048 302.375C107.827 304.161 110.72 304.161 112.5 302.375L113.817 301.052C114.854 300.012 115.423 298.629 115.423 297.159C115.423 295.689 114.854 294.306 113.817 293.265L112.5 291.942C110.72 290.157 107.827 290.157 106.048 291.942L101.944 296.061Z" fill="#F5E7D3"/>
<path d="M103.88 283.286C101.741 281.14 98.2606 281.14 96.1221 283.286L94.8042 284.609C93.025 286.395 93.025 289.302 94.8042 291.088L98.9076 295.207L96.9966 287.273C96.9847 287.225 96.9787 287.177 96.9787 287.129C96.9787 286.855 97.1644 286.605 97.4399 286.539C97.7634 286.461 98.0899 286.66 98.1678 286.987L99.9978 294.579L101.828 286.987C101.906 286.663 102.232 286.461 102.556 286.539C102.879 286.618 103.08 286.945 103.002 287.27L101.091 295.204L105.194 291.085C106.084 290.192 106.527 289.02 106.527 287.847C106.527 286.675 106.084 285.502 105.194 284.609L103.88 283.286Z" fill="#F5E7D3"/>
<path d="M107.851 289.79C109.86 289.113 112.173 289.579 113.769 291.182L115.087 292.505C116.351 293.773 117.049 295.46 117.049 297.255C117.049 299.05 116.354 300.737 115.087 302.005L113.769 303.328C112.17 304.934 109.86 305.397 107.851 304.72C108.525 306.738 108.06 309.059 106.464 310.661L105.146 311.984C102.537 314.603 98.29 314.603 95.6811 311.984L94.3633 310.661C93.2371 309.531 92.677 308.049 92.677 306.566C92.677 305.941 92.7788 305.319 92.9765 304.72C90.9667 305.397 88.6544 304.934 87.058 303.328L85.7401 302.005C84.4342 300.695 83.7813 298.975 83.7813 297.255C83.7813 295.535 84.4342 293.813 85.7401 292.505L87.058 291.182C88.6574 289.576 90.9667 289.113 92.9765 289.79C92.7758 289.192 92.677 288.569 92.677 287.944C92.677 286.462 93.2401 284.976 94.3633 283.849L95.6812 282.526C98.29 279.907 102.537 279.907 105.146 282.526L106.464 283.849C108.06 285.451 108.522 287.769 107.851 289.79ZM94.3633 302.471L98.4667 298.352L90.5624 300.271C90.2389 300.349 89.9124 300.15 89.8345 299.823C89.8226 299.775 89.8166 299.726 89.8166 299.678C89.8166 299.405 90.0023 299.155 90.2778 299.089L97.8407 297.252L90.2778 295.415C90.0023 295.349 89.8166 295.099 89.8166 294.826C89.8166 294.778 89.8226 294.73 89.8345 294.681C89.9124 294.357 90.2389 294.155 90.5624 294.233L98.4667 296.152L94.3633 292.033C92.5841 290.247 89.6878 290.247 87.9116 292.033L86.5937 293.356C84.4552 295.502 84.4552 298.996 86.5937 301.142L87.9116 302.465C89.6878 304.257 92.5841 304.257 94.3633 302.471ZM105.61 303.328L101.507 299.209L103.418 307.144C103.496 307.468 103.298 307.796 102.971 307.874C102.648 307.952 102.321 307.754 102.244 307.426L100.414 299.835L98.5835 307.426C98.5056 307.751 98.1791 307.952 97.8557 307.874C97.5801 307.808 97.3944 307.558 97.3944 307.285C97.3944 307.237 97.4004 307.189 97.4124 307.141L99.3233 299.206L95.2199 303.325C93.4407 305.111 93.4407 308.018 95.2199 309.804L96.5378 311.127C98.6763 313.274 102.157 313.274 104.295 311.127L105.613 309.804C107.386 308.018 107.386 305.114 105.61 303.328ZM106.464 292.039L102.36 296.158L110.265 294.239C110.588 294.161 110.915 294.36 110.993 294.687C111.073 295.012 110.873 295.34 110.546 295.418L102.983 297.255L110.546 299.092C110.87 299.17 111.07 299.498 110.993 299.823C110.915 300.147 110.588 300.349 110.265 300.271L102.36 298.352L106.464 302.471C108.243 304.257 111.136 304.257 112.915 302.471L114.233 301.149C115.27 300.108 115.839 298.725 115.839 297.255C115.839 295.785 115.27 294.402 114.233 293.362L112.915 292.039C111.136 290.253 108.243 290.253 106.464 292.039ZM106.943 287.944C106.943 286.771 106.5 285.599 105.61 284.706L104.292 283.383C102.154 281.236 98.6733 281.236 96.5348 283.383L95.2169 284.706C93.4377 286.492 93.4377 289.399 95.2169 291.185L99.3203 295.304L97.4094 287.37C97.3974 287.321 97.3914 287.273 97.3914 287.225C97.3914 286.952 97.5771 286.702 97.8527 286.636C98.1761 286.558 98.5026 286.756 98.5805 287.084L100.411 294.675L102.241 287.084C102.318 286.759 102.645 286.558 102.968 286.636C103.292 286.714 103.493 287.042 103.415 287.367L101.504 295.301L105.607 291.182C106.5 290.289 106.943 289.116 106.943 287.944Z" fill="black"/>
<path d="M175.836 271.268L183.74 269.35C184.063 269.272 184.39 269.471 184.468 269.798C184.549 270.123 184.348 270.451 184.021 270.529L176.459 272.366L184.021 274.203C184.345 274.281 184.546 274.609 184.468 274.933C184.39 275.258 184.063 275.46 183.74 275.381L175.836 273.463L179.939 277.582C181.718 279.368 184.612 279.368 186.391 277.582L187.709 276.259C188.745 275.219 189.314 273.836 189.314 272.366C189.314 270.896 188.745 269.513 187.709 268.472L186.391 267.149C184.612 265.364 181.718 265.364 179.939 267.149L175.836 271.268Z" fill="#F5E7D3"/>
<path d="M177.767 258.493C175.629 256.347 172.148 256.347 170.01 258.493L168.692 259.816C166.913 261.602 166.913 264.509 168.692 266.295L172.795 270.414L170.884 262.48C170.872 262.432 170.866 262.384 170.866 262.336C170.866 262.062 171.052 261.813 171.328 261.746C171.651 261.668 171.978 261.867 172.055 262.194L173.886 269.786L175.716 262.194C175.793 261.87 176.12 261.668 176.443 261.746C176.767 261.825 176.968 262.152 176.89 262.477L174.979 270.411L179.082 266.292C179.972 265.399 180.415 264.227 180.415 263.054C180.415 261.882 179.972 260.709 179.082 259.816L177.767 258.493Z" fill="#F5E7D3"/>
<path d="M171.944 273.46L164.04 275.379C163.717 275.457 163.39 275.258 163.312 274.931C163.3 274.883 163.294 274.834 163.294 274.786C163.294 274.513 163.48 274.263 163.755 274.197L171.318 272.36L163.755 270.523C163.48 270.457 163.294 270.207 163.294 269.934C163.294 269.886 163.3 269.838 163.312 269.789C163.39 269.465 163.717 269.263 164.04 269.341L171.944 271.26L167.841 267.141C166.062 265.355 163.165 265.355 161.389 267.141L160.071 268.464C157.933 270.61 157.933 274.104 160.071 276.25L161.389 277.573C163.168 279.359 166.062 279.359 167.841 277.573L171.944 273.46Z" fill="#F5E7D3"/>
<path d="M174.982 274.317L176.893 282.251C176.971 282.576 176.773 282.904 176.447 282.982C176.123 283.06 175.797 282.862 175.719 282.534L173.889 274.942L172.059 282.534C171.981 282.859 171.654 283.06 171.331 282.982C171.055 282.916 170.87 282.666 170.87 282.393C170.87 282.344 170.876 282.296 170.888 282.248L172.799 274.314L168.695 278.433C166.916 280.219 166.916 283.126 168.695 284.909L170.013 286.232C172.152 288.379 175.632 288.379 177.771 286.232L179.088 284.909C180.868 283.123 180.868 280.219 179.088 278.433L174.982 274.317Z" fill="#F5E7D3"/>
<path d="M181.628 264.901C183.638 264.224 185.95 264.69 187.546 266.293L188.864 267.616C190.128 268.884 190.826 270.571 190.826 272.366C190.826 274.161 190.131 275.847 188.864 277.116L187.546 278.439C185.947 280.045 183.638 280.508 181.628 279.831C182.302 281.848 181.838 284.17 180.241 285.772L178.923 287.095C176.314 289.714 172.067 289.714 169.458 287.095L168.141 285.772C167.014 284.642 166.454 283.159 166.454 281.677C166.454 281.052 166.556 280.429 166.754 279.831C164.744 280.508 162.432 280.045 160.835 278.439L159.517 277.116C158.212 275.805 157.559 274.086 157.559 272.366C157.559 270.646 158.212 268.923 159.517 267.616L160.835 266.293C162.435 264.687 164.744 264.224 166.754 264.901C166.553 264.302 166.454 263.68 166.454 263.055C166.454 261.572 167.017 260.087 168.141 258.96L169.458 257.637C172.067 255.018 176.314 255.018 178.923 257.637L180.241 258.96C181.838 260.562 182.299 262.88 181.628 264.901ZM168.141 277.579L172.244 273.46L164.34 275.378C164.016 275.457 163.69 275.258 163.612 274.93C163.6 274.882 163.594 274.834 163.594 274.786C163.594 274.513 163.78 274.263 164.055 274.197L171.618 272.36L164.055 270.523C163.78 270.457 163.594 270.207 163.594 269.934C163.594 269.885 163.6 269.837 163.612 269.789C163.69 269.465 164.016 269.263 164.34 269.341L172.244 271.259L168.141 267.141C166.361 265.355 163.465 265.355 161.689 267.141L160.371 268.463C158.233 270.61 158.233 274.104 160.371 276.25L161.689 277.573C163.465 279.365 166.361 279.365 168.141 277.579ZM179.385 278.439L175.281 274.32L177.192 282.254C177.27 282.579 177.072 282.907 176.746 282.985C176.422 283.063 176.096 282.865 176.018 282.537L174.188 274.945L172.358 282.537C172.28 282.862 171.953 283.063 171.63 282.985C171.354 282.919 171.169 282.669 171.169 282.396C171.169 282.348 171.175 282.299 171.187 282.251L173.098 274.317L168.994 278.436C167.215 280.222 167.215 283.129 168.994 284.912L170.312 286.235C172.451 288.382 175.931 288.382 178.07 286.235L179.388 284.912C181.164 283.129 181.164 280.225 179.385 278.439ZM180.238 267.15L176.135 271.269L184.039 269.35C184.363 269.272 184.689 269.471 184.767 269.798C184.848 270.123 184.647 270.451 184.321 270.529L176.758 272.366L184.321 274.203C184.644 274.281 184.845 274.609 184.767 274.933C184.689 275.258 184.363 275.46 184.039 275.381L176.135 273.463L180.238 277.582C182.017 279.368 184.911 279.368 186.69 277.582L188.008 276.259C189.044 275.219 189.613 273.836 189.613 272.366C189.613 270.896 189.044 269.513 188.008 268.472L186.69 267.15C184.914 265.364 182.017 265.364 180.238 267.15ZM180.72 263.055C180.72 261.882 180.277 260.71 179.388 259.817L178.07 258.494C175.931 256.347 172.451 256.347 170.312 258.494L168.994 259.817C167.215 261.602 167.215 264.51 168.994 266.296L173.098 270.415L171.187 262.48C171.175 262.432 171.169 262.384 171.169 262.336C171.169 262.062 171.354 261.813 171.63 261.747C171.953 261.669 172.28 261.867 172.358 262.195L174.188 269.786L176.018 262.195C176.096 261.87 176.422 261.669 176.746 261.747C177.069 261.825 177.27 262.153 177.192 262.477L175.281 270.412L179.385 266.293C180.274 265.4 180.72 264.227 180.72 263.055Z" fill="black"/>
<path d="M126.565 221.108L134.469 219.19C134.793 219.112 135.119 219.31 135.197 219.638C135.278 219.963 135.077 220.29 134.751 220.369L127.188 222.206L134.751 224.043C135.074 224.121 135.275 224.449 135.197 224.773C135.119 225.098 134.793 225.299 134.469 225.221L126.565 223.303L130.669 227.422C132.448 229.208 135.341 229.208 137.12 227.422L138.438 226.099C139.474 225.059 140.043 223.676 140.043 222.206C140.043 220.735 139.474 219.352 138.438 218.312L137.12 216.989C135.341 215.203 132.448 215.203 130.669 216.989L126.565 221.108Z" fill="#F5E7D3"/>
<path d="M128.496 208.334C126.358 206.187 122.877 206.187 120.739 208.334L119.421 209.657C117.642 211.442 117.642 214.35 119.421 216.136L123.524 220.255L121.613 212.32C121.601 212.272 121.595 212.224 121.595 212.176C121.595 211.902 121.781 211.653 122.057 211.587C122.38 211.509 122.707 211.707 122.784 212.035L124.615 219.626L126.445 212.035C126.522 211.71 126.849 211.509 127.172 211.587C127.496 211.665 127.697 211.993 127.619 212.317L125.708 220.252L129.811 216.133C130.701 215.24 131.144 214.067 131.144 212.895C131.144 211.722 130.701 210.549 129.811 209.657L128.496 208.334Z" fill="#F5E7D3"/>
<path d="M122.671 223.3L114.767 225.218C114.443 225.296 114.117 225.098 114.039 224.77C114.027 224.722 114.021 224.674 114.021 224.626C114.021 224.352 114.206 224.103 114.482 224.036L122.045 222.199L114.482 220.362C114.206 220.296 114.021 220.047 114.021 219.773C114.021 219.725 114.027 219.677 114.039 219.629C114.117 219.304 114.443 219.103 114.767 219.181L122.671 221.099L118.567 216.98C116.788 215.194 113.892 215.194 112.116 216.98L110.798 218.303C108.659 220.45 108.659 223.943 110.798 226.09L112.116 227.413C113.895 229.199 116.791 229.199 118.567 227.413L122.671 223.3Z" fill="#F5E7D3"/>
<path d="M125.711 224.16L127.622 232.094C127.7 232.419 127.502 232.746 127.176 232.825C126.852 232.903 126.526 232.704 126.448 232.377L124.618 224.785L122.788 232.377C122.71 232.701 122.383 232.903 122.06 232.825C121.784 232.758 121.599 232.509 121.599 232.235C121.599 232.187 121.605 232.139 121.617 232.091L123.528 224.157L119.424 228.276C117.645 230.062 117.645 232.969 119.424 234.755L120.742 236.078C122.881 238.224 126.361 238.224 128.5 236.078L129.817 234.755C131.597 232.969 131.597 230.065 129.817 228.276L125.711 224.16Z" fill="#F5E7D3"/>
<path d="M132.354 214.741C134.364 214.064 136.676 214.53 138.273 216.133L139.59 217.455C140.854 218.724 141.552 220.411 141.552 222.206C141.552 224.001 140.857 225.687 139.59 226.956L138.273 228.279C136.673 229.884 134.364 230.347 132.354 229.671C133.028 231.688 132.564 234.009 130.967 235.612L129.649 236.935C127.041 239.553 122.793 239.553 120.185 236.935L118.867 235.612C117.74 234.481 117.18 232.999 117.18 231.517C117.18 230.892 117.282 230.269 117.48 229.671C115.47 230.347 113.158 229.884 111.561 228.279L110.244 226.956C108.938 225.645 108.288 223.925 108.288 222.206C108.288 220.486 108.941 218.763 110.244 217.455L111.561 216.133C113.161 214.527 115.47 214.064 117.48 214.741C117.279 214.142 117.18 213.52 117.18 212.894C117.18 211.412 117.743 209.927 118.867 208.8L120.185 207.477C122.793 204.858 127.041 204.858 129.649 207.477L130.967 208.8C132.567 210.402 133.028 212.72 132.354 214.741ZM118.867 227.422L122.97 223.303L115.066 225.221C114.742 225.299 114.416 225.101 114.338 224.773C114.326 224.725 114.32 224.677 114.32 224.629C114.32 224.355 114.506 224.106 114.781 224.04L122.344 222.203L114.781 220.366C114.506 220.3 114.32 220.05 114.32 219.776C114.32 219.728 114.326 219.68 114.338 219.632C114.416 219.307 114.742 219.106 115.066 219.184L122.97 221.102L118.867 216.983C117.088 215.197 114.191 215.197 112.415 216.983L111.097 218.306C108.959 220.453 108.959 223.947 111.097 226.093L112.415 227.416C114.194 229.208 117.088 229.208 118.867 227.422ZM130.114 228.279L126.01 224.16L127.921 232.094C127.999 232.419 127.801 232.747 127.475 232.825C127.151 232.903 126.825 232.705 126.747 232.377L124.917 224.785L123.087 232.377C123.009 232.702 122.683 232.903 122.359 232.825C122.084 232.759 121.898 232.509 121.898 232.236C121.898 232.187 121.904 232.139 121.916 232.091L123.827 224.157L119.723 228.276C117.944 230.062 117.944 232.969 119.723 234.755L121.041 236.078C123.18 238.225 126.66 238.225 128.799 236.078L130.117 234.755C131.893 232.969 131.893 230.065 130.114 228.279ZM130.967 216.989L126.864 221.108L134.768 219.19C135.092 219.112 135.418 219.31 135.496 219.638C135.577 219.963 135.376 220.291 135.05 220.369L127.487 222.206L135.05 224.043C135.373 224.121 135.574 224.449 135.496 224.773C135.418 225.098 135.092 225.299 134.768 225.221L126.864 223.303L130.967 227.422C132.746 229.208 135.64 229.208 137.419 227.422L138.737 226.099C139.773 225.059 140.342 223.676 140.342 222.206C140.342 220.736 139.773 219.353 138.737 218.312L137.419 216.989C135.64 215.204 132.746 215.204 130.967 216.989ZM131.446 212.894C131.446 211.722 131.003 210.549 130.114 209.656L128.796 208.334C126.657 206.187 123.177 206.187 121.038 208.334L119.72 209.656C117.941 211.442 117.941 214.35 119.72 216.136L123.824 220.254L121.913 212.32C121.901 212.272 121.895 212.224 121.895 212.176C121.895 211.902 122.081 211.653 122.356 211.587C122.68 211.508 123.006 211.707 123.084 212.035L124.914 219.626L126.744 212.035C126.822 211.71 127.148 211.508 127.472 211.587C127.795 211.665 127.996 211.993 127.918 212.317L126.007 220.251L130.111 216.133C131.003 215.24 131.446 214.067 131.446 212.894Z" fill="black"/>
<path d="M126.565 271.268L134.469 269.35C134.793 269.272 135.119 269.471 135.197 269.798C135.278 270.123 135.077 270.451 134.751 270.529L127.188 272.366L134.751 274.203C135.074 274.281 135.275 274.609 135.197 274.933C135.119 275.258 134.793 275.46 134.469 275.381L126.565 273.463L130.669 277.582C132.448 279.368 135.341 279.368 137.12 277.582L138.438 276.259C139.474 275.219 140.043 273.836 140.043 272.366C140.043 270.896 139.474 269.513 138.438 268.472L137.12 267.149C135.341 265.364 132.448 265.364 130.669 267.149L126.565 271.268Z" fill="#F5E7D3"/>
<path d="M128.496 258.493C126.358 256.347 122.877 256.347 120.739 258.493L119.421 259.816C117.642 261.602 117.642 264.509 119.421 266.295L123.524 270.414L121.613 262.48C121.601 262.432 121.595 262.384 121.595 262.336C121.595 262.062 121.781 261.813 122.057 261.746C122.38 261.668 122.707 261.867 122.784 262.194L124.615 269.786L126.445 262.194C126.522 261.87 126.849 261.668 127.172 261.746C127.496 261.825 127.697 262.152 127.619 262.477L125.708 270.411L129.811 266.292C130.701 265.399 131.144 264.227 131.144 263.054C131.144 261.882 130.701 260.709 129.811 259.816L128.496 258.493Z" fill="#F5E7D3"/>
<path d="M122.671 273.46L114.767 275.379C114.443 275.457 114.117 275.258 114.039 274.931C114.027 274.883 114.021 274.834 114.021 274.786C114.021 274.513 114.206 274.263 114.482 274.197L122.045 272.36L114.482 270.523C114.206 270.457 114.021 270.207 114.021 269.934C114.021 269.886 114.027 269.838 114.039 269.789C114.117 269.465 114.443 269.263 114.767 269.341L122.671 271.26L118.567 267.141C116.788 265.355 113.892 265.355 112.116 267.141L110.798 268.464C108.659 270.61 108.659 274.104 110.798 276.25L112.116 277.573C113.895 279.359 116.791 279.359 118.567 277.573L122.671 273.46Z" fill="#F5E7D3"/>
<path d="M125.711 274.317L127.622 282.251C127.7 282.576 127.502 282.904 127.176 282.982C126.852 283.06 126.526 282.862 126.448 282.534L124.618 274.942L122.788 282.534C122.71 282.859 122.383 283.06 122.06 282.982C121.784 282.916 121.599 282.666 121.599 282.393C121.599 282.344 121.605 282.296 121.617 282.248L123.528 274.314L119.424 278.433C117.645 280.219 117.645 283.126 119.424 284.909L120.742 286.232C122.881 288.379 126.361 288.379 128.5 286.232L129.817 284.909C131.597 283.123 131.597 280.219 129.817 278.433L125.711 274.317Z" fill="#F5E7D3"/>
<path d="M132.354 264.901C134.364 264.224 136.676 264.69 138.273 266.293L139.59 267.616C140.854 268.884 141.552 270.571 141.552 272.366C141.552 274.161 140.857 275.847 139.59 277.116L138.273 278.439C136.673 280.045 134.364 280.508 132.354 279.831C133.028 281.848 132.564 284.17 130.967 285.772L129.649 287.095C127.041 289.714 122.793 289.714 120.185 287.095L118.867 285.772C117.74 284.642 117.18 283.159 117.18 281.677C117.18 281.052 117.282 280.429 117.48 279.831C115.47 280.508 113.158 280.045 111.561 278.439L110.244 277.116C108.938 275.805 108.288 274.086 108.288 272.366C108.288 270.646 108.941 268.923 110.244 267.616L111.561 266.293C113.161 264.687 115.47 264.224 117.48 264.901C117.279 264.302 117.18 263.68 117.18 263.055C117.18 261.572 117.743 260.087 118.867 258.96L120.185 257.637C122.793 255.018 127.041 255.018 129.649 257.637L130.967 258.96C132.567 260.562 133.028 262.88 132.354 264.901ZM118.867 277.579L122.97 273.46L115.066 275.378C114.742 275.457 114.416 275.258 114.338 274.93C114.326 274.882 114.32 274.834 114.32 274.786C114.32 274.513 114.506 274.263 114.781 274.197L122.344 272.36L114.781 270.523C114.506 270.457 114.32 270.207 114.32 269.934C114.32 269.885 114.326 269.837 114.338 269.789C114.416 269.465 114.742 269.263 115.066 269.341L122.97 271.259L118.867 267.141C117.088 265.355 114.191 265.355 112.415 267.141L111.097 268.463C108.959 270.61 108.959 274.104 111.097 276.25L112.415 277.573C114.194 279.365 117.088 279.365 118.867 277.579ZM130.114 278.439L126.01 274.32L127.921 282.254C127.999 282.579 127.801 282.907 127.475 282.985C127.151 283.063 126.825 282.865 126.747 282.537L124.917 274.945L123.087 282.537C123.009 282.862 122.683 283.063 122.359 282.985C122.084 282.919 121.898 282.669 121.898 282.396C121.898 282.348 121.904 282.299 121.916 282.251L123.827 274.317L119.723 278.436C117.944 280.222 117.944 283.129 119.723 284.912L121.041 286.235C123.18 288.382 126.66 288.382 128.799 286.235L130.117 284.912C131.893 283.129 131.893 280.225 130.114 278.439ZM130.967 267.15L126.864 271.269L134.768 269.35C135.092 269.272 135.418 269.471 135.496 269.798C135.577 270.123 135.376 270.451 135.05 270.529L127.487 272.366L135.05 274.203C135.373 274.281 135.574 274.609 135.496 274.933C135.418 275.258 135.092 275.46 134.768 275.381L126.864 273.463L130.967 277.582C132.746 279.368 135.64 279.368 137.419 277.582L138.737 276.259C139.773 275.219 140.342 273.836 140.342 272.366C140.342 270.896 139.773 269.513 138.737 268.472L137.419 267.15C135.64 265.364 132.746 265.364 130.967 267.15ZM131.446 263.055C131.446 261.882 131.003 260.71 130.114 259.817L128.796 258.494C126.657 256.347 123.177 256.347 121.038 258.494L119.72 259.817C117.941 261.602 117.941 264.51 119.72 266.296L123.824 270.415L121.913 262.48C121.901 262.432 121.895 262.384 121.895 262.336C121.895 262.062 122.081 261.813 122.356 261.747C122.68 261.669 123.006 261.867 123.084 262.195L124.914 269.786L126.744 262.195C126.822 261.87 127.148 261.669 127.472 261.747C127.795 261.825 127.996 262.153 127.918 262.477L126.007 270.412L130.111 266.293C131.003 265.4 131.446 264.227 131.446 263.055Z" fill="black"/>
<path d="M202.87 283.256C200.732 281.109 197.251 281.109 195.113 283.256L193.795 284.579C192.016 286.365 192.016 289.272 193.795 291.058L197.898 295.177L195.987 287.243C195.975 287.195 195.969 287.146 195.969 287.098C195.969 286.825 196.155 286.575 196.431 286.509C196.754 286.431 197.081 286.629 197.158 286.957L198.989 294.549L200.819 286.957C200.896 286.632 201.223 286.431 201.546 286.509C201.87 286.587 202.071 286.915 201.993 287.24L200.082 295.174L204.185 291.055C205.075 290.162 205.518 288.989 205.518 287.817C205.518 286.644 205.075 285.472 204.185 284.579L202.87 283.256Z" fill="#F5E7D3"/>
<path d="M197.048 298.223L189.144 300.141C188.82 300.219 188.494 300.021 188.416 299.693C188.404 299.645 188.398 299.597 188.398 299.549C188.398 299.275 188.583 299.026 188.859 298.96L196.422 297.123L188.859 295.286C188.583 295.22 188.398 294.97 188.398 294.696C188.398 294.648 188.404 294.6 188.416 294.552C188.494 294.227 188.82 294.026 189.144 294.104L197.048 296.022L192.944 291.903C191.165 290.117 188.269 290.117 186.493 291.903L185.175 293.226C183.036 295.373 183.036 298.867 185.175 301.013L186.493 302.336C188.272 304.122 191.165 304.122 192.944 302.336L197.048 298.223Z" fill="#F5E7D3"/>
<path d="M206.728 289.663C208.737 288.987 211.05 289.453 212.646 291.055L213.964 292.378C215.228 293.647 215.926 295.334 215.926 297.129C215.926 298.923 215.231 300.61 213.964 301.879L212.646 303.202C211.047 304.807 208.737 305.27 206.728 304.594C207.401 306.611 206.937 308.932 205.341 310.535L204.023 311.858C201.414 314.476 197.167 314.476 194.558 311.858L193.24 310.535C192.114 309.404 191.554 307.922 191.554 306.44C191.554 305.814 191.656 305.192 191.853 304.594C189.844 305.27 187.531 304.807 185.935 303.202L184.617 301.879C183.311 300.568 182.658 298.848 182.658 297.129C182.658 295.409 183.311 293.686 184.617 292.378L185.935 291.055C187.534 289.45 189.844 288.987 191.853 289.663C191.653 289.065 191.554 288.443 191.554 287.817C191.554 286.335 192.117 284.85 193.24 283.722L194.558 282.4C197.167 279.781 201.414 279.781 204.023 282.4L205.341 283.722C206.94 285.325 207.401 287.643 206.728 289.663ZM193.24 302.345L197.344 298.226L189.439 300.144C189.116 300.222 188.789 300.024 188.711 299.696C188.7 299.648 188.694 299.6 188.694 299.552C188.694 299.278 188.879 299.029 189.155 298.963L196.718 297.126L189.155 295.289C188.879 295.222 188.694 294.973 188.694 294.699C188.694 294.651 188.7 294.603 188.711 294.555C188.789 294.23 189.116 294.029 189.439 294.107L197.344 296.025L193.24 291.906C191.461 290.12 188.565 290.12 186.789 291.906L185.471 293.229C183.332 295.376 183.332 298.869 185.471 301.016L186.789 302.339C188.568 304.128 191.461 304.128 193.24 302.345ZM204.487 303.202L200.384 299.083L202.295 307.017C202.373 307.342 202.175 307.669 201.848 307.748C201.525 307.826 201.198 307.627 201.121 307.3L199.29 299.708L197.46 307.3C197.383 307.624 197.056 307.826 196.733 307.748C196.457 307.682 196.271 307.432 196.271 307.158C196.271 307.11 196.277 307.062 196.289 307.014L198.2 299.08L194.097 303.199C192.318 304.985 192.318 307.892 194.097 309.678L195.415 311.001C197.553 313.147 201.034 313.147 203.172 311.001L204.49 309.678C206.266 307.892 206.266 304.988 204.487 303.202ZM205.341 291.912L201.237 296.031L209.142 294.113C209.465 294.035 209.792 294.233 209.87 294.561C209.95 294.886 209.75 295.213 209.423 295.292L201.86 297.129L209.423 298.966C209.747 299.044 209.947 299.371 209.87 299.696C209.792 300.021 209.465 300.222 209.142 300.144L201.237 298.226L205.341 302.345C207.12 304.131 210.013 304.131 211.792 302.345L213.11 301.022C214.147 299.982 214.716 298.599 214.716 297.129C214.716 295.658 214.147 294.275 213.11 293.235L211.792 291.912C210.016 290.126 207.12 290.126 205.341 291.912ZM205.823 287.817C205.823 286.645 205.38 285.472 204.49 284.579L203.172 283.256C201.034 281.11 197.553 281.11 195.415 283.256L194.097 284.579C192.318 286.365 192.318 289.272 194.097 291.058L198.2 295.177L196.289 287.243C196.277 287.195 196.271 287.147 196.271 287.099C196.271 286.825 196.457 286.576 196.733 286.51C197.056 286.431 197.383 286.63 197.46 286.957L199.291 294.549L201.121 286.957C201.198 286.633 201.525 286.431 201.848 286.51C202.172 286.588 202.373 286.915 202.295 287.24L200.384 295.174L204.487 291.055C205.377 290.162 205.823 288.99 205.823 287.817Z" fill="black"/>
</g>
<path d="M149.506 55.1681C146.378 55.1681 143.838 52.6209 143.838 49.4995C143.838 46.3715 146.385 43.8309 149.506 43.8309C152.634 43.8309 155.175 46.3781 155.175 49.4995C155.175 52.6275 152.634 55.1681 149.506 55.1681ZM149.506 53.0036C151.44 53.0036 153.01 51.433 153.01 49.4995C153.01 47.566 151.44 45.9954 149.506 45.9954C147.573 45.9954 146.002 47.566 146.002 49.4995C146.002 51.433 147.573 53.0036 149.506 53.0036Z" fill="#F5E7D3"/>
<path d="M191.351 98.993L187.504 98.993C187.504 98.1219 190.031 97.7524 189.985 96.195C189.939 94.6376 187.735 92.935 185.306 94.5914C182.871 96.2412 181.406 98.993 181.406 98.9996L179.493 98.9996C179.493 97.9371 182.574 97.4884 182.522 95.5813C182.469 93.6741 179.776 91.602 176.807 93.6213C173.837 95.6407 172.042 98.9996 172.042 98.9996L164.229 98.9996L199 64.2092L199 72.0225C199 72.0225 195.634 73.8175 193.621 76.787C191.602 79.7566 193.681 82.4491 195.581 82.5085C197.488 82.5613 197.937 79.4795 199 79.4795L199 81.3998C199 81.3998 196.248 82.8714 194.591 85.2999C192.942 87.7349 194.638 89.939 196.201 89.9786C197.759 90.0248 198.128 87.4974 199 87.4974L199 91.3447C194.783 91.3447 191.351 94.7762 191.351 98.993ZM189.748 87.8867C190.942 90.9355 192.136 92.3873 192.757 91.602C193.377 90.8233 192.869 87.9725 193.008 86.3689C193.146 84.7588 194.572 84.3232 194.499 83.7491C194.433 83.175 192.664 83.4257 192.387 82.0993C192.11 80.7663 192.11 79.849 191.285 80.0602C190.454 80.2648 188.553 84.8313 189.748 87.8867ZM186.382 92.9944C187.986 92.8558 190.836 93.364 191.615 92.7437C192.394 92.1233 190.949 90.9289 187.9 89.7345C184.844 88.54 180.278 90.4472 180.073 91.2721C179.869 92.0969 180.786 92.0969 182.119 92.3741C183.452 92.6513 183.195 94.4198 183.769 94.4858C184.336 94.5584 184.772 93.133 186.382 92.9944Z" fill="#F5E7D3"/>
<path d="M189.635 49.4989L149.506 89.6279L109.377 49.4988L149.506 9.36975L189.635 49.4989ZM149.506 87.0873L187.095 49.4989L149.506 11.9104L111.918 49.4988L149.506 87.0873Z" fill="#F5E7D3"/>
<path d="M184.291 49.4995L149.507 84.2834L114.723 49.4995L149.507 14.7157L184.291 49.4995ZM160.613 40.2476C157.558 41.442 156.112 42.6365 156.898 43.2568C157.676 43.8771 160.527 43.369 162.131 43.5076C163.741 43.6461 164.176 45.0715 164.744 44.999C165.318 44.933 165.067 43.1644 166.394 42.8872C167.727 42.6101 168.644 42.6101 168.439 41.7852C168.235 40.9537 163.668 39.0532 160.613 40.2476ZM149.507 57.1479C153.724 57.1479 157.155 53.7164 157.155 49.4995C157.155 45.2827 153.724 41.8512 149.507 41.8512C145.29 41.8512 141.858 45.2827 141.858 49.4995C141.858 53.7164 145.29 57.1479 149.507 57.1479ZM140.486 52.2975C140.532 50.7402 138.004 50.3706 138.004 49.4995C138.004 48.6285 140.532 48.2589 140.486 46.7015C140.44 45.1441 138.235 43.4416 135.807 45.0979C133.372 46.7477 131.907 49.4995 131.907 49.5061C131.907 49.5061 133.378 52.258 135.807 53.9143C138.242 55.5575 140.44 53.8615 140.486 52.2975ZM163.206 53.9077C165.641 52.258 167.106 49.5061 167.106 49.4995C167.106 49.4995 165.635 46.7477 163.206 45.0913C160.771 43.4416 158.567 45.1375 158.521 46.6949C158.475 48.2523 161.002 48.6219 161.002 49.4929C161.002 50.364 158.475 50.7336 158.521 52.291C158.574 53.8615 160.771 55.5575 163.206 53.9077ZM156.126 32.6058C155.848 33.9389 154.08 33.6815 154.014 34.2556C153.948 34.8297 155.367 35.2653 155.505 36.8755C155.644 38.479 155.136 41.3299 155.756 42.1085C156.376 42.8872 157.571 41.442 158.765 38.3933C159.96 35.3379 158.053 30.7713 157.228 30.5667C156.396 30.3622 156.396 31.2794 156.126 32.6058ZM149.507 38.0039C150.378 38.0039 150.747 40.5314 152.305 40.4852C153.862 40.439 155.565 38.2349 153.908 35.7998C152.259 33.3647 149.507 31.8997 149.5 31.8997C149.5 31.8997 146.748 33.3713 145.092 35.7998C143.442 38.2349 145.138 40.439 146.702 40.4852C148.266 40.5248 148.636 38.0039 149.507 38.0039ZM146.088 33.0084C147.995 33.0612 148.444 29.9794 149.507 29.9794C150.569 29.9794 151.018 33.0612 152.925 33.0084C154.832 32.9556 156.904 30.2632 154.885 27.2936C152.872 24.3174 149.507 22.5224 149.507 22.5224C149.507 22.5224 146.141 24.3174 144.128 27.287C142.109 30.2632 144.181 32.949 146.088 33.0084ZM140.255 38.3933C141.449 41.4486 142.644 42.8938 143.264 42.1085C143.884 41.3299 143.376 38.479 143.515 36.8755C143.653 35.2653 145.079 34.8297 145.006 34.2556C144.94 33.6815 143.172 33.9323 142.894 32.6058C142.617 31.2728 142.617 30.3556 141.792 30.5601C140.961 30.7713 139.06 35.3379 140.255 38.3933ZM134.269 44.999C134.843 45.0649 135.279 43.6461 136.889 43.5076C138.493 43.369 141.344 43.8771 142.122 43.2568C142.901 42.6365 141.456 41.442 138.407 40.2476C135.352 39.0532 130.785 40.9603 130.58 41.7852C130.376 42.6101 131.293 42.6101 132.626 42.8872C133.946 43.1578 133.695 44.9264 134.269 44.999ZM133.016 52.9179C133.075 51.0107 129.987 50.562 129.987 49.4995C129.987 48.4371 133.068 47.9883 133.016 46.0812C132.963 44.1741 130.27 42.1019 127.301 44.1213C124.331 46.1406 122.536 49.4995 122.536 49.4995C122.536 49.4995 124.331 52.8651 127.301 54.8778C130.27 56.8971 132.956 54.825 133.016 52.9179ZM138.4 58.7515C141.449 57.557 142.901 56.3626 142.116 55.7423C141.337 55.122 138.486 55.6301 136.883 55.4915C135.272 55.3529 134.837 53.9275 134.263 54.0001C133.689 54.0661 133.939 55.8347 132.613 56.1118C131.28 56.389 130.363 56.389 130.567 57.2139C130.778 58.0454 135.345 59.9459 138.4 58.7515ZM142.894 66.3932C143.172 65.0602 144.934 65.3176 145.006 64.7434C145.072 64.1693 143.653 63.7338 143.515 62.1236C143.376 60.52 143.884 57.6692 143.264 56.8905C142.644 56.1118 141.449 57.557 140.255 60.6058C139.06 63.6612 140.967 68.2278 141.792 68.4323C142.617 68.6369 142.617 67.7196 142.894 66.3932ZM149.507 60.9952C148.636 60.9952 148.266 58.4677 146.709 58.5139C145.145 58.5601 143.449 60.7642 145.098 63.1927C146.748 65.6277 149.507 67.0927 149.507 67.0927C149.507 67.0927 152.259 65.6211 153.915 63.1927C155.565 60.7576 153.869 58.5601 152.311 58.5139C150.747 58.4743 150.378 60.9952 149.507 60.9952ZM152.925 65.9907C151.018 65.9379 150.569 69.0197 149.507 69.0197C148.444 69.0197 147.995 65.9379 146.088 65.9907C144.181 66.0435 142.109 68.7359 144.128 71.7055C146.148 74.6751 149.507 76.47 149.507 76.47C149.507 76.47 152.872 74.6751 154.892 71.7055C156.904 68.7359 154.832 66.0501 152.925 65.9907ZM158.759 60.6058C157.564 57.5504 156.37 56.1052 155.749 56.8905C155.129 57.6692 155.637 60.52 155.499 62.1236C155.36 63.7338 153.935 64.1693 154.007 64.7434C154.073 65.3176 155.842 65.0668 156.119 66.3932C156.396 67.7262 156.396 68.6435 157.221 68.4389C158.053 68.2278 159.953 63.6612 158.759 60.6058ZM164.744 54.0001C164.17 53.9341 163.734 55.3529 162.131 55.4915C160.527 55.6301 157.676 55.122 156.898 55.7423C156.119 56.3626 157.564 57.557 160.613 58.7515C163.662 59.9459 168.235 58.0388 168.439 57.2139C168.644 56.389 167.727 56.389 166.394 56.1118C165.067 55.8413 165.318 54.0727 164.744 54.0001ZM176.484 49.4995C176.484 49.4995 174.689 46.134 171.719 44.1213C168.75 42.1019 166.057 44.1741 166.004 46.0812C165.952 47.9883 169.033 48.4371 169.033 49.4995C169.033 50.562 165.952 51.0107 166.004 52.9179C166.057 54.825 168.75 56.8971 171.719 54.8778C174.689 52.8651 176.484 49.4995 176.484 49.4995Z" fill="#F5E7D3"/>
<path d="M199 58.8637L158.87 98.9928L161.411 98.9928L199 61.4044L199 58.8637Z" fill="#F5E7D3"/>
<path d="M199 56.0666L156.072 98.9937L142.947 98.9937L100.013 56.0666L100.013 42.9344L142.94 0.00726073L156.072 0.00726131L199 42.9344L199 56.0666ZM149.506 92.4276L192.433 49.5005L149.506 6.57336L106.579 49.5005L149.506 92.4276Z" fill="#F5E7D3"/>
<path d="M100.013 97.4688L100.013 98.9932L101.538 98.9932C101.538 98.1551 100.851 97.4688 100.013 97.4688Z" fill="#F5E7D3"/>
<path d="M151.031 49.4997C151.031 48.6616 150.344 47.9753 149.506 47.9753C148.668 47.9753 147.982 48.6616 147.982 49.4997C147.982 50.3378 148.668 51.0241 149.506 51.0241C150.344 51.0241 151.031 50.3378 151.031 49.4997Z" fill="#F5E7D3"/>
<path d="M199 37.5957L161.411 0.00726154L158.87 0.00726143L199 40.1364L199 37.5957Z" fill="#F5E7D3"/>
<path d="M100.013 64.2092L134.797 98.993L126.984 98.993C126.984 98.993 125.189 95.6275 122.219 93.6081C119.249 91.5888 116.557 93.6675 116.504 95.5681C116.451 97.4752 119.533 97.924 119.533 98.9864L117.613 98.9864C117.613 98.9864 116.141 96.2346 113.713 94.5782C111.278 92.9284 109.074 94.6244 109.027 96.1818C108.981 97.7392 111.509 98.1087 111.509 98.9798L107.661 98.9798C107.661 94.763 104.23 91.3315 100.006 91.3315L100.006 87.4842C100.878 87.4842 101.247 90.0116 102.804 89.9654C104.362 89.9193 106.064 87.7151 104.408 85.2867C102.758 82.8516 100.006 81.3866 99.9998 81.3866L99.9998 79.4663C101.069 79.4663 101.511 82.5481 103.418 82.4953C105.325 82.4359 107.397 79.75 105.378 76.7738C103.359 73.8043 99.9998 72.0093 99.9998 72.0093L99.9998 64.2092L100.013 64.2092ZM111.119 89.7411C108.071 90.9355 106.619 92.1299 107.404 92.7503C108.183 93.3706 111.034 92.8624 112.637 93.001C114.247 93.1396 114.683 94.565 115.25 94.4924C115.824 94.4264 115.574 92.6579 116.9 92.3807C118.233 92.1035 119.15 92.1035 118.946 91.2787C118.741 90.4472 114.175 88.5466 111.119 89.7411ZM106.632 82.0993C106.355 83.4323 104.586 83.175 104.52 83.7491C104.448 84.3232 105.873 84.7587 106.012 86.3689C106.15 87.9725 105.642 90.8233 106.262 91.602C106.883 92.3807 108.077 90.9355 109.272 87.8867C110.466 84.8313 108.559 80.2648 107.734 80.0602C106.902 79.8556 106.902 80.7729 106.632 82.0993Z" fill="#F5E7D3"/>
<path d="M134.797 0.00683594L100.013 34.7907L100.013 26.9839C100.013 26.9839 103.379 25.189 105.398 22.2194C107.417 19.2498 105.339 16.5574 103.438 16.5046C101.531 16.4452 101.082 19.5336 100.02 19.5336L100.02 17.6198C100.02 17.6198 102.778 16.1482 104.428 13.7198C106.078 11.2847 104.382 9.08059 102.824 9.041C101.26 8.9948 100.897 11.5223 100.026 11.5223L100.026 7.67498C104.243 7.67499 107.681 4.24345 107.681 0.026632L111.528 0.0266322C111.528 0.897713 109.001 1.26726 109.047 2.82465C109.093 4.38204 111.297 6.0846 113.733 4.42823C116.168 2.77846 117.633 0.0266325 117.633 0.0200334L119.553 0.0200335C119.553 1.08249 116.471 1.53123 116.524 3.43837C116.583 5.3455 119.269 7.41762 122.239 5.3983C125.195 3.37237 126.99 0.0068356 126.99 0.0068356L134.797 0.00683594ZM109.272 11.1131C108.077 8.06433 106.883 6.61253 106.262 7.39782C105.642 8.17652 106.15 11.0273 106.012 12.6309C105.873 14.2411 104.448 14.6766 104.52 15.2507C104.586 15.8249 106.355 15.5741 106.632 16.9005C106.909 18.2335 106.909 19.1508 107.734 18.9462C108.559 18.7351 110.459 14.1685 109.272 11.1131ZM115.25 4.51402C114.676 4.44143 114.241 5.86683 112.637 6.00541C111.034 6.14399 108.183 5.63586 107.404 6.25618C106.625 6.87649 108.071 8.07093 111.119 9.26537C114.168 10.4598 118.741 8.55267 118.946 7.72778C119.15 6.90289 118.233 6.90289 116.9 6.62573C115.574 6.34857 115.824 4.58001 115.25 4.51402Z" fill="#F5E7D3"/>
<path d="M100.013 93.3239L100.013 95.495C101.947 95.495 103.517 97.0656 103.517 98.9991L105.688 98.9991C105.682 95.8646 103.141 93.3239 100.013 93.3239Z" fill="#F5E7D3"/>
<path d="M105.688 0.00683594L103.517 0.00683584C103.517 1.94037 101.946 3.51096 100.013 3.51096L100.013 5.68206C103.141 5.67546 105.688 3.13481 105.688 0.00683594Z" fill="#F5E7D3"/>
<path d="M101.538 0.00683594L100.013 0.00683587L100.013 1.53123C100.851 1.53123 101.538 0.844921 101.538 0.00683594Z" fill="#F5E7D3"/>
<path d="M100.013 61.4044L137.602 98.9928L140.143 98.9928L100.013 58.8637L100.013 61.4044Z" fill="#F5E7D3"/>
<path d="M199 97.4688C198.161 97.4688 197.475 98.1485 197.475 98.9932L199 98.9932L199 97.4688Z" fill="#F5E7D3"/>
<path d="M199 34.7911L164.216 0.00726166L172.022 0.007262C172.022 0.007262 173.817 3.3728 176.787 5.39213C179.757 7.41145 182.449 5.33273 182.502 3.43219C182.561 1.51846 179.479 1.06972 179.479 0.00726233L181.393 0.00726241C181.393 0.00726241 182.865 2.75909 185.293 4.41546C187.728 6.06523 189.932 4.36927 189.972 2.81188C190.025 1.24789 187.504 0.878343 187.504 0.00726268L191.351 0.00726285C191.351 4.22409 194.783 7.65562 199 7.65562L199 11.5029C198.128 11.5029 197.759 8.97544 196.201 9.02163C194.638 9.06782 192.942 11.2719 194.591 13.7004C196.248 16.1421 199 17.6071 199 17.6071L199 19.5208C197.937 19.5208 197.488 16.439 195.581 16.4918C193.674 16.5446 191.602 19.237 193.621 22.2066C195.634 25.1894 199 26.9844 199 26.9844L199 34.7911ZM187.893 9.2592C190.942 8.06476 192.394 6.87032 191.609 6.25001C190.83 5.62969 187.979 6.13782 186.375 5.99924C184.765 5.86066 184.33 4.43526 183.756 4.50785C183.181 4.57384 183.432 6.3424 182.106 6.61956C180.773 6.89672 179.856 6.89672 180.06 7.72161C180.271 8.55309 184.838 10.4536 187.893 9.2592ZM192.387 16.901C192.664 15.5679 194.433 15.8253 194.499 15.2512C194.572 14.6771 193.146 14.2415 193.008 12.6313C192.869 11.0278 193.377 8.17694 192.757 7.39825C192.136 6.61956 190.942 8.06476 189.748 11.1135C188.553 14.1689 190.46 18.7355 191.285 18.9401C192.11 19.1446 192.11 18.2274 192.387 16.901Z" fill="#F5E7D3"/>
<path d="M199 95.4897L199 93.3185C195.872 93.3185 193.331 95.8658 193.331 98.9872L195.495 98.9872C195.495 97.0602 197.066 95.4897 199 95.4897Z" fill="#F5E7D3"/>
<path d="M199 5.67589L199 3.51138C197.066 3.51138 195.495 1.9408 195.495 0.00726303L193.324 0.00726294C193.331 3.13523 195.872 5.67589 199 5.67589Z" fill="#F5E7D3"/>
<path d="M137.602 0.00683583L100.013 37.5953L100.013 40.1359L140.143 0.00683594L137.602 0.00683583Z" fill="#F5E7D3"/>
<path d="M199 1.53165L199 0.00726318L197.475 0.00726312C197.475 0.845348 198.161 1.53165 199 1.53165Z" fill="#F5E7D3"/>
<path d="M192.434 49.4999L149.506 92.427L106.579 49.4999L149.506 6.57275L192.434 49.4999ZM149.506 89.629L189.636 49.4999L149.506 9.37077L109.377 49.4999L149.506 89.629Z" fill="#1D1D1B"/>
<path d="M187.095 49.4998L149.506 87.0883L111.918 49.4998L149.506 11.9114L187.095 49.4998ZM149.506 84.2836L184.29 49.4998L149.506 14.716L114.722 49.4998L149.506 84.2836Z" fill="#1D1D1B"/>
<path d="M167.106 49.4999C167.106 49.4999 165.635 46.7481 163.206 45.0917C160.771 43.442 158.567 45.1379 158.521 46.6953C158.475 48.2527 161.002 48.6223 161.002 49.4933C161.002 50.3644 158.475 50.734 158.521 52.2914C158.567 53.8487 160.771 55.5513 163.206 53.8949C165.641 52.2518 167.106 49.4999 167.106 49.4999Z" fill="#C63939"/>
<path d="M171.718 44.1218C168.749 42.1024 166.056 44.1745 166.004 46.0817C165.951 47.9888 169.033 48.4376 169.033 49.5C169.033 50.5625 165.951 51.0112 166.004 52.9183C166.056 54.8255 168.749 56.8976 171.718 54.8783C174.688 52.8656 176.483 49.5 176.483 49.5C176.483 49.5 174.688 46.1345 171.718 44.1218Z" fill="#C63939"/>
<path d="M156.898 43.2497C157.677 43.8701 160.527 43.3619 162.131 43.5005C163.741 43.6391 164.177 45.0645 164.744 44.9919C165.318 44.9259 165.068 43.1574 166.394 42.8802C167.727 42.603 168.644 42.603 168.44 41.7781C168.235 40.9533 163.669 39.0461 160.613 40.2406C157.564 41.435 156.119 42.6294 156.898 43.2497Z" fill="#C63939"/>
<path d="M164.744 54.0002C164.17 53.9342 163.735 55.353 162.131 55.4916C160.527 55.6301 157.677 55.122 156.898 55.7423C156.119 56.3626 157.564 57.5571 160.613 58.7515C163.662 59.9459 168.235 58.0388 168.44 57.2139C168.644 56.389 167.727 56.389 166.394 56.1119C165.068 55.8413 165.318 54.0727 164.744 54.0002Z" fill="#C63939"/>
<path d="M152.304 40.4792C153.862 40.433 155.564 38.2289 153.908 35.7938C152.258 33.3587 149.506 31.8937 149.5 31.8937C149.5 31.8937 146.748 33.3653 145.091 35.7938C143.442 38.2289 145.138 40.433 146.702 40.4792C148.259 40.5254 148.629 37.9979 149.5 37.9979C150.377 38.0045 150.747 40.5254 152.304 40.4792Z" fill="#C63939"/>
<path d="M146.088 33.0085C147.995 33.0613 148.444 29.9795 149.506 29.9795C150.569 29.9795 151.017 33.0613 152.925 33.0085C154.832 32.9557 156.904 30.2633 154.885 27.2937C152.872 24.3175 149.506 22.5225 149.506 22.5225C149.506 22.5225 146.141 24.3175 144.128 27.2871C142.109 30.2633 144.181 32.9491 146.088 33.0085Z" fill="#C63939"/>
<path d="M143.257 42.1086C143.877 41.3299 143.369 38.4791 143.508 36.8755C143.646 35.2654 145.072 34.8298 144.999 34.2557C144.933 33.6816 143.165 33.9324 142.888 32.6059C142.61 31.2729 142.61 30.3556 141.786 30.5602C140.961 30.7648 139.053 35.3314 140.248 38.3867C141.449 41.4421 142.637 42.8939 143.257 42.1086Z" fill="#C63939"/>
<path d="M156.125 32.6062C155.848 33.9392 154.079 33.6818 154.013 34.256C153.947 34.8301 155.366 35.2656 155.505 36.8758C155.643 38.4794 155.135 41.3302 155.755 42.1089C156.376 42.8876 157.57 41.4424 158.765 38.3936C159.959 35.3382 158.052 30.7716 157.227 30.5671C156.395 30.3625 156.395 31.2798 156.125 32.6062Z" fill="#C63939"/>
<path d="M138.011 49.4997C138.011 48.6286 140.539 48.259 140.493 46.7016C140.446 45.1442 138.242 43.4417 135.814 45.0981C133.379 46.7478 131.914 49.4997 131.914 49.5063C131.914 49.5063 133.385 52.2581 135.814 53.9144C138.249 55.5642 140.446 53.8683 140.493 52.3109C140.532 50.7403 138.011 50.3707 138.011 49.4997Z" fill="#C63939"/>
<path d="M133.015 52.9183C133.075 51.0112 129.986 50.5625 129.986 49.5C129.986 48.4376 133.068 47.9888 133.015 46.0817C132.962 44.1745 130.27 42.1024 127.3 44.1218C124.331 46.1411 122.536 49.5 122.536 49.5C122.536 49.5 124.331 52.8656 127.3 54.8783C130.27 56.8976 132.956 54.8255 133.015 52.9183Z" fill="#C63939"/>
<path d="M142.115 55.7491C141.336 55.1287 138.485 55.6369 136.882 55.4983C135.272 55.3597 134.836 53.9343 134.262 54.0069C133.688 54.0729 133.939 55.8414 132.612 56.1186C131.279 56.3958 130.362 56.3958 130.566 57.2206C130.771 58.0455 135.338 59.9527 138.393 58.7582C141.448 57.5638 142.9 56.3694 142.115 55.7491Z" fill="#C63939"/>
<path d="M134.269 44.9997C134.843 45.0656 135.279 43.6468 136.889 43.5083C138.493 43.3697 141.343 43.8778 142.122 43.2575C142.901 42.6372 141.456 41.4427 138.407 40.2483C135.351 39.0539 130.785 40.961 130.58 41.7859C130.376 42.6108 131.293 42.6108 132.626 42.8879C133.946 43.1585 133.695 44.9271 134.269 44.9997Z" fill="#C63939"/>
<path d="M146.708 58.521C145.144 58.5671 143.448 60.7712 145.098 63.1997C146.748 65.6348 149.506 67.0998 149.506 67.0998C149.506 67.0998 152.258 65.6282 153.914 63.1997C155.564 60.7646 153.868 58.5671 152.311 58.521C150.747 58.4748 150.384 61.0022 149.513 61.0022C148.635 60.9956 148.265 58.4748 146.708 58.521Z" fill="#C63939"/>
<path d="M152.925 65.9907C151.018 65.9379 150.569 69.0197 149.506 69.0197C148.444 69.0197 147.995 65.9379 146.088 65.9907C144.181 66.0435 142.109 68.7359 144.128 71.7055C146.147 74.6751 149.506 76.4701 149.506 76.4701C149.506 76.4701 152.872 74.6751 154.891 71.7055C156.904 68.7359 154.832 66.0501 152.925 65.9907Z" fill="#C63939"/>
<path d="M155.755 56.8904C155.135 57.6691 155.643 60.5199 155.505 62.1235C155.366 63.7337 153.941 64.1692 154.013 64.7433C154.079 65.3175 155.848 65.0667 156.125 66.3931C156.402 67.7261 156.402 68.6434 157.227 68.4388C158.052 68.2343 159.959 63.6677 158.765 60.6123C157.57 57.5569 156.376 56.1051 155.755 56.8904Z" fill="#C63939"/>
<path d="M142.894 66.3932C143.172 65.0602 144.933 65.3176 145.006 64.7434C145.072 64.1693 143.653 63.7338 143.515 62.1236C143.376 60.52 143.884 57.6692 143.264 56.8905C142.644 56.1118 141.449 57.557 140.255 60.6058C139.06 63.6612 140.967 68.2278 141.792 68.4323C142.617 68.6369 142.617 67.7196 142.894 66.3932Z" fill="#C63939"/>
<path d="M141.858 49.4999C141.858 45.2831 145.29 41.8516 149.506 41.8516C153.723 41.8516 157.155 45.2831 157.155 49.4999C157.155 53.7167 153.723 57.1483 149.506 57.1483C145.29 57.1483 141.858 53.7167 141.858 49.4999ZM149.506 55.1685C152.634 55.1685 155.175 52.6213 155.175 49.4999C155.175 46.3719 152.628 43.8313 149.506 43.8313C146.378 43.8313 143.838 46.3785 143.838 49.4999C143.838 52.6279 146.378 55.1685 149.506 55.1685Z" fill="#C63939"/>
<path d="M149.506 53.0038C147.573 53.0038 146.002 51.4332 146.002 49.4997C146.002 47.5661 147.573 45.9955 149.506 45.9955C151.44 45.9955 153.01 47.5661 153.01 49.4997C153.01 51.4332 151.44 53.0038 149.506 53.0038ZM149.506 51.0241C150.344 51.0241 151.031 50.3443 151.031 49.4997C151.031 48.6616 150.344 47.9753 149.506 47.9753C148.668 47.9753 147.982 48.6616 147.982 49.4997C147.982 50.3377 148.668 51.0241 149.506 51.0241Z" fill="#C63939"/>
<path d="M100.013 58.8642L140.142 98.9933L142.94 98.9933L100.013 56.0662L100.013 58.8642Z" fill="#1D1D1B"/>
<path d="M100.013 64.2099L134.797 98.9938L137.602 98.9938L100.013 61.4053L100.013 64.2099Z" fill="#1D1D1B"/>
<path d="M113.713 94.5847C111.278 92.9349 109.074 94.6309 109.027 96.1883C108.981 97.7457 111.509 98.1152 111.509 98.9863L117.613 98.9863C117.613 98.9929 116.148 96.2411 113.713 94.5847Z" fill="#C63939"/>
<path d="M122.226 93.6082C119.256 91.5889 116.564 93.6676 116.511 95.5681C116.458 97.4752 119.54 97.924 119.54 98.9864L126.997 98.9864C126.99 98.993 125.196 95.6275 122.226 93.6082Z" fill="#C63939"/>
<path d="M107.404 92.7437C108.183 93.364 111.034 92.8559 112.637 92.9945C114.248 93.133 114.683 94.5584 115.251 94.4859C115.825 94.4199 115.574 92.6513 116.9 92.3741C118.233 92.097 119.151 92.097 118.946 91.2721C118.741 90.4472 114.175 88.5401 111.12 89.7345C108.064 90.9289 106.626 92.1234 107.404 92.7437Z" fill="#C63939"/>
<path d="M102.811 89.9724C104.369 89.9262 106.071 87.7221 104.415 85.2936C102.765 82.8586 100.013 81.3936 100.007 81.3936L100.007 87.4977C100.884 87.4977 101.254 90.0186 102.811 89.9724Z" fill="#C63939"/>
<path d="M103.431 82.5015C105.339 82.4421 107.411 79.7562 105.391 76.78C103.372 73.8105 100.013 72.0155 100.013 72.0155L100.013 79.4725C101.082 79.4725 101.524 82.5543 103.431 82.5015Z" fill="#C63939"/>
<path d="M106.632 82.0992C106.355 83.4322 104.587 83.1748 104.521 83.7489C104.448 84.3231 105.873 84.7586 106.012 86.3688C106.151 87.9724 105.642 90.8232 106.263 91.6019C106.883 92.3806 108.077 90.9353 109.272 87.8866C110.466 84.8312 108.559 80.2646 107.734 80.06C106.903 79.8555 106.903 80.7727 106.632 82.0992Z" fill="#C63939"/>
<path d="M100.013 91.3446L100.013 93.3243C103.141 93.3243 105.682 95.8716 105.688 98.993L107.668 98.993C107.661 94.7761 104.23 91.3446 100.013 91.3446Z" fill="#C63939"/>
<path d="M100.013 95.4895L100.013 97.4692C100.851 97.4692 101.537 98.1489 101.537 98.9936L103.517 98.9936C103.517 97.0601 101.947 95.4895 100.013 95.4895Z" fill="#C63939"/>
<path d="M199 56.0662L156.072 98.9933L158.87 98.9933L199 58.8642L199 56.0662Z" fill="#1D1D1B"/>
<path d="M199 61.4053L161.411 98.9938L164.216 98.9938L199 64.2099L199 61.4053Z" fill="#1D1D1B"/>
<path d="M194.591 85.2934C192.942 87.7285 194.638 89.9325 196.201 89.9721C197.759 90.0183 198.128 87.4909 199 87.4909L199 81.3867C199 81.3933 196.248 82.8583 194.591 85.2934Z" fill="#C63939"/>
<path d="M193.621 76.78C191.602 79.7496 193.681 82.4421 195.581 82.5015C197.488 82.5543 197.937 79.4725 199 79.4725L199 72.0155C199 72.0155 195.634 73.8105 193.621 76.78Z" fill="#C63939"/>
<path d="M192.75 91.6021C193.37 90.8234 192.862 87.9726 193.001 86.369C193.139 84.7588 194.565 84.3233 194.492 83.7492C194.426 83.1751 192.657 83.4258 192.38 82.0994C192.103 80.7664 192.103 79.8491 191.278 80.0603C190.453 80.2649 188.546 84.8314 189.741 87.8868C190.942 90.9356 192.129 92.3874 192.75 91.6021Z" fill="#C63939"/>
<path d="M189.979 96.1951C189.933 94.6377 187.729 92.9352 185.3 94.5915C182.865 96.2413 181.4 98.9931 181.4 98.9997L187.504 98.9997C187.504 98.122 190.025 97.7525 189.979 96.1951Z" fill="#C63939"/>
<path d="M182.508 95.5752C182.455 93.668 179.763 91.5959 176.793 93.6152C173.824 95.6345 172.029 98.9935 172.029 98.9935L179.486 98.9935C179.479 97.931 182.561 97.4823 182.508 95.5752Z" fill="#C63939"/>
<path d="M191.609 92.7437C192.388 92.1234 190.942 90.9289 187.894 89.7345C184.838 88.5401 180.272 90.4472 180.067 91.2721C179.863 92.097 180.78 92.097 182.113 92.3741C183.446 92.6513 183.188 94.4199 183.763 94.4859C184.337 94.5584 184.772 93.133 186.382 92.9945C187.986 92.8625 190.83 93.364 191.609 92.7437Z" fill="#C63939"/>
<path d="M199 93.3243L199 91.3446C194.783 91.3446 191.351 94.7761 191.351 98.993L193.331 98.993C193.331 95.865 195.872 93.3243 199 93.3243Z" fill="#C63939"/>
<path d="M199 97.4692L199 95.4895C197.066 95.4895 195.495 97.0601 195.495 98.9936L197.475 98.9936C197.475 98.1555 198.161 97.4692 199 97.4692Z" fill="#C63939"/>
<path d="M140.142 0.00683582L100.013 40.1359L100.013 42.934L142.94 0.00683594L140.142 0.00683582Z" fill="#1D1D1B"/>
<path d="M134.797 0.00683581L100.013 34.7907L100.013 37.5953L137.602 0.00683594L134.797 0.00683581Z" fill="#1D1D1B"/>
<path d="M109.034 2.80461C109.08 4.362 111.284 6.06457 113.719 4.4082C116.154 2.75842 117.619 0.00659909 117.619 0L111.515 -2.66822e-07C111.508 0.877679 108.988 1.24723 109.034 2.80461Z" fill="#C63939"/>
<path d="M116.504 3.42517C116.564 5.33231 119.249 7.40442 122.219 5.3851C125.195 3.37237 126.99 0.00683594 126.99 0.00683594L119.533 0.00683561C119.533 1.06929 116.451 1.51803 116.504 3.42517Z" fill="#C63939"/>
<path d="M115.251 4.5144C114.676 4.44181 114.241 5.86721 112.637 6.00579C111.034 6.14437 108.183 5.63624 107.404 6.25656C106.626 6.87687 108.071 8.07131 111.12 9.26575C114.168 10.4602 118.741 8.55304 118.946 7.72816C119.151 6.90327 118.233 6.90327 116.9 6.62611C115.574 6.34895 115.825 4.58039 115.251 4.5144Z" fill="#C63939"/>
<path d="M104.422 13.7062C106.071 11.2711 104.375 9.06701 102.818 9.02742C101.254 8.98123 100.891 11.5087 100.02 11.5087L100.02 17.6128C100.013 17.6062 102.772 16.1412 104.422 13.7062Z" fill="#C63939"/>
<path d="M105.398 22.2195C107.417 19.2499 105.339 16.5575 103.438 16.5047C101.531 16.4453 101.082 19.5337 100.02 19.5337L100.02 26.9907C100.013 26.9841 103.379 25.1891 105.398 22.2195Z" fill="#C63939"/>
<path d="M106.263 7.39787C105.642 8.17656 106.151 11.0274 106.012 12.631C105.873 14.2411 104.448 14.6767 104.521 15.2508C104.587 15.8249 106.355 15.5741 106.632 16.9006C106.909 18.2336 106.909 19.1509 107.734 18.9463C108.559 18.7417 110.466 14.1751 109.272 11.1198C108.077 8.06438 106.883 6.61258 106.263 7.39787Z" fill="#C63939"/>
<path d="M107.668 0.00683594L105.688 0.00683585C105.688 3.13481 103.141 5.67546 100.013 5.67546L100.013 7.65519C104.23 7.65519 107.668 4.22366 107.668 0.00683594Z" fill="#C63939"/>
<path d="M103.517 0.00683594L101.537 0.00683585C101.537 0.844921 100.851 1.53123 100.013 1.53123L100.013 3.51096C101.947 3.51096 103.517 1.94037 103.517 0.00683594Z" fill="#C63939"/>
<path d="M199 40.1364L158.87 0.00726143L156.072 0.00726131L199 42.9344L199 40.1364Z" fill="#1D1D1B"/>
<path d="M199 34.7911L164.216 0.00726166L161.411 0.00726154L199 37.5957L199 34.7911Z" fill="#1D1D1B"/>
<path d="M185.3 4.41503C187.735 6.06481 189.939 4.36884 189.979 2.81145C190.025 1.24747 187.504 0.877916 187.504 0.00683583L181.4 0.00683556C181.4 0.00683556 182.865 2.75866 185.3 4.41503Z" fill="#BE1C2E"/>
<path d="M176.787 5.3917C179.757 7.41102 182.449 5.33231 182.502 3.43177C182.561 1.51803 179.48 1.06929 179.48 0.00683581L172.023 0.00683548C172.023 0.00683548 173.818 3.37237 176.787 5.3917Z" fill="#C63939"/>
<path d="M191.609 6.25656C190.83 5.63624 187.979 6.14437 186.375 6.00579C184.765 5.86721 184.33 4.44181 183.756 4.5144C183.181 4.58039 183.432 6.34895 182.106 6.62611C180.773 6.90327 179.856 6.90327 180.06 7.72816C180.265 8.55304 184.831 10.4602 187.887 9.26575C190.942 8.07131 192.394 6.87687 191.609 6.25656Z" fill="#C63939"/>
<path d="M196.201 9.02742C194.638 9.07362 192.942 11.2777 194.591 13.7062C196.248 16.1412 199 17.6062 199 17.6062L199 11.5021C198.128 11.5021 197.759 8.98123 196.201 9.02742Z" fill="#C63939"/>
<path d="M195.581 16.4977C193.674 16.5505 191.602 19.2429 193.621 22.2125C195.634 25.1887 199 26.9836 199 26.9836L199 19.5267C197.937 19.5267 197.488 16.4449 195.581 16.4977Z" fill="#C63939"/>
<path d="M192.387 16.9006C192.664 15.5676 194.433 15.825 194.499 15.2509C194.571 14.6768 193.146 14.2412 193.007 12.631C192.869 11.0275 193.377 8.17665 192.757 7.39795C192.136 6.61926 190.942 8.06446 189.747 11.1132C188.553 14.1686 190.46 18.7352 191.285 18.9398C192.11 19.1443 192.11 18.2271 192.387 16.9006Z" fill="#C63939"/>
<path d="M199 7.65562L199 5.67589C195.872 5.67589 193.331 3.13523 193.331 0.00726294L191.351 0.00726285C191.351 4.22408 194.783 7.65562 199 7.65562Z" fill="#C63939"/>
<path d="M199 3.51138L199 1.53165C198.161 1.53165 197.475 0.851947 197.475 0.00726312L195.495 0.00726303C195.495 1.9408 197.066 3.51138 199 3.51138Z" fill="#C63939"/>
<rect y="198" width="99" height="100" transform="rotate(-90 0 198)" fill="black"/>
<rect x="75" y="198" width="99" height="25" transform="rotate(-90 75 198)" fill="#C63939"/>
<rect x="67" y="198" width="99" height="4.99999" transform="rotate(-90 67 198)" fill="#F5E7D3"/>
<rect x="54" y="198" width="99" height="9.99999" transform="rotate(-90 54 198)" fill="#F5E7D3"/>
</svg>
