<svg width="130" height="45" viewBox="0 0 130 45" fill="none" xmlns="http://www.w3.org/2000/svg">
<path d="M42.0737 15.012C43.3258 11.0382 42.5637 3.1451 40.1141 0.260022C39.7874 -0.121027 39.1887 -0.0665912 38.9165 0.368893L35.8681 5.10478C35.106 6.03018 33.7451 6.30236 32.7653 5.5947C29.4991 3.41728 25.5254 2.16526 21.3338 2.16526C17.0879 2.16526 13.1685 3.41728 9.90237 5.5947C8.8681 6.24792 7.56165 6.03018 6.79955 5.10478L3.75117 0.314457C3.47899 -0.0665912 2.8802 -0.121027 2.55358 0.260022C0.103988 3.1451 -0.658109 11.0382 0.593907 15.012C1.02939 16.3185 1.13826 17.7338 0.866085 19.0403C0.593907 20.4011 0.376165 21.9798 0.376165 23.1229C0.376165 34.7177 9.7935 44.0806 21.3338 44.0806C32.8741 44.0806 42.2915 34.7177 42.2915 23.1229C42.2915 21.9798 42.0193 20.4011 41.8016 19.0403C41.5294 17.6794 41.6383 16.3185 42.0737 15.012ZM21.3338 39.3991C12.4064 39.3991 5.11205 32.1048 5.11205 23.1774C5.11205 22.9052 5.11205 22.5786 5.11205 22.3064C5.43866 16.2096 9.14028 10.9838 14.3661 8.53421C16.4891 7.55438 18.8298 6.95559 21.2794 6.95559C23.729 6.95559 26.1241 7.49994 28.1927 8.53421C33.4185 11.0382 37.1201 16.2096 37.4467 22.3064C37.4467 22.5786 37.4467 22.9052 37.4467 23.1774C37.5556 32.1048 30.2612 39.3991 21.3338 39.3991Z" fill="black"/>
<path d="M28.3559 29.4375L24.2188 22.252L20.6805 16.2641C20.5717 16.1008 20.4628 16.0464 20.2995 16.0464H16.8701C16.7068 16.0464 16.5434 16.1553 16.489 16.2641C16.3801 16.4274 16.4346 16.5907 16.489 16.754L19.864 22.4698L15.2914 29.3831C15.1826 29.5464 15.1826 29.7097 15.2914 29.873C15.3459 30.0363 15.5092 30.0907 15.7269 30.0907H19.1563C19.3197 30.0907 19.483 30.0363 19.5374 29.873L21.987 26.0081L24.2188 29.8186C24.3277 29.9819 24.4366 30.0363 24.5999 30.0363H27.9749C28.1382 30.0363 28.3015 29.9274 28.3559 29.8186C28.4648 29.7641 28.4648 29.5464 28.3559 29.4375Z" fill="black"/>
<path d="M52.2532 14.25H51.2734V7.60889H53.8863C54.5939 7.60889 55.1927 7.77219 55.5738 8.15324C55.9548 8.53429 56.1726 9.07864 56.1726 9.78631C56.1726 10.4395 55.9548 10.9295 55.5738 11.3105C55.1383 11.6915 54.5939 11.8549 53.8863 11.8549H52.2532V14.25ZM53.7774 8.42542H52.2532V11.0928H53.7774C54.2673 11.0928 54.6484 10.9839 54.9205 10.7661C55.1927 10.5484 55.3016 10.2218 55.3016 9.78631C55.3016 9.29639 55.1927 8.96977 54.9205 8.75203C54.6484 8.53429 54.2673 8.42542 53.7774 8.42542Z" fill="black"/>
<path d="M59.112 14.3586C58.2955 14.3586 57.6967 14.1409 57.3157 13.651C56.9346 13.1611 56.7169 12.6167 56.7169 11.8546C56.7169 11.147 56.8802 10.5482 57.3157 10.0582C57.6967 9.56833 58.2955 9.35059 59.112 9.35059C59.8741 9.35059 60.4729 9.56833 60.854 10.0038C61.235 10.4393 61.4527 11.0381 61.4527 11.8002C61.4527 12.2901 61.3439 12.6711 61.1806 13.0522C61.0173 13.4332 60.7451 13.7054 60.4185 13.9232C60.0919 14.2498 59.6564 14.3586 59.112 14.3586ZM59.112 13.5421C59.4931 13.5421 59.7652 13.4332 59.983 13.2699C60.2007 13.1066 60.3096 12.8889 60.4185 12.6167C60.4729 12.3445 60.5273 12.0724 60.5273 11.8546C60.5273 11.6369 60.4729 11.3103 60.4185 11.0925C60.364 10.8203 60.2007 10.6026 59.983 10.4393C59.7652 10.276 59.4931 10.1671 59.112 10.1671C58.731 10.1671 58.4044 10.276 58.2411 10.4393C58.0233 10.6026 57.9144 10.8203 57.8056 11.0925C57.6967 11.3647 57.6967 11.6369 57.6967 11.8546C57.6967 12.0724 57.7511 12.399 57.8056 12.6167C57.86 12.8889 58.0233 13.1066 58.2411 13.2699C58.4044 13.4332 58.731 13.5421 59.112 13.5421Z" fill="black"/>
<path d="M63.1947 14.2498L61.9971 9.67721V9.40503H62.9769L63.9023 13.4333L65.0455 9.40503H65.9165L67.0596 13.4333L67.985 9.40503H68.9648V9.67721L67.7673 14.2498H66.4064L65.5354 11.147V11.0925L64.6644 14.2498H63.1947Z" fill="black"/>
<path d="M71.8499 14.3587C71.3055 14.3587 70.8701 14.2498 70.489 13.9776C70.1624 13.7599 69.8902 13.4333 69.7269 13.0522C69.5636 12.6712 69.4547 12.2901 69.4547 11.8546C69.4547 11.3647 69.5092 10.9837 69.7269 10.6026C69.9447 10.2216 70.1624 9.94938 70.5435 9.73164C70.8701 9.5139 71.3055 9.40503 71.7955 9.40503C72.2309 9.40503 72.612 9.5139 72.9386 9.67721C73.2652 9.84051 73.5374 10.1127 73.7551 10.4393C73.9729 10.7659 74.0818 11.147 74.0818 11.6369C74.0818 11.6369 74.0818 11.7458 74.0818 11.9091H70.4346C70.4346 12.4534 70.5435 12.8345 70.8156 13.1066C71.0878 13.3788 71.4144 13.5421 71.8499 13.5421C72.1765 13.5421 72.4487 13.4333 72.7209 13.2699C72.9386 13.1066 73.1019 12.8889 73.1564 12.6167H74.1362C74.0818 13.1066 73.864 13.5421 73.4285 13.8687C72.993 14.1954 72.4487 14.3587 71.8499 14.3587ZM70.4346 11.4736H73.0475C73.0475 11.3647 72.9931 11.2558 72.9931 11.147C72.9386 10.9837 72.8842 10.8748 72.7753 10.7115C72.6664 10.5482 72.5576 10.4393 72.3943 10.3849C72.231 10.3304 72.0132 10.2216 71.741 10.2216C71.4144 10.2216 71.1422 10.276 70.9789 10.4393C70.8156 10.6026 70.6523 10.7659 70.5435 10.9292C70.489 11.0925 70.489 11.2558 70.4346 11.4736Z" fill="black"/>
<path d="M75.116 14.2498V9.40503H76.0414L76.1503 10.7115C76.2047 10.4937 76.3136 10.276 76.4225 10.1127C76.5858 9.89495 76.7491 9.73164 77.0213 9.62277C77.2934 9.5139 77.5656 9.40503 77.9467 9.40503H78.1644V10.4937H77.9467C77.4568 10.4937 77.0757 10.5482 76.858 10.657C76.5858 10.7659 76.4225 10.9837 76.3136 11.2014C76.2047 11.4191 76.1503 11.7458 76.1503 12.0724V14.2498H75.116Z" fill="black"/>
<path d="M80.9406 14.3587C80.3963 14.3587 79.9608 14.2498 79.5797 13.9776C79.2531 13.7599 78.981 13.4333 78.8176 13.0522C78.6543 12.6712 78.5455 12.2901 78.5455 11.8546C78.5455 11.3647 78.5999 10.9837 78.8176 10.6026C79.0354 10.2216 79.2531 9.94938 79.6342 9.73164C79.9608 9.5139 80.3963 9.40503 80.8862 9.40503C81.3217 9.40503 81.7027 9.5139 82.0293 9.67721C82.356 9.84051 82.6281 10.1127 82.8459 10.4393C83.0636 10.7659 83.1725 11.147 83.1725 11.6369C83.1725 11.6369 83.1725 11.7458 83.1725 11.9091H79.5253C79.5253 12.4534 79.6342 12.8345 79.9064 13.1066C80.1785 13.3788 80.5051 13.5421 80.9406 13.5421C81.2672 13.5421 81.5394 13.4333 81.8116 13.2699C82.0293 13.1066 82.1926 12.8889 82.2471 12.6167H83.2269C83.1725 13.1066 82.9547 13.5421 82.5193 13.8687C82.0838 14.1954 81.5939 14.3587 80.9406 14.3587ZM79.5797 11.4736H82.1926C82.1926 11.3647 82.1382 11.2558 82.1382 11.147C82.0838 10.9837 82.0293 10.8748 81.9205 10.7115C81.8116 10.5482 81.7027 10.4393 81.5394 10.3849C81.3761 10.3304 81.1584 10.2216 80.8862 10.2216C80.5596 10.2216 80.2874 10.276 80.1241 10.4393C79.9608 10.6026 79.7975 10.7659 79.6886 10.9292C79.6342 11.0925 79.5797 11.2558 79.5797 11.4736Z" fill="black"/>
<path d="M86.2753 14.3586C85.5677 14.3586 85.0233 14.1409 84.6967 13.651C84.3701 13.2155 84.2068 12.6167 84.2068 11.909C84.2068 11.1469 84.3701 10.5482 84.6967 10.1127C85.0233 9.67719 85.5677 9.40501 86.2753 9.40501C86.6019 9.40501 86.8741 9.45945 87.0919 9.56832C87.3096 9.67719 87.4729 9.78606 87.5818 9.94937C87.6907 10.1127 87.7995 10.2215 87.854 10.3304C87.9084 10.4393 87.9628 10.5482 87.9628 10.5482V7.60864H88.9427V14.2498H88.0717L87.9084 13.2699C87.9084 13.3244 87.854 13.3788 87.7995 13.4877C87.7451 13.5965 87.6362 13.7054 87.5274 13.8687C87.4185 13.9776 87.2007 14.1409 87.0374 14.1953C86.8197 14.3042 86.5475 14.3586 86.2753 14.3586ZM86.5475 13.4877C86.983 13.4877 87.364 13.3244 87.5818 13.0522C87.7995 12.78 87.9628 12.3445 87.9628 11.8546C87.9628 11.3647 87.854 10.9836 87.6362 10.7115C87.4185 10.4393 87.0374 10.276 86.602 10.276C86.2753 10.276 86.0032 10.3304 85.7854 10.4937C85.5677 10.657 85.4044 10.8203 85.3499 11.0925C85.2411 11.3103 85.2411 11.5824 85.2411 11.8546C85.2411 12.1268 85.2955 12.399 85.3499 12.6167C85.4588 12.8889 85.5677 13.0522 85.7854 13.2155C86.0032 13.3788 86.2209 13.4877 86.5475 13.4877Z" fill="black"/>
<path d="M95.4749 14.3586C95.2027 14.3586 94.9306 14.3042 94.7128 14.1953C94.4951 14.0865 94.3318 13.9776 94.1685 13.8687C94.0052 13.7599 93.9507 13.5965 93.8963 13.4877C93.8419 13.3788 93.7874 13.3244 93.7874 13.2699L93.6241 14.2498H92.7531V7.60864H93.733V10.5482C93.733 10.4937 93.7874 10.4393 93.8419 10.3304C93.8963 10.2215 94.0052 10.0582 94.114 9.94937C94.2229 9.78606 94.3862 9.67719 94.604 9.56832C94.8217 9.45945 95.0939 9.40501 95.4205 9.40501C96.1281 9.40501 96.6181 9.62276 96.9991 10.1127C97.3257 10.6026 97.489 11.2014 97.489 11.909C97.489 12.6167 97.3257 13.2155 96.9991 13.7054C96.7269 14.1409 96.1826 14.3586 95.4749 14.3586ZM95.2027 13.4877C95.5294 13.4877 95.8015 13.4332 96.0193 13.2699C96.237 13.1066 96.3459 12.8889 96.4548 12.6711C96.5636 12.399 96.5636 12.1812 96.5636 11.909C96.5636 11.6369 96.5092 11.3647 96.4548 11.1469C96.4003 10.9292 96.237 10.7115 96.0193 10.5482C95.8015 10.3849 95.5294 10.3304 95.2027 10.3304C94.7673 10.3304 94.3862 10.4937 94.1685 10.7659C93.9507 11.0381 93.8419 11.4191 93.8419 11.909C93.8419 12.399 93.9507 12.78 94.2229 13.1066C94.3862 13.3788 94.7673 13.4877 95.2027 13.4877Z" fill="black"/>
<path d="M97.9245 16.4272V15.6651H98.6322C98.7955 15.6651 98.9588 15.6107 99.0676 15.5562C99.1765 15.5018 99.2854 15.2841 99.4487 14.9574L99.8842 14.032L97.9789 9.40503H99.0132L100.374 13.0522L101.844 9.40503H102.878L100.374 15.0663C100.211 15.4474 100.047 15.774 99.8842 15.9373C99.7209 16.155 99.612 16.2639 99.3943 16.3183C99.1765 16.3728 99.0132 16.4272 98.741 16.4272H97.9245Z" fill="black"/>
<path d="M58.2411 19.0403H61.8339V38.6371H58.2411V30.3084H54.2129V38.6371H50.6201V19.0403H54.2129V27.5322H58.2411V19.0403Z" fill="black"/>
<path d="M72.8299 38.6368L72.0678 34.5541H67.7674L67.0597 38.6368H63.4669L67.3863 19.04H72.1766L76.3137 38.6368H72.8299ZM68.2573 31.8868H71.5778L69.8903 22.5239L68.2573 31.8868Z" fill="black"/>
<path d="M84.3702 35.0985V30.907C84.3702 30.5804 84.3158 30.3626 84.2069 30.2538C84.098 30.1449 83.8803 30.0904 83.4992 30.0904H80.9952C78.8722 30.0904 77.7835 29.0562 77.7835 26.9876V22.1973C77.7835 20.1288 78.9267 19.0945 81.1585 19.0945H84.5879C86.8198 19.0945 87.9629 20.1288 87.9629 22.1973V24.9191H84.3702V22.6872C84.3702 22.3606 84.3158 22.1429 84.2069 22.034C84.098 21.9251 83.8803 21.8707 83.4992 21.8707H82.3017C81.975 21.8707 81.7029 21.9251 81.594 22.034C81.4851 22.1429 81.4307 22.3606 81.4307 22.6872V26.6066C81.4307 26.9332 81.4851 27.1509 81.594 27.2598C81.7029 27.3687 81.975 27.4231 82.3017 27.4231H84.7512C86.9287 27.4231 88.0174 28.4574 88.0174 30.4715V35.5884C88.0174 37.657 86.8742 38.6913 84.6424 38.6913H81.2674C79.0355 38.6913 77.8924 37.657 77.8924 35.5884V32.8667H81.4851V35.0985C81.4851 35.4251 81.5396 35.6429 81.6484 35.7517C81.7573 35.8606 82.0295 35.915 82.3561 35.915H83.5537C83.8803 35.915 84.098 35.8606 84.2613 35.7517C84.3158 35.6429 84.3702 35.4251 84.3702 35.0985Z" fill="black"/>
<path d="M97.5435 19.04H101.136V35.5884C101.136 37.657 99.9932 38.6912 97.7613 38.6912H93.9508C91.719 38.6912 90.5758 37.657 90.5758 35.5884V19.04H94.1686V35.0985C94.1686 35.4251 94.223 35.6429 94.3319 35.7517C94.4407 35.8606 94.6585 35.915 95.0395 35.915H96.6726C96.9992 35.915 97.2714 35.8606 97.3802 35.7517C97.4891 35.6429 97.5435 35.4251 97.5435 35.0985V19.04Z" fill="black"/>
<path d="M107.614 31.0158V38.6368H104.021V19.04H111.207C113.439 19.04 114.582 20.0743 114.582 22.1429V27.9675C114.582 29.655 113.82 30.6348 112.296 30.9614L115.562 38.6912H111.697L108.703 31.0703H107.614V31.0158ZM107.614 21.7618V28.3485H110.173C110.499 28.3485 110.717 28.2941 110.88 28.1852C110.989 28.0763 111.044 27.8586 111.044 27.532V22.6328C111.044 22.3062 110.989 22.0884 110.88 21.9796C110.771 21.8707 110.554 21.8162 110.173 21.8162H107.614V21.7618Z" fill="black"/>
<path d="M125.469 38.6368L124.707 34.5541H120.406L119.753 38.6368H116.161L120.08 19.04H124.87L129.007 38.6368H125.469ZM120.896 31.8868H124.217L122.529 22.5239L120.896 31.8868Z" fill="black"/>
</svg>
