<svg fill="none" height="45" viewBox="0 0 130 45" width="130" xmlns="http://www.w3.org/2000/svg"><g fill="#f5e7d3"><path d="m42.0737 15.012c1.2521-3.9738.49-11.8669-1.9596-14.751978-.3267-.381049-.9254-.3266132-1.1976.108871l-3.0484 4.735887c-.7621.9254-2.123 1.19758-3.1028.48992-3.2662-2.17742-7.2399-3.42944-11.4315-3.42944-4.2459 0-8.1653 1.25202-11.43143 3.42944-1.03427.65322-2.34072.43548-3.10282-.48992l-3.04838-4.790323c-.27218-.3810482-.87097-.435484-1.19759-.054435-2.449592 2.885078-3.211689 10.778178-1.959673 14.751978.435483 1.3065.544353 2.7218.272178 4.0283-.272178 1.3608-.48992 2.9395-.48992 4.0826 0 11.5948 9.417335 20.9577 20.957635 20.9577s20.9577-9.3629 20.9577-20.9577c0-1.1431-.2722-2.7218-.4899-4.0826-.2722-1.3609-.1633-2.7218.2721-4.0283zm-20.7399 24.3871c-8.9274 0-16.22175-7.2943-16.22175-16.2217 0-.2722 0-.5988 0-.871.32661-6.0968 4.02823-11.3226 9.25405-13.77219 2.123-.97983 4.4637-1.57862 6.9133-1.57862s4.8447.54435 6.9133 1.57862c5.2258 2.50399 8.9274 7.67539 9.254 13.77219v.871c.1089 8.9274-7.1855 16.2217-16.1129 16.2217z"/><path d="m28.3559 29.4375-4.1371-7.1855-3.5383-5.9879c-.1088-.1633-.2177-.2177-.381-.2177h-3.4294c-.1633 0-.3267.1089-.3811.2177-.1089.1633-.0544.3266 0 .4899l3.375 5.7158-4.5726 6.9133c-.1088.1633-.1088.3266 0 .4899.0545.1633.2178.2177.4355.2177h3.4294c.1634 0 .3267-.0544.3811-.2177l2.4496-3.8649 2.2318 3.8105c.1089.1633.2178.2177.3811.2177h3.375c.1633 0 .3266-.1089.381-.2177.1089-.0545.1089-.2722 0-.3811z"/><path d="m52.2532 14.25h-.9798v-6.64111h2.6129c.7076 0 1.3064.1633 1.6875.54435.381.38105.5988.9254.5988 1.63307 0 .65319-.2178 1.14319-.5988 1.52419-.4355.381-.9799.5444-1.6875.5444h-1.6331zm1.5242-5.82458h-1.5242v2.66738h1.5242c.4899 0 .871-.1089 1.1432-.3267.2721-.2177.381-.5443.381-.97979 0-.48992-.1089-.81654-.381-1.03428-.2722-.21774-.6533-.32661-1.1432-.32661z"/><path d="m59.112 14.3586c-.8165 0-1.4153-.2177-1.7963-.7076-.3811-.4899-.5988-1.0343-.5988-1.7964 0-.7076.1633-1.3064.5988-1.7964.381-.48987.9798-.70761 1.7963-.70761.7621 0 1.3609.21774 1.742.65321.381.4355.5987 1.0343.5987 1.7964 0 .4899-.1088.8709-.2721 1.252-.1633.381-.4355.6532-.7621.871-.3266.3266-.7621.4354-1.3065.4354zm0-.8165c.3811 0 .6532-.1089.871-.2722.2177-.1633.3266-.381.4355-.6532.0544-.2722.1088-.5443.1088-.7621 0-.2177-.0544-.5443-.1088-.7621-.0545-.2722-.2178-.4899-.4355-.6532-.2178-.1633-.4899-.2722-.871-.2722-.381 0-.7076.1089-.8709.2722-.2178.1633-.3267.381-.4355.6532-.1089.2722-.1089.5444-.1089.7621 0 .2178.0544.5444.1089.7621.0544.2722.2177.4899.4355.6532.1633.1633.4899.2722.8709.2722z"/><path d="m63.1947 14.2498-1.1976-4.57259v-.27218h.9799l.9254 4.02827 1.1431-4.02827h.871l1.1431 4.02827.9254-4.02827h.9799v.27218l-1.1976 4.57259h-1.3609l-.871-3.1028v-.0545l-.8709 3.1573z"/><path d="m71.8499 14.3587c-.5443 0-.9798-.1089-1.3609-.3811-.3266-.2177-.5987-.5443-.762-.9254-.1634-.381-.2722-.7621-.2722-1.1976 0-.4899.0544-.8709.2722-1.252.2177-.381.4354-.65322.8165-.87096.3266-.21774.7621-.32661 1.252-.32661.4355 0 .8165.10887 1.1431.27218.3267.1633.5988.43549.8166.76209.2177.3266.3266.7077.3266 1.1976v.2722h-3.6472c0 .5443.1089.9254.3811 1.1975.2721.2722.5988.4355 1.0342.4355.3266 0 .5988-.1088.871-.2722.2177-.1633.381-.381.4355-.6532h.9798c-.0544.4899-.2722.9254-.7076 1.252-.4355.3267-.9799.49-1.5787.49zm-1.4153-2.8851h2.6129c0-.1089-.0544-.2178-.0544-.3266-.0545-.1633-.1089-.2722-.2178-.4355-.1088-.1633-.2177-.2722-.381-.3266-.1633-.0545-.3811-.1633-.6532-.1633-.3266 0-.5988.0544-.7621.2177s-.3266.3266-.4355.4899c-.0544.1633-.0545.3266-.1089.5444z"/><path d="m75.116 14.2498v-4.84477h.9254l.1089 1.30647c.0544-.2178.1633-.4355.2722-.5988.1633-.21775.3266-.38106.5988-.48993.2721-.10887.5443-.21774.9254-.21774h.2177v1.08867h-.2177c-.4899 0-.871.0545-1.0887.1633-.2722.1089-.4355.3267-.5444.5444s-.1633.5444-.1633.871v2.1774z"/><path d="m80.9406 14.3587c-.5443 0-.9798-.1089-1.3609-.3811-.3266-.2177-.5987-.5443-.7621-.9254-.1633-.381-.2721-.7621-.2721-1.1976 0-.4899.0544-.8709.2721-1.252.2178-.381.4355-.65322.8166-.87096.3266-.21774.7621-.32661 1.252-.32661.4355 0 .8165.10887 1.1431.27218.3267.1633.5988.43549.8166.76209.2177.3266.3266.7077.3266 1.1976v.2722h-3.6472c0 .5443.1089.9254.3811 1.1975.2721.2722.5987.4355 1.0342.4355.3266 0 .5988-.1088.871-.2722.2177-.1633.381-.381.4355-.6532h.9798c-.0544.4899-.2722.9254-.7076 1.252-.4355.3267-.9254.49-1.5787.49zm-1.3609-2.8851h2.6129c0-.1089-.0544-.2178-.0544-.3266-.0544-.1633-.1089-.2722-.2177-.4355-.1089-.1633-.2178-.2722-.3811-.3266-.1633-.0545-.381-.1633-.6532-.1633-.3266 0-.5988.0544-.7621.2177s-.3266.3266-.4355.4899c-.0544.1633-.1089.3266-.1089.5444z"/><path d="m86.2753 14.3586c-.7076 0-1.252-.2177-1.5786-.7076-.3266-.4355-.4899-1.0343-.4899-1.742 0-.7621.1633-1.3608.4899-1.7963.3266-.43551.871-.70769 1.5786-.70769.3266 0 .5988.05444.8166.16331.2177.10887.381.21774.4899.38105.1089.16333.2177.27213.2722.38103.0544.1089.1088.2178.1088.2178v-2.93956h.9799v6.64116h-.871l-.1633-.9799c0 .0545-.0544.1089-.1089.2178-.0544.1088-.1633.2177-.2721.381-.1089.1089-.3267.2722-.49.3266-.2177.1089-.4899.1633-.7621.1633zm.2722-.8709c.4355 0 .8165-.1633 1.0343-.4355.2177-.2722.381-.7077.381-1.1976s-.1088-.871-.3266-1.1431c-.2177-.2722-.5988-.4355-1.0342-.4355-.3267 0-.5988.0544-.8166.2177-.2177.1633-.381.3266-.4355.5988-.1088.2178-.1088.4899-.1088.7621s.0544.5444.1088.7621c.1089.2722.2178.4355.4355.5988.2178.1633.4355.2722.7621.2722z"/><path d="m95.4749 14.3586c-.2721 0-.5443-.0544-.762-.1633-.2178-.1088-.3811-.2177-.5444-.3266-.1633-.1088-.2177-.2722-.2722-.381-.0544-.1089-.1088-.1633-.1088-.2178l-.1634.9799h-.8709v-6.64116h.9798v2.93956c0-.0545.0544-.1089.1089-.2178.0544-.1089.1633-.2722.2722-.38103.1088-.16331.2721-.27218.4899-.38105.2177-.10887.4899-.16331.8165-.16331.7077 0 1.1976.21775 1.5786.70769.3267.4899.49 1.0887.49 1.7963 0 .7077-.1633 1.3065-.49 1.7964-.2721.4355-.8165.6532-1.5242.6532zm-.2721-.8709c.3266 0 .5988-.0545.8165-.2178s.3266-.381.4355-.5988c.1089-.2721.1089-.4899.1089-.7621 0-.2721-.0545-.5443-.1089-.7621-.0544-.2177-.2178-.4354-.4355-.5987s-.4899-.2178-.8165-.2178c-.4355 0-.8166.1633-1.0343.4355s-.3266.6532-.3266 1.1431c0 .49.1089.871.381 1.1976.1633.2722.5444.3811.9799.3811z"/><path d="m97.9245 16.4272v-.7621h.7077c.1633 0 .3266-.0544.4354-.1089.1089-.0544.2178-.2721.3811-.5988l.4355-.9254-1.9053-4.62697h1.0343l1.3608 3.64717 1.47-3.64717h1.034l-2.504 5.66127c-.163.3811-.327.7077-.4898.871-.1633.2177-.2722.3266-.4899.381-.2178.0545-.3811.1089-.6533.1089z"/><path d="m58.2411 19.0403h3.5928v19.5968h-3.5928v-8.3287h-4.0282v8.3287h-3.5927v-19.5968h3.5927v8.4919h4.0282z"/><path d="m72.8299 38.6368-.7621-4.0827h-4.3004l-.7077 4.0827h-3.5927l3.9193-19.5968h4.7904l4.1371 19.5968zm-4.5726-6.75h3.3206l-1.6875-9.3629z"/><path d="m84.3702 35.0985v-4.1915c0-.3266-.0544-.5444-.1633-.6532-.1089-.1089-.3266-.1634-.7077-.1634h-2.504c-2.123 0-3.2117-1.0342-3.2117-3.1028v-4.7903c0-2.0685 1.1432-3.1028 3.375-3.1028h3.4294c2.2319 0 3.375 1.0343 3.375 3.1028v2.7218h-3.5927v-2.2319c0-.3266-.0544-.5443-.1633-.6532s-.3266-.1633-.7077-.1633h-1.1975c-.3267 0-.5988.0544-.7077.1633s-.1633.3266-.1633.6532v3.9194c0 .3266.0544.5443.1633.6532s.381.1633.7077.1633h2.4495c2.1775 0 3.2662 1.0343 3.2662 3.0484v5.1169c0 2.0686-1.1432 3.1029-3.375 3.1029h-3.375c-2.2319 0-3.375-1.0343-3.375-3.1029v-2.7217h3.5927v2.2318c0 .3266.0545.5444.1633.6532.1089.1089.3811.1633.7077.1633h1.1976c.3266 0 .5443-.0544.7076-.1633.0545-.1088.1089-.3266.1089-.6532z"/><path d="m97.5436 19.04h3.5924v16.5484c0 2.0686-1.1428 3.1028-3.3746 3.1028h-3.8105c-2.2319 0-3.375-1.0342-3.375-3.1028v-16.5484h3.5927v16.0585c0 .3266.0544.5444.1633.6532.1089.1089.3266.1633.7077.1633h1.633c.3267 0 .5988-.0544.7077-.1633.1089-.1088.1633-.3266.1633-.6532z"/><path d="m107.614 31.0158v7.621h-3.593v-19.5968h7.186c2.232 0 3.375 1.0343 3.375 3.1029v5.8246c0 1.6875-.762 2.6673-2.286 2.9939l3.266 7.7298h-3.865l-2.994-7.6209h-1.089zm0-9.254v6.5867h2.559c.326 0 .544-.0544.707-.1633.109-.1089.164-.3266.164-.6532v-4.8992c0-.3266-.055-.5444-.164-.6532-.109-.1089-.326-.1634-.707-.1634h-2.559z"/><path d="m125.469 38.6368-.762-4.0827h-4.301l-.653 4.0827h-3.592l3.919-19.5968h4.79l4.137 19.5968zm-4.573-6.75h3.321l-1.688-9.3629z"/></g></svg>