<svg width="89" height="34" viewBox="0 0 89 34" fill="none" xmlns="http://www.w3.org/2000/svg">
<path d="M34.7973 11.2856H33.6205V4.79028H36.2279C36.9508 4.79028 37.5123 4.97103 37.9123 5.33252C38.3122 5.69402 38.5122 6.2401 38.5122 6.97078C38.5122 7.60916 38.3045 8.1091 37.8892 8.47059C37.4815 8.83209 36.9278 9.01283 36.2279 9.01283H34.7973V11.2856ZM36.0663 5.74786H34.7973V8.14756H36.0663C36.4817 8.14756 36.8162 8.04757 37.0701 7.8476C37.3239 7.64762 37.4508 7.34766 37.4508 6.94771C37.4508 6.54007 37.3239 6.2401 37.0701 6.04782C36.8239 5.84784 36.4894 5.74786 36.0663 5.74786Z" fill="#F5E7D3"/>
<path d="M41.3739 11.401C40.8355 11.401 40.3894 11.2972 40.0356 11.0895C39.6818 10.8818 39.4165 10.5973 39.2396 10.2358C39.0627 9.86657 38.9742 9.4474 38.9742 8.97822C38.9665 8.27062 39.1626 7.68992 39.5626 7.23613C39.9702 6.77465 40.574 6.54391 41.3739 6.54391C42.1507 6.54391 42.7391 6.76696 43.1391 7.21306C43.5467 7.65916 43.7505 8.24755 43.7505 8.97822C43.7505 9.43201 43.6659 9.8435 43.4967 10.2127C43.3275 10.5819 43.066 10.8741 42.7122 11.0895C42.3584 11.2972 41.9123 11.401 41.3739 11.401ZM41.3739 10.4088C41.7123 10.4088 41.97 10.3357 42.1469 10.1896C42.3315 10.0435 42.4545 9.85888 42.5161 9.63583C42.5776 9.40509 42.6084 9.17435 42.6084 8.94361C42.6084 8.70518 42.5776 8.47059 42.5161 8.23985C42.4545 8.00911 42.3315 7.82068 42.1469 7.67454C41.97 7.5284 41.7123 7.45534 41.3739 7.45534C41.0278 7.45534 40.7624 7.53225 40.5778 7.68608C40.4009 7.83221 40.2779 8.02065 40.2087 8.25139C40.1471 8.47444 40.1164 8.70518 40.1164 8.94361C40.1164 9.17435 40.1471 9.40509 40.2087 9.63583C40.2779 9.85888 40.4009 10.0435 40.5778 10.1896C40.7624 10.3357 41.0278 10.4088 41.3739 10.4088Z" fill="#F5E7D3"/>
<path d="M45.3274 11.2856L44.2199 6.74004V6.53237H45.3736L46.1581 10.305H46.1811L47.1964 6.53237H48.2117L49.2615 10.305H49.2846L50.0691 6.53237H51.2113V6.74004L50.0922 11.2856H48.4539L47.7156 8.57443H47.6925L46.9887 11.2856H45.3274Z" fill="#F5E7D3"/>
<path d="M54.0145 11.401C53.4684 11.401 53.0223 11.2856 52.6762 11.0549C52.3378 10.8165 52.084 10.5165 51.9148 10.155C51.7533 9.78582 51.6687 9.3974 51.661 8.98976C51.6533 8.5129 51.7417 8.08987 51.9263 7.72069C52.1186 7.34381 52.3878 7.05154 52.7339 6.84387C53.0877 6.62852 53.503 6.52084 53.9799 6.52084C54.4029 6.52084 54.7798 6.61313 55.1105 6.79773C55.449 6.98232 55.7182 7.24382 55.9181 7.58224C56.1181 7.91297 56.2219 8.30523 56.2296 8.75902C56.2296 8.7744 56.2296 8.81671 56.2296 8.88593C56.2296 8.95515 56.2296 9.01284 56.2296 9.05898L52.7801 9.05898C52.7801 9.49739 52.8877 9.83581 53.1031 10.0742C53.3185 10.305 53.6146 10.4204 53.9914 10.4204C54.2837 10.4204 54.526 10.3473 54.7183 10.2011C54.9183 10.055 55.0375 9.86273 55.0759 9.6243L56.2181 9.6243C56.1643 10.1242 55.9489 10.5473 55.572 10.8934C55.1951 11.2318 54.676 11.401 54.0145 11.401ZM52.8147 8.52828H55.0529C55.0452 8.47444 55.0259 8.38984 54.9952 8.27447C54.9721 8.15909 54.9221 8.03988 54.8452 7.91682C54.776 7.79376 54.6683 7.68992 54.5221 7.60532C54.376 7.52071 54.1876 7.47841 53.9568 7.47841C53.6492 7.47841 53.4146 7.54379 53.2531 7.67454C53.0992 7.7976 52.9877 7.94374 52.9185 8.11295C52.857 8.27446 52.8224 8.41291 52.8147 8.52828Z" fill="#F5E7D3"/>
<path d="M57.1862 11.2856V6.54391H58.2822L58.363 7.85913C58.4091 7.65916 58.4976 7.45918 58.6283 7.25921C58.7668 7.05154 58.9552 6.88233 59.1937 6.75158C59.4398 6.61313 59.7551 6.54391 60.1397 6.54391H60.3127V7.85913H60.1397C59.4782 7.85913 59.0168 7.96681 58.7552 8.18217C58.4937 8.38984 58.363 8.74364 58.363 9.24358V11.2856H57.1862Z" fill="#F5E7D3"/>
<path d="M63.2081 11.401C62.662 11.401 62.2159 11.2856 61.8698 11.0549C61.5314 10.8165 61.2776 10.5165 61.1083 10.155C60.9468 9.78582 60.8622 9.3974 60.8545 8.98976C60.8468 8.5129 60.9353 8.08987 61.1199 7.72069C61.3122 7.34381 61.5814 7.05154 61.9275 6.84387C62.2813 6.62852 62.6966 6.52084 63.1735 6.52084C63.5965 6.52084 63.9734 6.61313 64.3041 6.79773C64.6425 6.98232 64.9117 7.24382 65.1117 7.58224C65.3117 7.91297 65.4155 8.30523 65.4232 8.75902C65.4232 8.7744 65.4232 8.81671 65.4232 8.88593C65.4232 8.95515 65.4232 9.01284 65.4232 9.05898H61.9736C61.9736 9.49739 62.0813 9.83581 62.2967 10.0742C62.512 10.305 62.8081 10.4204 63.185 10.4204C63.4773 10.4204 63.7196 10.3473 63.9118 10.2011C64.1118 10.055 64.231 9.86273 64.2695 9.6243H65.4117C65.3578 10.1242 65.1425 10.5473 64.7656 10.8934C64.3887 11.2318 63.8695 11.401 63.2081 11.401ZM62.0082 8.52828H64.2464C64.2387 8.47444 64.2195 8.38984 64.1887 8.27447C64.1657 8.15909 64.1157 8.03988 64.0388 7.91682C63.9695 7.79376 63.8619 7.68992 63.7157 7.60532C63.5696 7.52071 63.3811 7.47841 63.1504 7.47841C62.8427 7.47841 62.6082 7.54379 62.4466 7.67454C62.2928 7.7976 62.1813 7.94374 62.1121 8.11295C62.0505 8.27446 62.0159 8.41291 62.0082 8.52828Z" fill="#F5E7D3"/>
<path d="M68.3411 11.401C67.6335 11.401 67.1297 11.1818 66.8297 10.7434C66.5298 10.2973 66.3798 9.71659 66.3798 9.0013C66.3798 8.25524 66.5336 7.65916 66.8413 7.21306C67.1489 6.76696 67.6488 6.54391 68.3411 6.54391C68.641 6.54391 68.891 6.5939 69.091 6.69389C69.2986 6.78619 69.4602 6.89771 69.5755 7.02847C69.6986 7.15922 69.787 7.27844 69.8409 7.38611C69.8947 7.49379 69.9255 7.55917 69.9332 7.58224H69.9563V4.79028H71.1676V11.2856H70.1524L69.9563 10.4434H69.9332C69.9255 10.4588 69.8909 10.5165 69.8293 10.6165C69.7755 10.7165 69.6832 10.828 69.5525 10.9511C69.4294 11.0741 69.2679 11.1818 69.0679 11.2741C68.8679 11.3587 68.6256 11.401 68.3411 11.401ZM68.7218 10.4088C69.1602 10.4088 69.4717 10.2781 69.6563 10.0166C69.8486 9.74736 69.9447 9.40509 69.9447 8.98976C69.9447 8.58981 69.8524 8.25908 69.6678 7.99758C69.4909 7.72838 69.1871 7.59378 68.7564 7.59378C68.4411 7.59378 68.1911 7.663 68.0065 7.80145C67.8296 7.9322 67.7065 8.10526 67.6373 8.32061C67.5681 8.52828 67.5335 8.75133 67.5335 8.98976C67.5335 9.22819 67.5642 9.45893 67.6258 9.68198C67.695 9.89734 67.8142 10.0742 67.9834 10.2127C68.1603 10.3434 68.4064 10.4088 68.7218 10.4088Z" fill="#F5E7D3"/>
<path d="M77.5552 11.401C77.2706 11.401 77.0283 11.3587 76.8284 11.2741C76.6284 11.1818 76.463 11.0741 76.3323 10.9511C76.2092 10.828 76.1169 10.7165 76.0554 10.6165C76.0015 10.5165 75.9708 10.4588 75.9631 10.4434H75.94L75.7439 11.2856H74.7286V4.79028H75.94V7.58224H75.9631C75.9708 7.55917 76.0015 7.49379 76.0554 7.38611C76.1092 7.27844 76.1938 7.15922 76.3092 7.02847C76.4323 6.89771 76.5938 6.78619 76.7937 6.69389C77.0014 6.5939 77.2552 6.54391 77.5552 6.54391C78.2474 6.54391 78.7473 6.76696 79.055 7.21306C79.3627 7.65916 79.5165 8.25524 79.5165 9.0013C79.5165 9.72428 79.3627 10.305 79.055 10.7434C78.755 11.1818 78.2551 11.401 77.5552 11.401ZM77.1745 10.4088C77.4898 10.4088 77.7321 10.3434 77.9013 10.2127C78.0782 10.0742 78.1974 9.89734 78.2589 9.68198C78.3282 9.45893 78.3628 9.22819 78.3628 8.98976C78.3628 8.75133 78.3282 8.52828 78.2589 8.32061C78.1897 8.10526 78.0628 7.9322 77.8782 7.80145C77.7013 7.663 77.4552 7.59378 77.1399 7.59378C76.7091 7.59378 76.4015 7.72838 76.2169 7.99758C76.04 8.25908 75.9515 8.58981 75.9515 8.98976C75.9515 9.40509 76.0438 9.74736 76.2284 10.0166C76.4207 10.2781 76.7361 10.4088 77.1745 10.4088Z" fill="#F5E7D3"/>
<path d="M79.9104 13.4892V12.5778H80.6372C80.7526 12.5778 80.8526 12.5662 80.9372 12.5432C81.0218 12.5201 81.1064 12.4586 81.191 12.3586C81.2756 12.2663 81.3717 12.1124 81.4794 11.8971L81.7909 11.2049L79.945 6.54391H81.1564L82.3677 9.99348L83.6714 6.54391H84.8828L82.5523 12.0125C82.3678 12.4432 82.1985 12.7624 82.0447 12.97C81.8909 13.1854 81.7178 13.3238 81.5255 13.3854C81.341 13.4546 81.1025 13.4892 80.8103 13.4892H79.9104Z" fill="#F5E7D3"/>
<path d="M38.1803 22.3919H36.5294C36.2803 22.3919 36.0818 22.1934 36.0818 21.9443V16.7425C36.0818 16.4934 35.8834 16.2949 35.6343 16.2949H34.1818C33.9327 16.2949 33.7343 16.4934 33.7343 16.7425V29.954C33.7343 30.2031 33.9327 30.4015 34.1818 30.4015H35.6343C35.8834 30.4015 36.0818 30.2031 36.0818 29.954V24.8155C36.0818 24.5664 36.2803 24.3679 36.5294 24.3679H38.1803C38.4294 24.3679 38.6279 24.5664 38.6279 24.8155V29.954C38.6279 30.2031 38.8263 30.4015 39.0754 30.4015H40.5279C40.777 30.4015 40.9755 30.2031 40.9755 29.954V16.7425C40.9755 16.4934 40.777 16.2949 40.5279 16.2949H39.0754C38.8263 16.2949 38.6279 16.4934 38.6279 16.7425V21.9443C38.6279 22.1934 38.4252 22.3919 38.1803 22.3919Z" fill="#F5E7D3"/>
<path d="M45.5019 16.662L43.1585 29.8735C43.1079 30.148 43.319 30.4013 43.5977 30.4013H45.0375C45.257 30.4013 45.447 30.2409 45.4808 30.0255L45.865 27.6019C45.8988 27.3824 46.0888 27.2262 46.3084 27.2262H48.1282C48.3477 27.2262 48.5335 27.3824 48.5715 27.5977L48.9895 30.034C49.0275 30.2493 49.2133 30.4055 49.4328 30.4055H50.8937C51.1766 30.4055 51.3878 30.148 51.3329 29.8735L48.8206 16.662C48.7784 16.4509 48.5968 16.2989 48.3815 16.2989H45.9452C45.7257 16.2947 45.5399 16.4509 45.5019 16.662ZM47.6468 25.2459H46.7517C46.4772 25.2459 46.2661 25.001 46.3084 24.7266L46.7348 19.8794C46.815 19.3769 47.5328 19.3727 47.6173 19.871L48.0859 24.7181C48.1366 24.9926 47.9255 25.2459 47.6468 25.2459Z" fill="#F5E7D3"/>
<path d="M57.6578 22.2185H56.0576C55.7494 22.2185 55.5847 22.0749 55.5847 21.7709V18.7224C55.5847 18.4184 55.7494 18.2749 56.0576 18.2749H56.978C57.2863 18.2749 57.4509 18.4184 57.4509 18.7224V20.1707C57.4509 20.4198 57.6494 20.6182 57.8985 20.6182H59.3721C59.6212 20.6182 59.8196 20.4198 59.8196 20.1707V18.4142C59.8196 17.0293 59.0512 16.2988 57.5945 16.2988H55.4454C53.9887 16.2988 53.2202 17.0293 53.2202 18.4142V22.0327C53.2202 23.4302 53.976 24.1734 55.4031 24.1734H57.0245C57.3327 24.1734 57.472 24.3085 57.472 24.6209V27.9776C57.472 28.2901 57.3327 28.4294 57.0245 28.4294H56.104C55.7958 28.4294 55.6311 28.2859 55.6311 27.9776V26.5294C55.6311 26.2803 55.4327 26.0818 55.1836 26.0818H53.71C53.4609 26.0818 53.2624 26.2803 53.2624 26.5294V28.2859C53.2624 29.6708 54.0309 30.4012 55.4876 30.4012H57.6156C59.085 30.4012 59.8661 29.6708 59.8661 28.2859V24.338C59.8619 22.9489 59.1018 22.2185 57.6578 22.2185Z" fill="#F5E7D3"/>
<path d="M66.5413 27.978C66.5413 28.2904 66.4062 28.4297 66.0684 28.4297H64.8186C64.5104 28.4297 64.3457 28.2862 64.3457 27.978V16.7425C64.3457 16.4934 64.1473 16.2949 63.8982 16.2949H62.4246C62.1755 16.2949 61.9771 16.4934 61.9771 16.7425V28.282C61.9771 29.6669 62.7539 30.3973 64.2275 30.3973H66.6638C68.1331 30.3973 68.9142 29.6669 68.9142 28.282V16.7425C68.9142 16.4934 68.7158 16.2949 68.4667 16.2949H66.9931C66.744 16.2949 66.5456 16.4934 66.5456 16.7425V27.978H66.5413Z" fill="#F5E7D3"/>
<path d="M78.2624 22.7128V18.4103C78.2624 17.0254 77.4939 16.2949 76.0372 16.2949H71.8023C71.5532 16.2949 71.3547 16.4934 71.3547 16.7425V29.954C71.3547 30.2031 71.5532 30.4015 71.8023 30.4015H73.2548C73.5039 30.4015 73.7023 30.2031 73.7023 29.954V25.2968C73.7023 25.0477 73.9008 24.8492 74.1499 24.8492C74.3357 24.8492 74.5046 24.9675 74.5679 25.1406L76.413 30.106C76.4764 30.2833 76.6452 30.3973 76.831 30.3973H78.3933C78.7099 30.3973 78.9253 30.0806 78.8113 29.7893L77.021 25.1786C76.9324 24.9548 77.0464 24.7141 77.2617 24.6044C77.9204 24.2877 78.2624 23.6417 78.2624 22.7128ZM75.9148 18.7185V22.4468C75.9148 22.7508 75.7501 22.8943 75.4419 22.8943H74.1457C73.8965 22.8943 73.6981 22.6959 73.6981 22.4468V18.7143C73.6981 18.4652 73.8965 18.2667 74.1457 18.2667H75.4419C75.7501 18.2667 75.9148 18.4145 75.9148 18.7185Z" fill="#F5E7D3"/>
<path d="M86.0356 16.2949H83.5993C83.384 16.2949 83.1982 16.4511 83.1602 16.6665L80.8169 29.878C80.7662 30.1524 80.9773 30.4058 81.256 30.4058H82.6958C82.9153 30.4058 83.1053 30.2453 83.1391 30.03L83.5233 27.6064C83.5571 27.3868 83.7471 27.2306 83.9667 27.2306H85.7865C86.006 27.2306 86.1918 27.3868 86.2298 27.6022L86.6478 30.0384C86.6858 30.2538 86.8716 30.41 87.0912 30.41H88.5521C88.835 30.41 89.0461 30.1524 88.9912 29.878L86.4789 16.6665C86.4325 16.4469 86.2509 16.2949 86.0356 16.2949ZM85.3009 25.2461H84.4058C84.1314 25.2461 83.9202 25.0012 83.9625 24.7268L84.3889 20.3061C84.4691 19.8036 85.1869 19.7994 85.2714 20.2976L85.74 24.7184C85.7907 24.9928 85.5796 25.2461 85.3009 25.2461Z" fill="#F5E7D3"/>
<path d="M27.7423 10.8788C28.6756 8.61774 28.7003 3.98635 27.457 0.390424C27.1365 -0.254095 26.168 -0.0568653 26.1222 0.661616L26.1081 0.901109C25.8897 4.27868 24.6465 6.14532 22.8151 7.0399C22.5157 7.18782 22.0332 7.14908 21.7479 6.96946C19.5643 5.59237 16.9792 4.7964 14.2074 4.7964C11.4285 4.7964 8.8399 5.59589 6.65276 6.98002C6.37453 7.15612 6.02585 7.19838 5.71592 7.08216C3.84223 6.38129 2.53206 4.35264 2.31018 0.904631L2.29609 0.661616C2.25031 -0.0568653 1.28177 -0.254095 0.961267 0.390424C-0.281987 3.9934 -0.257333 8.63182 0.679509 10.8894C1.14793 12.02 1.17258 13.2914 0.781646 14.4536C0.285049 15.9329 0.0279458 17.5248 0.0525995 19.1766C0.172346 26.6502 6.54358 33.0038 14.0172 33.1024C21.924 33.2081 28.3657 26.8298 28.3657 18.9477C28.3657 17.3733 28.1086 15.8589 27.6331 14.4431C27.2422 13.2843 27.2774 12.0129 27.7423 10.8788ZM14.0031 29.7143C8.24469 29.6087 3.54991 24.9104 3.44073 19.1519C3.32803 13.0448 8.30104 8.06831 14.4117 8.18101C20.1701 8.28667 24.8648 12.985 24.974 18.7434C25.0867 24.8505 20.1137 29.827 14.0031 29.7143Z" fill="#F5E7D3"/>
<path d="M15.8735 17.7923L13.3517 13.8724C12.9467 13.2384 12.0979 13.0553 11.4675 13.4639C11.073 13.7174 10.8371 14.1471 10.8406 14.6402C10.8406 14.9008 10.9357 15.1579 11.0766 15.3763L12.7988 18.0565C12.9256 18.2537 12.9045 18.5108 12.746 18.6834L10.0834 21.6172C9.57972 22.1737 9.61846 23.0366 10.1785 23.5437C10.4356 23.7762 10.7701 23.903 11.1188 23.8959C11.4921 23.8889 11.8514 23.7269 12.105 23.4486L14.0773 21.1276C14.2287 20.948 14.507 20.9621 14.6408 21.1558L16.039 23.1704C16.1376 23.3254 16.2609 23.4698 16.4123 23.5754C16.8948 23.917 17.4901 23.9065 17.9373 23.6247C18.3353 23.3747 18.5748 22.945 18.5748 22.4554C18.5748 22.1948 18.4868 21.9377 18.3459 21.7158L15.8735 17.7923Z" fill="#F5E7D3"/>
</svg>
