<svg width="20" height="20" viewBox="0 0 20 20" fill="none" xmlns="http://www.w3.org/2000/svg">
<path d="M16.5239 10.0014C16.5239 10.0014 15.9784 8.98119 15.0781 8.36712C14.1753 7.75551 13.3582 8.38425 13.3411 8.96162C13.3239 9.53898 14.2609 9.67599 14.2609 9.99892C14.2609 10.3219 13.3239 10.4589 13.3411 11.0362C13.3582 11.6136 14.1753 12.2448 15.0781 11.6307C15.9808 11.0215 16.5239 10.0014 16.5239 10.0014Z" fill="#C63939"/>
<path d="M18.2339 8.00741C17.133 7.25879 16.1348 8.02698 16.1152 8.73401C16.0957 9.44104 17.2382 9.6074 17.2382 10.0013C17.2382 10.3952 16.0957 10.5615 16.1152 11.2686C16.1348 11.9756 17.133 12.7438 18.2339 11.9952C19.3348 11.249 20.0002 10.0013 20.0002 10.0013C20.0002 10.0013 19.3348 8.75359 18.2339 8.00741Z" fill="#C63939"/>
<path d="M12.7386 7.68429C13.0273 7.91426 14.0842 7.72589 14.6787 7.77726C15.2756 7.82864 15.4371 8.35707 15.6475 8.33016C15.8603 8.3057 15.7673 7.65005 16.2591 7.54729C16.7533 7.44454 17.0933 7.44454 17.0175 7.13873C16.9417 6.83292 15.2487 6.12589 14.116 6.5687C12.9857 7.01152 12.4499 7.45433 12.7386 7.68429Z" fill="#C63939"/>
<path d="M15.6475 11.6697C15.4346 11.6452 15.2732 12.1712 14.6787 12.2226C14.0842 12.2739 13.0273 12.0855 12.7386 12.3155C12.4499 12.5455 12.9857 12.9883 14.116 13.4311C15.2463 13.8739 16.9417 13.1669 17.0175 12.8611C17.0933 12.5553 16.7533 12.5553 16.2591 12.4525C15.7673 12.3522 15.8603 11.6966 15.6475 11.6697Z" fill="#C63939"/>
<path d="M11.0351 6.65686C11.6124 6.63973 12.2436 5.82261 11.6295 4.91986C11.0179 4.01712 9.99775 3.474 9.9953 3.474C9.9953 3.474 8.97512 4.01956 8.36106 4.91986C7.74944 5.82261 8.37818 6.63973 8.958 6.65686C9.53536 6.67398 9.67237 5.73699 9.9953 5.73699C10.3207 5.73943 10.4577 6.67398 11.0351 6.65686Z" fill="#C63939"/>
<path d="M8.73113 3.88744C9.43817 3.90702 9.60453 2.76451 9.99841 2.76451C10.3923 2.76451 10.5586 3.90702 11.2657 3.88744C11.9727 3.86787 12.7409 2.86971 11.9923 1.7688C11.2461 0.66544 9.99841 -4.12485e-07 9.99841 -4.12485e-07C9.99841 -4.12485e-07 8.75071 0.66544 8.00453 1.76635C7.25591 2.86971 8.0241 3.86543 8.73113 3.88744Z" fill="#C63939"/>
<path d="M7.68084 7.26102C7.9108 6.97234 7.72243 5.91546 7.7738 5.32097C7.82518 4.72403 8.35362 4.56256 8.3267 4.34972C8.30224 4.13688 7.64659 4.22984 7.54383 3.7381C7.44108 3.24392 7.44108 2.90386 7.13527 2.9797C6.82947 3.05554 6.12243 4.74849 6.56525 5.88121C7.0105 7.01393 7.45087 7.55215 7.68084 7.26102Z" fill="#C63939"/>
<path d="M12.4523 3.7381C12.3496 4.23229 11.6939 4.13687 11.6695 4.34972C11.645 4.56256 12.171 4.72403 12.2224 5.32097C12.2737 5.91546 12.0854 6.97233 12.3153 7.26102C12.5453 7.5497 12.9881 7.01392 13.4309 5.88365C13.8737 4.75094 13.1667 3.05798 12.8609 2.98214C12.5526 2.9063 12.5526 3.24636 12.4523 3.7381Z" fill="#C63939"/>
<path d="M5.73712 10.0012C5.73712 9.67828 6.67412 9.54128 6.65699 8.96391C6.63987 8.38654 5.82275 7.75535 4.92245 8.36942C4.0197 8.98104 3.47658 10.0012 3.47658 10.0037C3.47658 10.0037 4.02215 11.0238 4.92245 11.6379C5.8252 12.2495 6.63987 11.6208 6.65699 11.0434C6.67167 10.4612 5.73712 10.3241 5.73712 10.0012Z" fill="#C63939"/>
<path d="M3.885 11.2686C3.90702 10.5615 2.76207 10.3952 2.76207 10.0013C2.76207 9.60741 3.90457 9.44105 3.885 8.73401C3.86543 8.02698 2.86727 7.25879 1.76636 8.00741C0.665443 8.75603 2.59808e-06 10.0013 2.59808e-06 10.0013C2.59808e-06 10.0013 0.665443 11.249 1.76636 11.9952C2.86727 12.7438 3.86298 11.9756 3.885 11.2686Z" fill="#C63939"/>
<path d="M7.2573 12.3179C6.96862 12.0879 5.91174 12.2763 5.31725 12.2249C4.72031 12.1735 4.55884 11.6451 4.346 11.672C4.13315 11.6965 4.22612 12.3521 3.73438 12.4549C3.24019 12.5576 2.90013 12.5576 2.97597 12.8634C3.05181 13.1693 4.74477 13.8763 5.87749 13.4335C7.01021 12.9907 7.54843 12.5479 7.2573 12.3179Z" fill="#C63939"/>
<path d="M4.34864 8.33285C4.56149 8.35731 4.72295 7.83132 5.31989 7.77995C5.91438 7.72857 6.97126 7.91695 7.25994 7.68698C7.54863 7.45701 7.01285 7.0142 5.88258 6.57139C4.74986 6.12858 3.0569 6.83561 2.98106 7.14142C2.90522 7.44723 3.24528 7.44723 3.73947 7.54998C4.22876 7.65029 4.1358 8.30594 4.34864 8.33285Z" fill="#C63939"/>
<path d="M8.96084 13.3456C8.38103 13.3627 7.75228 14.1798 8.3639 15.0801C8.97552 15.9829 9.99814 16.526 9.99814 16.526C9.99814 16.526 11.0183 15.9804 11.6324 15.0801C12.244 14.1774 11.6153 13.3627 11.0379 13.3456C10.4581 13.3284 10.3235 14.2654 10.0006 14.2654C9.67521 14.263 9.53821 13.3284 8.96084 13.3456Z" fill="#C63939"/>
<path d="M11.2648 16.115C10.5578 16.0954 10.3914 17.2379 9.99753 17.2379C9.60365 17.2379 9.43729 16.0954 8.73026 16.115C8.02323 16.1346 7.25504 17.1327 8.00366 18.2336C8.75228 19.3346 9.99753 20 9.99753 20C9.99753 20 11.2452 19.3346 11.9939 18.2336C12.74 17.1327 11.9718 16.137 11.2648 16.115Z" fill="#C63939"/>
<path d="M12.3153 12.7411C12.0854 13.0297 12.2737 14.0866 12.2224 14.6811C12.171 15.278 11.6426 15.4395 11.6695 15.6524C11.6939 15.8652 12.3496 15.7722 12.4523 16.264C12.5551 16.7582 12.5551 17.0982 12.8609 17.0224C13.1667 16.9465 13.8737 15.2536 13.4309 14.1209C12.9881 12.9881 12.5453 12.4499 12.3153 12.7411Z" fill="#C63939"/>
<path d="M7.54754 16.264C7.65029 15.7698 8.3035 15.8652 8.33041 15.6523C8.35488 15.4395 7.82888 15.278 7.77751 14.6811C7.72613 14.0866 7.91451 13.0297 7.68454 12.741C7.45457 12.4523 7.01176 12.9881 6.56895 14.1184C6.12614 15.2511 6.83317 16.9441 7.13898 17.0199C7.44479 17.0958 7.44479 16.7557 7.54754 16.264Z" fill="#C63939"/>
<path d="M7.16239 10.0014C7.16239 8.43806 8.43456 7.16589 9.99785 7.16589C11.5611 7.16589 12.8333 8.43806 12.8333 10.0014C12.8333 11.5647 11.5611 12.8368 9.99785 12.8368C8.43456 12.8368 7.16239 11.5646 7.16239 10.0014ZM9.99785 12.1029C11.1575 12.1029 12.0994 11.1585 12.0994 10.0014C12.0994 8.84173 11.155 7.89984 9.99785 7.89984C8.83822 7.89984 7.89633 8.84417 7.89633 10.0014C7.89633 11.161 8.83822 12.1029 9.99785 12.1029Z" fill="#C63939"/>
<path d="M9.99908 11.3003C9.28226 11.3003 8.7 10.718 8.7 10.0012C8.7 9.28441 9.28226 8.70215 9.99908 8.70215C10.7159 8.70215 11.2982 9.28441 11.2982 10.0012C11.2982 10.718 10.7159 11.3003 9.99908 11.3003ZM9.99908 10.5664C10.3098 10.5664 10.5642 10.3144 10.5642 10.0012C10.5642 9.69052 10.3098 9.43609 9.99908 9.43609C9.68838 9.43609 9.43395 9.69052 9.43395 10.0012C9.43395 10.3119 9.68838 10.5664 9.99908 10.5664Z" fill="#C63939"/>
</svg>
