<svg width="23" height="20" viewBox="0 0 23 20" fill="none" xmlns="http://www.w3.org/2000/svg">
<path d="M23 2.35294C22.1534 2.76471 21.2409 3.03529 20.2954 3.16471C21.2629 2.54118 22.0105 1.55294 22.3623 0.364706C21.4498 0.952941 20.4383 1.36471 19.3719 1.6C18.5033 0.588235 17.283 0 15.8977 0C13.3141 0 11.2032 2.25882 11.2032 5.04706C11.2032 5.44706 11.2471 5.83529 11.3241 6.2C7.41013 5.98824 3.92495 3.97647 1.60516 0.929412C1.19837 1.67059 0.967495 2.54118 0.967495 3.45882C0.967495 5.21176 1.79207 6.76471 3.0674 7.64706C2.28681 7.64706 1.56119 7.41177 0.923518 7.05882C0.923518 7.05882 0.923518 7.05882 0.923518 7.09412C0.923518 9.54118 2.55067 11.5882 4.70555 12.0471C4.30975 12.1647 3.89197 12.2235 3.46319 12.2235C3.16635 12.2235 2.8695 12.1882 2.58365 12.1294C3.17734 14.1176 4.90344 15.6 6.98136 15.6353C5.3762 17 3.34226 17.8 1.12142 17.8C0.74761 17.8 0.373805 17.7765 0 17.7294C2.08891 19.1647 4.57361 20 7.23423 20C15.8977 20 20.6582 12.3059 20.6582 5.63529C20.6582 5.41177 20.6582 5.2 20.6472 4.97647C21.5707 4.27059 22.3623 3.37647 23 2.35294Z" fill="#F5E7D3"/>
</svg>
