<svg width="25" height="21" viewBox="0 0 25 21" fill="none" xmlns="http://www.w3.org/2000/svg">
<path d="M24.9803 2.74901C24.0674 3.16036 23.0834 3.43068 22.0638 3.55996C23.1071 2.93706 23.9133 1.94982 24.2927 0.762776C23.3086 1.35042 22.2179 1.76177 21.0679 1.99683C20.1313 0.986081 18.8153 0.398438 17.3214 0.398438C14.5353 0.398438 12.2589 2.65499 12.2589 5.44042C12.2589 5.84001 12.3063 6.22786 12.3893 6.5922C8.16863 6.38065 4.4103 4.3709 1.9087 1.32691C1.47003 2.06734 1.22106 2.93706 1.22106 3.85378C1.22106 5.60496 2.11025 7.15633 3.48554 8.0378C2.64377 8.0378 1.86128 7.80274 1.17363 7.45016C1.17363 7.45016 1.17363 7.45015 1.17363 7.48541C1.17363 9.93001 2.92831 11.975 5.25207 12.4334C4.82526 12.5509 4.37473 12.6097 3.91235 12.6097C3.59224 12.6097 3.27213 12.5744 2.96388 12.5156C3.6041 14.5019 5.46548 15.9827 7.70625 16.018C5.97528 17.3813 3.78194 18.1805 1.38704 18.1805C0.983937 18.1805 0.580836 18.157 0.177734 18.11C2.43036 19.5438 5.1098 20.3783 7.97893 20.3783C17.3214 20.3783 22.455 12.6919 22.455 6.02806C22.455 5.80475 22.455 5.5932 22.4432 5.3699C23.4391 4.66473 24.2927 3.77151 24.9803 2.74901Z" fill="#C63939"/>
</svg>
