<svg width="23" height="21" viewBox="0 0 23 21" fill="none" xmlns="http://www.w3.org/2000/svg">
<path d="M23 3.14957C22.1534 3.56134 21.2409 3.83193 20.2954 3.96134C21.2629 3.33781 22.0105 2.34957 22.3623 1.16134C21.4498 1.74957 20.4383 2.16134 19.3719 2.39663C18.5033 1.38487 17.283 0.796631 15.8977 0.796631C13.3141 0.796631 11.2032 3.05545 11.2032 5.84369C11.2032 6.24369 11.2471 6.63193 11.3241 6.99663C7.41013 6.78487 3.92495 4.7731 1.60516 1.72604C1.19837 2.46722 0.967495 3.33781 0.967495 4.25545C0.967495 6.0084 1.79207 7.56134 3.0674 8.44369C2.28681 8.44369 1.56119 8.2084 0.923518 7.85545C0.923518 7.85545 0.923518 7.85545 0.923518 7.89075C0.923518 10.3378 2.55067 12.3849 4.70555 12.8437C4.30975 12.9613 3.89197 13.0202 3.46319 13.0202C3.16635 13.0202 2.8695 12.9849 2.58365 12.926C3.17734 14.9143 4.90344 16.3966 6.98136 16.4319C5.3762 17.7966 3.34226 18.5966 1.12142 18.5966C0.74761 18.5966 0.373805 18.5731 0 18.526C2.08891 19.9613 4.57361 20.7966 7.23423 20.7966C15.8977 20.7966 20.6582 13.1025 20.6582 6.43193C20.6582 6.2084 20.6582 5.99663 20.6472 5.7731C21.5707 5.06722 22.3623 4.1731 23 3.14957Z" fill="#C63939"/>
</svg>
