<svg width="24" height="24" viewBox="0 0 24 24" fill="none" xmlns="http://www.w3.org/2000/svg">
<path d="M24 4.35294C23.1534 4.76471 22.2409 5.03529 21.2954 5.16471C22.2629 4.54118 23.0105 3.55294 23.3623 2.36471C22.4498 2.95294 21.4383 3.36471 20.3719 3.6C19.5033 2.58824 18.283 2 16.8977 2C14.3141 2 12.2032 4.25882 12.2032 7.04706C12.2032 7.44706 12.2471 7.83529 12.3241 8.2C8.41013 7.98824 4.92495 5.97647 2.60516 2.92941C2.19837 3.67059 1.9675 4.54118 1.9675 5.45882C1.9675 7.21176 2.79207 8.76471 4.0674 9.64706C3.28681 9.64706 2.56119 9.41177 1.92352 9.05882C1.92352 9.05882 1.92352 9.05882 1.92352 9.09412C1.92352 11.5412 3.55067 13.5882 5.70555 14.0471C5.30975 14.1647 4.89197 14.2235 4.46319 14.2235C4.16635 14.2235 3.8695 14.1882 3.58365 14.1294C4.17734 16.1176 5.90344 17.6 7.98136 17.6353C6.3762 19 4.34226 19.8 2.12142 19.8C1.74761 19.8 1.37381 19.7765 1 19.7294C3.08891 21.1647 5.57361 22 8.23423 22C16.8977 22 21.6582 14.3059 21.6582 7.63529C21.6582 7.41177 21.6582 7.2 21.6472 6.97647C22.5707 6.27059 23.3623 5.37647 24 4.35294Z" fill="#C63939"/>
</svg>
