<svg width="24" height="24" viewBox="0 0 24 24" fill="none" xmlns="http://www.w3.org/2000/svg">
<path d="M11.9836 0.00267792C8.77744 0.05516 5.72075 1.36713 3.47427 3.65497C2.35024 4.77393 1.46338 6.10801 0.866705 7.57746C0.270027 9.04691 -0.0242179 10.6216 0.00155827 12.2073C-0.000286057 13.7568 0.303697 15.2914 0.896087 16.7232C1.48848 18.155 2.35763 19.4559 3.45373 20.5512C4.54983 21.6465 5.85133 22.5148 7.28365 23.1063C8.71596 23.6977 10.2509 24.0008 11.8006 23.998H12.0146C15.2217 23.965 18.2847 22.6613 20.5316 20.3728C22.7785 18.0844 24.0257 14.9982 23.9996 11.7914C24.0033 10.2231 23.6933 8.66992 23.0879 7.22317C22.4825 5.77641 21.5939 4.4653 20.4744 3.36693C19.3548 2.26856 18.0269 1.40511 16.5688 0.82736C15.1106 0.249608 13.5517 -0.0307821 11.9836 0.00267792ZM10.5007 16.5415C10.4935 16.3454 10.5254 16.1499 10.5947 15.9664C10.6639 15.7828 10.7691 15.6149 10.904 15.4725C11.0389 15.3301 11.2009 15.216 11.3804 15.1369C11.5599 15.0577 11.7534 15.0152 11.9496 15.0118H11.9766C12.3712 15.0125 12.7501 15.166 13.034 15.44C13.3179 15.714 13.4847 16.0872 13.4995 16.4815C13.5068 16.6775 13.4749 16.8731 13.4057 17.0567C13.3365 17.2403 13.2314 17.4083 13.0965 17.5507C12.9615 17.6932 12.7995 17.8073 12.6199 17.8864C12.4403 17.9654 12.2468 18.0079 12.0506 18.0112H12.0236C11.6291 18.0099 11.2505 17.8563 10.9667 17.5824C10.6829 17.3085 10.5159 16.9356 10.5007 16.5415ZM11.0007 12.5003V6.50142C11.0007 6.23625 11.106 5.98195 11.2935 5.79445C11.481 5.60695 11.7354 5.50161 12.0006 5.50161C12.2658 5.50161 12.5201 5.60695 12.7076 5.79445C12.8951 5.98195 13.0005 6.23625 13.0005 6.50142V12.5003C13.0005 12.7654 12.8951 13.0197 12.7076 13.2072C12.5201 13.3947 12.2658 13.5001 12.0006 13.5001C11.7354 13.5001 11.481 13.3947 11.2935 13.2072C11.106 13.0197 11.0007 12.7654 11.0007 12.5003Z" fill="#C63939"/>
</svg>
