<svg width="24" height="24" viewBox="0 0 24 24" fill="none" xmlns="http://www.w3.org/2000/svg">
<path d="M11.9924 1H11.9874C6.47924 1 2 5.48048 2 10.9899C2 13.1752 2.70429 15.2007 3.90183 16.8453L2.65684 20.5565L6.49672 19.329C8.07638 20.3755 9.96073 20.9799 11.9924 20.9799C17.5006 20.9799 21.9799 16.4981 21.9799 10.9899C21.9799 5.48173 17.5006 1 11.9924 1ZM17.8053 15.107C17.5643 15.7876 16.6078 16.352 15.8448 16.5169C15.3228 16.628 14.641 16.7167 12.3458 15.7651C9.41003 14.5488 7.51944 11.5656 7.37209 11.372C7.23098 11.1785 6.18578 9.79239 6.18578 8.35883C6.18578 6.92528 6.9138 6.22723 7.20725 5.92753C7.44826 5.68153 7.84661 5.56915 8.22872 5.56915C8.35235 5.56915 8.46349 5.57539 8.56339 5.58038C8.85684 5.59287 9.00419 5.61035 9.19775 6.07364C9.43875 6.6543 10.0257 8.08786 10.0956 8.23521C10.1668 8.38256 10.2379 8.58236 10.138 8.77591C10.0444 8.97571 9.96198 9.06437 9.81462 9.2342C9.66727 9.40403 9.52741 9.5339 9.38006 9.71622C9.2452 9.87481 9.09285 10.0446 9.26268 10.3381C9.43251 10.6253 10.0194 11.5831 10.8835 12.3523C11.9987 13.3451 12.9028 13.6622 13.2262 13.7971C13.4672 13.897 13.7544 13.8733 13.9305 13.686C14.154 13.445 14.43 13.0454 14.7109 12.652C14.9107 12.3698 15.163 12.3348 15.4277 12.4347C15.6974 12.5284 17.1248 13.2339 17.4182 13.38C17.7117 13.5274 17.9052 13.5973 17.9764 13.7209C18.0463 13.8446 18.0463 14.4252 17.8053 15.107Z" fill="#181818"/>
</svg>
