<svg width="20" height="21" viewBox="0 0 20 21" fill="none" xmlns="http://www.w3.org/2000/svg">
<path d="M9.99683 0.488525H9.99183C4.48363 0.488525 0.00439453 4.96901 0.00439453 10.4785C0.00439453 12.6638 0.708685 14.6892 1.90623 16.3338L0.661233 20.0451L4.50111 18.8176C6.08077 19.864 7.96512 20.4684 9.99683 20.4684C15.505 20.4684 19.9843 15.9867 19.9843 10.4785C19.9843 4.97026 15.505 0.488525 9.99683 0.488525ZM15.8097 14.5956C15.5687 15.2761 14.6122 15.8406 13.8492 16.0054C13.3272 16.1165 12.6454 16.2052 10.3502 15.2536C7.41443 14.0374 5.52383 11.0541 5.37648 10.8606C5.23537 10.667 4.19018 9.28092 4.19018 7.84736C4.19018 6.4138 4.91819 5.71576 5.21165 5.41606C5.45265 5.17006 5.851 5.05767 6.23312 5.05767C6.35674 5.05767 6.46788 5.06391 6.56778 5.06891C6.86123 5.0814 7.00859 5.09888 7.20214 5.56216C7.44315 6.14283 8.03006 7.57638 8.09999 7.72373C8.17116 7.87109 8.24234 8.07088 8.14244 8.26444C8.04879 8.46424 7.96637 8.5529 7.81902 8.72273C7.67167 8.89256 7.53181 9.02243 7.38446 9.20474C7.24959 9.36333 7.09725 9.53316 7.26708 9.82662C7.4369 10.1138 8.02381 11.0716 8.88794 11.8408C10.0031 12.8336 10.9072 13.1508 11.2306 13.2856C11.4716 13.3855 11.7588 13.3618 11.9349 13.1745C12.1584 12.9335 12.4344 12.5339 12.7153 12.1405C12.9151 11.8583 13.1674 11.8234 13.4321 11.9233C13.7018 12.0169 15.1292 12.7224 15.4226 12.8685C15.7161 13.0159 15.9096 13.0858 15.9808 13.2095C16.0507 13.3331 16.0507 13.9137 15.8097 14.5956Z" fill="#C63939"/>
</svg>
