<?xml version="1.0" encoding="utf-8"?>
<!-- Generator: Adobe Illustrator 23.0.2, SVG Export Plug-In . SVG Version: 6.00 Build 0)  -->
<svg version="1.1" id="Layer_1" xmlns="http://www.w3.org/2000/svg" xmlns:xlink="http://www.w3.org/1999/xlink" x="0px" y="0px"
	 viewBox="0 0 871.61 727.24" style="enable-background:new 0 0 871.61 727.24;" xml:space="preserve">
<style type="text/css">
	.st0{clip-path:url(#SVGID_2_);}
	.st1{clip-path:url(#SVGID_4_);fill:#EA5D24;}
	.st2{clip-path:url(#SVGID_4_);fill:#866B91;}
</style>
<g>
	<g>
		<defs>
			<rect id="SVGID_1_" x="-64.35" width="966.33" height="727.24"/>
		</defs>
		<clipPath id="SVGID_2_">
			<use xlink:href="#SVGID_1_"  style="overflow:visible;"/>
		</clipPath>
		<g class="st0">
			<defs>
				<rect id="SVGID_3_" x="-64.35" width="966.33" height="727.24"/>
			</defs>
			<clipPath id="SVGID_4_">
				<use xlink:href="#SVGID_3_"  style="overflow:visible;"/>
			</clipPath>
			<path class="st1" d="M184.95,345.23h-52.98V205.07c0-19-7.19-28.52-21.58-28.52c-14.94,0-29.63,6.37-44,19.14v149.55H11.76V103.7
				c0-22.33-1.36-38.25-4.07-47.76l55.07-13.06c2.39,11.47,3.62,28.51,3.62,51.15v41.72v8.77v8.79
				c15.74-14.66,35.44-21.98,59.06-21.98c11.42,0,22.01,2.29,31.79,6.9c11.4,5.43,18.88,12.96,22.41,22.59
				c3.51,9.61,5.29,22.57,5.29,38.82V345.23z"/>
			<path class="st1" d="M415.66,322.41l-28.93,33.39c-14.13-5.97-23.9-14.4-29.34-25.24c-5.44,5.14-9.64,8.82-12.63,10.98
				c-10.59,7.63-24.58,11.41-41.96,11.41c-22.29,0-39.52-5.28-51.75-15.82c-13.31-11.11-19.98-27.49-19.98-49.18
				c0-47.65,33.29-71.49,99.87-71.49h12.2v-8.45c0-11.04-1.37-18.58-4.06-22.58c-3.26-5.38-10.01-8.1-20.3-8.1
				c-16.8,0-36.82,7.76-60.09,23.25l-23.13-39.14c9.78-6.23,21.04-11.92,33.82-17.11c20.09-8.15,39.12-12.24,57.04-12.24
				c36.41,0,58.81,12.11,67.24,36.28c2.71,7.9,3.94,20.35,3.66,37.51l-1.21,73.75c0,10.84,1.07,19,3.25,24.44
				C402.08,310.31,407.52,316.43,415.66,322.41 M341.91,253.94h-2.41c-16.33,0-27.68,1.38-34.1,4.08
				c-10.71,4.63-16.05,13.86-16.05,27.72c0,7.6,2.11,14.06,6.33,19.36c4.21,5.27,10.11,7.93,17.73,7.93
				c10.31,0,19.82-4.76,28.51-14.26V253.94z"/>
			<path class="st1" d="M606.85,279.38c0,23.61-9.24,41.87-27.71,54.87c-16.57,11.67-37.07,17.51-61.53,17.51
				c-25.54,0-53.65-8.02-84.34-24.05l19.57-39.95c25.8,15.78,48.89,23.65,69.24,23.65c7.35,0,13.8-2.09,19.37-6.31
				c5.55-4.21,8.35-9.94,8.35-17.27c0-13.3-10.74-21.82-32.19-25.6l-24.44-4.47c-33.43-6.24-50.11-25.76-50.11-58.56
				c0-21.69,8.13-38.77,24.42-51.23c14.94-11.1,33.7-16.65,56.24-16.65c23.09,0,47.94,6.46,74.56,19.39l-17.93,36.41
				c-19.82-9.78-36.95-14.65-51.33-14.65c-17.67,0-26.48,6.76-26.48,20.32c0,9.49,8.68,16.56,26.07,21.13l25.25,6.53
				C589.18,229.66,606.85,249.29,606.85,279.38"/>
			<path class="st2" d="M226.59,424.06c-11.13,10.31-23.9,15.47-38.29,15.47c-2.44,0-7.2-0.69-14.26-2.04
				c8.14,9.88,12.22,21.38,12.22,34.51c0,19.73-8.14,35.35-24.44,46.86c-14.67,10.42-32.19,15.6-52.58,15.6h-8.14
				c-14.41,6.8-21.6,12.5-21.6,17.12c0,3.24,2.99,4.87,8.97,4.87h29.33c54.06,0.83,81.09,21.9,81.09,63.18
				c0,24.7-10.86,43.17-32.59,55.41c-17.39,9.78-39.53,14.66-66.42,14.66c-24.45,0-45.25-3.78-62.34-11.41
				c-22.55-10.3-33.83-26.32-33.83-48.08c0-7.6,1.63-14.65,4.89-21.18h50.53c-1.64,4.63-2.44,9.11-2.44,13.45
				c0,17.13,13.02,25.68,39.1,25.68c31.79,0,47.69-9.38,47.69-28.12c0-15.48-12.79-23.91-38.3-25.26H81.95
				c-14.95-0.29-26.07-0.93-33.41-2.04c-14.41-2.46-23.9-7.32-28.54-14.65c-2.71-5.44-4.06-11.15-4.06-17.16
				c0-17.1,12.75-28.79,38.31-35.01c-29.89-7.61-44.84-26.89-44.84-57.86c0-23.38,9.11-41.28,27.32-53.78
				c16.02-11.14,36.26-16.71,60.71-16.71c7.33,0,17.92,1.62,31.78,4.87c13.85,3.28,24.31,4.91,31.38,4.91
				c15.48,0,29.86-5.97,43.18-17.94L226.59,424.06z M130.04,468.46c0-20.62-11.02-30.96-33.02-30.96c-21.73,0-32.6,10.34-32.6,30.96
				c0,19.83,10.74,29.74,32.18,29.74C118.89,498.19,130.04,488.29,130.04,468.46"/>
			<path class="st2" d="M415.76,523.07H295.15v1.61c0,33.7,14.67,50.54,43.99,50.54c18.75,0,36.41-6.92,52.97-20.78l21.19,32.6
				c-23.62,19.3-49.84,28.92-78.64,28.92c-31.24,0-55.69-10.34-73.35-30.97c-16.84-19.55-25.25-45.25-25.25-77.02
				c0-31.75,7.2-57.59,21.58-77.43c16.3-22.24,39.68-33.38,70.09-33.38c58.67,0,88.02,37.73,88.02,113.27V523.07z M359.13,483.11
				v-2.42c0-29.09-10.34-43.6-30.95-43.6c-22.03,0-33.03,15.34-33.03,46.02H359.13z"/>
			<path class="st2" d="M633.54,523.07H512.92v1.61c0,33.7,14.67,50.54,43.99,50.54c18.75,0,36.41-6.92,52.97-20.78l21.2,32.6
				c-23.63,19.3-49.85,28.92-78.64,28.92c-31.22,0-55.7-10.34-73.35-30.97c-16.84-19.55-25.25-45.25-25.25-77.02
				c0-31.75,7.18-57.59,21.59-77.43c16.31-22.24,39.65-33.38,70.09-33.38c58.66,0,88.02,37.73,88.02,113.27V523.07z M576.9,483.11
				v-2.42c0-29.09-10.33-43.6-30.95-43.6c-22.03,0-33.03,15.34-33.03,46.02H576.9z"/>
			<path class="st2" d="M731.82,609.85h-54.59V375.04c0-19.79-1.23-37.83-3.68-54.11l55.01-13.42c2.18,13.85,3.26,36.38,3.26,67.53
				V609.85z M867.52,609.85h-64.4l-70.07-118.17l53.36-91.25h65.62l-66.42,88L867.52,609.85z"/>
		</g>
	</g>
</g>
</svg>
