<svg xmlns="http://www.w3.org/2000/svg" width="240" height="60" viewBox="0 0 240 60">
    <defs>
        <style>
            .cls-1{opacity:.403}.cls-2{fill:#27216e}.cls-3{fill:none}
        </style>
    </defs>
    <g id="Group_4010" data-name="Group 4010" transform="translate(-865 -4218)">
        <g id="Layer_2" class="cls-1" data-name="Layer 2" transform="translate(870 4235)">
            <g id="Group_3727" data-name="Group 3727">
                <g id="Group_3726" data-name="Group 3726">
                    <g id="Blue">
                        <path id="Path_2492" d="M755.613 512.362a.8.8 0 0 0-1.354.147l-6.86 13.715a.818.818 0 0 0 .734 1.186h9.552a.787.787 0 0 0 .732-.452c2.06-4.258.813-10.732-2.804-14.596z" class="cls-2" data-name="Path 2492" transform="translate(-747.313 -499.448)"/>
                        <path id="Path_2493" d="M756.676 504.692a18.088 18.088 0 0 0-1.055 17.86l4.6 9.21a.82.82 0 0 0 .734.452h9.551a.819.819 0 0 0 .819-.819.8.8 0 0 0-.087-.367s-12.847-25.7-13.171-26.341a.774.774 0 0 0-1.395 0z" class="cls-2" data-name="Path 2493" transform="translate(-743.345 -504.251)"/>
                        <path id="Path_2494" d="M824.919 513.933c0 3.4 1.576 6.092 7.737 7.282 3.676.772 4.447 1.365 4.447 2.592 0 1.189-.773 1.96-3.361 1.96a18.962 18.962 0 0 1-8.928-2.416v5.532a18.272 18.272 0 0 0 8.859 1.926c6.441 0 9-2.873 9-7.143m0 0c0-4.027-2.136-5.918-8.158-7.212-3.327-.735-4.132-1.47-4.132-2.521 0-1.33 1.191-1.891 3.4-1.891a19.149 19.149 0 0 1 7.773 1.925v-5.286a17.546 17.546 0 0 0-7.6-1.576c-5.952 0-9.034 2.591-9.034 6.828" class="cls-2" data-name="Path 2494" transform="translate(-699.57 -502.495)"/>
                        <path id="Path_2495" d="M876.1 507.32v23h4.9v-17.538l2.066 4.656L890 530.324h6.163v-23h-4.9v14.846l-1.856-4.307-5.567-10.539z" class="cls-2" data-name="Path 2495" transform="translate(-667.98 -502.361)"/>
                        <path id="Rectangle_4177" d="M0 0h5.357v23.004H0z" class="cls-2" data-name="Rectangle 4177" transform="translate(171.582 4.959)"/>
                        <path id="Path_2496" d="M856.471 523.666c0-4.027-2.136-5.918-8.158-7.212-3.327-.735-4.132-1.47-4.132-2.521 0-1.33 1.189-1.891 3.4-1.891a19.136 19.136 0 0 1 7.773 1.925v-5.286a17.538 17.538 0 0 0-7.6-1.576c-5.953 0-9.033 2.591-9.033 6.828 0 3.4 1.576 6.092 7.737 7.282 3.677.772 4.447 1.365 4.447 2.592 0 1.189-.772 1.96-3.361 1.96a18.962 18.962 0 0 1-8.928-2.416v5.532a18.269 18.269 0 0 0 8.857 1.926c6.443 0 9-2.873 9-7.143" class="cls-2" data-name="Path 2496" transform="translate(-691.07 -502.495)"/>
                        <path id="Path_2497" d="M799.127 507.32v23h11.011l1.734-4.972h-7.353V507.32z" class="cls-2" data-name="Path 2497" transform="translate(-715.394 -502.361)"/>
                        <path id="Path_2498" d="M785.665 507.32v4.972h5.952v18.032h5.392v-18.032h6.373v-4.972z" class="cls-2" data-name="Path 2498" transform="translate(-723.687 -502.361)"/>
                        <path id="Path_2499" d="M786.579 507.32h-7.067l-8.022 23h6.126l1.138-3.873a15.224 15.224 0 0 0 8.579 0l1.138 3.873h6.129zm-3.533 14.98a10.468 10.468 0 0 1-2.949-.425l2.949-10.039 2.948 10.044a10.52 10.52 0 0 1-2.948.42z" class="cls-2" data-name="Path 2499" transform="translate(-732.419 -502.361)"/>
                        <path id="Path_2500" d="M823.438 507.32h-7.065l-8.022 23h6.126l1.138-3.873a15.223 15.223 0 0 0 8.579 0l1.138 3.873h6.128zm-3.532 14.98a10.447 10.447 0 0 1-2.948-.425l2.948-10.039 2.948 10.044a10.512 10.512 0 0 1-2.948.42z" class="cls-2" data-name="Path 2500" transform="translate(-709.712 -502.361)"/>
                        <path id="Path_2501" d="M874.5 507.32h-7.065l-8.022 23h6.128l1.136-3.873a15.229 15.229 0 0 0 8.581 0l1.136 3.873h6.128zm-3.534 14.98a10.446 10.446 0 0 1-2.948-.425l2.948-10.039 2.948 10.044a10.51 10.51 0 0 1-2.948.42z" class="cls-2" data-name="Path 2501" transform="translate(-678.257 -502.361)"/>
                    </g>
                </g>
            </g>
        </g>
        <path id="Rectangle_4321" d="M0 0h240v60H0z" class="cls-3" data-name="Rectangle 4321" transform="translate(865 4218)"/>
    </g>
</svg>
