<svg xmlns="http://www.w3.org/2000/svg" xmlns:xlink="http://www.w3.org/1999/xlink" viewBox="0 0 540 150"><defs><style>.cls-1{fill:url(#linear-gradient);}.cls-2{fill:#2684ff;}.cls-3{fill:#0052cc;}</style><linearGradient id="linear-gradient" x1="28.54" y1="69.49" x2="11.41" y2="99.17" gradientUnits="userSpaceOnUse"><stop offset="0" stop-color="#0052cc"/><stop offset="0.92" stop-color="#2684ff"/></linearGradient></defs><title>atlassian-logo-gradient-horizontal-blue</title><g id="Logos"><path class="cls-1" d="M19.64,64.48a1.88,1.88,0,0,0-3.2.35L.21,97.29a1.94,1.94,0,0,0,1.73,2.81h22.6A1.87,1.87,0,0,0,26.28,99C31.15,89,28.2,73.63,19.64,64.48Z"/><path class="cls-2" d="M31.55,35a42.81,42.81,0,0,0-2.5,42.27L40,99a1.94,1.94,0,0,0,1.73,1.08h22.6A2,2,0,0,0,66,97.29L34.85,35A1.83,1.83,0,0,0,31.55,35Z"/><polygon class="cls-3" points="492.52 45.66 492.52 100.1 504.12 100.1 504.12 58.58 509.01 69.6 525.42 100.1 540 100.1 540 45.66 528.4 45.66 528.4 80.79 524.01 70.6 510.83 45.66 492.52 45.66"/><rect class="cls-3" x="406.06" y="45.66" width="12.68" height="54.44"/><path class="cls-3" d="M391.43,84c0-9.53-5.05-14-19.31-17.07-7.87-1.74-9.77-3.48-9.77-6,0-3.15,2.81-4.48,8-4.48,6.3,0,12.52,1.91,18.4,4.56V48.56a41.57,41.57,0,0,0-18-3.73c-14.09,0-21.38,6.13-21.38,16.16,0,8,3.73,14.41,18.31,17.23,8.7,1.82,10.53,3.23,10.53,6.13s-1.83,4.64-8,4.64a45,45,0,0,1-21.13-5.71V96.37c4.39,2.15,10.19,4.55,21,4.55,15.24,0,21.29-6.79,21.29-16.9"/><path class="cls-3" d="M338.65,84c0-9.53-5-14-19.3-17.07-7.87-1.74-9.78-3.48-9.78-6,0-3.15,2.82-4.48,8-4.48,6.3,0,12.51,1.91,18.39,4.56V48.56a41.57,41.57,0,0,0-18-3.73c-14.08,0-21.38,6.13-21.38,16.16,0,8,3.73,14.41,18.32,17.23,8.7,1.82,10.52,3.23,10.52,6.13s-1.82,4.64-8,4.64a45,45,0,0,1-21.13-5.71V96.37c4.4,2.15,10.2,4.55,21,4.55,15.25,0,21.29-6.79,21.29-16.9"/><polygon class="cls-3" points="198.16 45.66 198.16 100.1 224.22 100.1 228.32 88.33 210.92 88.33 210.92 45.66 198.16 45.66"/><polygon class="cls-3" points="146.67 45.66 146.67 57.42 160.76 57.42 160.76 100.1 173.52 100.1 173.52 57.42 188.6 57.42 188.6 45.66 146.67 45.66"/><path class="cls-3" d="M128.17,45.66H111.45l-19,54.44H107l2.7-9.17a36,36,0,0,0,20.3,0l2.69,9.17h14.5Zm-8.36,35.46a24.75,24.75,0,0,1-7-1l7-23.76,7,23.76A24.8,24.8,0,0,1,119.81,81.12Z"/><path class="cls-3" d="M269.14,45.66H252.42l-19,54.44h14.5l2.7-9.17a36,36,0,0,0,20.3,0l2.69,9.17h14.5Zm-8.36,35.46a24.69,24.69,0,0,1-7-1l7-23.76,7,23.76A24.68,24.68,0,0,1,260.78,81.12Z"/><path class="cls-3" d="M464.42,45.66H447.7l-19,54.44h14.5l2.69-9.17a36,36,0,0,0,20.3,0l2.69,9.17h14.51Zm-8.36,35.46a24.8,24.8,0,0,1-7-1l7-23.76,7,23.76A24.8,24.8,0,0,1,456.06,81.12Z"/></g></svg>