<svg xmlns="http://www.w3.org/2000/svg" width="227" height="60" viewBox="0 0 227 60">
    <defs>
        <style>
            .cls-1{opacity:.403}.cls-2{fill:#27216e}.cls-3{fill:none}
        </style>
    </defs>
    <g id="Group_4013" data-name="Group 4013" transform="translate(-208 -4218)">
        <g id="Group_3742" class="cls-1" data-name="Group 3742" transform="translate(210 4233)">
            <path id="Path_2512" d="M749.347 449.969a17.743 17.743 0 0 0-10.272-2.928h-8.784v27.889h8.784a16.816 16.816 0 0 0 10.272-3.072 10.314 10.314 0 0 0 3.552-4.464 17.825 17.825 0 0 0 0-13.105 9.9 9.9 0 0 0-3.552-4.32zm-13.92 1.824h2.783a14.583 14.583 0 0 1 7.537 1.777c2.112 1.3 3.216 3.743 3.216 7.249 0 3.648-1.1 6.192-3.216 7.584a13.608 13.608 0 0 1-7.489 1.824h-2.785v-18.434z" class="cls-2" data-name="Path 2512" transform="translate(-730.291 -446.562)"/>
            <path id="Path_2513" d="M753.428 446.791a3.034 3.034 0 0 0-3.072 2.975 2.8 2.8 0 0 0 .913 2.161 2.973 2.973 0 0 0 2.159.913 2.8 2.8 0 0 0 2.161-.913 3.055 3.055 0 0 0 .911-2.161 2.628 2.628 0 0 0-.911-2.111 3.005 3.005 0 0 0-2.161-.864z" class="cls-2" data-name="Path 2513" transform="translate(-723.428 -446.647)"/>
            <path id="Rectangle_4179" d="M0 0h4.944v19.681H0z" class="cls-2" data-name="Rectangle 4179" transform="translate(27.457 8.736)"/>
            <path id="Path_2514" d="M771.505 454.947a7.389 7.389 0 0 0-4.944-2.111 9.085 9.085 0 0 0-6.769 2.783 9.754 9.754 0 0 0-2.64 7.057 9.993 9.993 0 0 0 2.64 7.056 9.085 9.085 0 0 0 6.769 2.783 7.683 7.683 0 0 0 4.9-1.584v.48a5.262 5.262 0 0 1-1.3 3.791 4.824 4.824 0 0 1-3.552 1.3c-2.3 0-3.7-.913-5.472-3.264l-3.361 3.216.1.145a12.019 12.019 0 0 0 3.312 2.975 9.932 9.932 0 0 0 5.52 1.44 9.476 9.476 0 0 0 7.056-2.688 9.677 9.677 0 0 0 2.64-7.152v-17.859h-4.849v1.632zm-1.3 11.617A4.324 4.324 0 0 1 766.8 468a4.154 4.154 0 0 1-3.359-1.44 5.549 5.549 0 0 1-1.3-3.84 5.674 5.674 0 0 1 1.3-3.888 4.321 4.321 0 0 1 3.359-1.488 4.206 4.206 0 0 1 3.409 1.488 5.674 5.674 0 0 1 1.3 3.888 5.79 5.79 0 0 1-1.3 3.844z" class="cls-2" data-name="Path 2514" transform="translate(-721.103 -444.58)"/>
            <path id="Rectangle_4180" d="M0 0h4.944v19.681H0z" class="cls-2" data-name="Rectangle 4180" transform="translate(59.474 8.736)"/>
            <path id="Path_2515" d="M777.285 446.791a3.034 3.034 0 0 0-3.072 2.975 2.8 2.8 0 0 0 .913 2.161 2.972 2.972 0 0 0 2.159.913 2.8 2.8 0 0 0 2.161-.913 3.056 3.056 0 0 0 .913-2.161 2.629 2.629 0 0 0-.913-2.111 3 3 0 0 0-2.161-.864z" class="cls-2" data-name="Path 2515" transform="translate(-715.267 -446.647)"/>
            <path id="Path_2516" d="M788.332 449.259h-4.848v5.328h-2.833v4.513h2.833v8.161c0 2.543.527 4.368 1.535 5.423s2.785 1.585 5.329 1.585c.816 0 1.632-.048 2.4-.1h.24v-4.509l-1.68.1a3.14 3.14 0 0 1-2.353-.624 4.105 4.105 0 0 1-.576-2.593v-7.489h4.609v-4.512h-4.608v-5.28z" class="cls-2" data-name="Path 2516" transform="translate(-713.065 -445.803)"/>
            <path id="Rectangle_4181" d="M0 0h4.944v27.889H0z" class="cls-2" data-name="Rectangle 4181" transform="translate(103.06 .479)"/>
            <path id="Path_2517" d="M851.868 465.94a11.737 11.737 0 0 1-2.5 2.3 4.664 4.664 0 0 1-2.545.672 4.553 4.553 0 0 1-3.6-1.632 6.8 6.8 0 0 1-.048-8.3 4.456 4.456 0 0 1 3.552-1.632 6.625 6.625 0 0 1 4.7 2.688l3.264-3.12a9.992 9.992 0 0 0-15.121-1.153 10.8 10.8 0 0 0 0 14.689 9.426 9.426 0 0 0 7.01 2.928 9.7 9.7 0 0 0 8.4-4.368z" class="cls-2" data-name="Path 2517" transform="translate(-693.894 -444.58)"/>
            <path id="Path_2518" d="M867.243 456.052a8.031 8.031 0 0 0-2.833-2.353 9.263 9.263 0 0 0-4.08-.863 8.327 8.327 0 0 0-6.72 3.024 11.372 11.372 0 0 0-2.5 7.392 10.229 10.229 0 0 0 2.737 7.345 9.5 9.5 0 0 0 7.153 2.831 9.729 9.729 0 0 0 8.113-4.033l.1-.144-3.216-3.12a12.535 12.535 0 0 1-1.1 1.153 5.538 5.538 0 0 1-1.44 1.056 5.3 5.3 0 0 1-2.5.527 4.656 4.656 0 0 1-3.36-1.2 4.27 4.27 0 0 1-1.392-2.977h13.105l.047-1.824a12.9 12.9 0 0 0-.527-3.648 10.89 10.89 0 0 0-1.587-3.166zm-10.8 4.656a4.914 4.914 0 0 1 1.3-2.351 3.5 3.5 0 0 1 2.592-1.008 3.551 3.551 0 0 1 2.736 1.008 3.9 3.9 0 0 1 1.008 2.3h-7.632z" class="cls-2" data-name="Path 2518" transform="translate(-688.963 -444.58)"/>
            <path id="Path_2519" d="M881 454.792a9.062 9.062 0 0 0-6.145-1.92 10.434 10.434 0 0 0-4.56 1.056 8.174 8.174 0 0 0-3.359 3.169l.048.048 3.167 3.024a5.063 5.063 0 0 1 4.657-2.785 3.933 3.933 0 0 1 2.543.817 2.529 2.529 0 0 1 .961 2.111v.961a12.3 12.3 0 0 0-3.649-.577 9.534 9.534 0 0 0-5.952 1.729 5.91 5.91 0 0 0-2.256 4.9 5.61 5.61 0 0 0 1.92 4.465 7.31 7.31 0 0 0 4.752 1.632 8.276 8.276 0 0 0 5.231-2.064v1.632h4.849v-12.679a6.524 6.524 0 0 0-2.207-5.519zm-8.785 10.656a4.16 4.16 0 0 1 2.353-.576 10.759 10.759 0 0 1 3.744.721v1.919a5.94 5.94 0 0 1-4.27 1.488 2.921 2.921 0 0 1-1.967-.576 1.8 1.8 0 0 1-.672-1.44 1.854 1.854 0 0 1 .815-1.537z" class="cls-2" data-name="Path 2519" transform="translate(-683.715 -444.568)"/>
            <path id="Path_2520" d="M897.092 455.175a7.386 7.386 0 0 0-5.761-2.3 6.763 6.763 0 0 0-4.752 1.68v-1.2h-4.847v19.681h4.944v-10.9a5.182 5.182 0 0 1 1.056-3.5 3.5 3.5 0 0 1 2.928-1.248 3.268 3.268 0 0 1 2.592 1.1 4.7 4.7 0 0 1 .96 3.072v11.377h4.945v-11.378a9.208 9.208 0 0 0-2.065-6.384z" class="cls-2" data-name="Path 2520" transform="translate(-678.491 -444.568)"/>
            <path id="Path_2521" d="M806.177 454.792a9.062 9.062 0 0 0-6.145-1.92 10.423 10.423 0 0 0-4.559 1.056 8.168 8.168 0 0 0-3.361 3.169l.048.048 3.167 3.024a5.063 5.063 0 0 1 4.657-2.785 3.934 3.934 0 0 1 2.543.817 2.529 2.529 0 0 1 .961 2.111v.961a12.3 12.3 0 0 0-3.649-.577 9.535 9.535 0 0 0-5.952 1.729 5.91 5.91 0 0 0-2.256 4.9 5.611 5.611 0 0 0 1.92 4.465 7.312 7.312 0 0 0 4.752 1.632 8.276 8.276 0 0 0 5.231-2.064v1.632h4.849v-12.679a6.8 6.8 0 0 0-2.206-5.519zm-8.785 10.656a4.16 4.16 0 0 1 2.353-.576 10.757 10.757 0 0 1 3.744.721v1.919a5.94 5.94 0 0 1-4.273 1.488 2.921 2.921 0 0 1-1.968-.576 1.8 1.8 0 0 1-.672-1.44 1.742 1.742 0 0 1 .816-1.537z" class="cls-2" data-name="Path 2521" transform="translate(-709.309 -444.568)"/>
            <path id="Path_2522" d="M827.815 475.485a14.4 14.4 0 1 1 14.4-14.4 14.411 14.411 0 0 1-14.4 14.4zm0-23.664a9.313 9.313 0 1 0 9.312 9.313 9.321 9.321 0 0 0-9.312-9.314z" class="cls-2" data-name="Path 2522" transform="translate(-701.858 -446.684)"/>
        </g>
        <path id="Rectangle_4318" d="M0 0h227v60H0z" class="cls-3" data-name="Rectangle 4318" transform="translate(208 4218)"/>
    </g>
</svg>
