<svg xmlns="http://www.w3.org/2000/svg" width="55.579" height="60.411" viewBox="0 0 55.579 60.411">
    <defs>
        <style>
            .cls-1{fill:none;stroke:#27216e;stroke-linecap:round;stroke-linejoin:round;stroke-width:2.5px}
        </style>
    </defs>
    <g id="streamline-icon-champagne-cheers_60x60" data-name="streamline-icon-champagne-cheers@60x60" transform="translate(-2.11 .021)">
        <path id="Path_5124" d="M15.88 41.35L9.5 56.295" class="cls-1" data-name="Path 5124"/>
        <path id="Path_5125" d="M3.75 53.84l11.5 4.91" class="cls-1" data-name="Path 5125"/>
        <path id="Path_5126" d="M17.658 14.925L33.75 21.8" class="cls-1" data-name="Path 5126"/>
        <path id="Path_5127" d="M20.995 22.55" class="cls-1" data-name="Path 5127"/>
        <path id="Path_5128" d="M21 22.55a.625.625 0 1 0 .33.82.625.625 0 0 0-.33-.82" class="cls-1" data-name="Path 5128"/>
        <path id="Path_5129" d="M24.745 30.05" class="cls-1" data-name="Path 5129"/>
        <path id="Path_5130" d="M24.75 30.05a.625.625 0 1 0 .33.82.625.625 0 0 0-.33-.82" class="cls-1" data-name="Path 5130"/>
        <path id="Path_5131" d="M42.55 22.708a.625.625 0 1 0 .82-.33.625.625 0 0 0-.82.33" class="cls-1" data-name="Path 5131"/>
        <path id="Path_5132" d="M43.8 32.708a.624.624 0 1 0 .82-.327.625.625 0 0 0-.82.327" class="cls-1" data-name="Path 5132"/>
        <path id="Path_5133" d="M47.55 27.708a.624.624 0 1 0 .82-.327.625.625 0 0 0-.82.327" class="cls-1" data-name="Path 5133"/>
        <path id="Path_5134" d="M17.245 32.55" class="cls-1" data-name="Path 5134"/>
        <path id="Path_5135" d="M17.25 32.55a.625.625 0 1 0 .33.82.625.625 0 0 0-.33-.82" class="cls-1" data-name="Path 5135"/>
        <path id="Path_5136" d="M10.615 28.228L23.67 3.783a1.25 1.25 0 0 1 1.592-.56l11.688 5a1.249 1.249 0 0 1 .695 1.537L29 36.085a10 10 0 0 1-18.39-7.857z" class="cls-1" data-name="Path 5136"/>
        <path id="Path_5137" d="M47.407 40.535l2.677 16.027" class="cls-1" data-name="Path 5137"/>
        <path id="Path_5138" d="M56.25 55.532l-12.33 2.06" class="cls-1" data-name="Path 5138"/>
        <path id="Path_5139" d="M51.92 14.435l-10.728 1.793" class="cls-1" data-name="Path 5139"/>
        <path id="Path_5140" d="M35.9 32.318a10 10 0 1 0 19.728-3.295l-6.92-26.835a1.25 1.25 0 0 0-1.417-.92L37.525 2.9" class="cls-1" data-name="Path 5140"/>
    </g>
</svg>
