<svg width="60" height="60" viewBox="0 0 60 60" fill="none" xmlns="http://www.w3.org/2000/svg">
<rect width="60" height="60" fill="#C63939"/>
<path fill-rule="evenodd" clip-rule="evenodd" d="M36.5625 11.25H43.125V48.75H16.875V42.5H36.5625V34.5777C34.632 35.6413 32.3906 36.25 30 36.25C22.7513 36.25 16.875 30.6536 16.875 23.75C16.875 16.8464 22.7513 11.25 30 11.25C32.3906 11.25 34.632 11.8587 36.5625 12.9223V11.25ZM30 30C33.6244 30 36.5625 27.2018 36.5625 23.75C36.5625 20.2982 33.6244 17.5 30 17.5C26.3756 17.5 23.4375 20.2982 23.4375 23.75C23.4375 27.2018 26.3756 30 30 30Z" fill="#F5E7D3"/>
</svg>
