<svg xmlns="http://www.w3.org/2000/svg" width="132" height="60" viewBox="0 0 132 60">
    <defs>
        <style>
            .cls-1{opacity:.403}.cls-2{fill:#27216e}.cls-3{fill:none}
        </style>
    </defs>
    <g id="Group_4009" data-name="Group 4009" transform="translate(-1153 -4218)">
        <g id="Group_3725" class="cls-1" data-name="Group 3725" transform="translate(1158 4233)">
            <g id="Group_3724" data-name="Group 3724">
                <g id="Group_3723" data-name="Group 3723">
                    <g id="Group_3715" data-name="Group 3715">
                        <path id="Path_2485" d="M940.328 515.422h-10.343a.483.483 0 0 0-.483.483v5.056a.483.483 0 0 0 .483.483h4.035v6.281a12.176 12.176 0 0 1-3.411.31c-2.954 0-7.082-1.079-7.082-10.157s4.3-10.271 8.332-10.271a16.376 16.376 0 0 1 5.955.91.487.487 0 0 0 .58-.474l1.154-4.885a.456.456 0 0 0-.186-.378c-.388-.276-2.76-1.6-8.754-1.6-6.9 0-13.985 2.938-13.985 17.057s8.108 16.225 14.94 16.225a16.824 16.824 0 0 0 9.09-2.417.416.416 0 0 0 .155-.367v-15.773a.482.482 0 0 0-.48-.483z" class="cls-2" data-name="Path 2485" transform="translate(-916.624 -501.177)"/>
                    </g>
                    <g id="Group_3716" data-name="Group 3716" transform="translate(54.355 1.206)">
                        <path id="Path_2486" d="M972.9 502.409a.482.482 0 0 0-.48-.486h-5.82a.485.485 0 0 0-.483.486v11.254h-9.076v-11.254a.484.484 0 0 0-.48-.486h-5.822a.485.485 0 0 0-.482.486v30.47a.486.486 0 0 0 .482.488h5.822a.485.485 0 0 0 .48-.488v-13.033h9.076l-.015 13.033a.485.485 0 0 0 .481.488h5.837a.484.484 0 0 0 .48-.488z" class="cls-2" data-name="Path 2486" transform="translate(-950.259 -501.923)"/>
                    </g>
                    <g id="Group_3718" data-name="Group 3718" transform="translate(27.181 1.9)">
                        <g id="Group_3717" data-name="Group 3717">
                            <path id="Path_2487" d="M940.954 506.143a3.755 3.755 0 1 0-3.756 3.794 3.77 3.77 0 0 0 3.756-3.794z" class="cls-2" data-name="Path 2487" transform="translate(-933.444 -502.353)"/>
                            <path id="Path_2488" d="M940.422 522.649v-14.066a.484.484 0 0 0-.482-.485h-5.8a.556.556 0 0 0-.5.541v20.15c0 .593.37.769.847.769h5.229c.574 0 .714-.283.714-.777z" class="cls-2" data-name="Path 2488" transform="translate(-933.329 -498.814)"/>
                        </g>
                    </g>
                    <g id="Group_3719" data-name="Group 3719" transform="translate(79.855 11.23)">
                        <path id="Path_2489" d="M985.312 508.126h-5.779a.484.484 0 0 0-.48.488v14.94a6.537 6.537 0 0 1-3.552 1.073c-2.083 0-2.636-.945-2.636-2.985v-13.028a.484.484 0 0 0-.482-.488h-5.865a.485.485 0 0 0-.48.488v14.014c0 6.06 3.376 7.542 8.022 7.542a13.543 13.543 0 0 0 6.884-2.1 12.216 12.216 0 0 0 .213 1.241.507.507 0 0 0 .425.263l3.73-.016a.486.486 0 0 0 .482-.486v-20.454a.484.484 0 0 0-.482-.492z" class="cls-2" data-name="Path 2489" transform="translate(-966.039 -508.126)"/>
                    </g>
                    <g id="Group_3721" data-name="Group 3721" transform="translate(102.606 1.206)">
                        <g id="Group_3720" data-name="Group 3720">
                            <path id="Path_2490" d="M992.433 511.263a10.872 10.872 0 0 0-5.516 1.464v-10.318a.483.483 0 0 0-.48-.486H980.6a.484.484 0 0 0-.482.486v30.47a.485.485 0 0 0 .482.488h4.051a.488.488 0 0 0 .423-.259 9.594 9.594 0 0 0 .246-1.406 10.446 10.446 0 0 0 6.908 2.262c5.305 0 8.348-2.691 8.348-12.083s-4.86-10.618-8.143-10.618zm-2.28 17.167a6.927 6.927 0 0 1-3.363-.971v-9.649a7.712 7.712 0 0 1 2.987-.968c2.08-.186 4.085.443 4.085 5.406-.001 5.234-.906 6.267-3.709 6.182z" class="cls-2" data-name="Path 2490" transform="translate(-980.117 -501.923)"/>
                        </g>
                    </g>
                    <g id="Group_3722" data-name="Group 3722" transform="translate(36.43 5.084)">
                        <path id="Path_2491" d="M953.747 510.42h-4.368l-.006-5.771c0-.218-.111-.326-.365-.326h-5.952c-.231 0-.355.1-.355.323v5.963s-2.983.721-3.185.779a.483.483 0 0 0-.348.464v3.748a.483.483 0 0 0 .482.486h3.05v9.014c0 6.7 4.7 7.353 7.865 7.353a13.3 13.3 0 0 0 3.466-.571.451.451 0 0 0 .275-.438l.005-4.121a.492.492 0 0 0-.483-.487c-.255 0-.9.1-1.576.1-2.146 0-2.873-1-2.873-2.29v-8.567h4.368a.483.483 0 0 0 .482-.486V510.9a.483.483 0 0 0-.482-.48z" class="cls-2" data-name="Path 2491" transform="translate(-939.167 -504.323)"/>
                    </g>
                </g>
            </g>
        </g>
        <path id="Rectangle_4322" d="M0 0h132v60H0z" class="cls-3" data-name="Rectangle 4322" transform="translate(1153 4218)"/>
    </g>
</svg>
