<svg xmlns="http://www.w3.org/2000/svg" width="556.847" height="593.152" viewBox="0 0 556.847 593.152">
    <defs>
        <style>
            .cls-1{fill:url(#linear-gradient)}.cls-2{filter:url(#Path_2599)}.cls-3{filter:url(#Path_2598)}.cls-4{filter:url(#Path_2597)}.cls-5{filter:url(#Path_2596)}.cls-6{filter:url(#Rectangle_4217)}.cls-7{filter:url(#Rectangle_4216)}.cls-8{filter:url(#Path_2595)}.cls-9{filter:url(#Rectangle_4215)}.cls-10{filter:url(#Rectangle_4214)}.cls-11{filter:url(#Path_2594)}.cls-12{filter:url(#Rectangle_4213)}.cls-13{filter:url(#Path_2593)}.cls-14{filter:url(#Path_2592)}.cls-15{filter:url(#Path_2591)}.cls-16{filter:url(#Rectangle_4212)}
        </style>
        <linearGradient id="linear-gradient" x1=".199" x2=".875" y1="-.118" y2="1" gradientUnits="objectBoundingBox">
            <stop offset="0" stop-color="#ea49ff"/>
            <stop offset=".483" stop-color="#fe4283"/>
            <stop offset="1" stop-color="#f81894"/>
        </linearGradient>
        <filter id="Rectangle_4212" width="192.643" height="262.184" x="34.579" y="165.484" filterUnits="userSpaceOnUse">
            <feOffset dy="30"/>
            <feGaussianBlur result="blur" stdDeviation="30"/>
            <feFlood flood-color="#ff4980" flood-opacity=".404"/>
            <feComposite in2="blur" operator="in"/>
            <feComposite in="SourceGraphic"/>
        </filter>
        <filter id="Path_2591" width="261.804" height="252.541" x="0" y="85.153" filterUnits="userSpaceOnUse">
            <feOffset dy="30"/>
            <feGaussianBlur result="blur-2" stdDeviation="30"/>
            <feFlood flood-color="#ff4980" flood-opacity=".404"/>
            <feComposite in2="blur-2" operator="in"/>
            <feComposite in="SourceGraphic"/>
        </filter>
        <filter id="Path_2592" width="261.804" height="252.541" x="295.043" y="85.153" filterUnits="userSpaceOnUse">
            <feOffset dy="30"/>
            <feGaussianBlur result="blur-3" stdDeviation="30"/>
            <feFlood flood-color="#ff4980" flood-opacity=".404"/>
            <feComposite in2="blur-3" operator="in"/>
            <feComposite in="SourceGraphic"/>
        </filter>
        <filter id="Path_2593" width="261.804" height="252.541" x="0" y="255.459" filterUnits="userSpaceOnUse">
            <feOffset dy="30"/>
            <feGaussianBlur result="blur-4" stdDeviation="30"/>
            <feFlood flood-color="#ff4980" flood-opacity=".404"/>
            <feComposite in2="blur-4" operator="in"/>
            <feComposite in="SourceGraphic"/>
        </filter>
        <filter id="Rectangle_4213" width="192.643" height="262.184" x="329.622" y="165.484" filterUnits="userSpaceOnUse">
            <feOffset dy="30"/>
            <feGaussianBlur result="blur-5" stdDeviation="30"/>
            <feFlood flood-color="#ff4980" flood-opacity=".404"/>
            <feComposite in2="blur-5" operator="in"/>
            <feComposite in="SourceGraphic"/>
        </filter>
        <filter id="Path_2594" width="261.804" height="252.541" x="295.043" y="255.459" filterUnits="userSpaceOnUse">
            <feOffset dy="30"/>
            <feGaussianBlur result="blur-6" stdDeviation="30"/>
            <feFlood flood-color="#ff4980" flood-opacity=".404"/>
            <feComposite in2="blur-6" operator="in"/>
            <feComposite in="SourceGraphic"/>
        </filter>
        <filter id="Rectangle_4214" width="257.495" height="232.041" x="223.388" y="52.826" filterUnits="userSpaceOnUse">
            <feOffset dy="30"/>
            <feGaussianBlur result="blur-7" stdDeviation="30"/>
            <feFlood flood-color="#ff4980" flood-opacity=".404"/>
            <feComposite in2="blur-7" operator="in"/>
            <feComposite in="SourceGraphic"/>
        </filter>
        <filter id="Rectangle_4215" width="257.495" height="232.041" x="75.898" y="52.825" filterUnits="userSpaceOnUse">
            <feOffset dy="30"/>
            <feGaussianBlur result="blur-8" stdDeviation="30"/>
            <feFlood flood-color="#ff4980" flood-opacity=".404"/>
            <feComposite in2="blur-8" operator="in"/>
            <feComposite in="SourceGraphic"/>
        </filter>
        <filter id="Path_2595" width="261.804" height="252.541" x="147.486" y="0" filterUnits="userSpaceOnUse">
            <feOffset dy="30"/>
            <feGaussianBlur result="blur-9" stdDeviation="30"/>
            <feFlood flood-color="#ff4980" flood-opacity=".404"/>
            <feComposite in2="blur-9" operator="in"/>
            <feComposite in="SourceGraphic"/>
        </filter>
        <filter id="Rectangle_4216" width="257.495" height="232.041" x="223.387" y="308.285" filterUnits="userSpaceOnUse">
            <feOffset dy="30"/>
            <feGaussianBlur result="blur-10" stdDeviation="30"/>
            <feFlood flood-color="#ff4980" flood-opacity=".404"/>
            <feComposite in2="blur-10" operator="in"/>
            <feComposite in="SourceGraphic"/>
        </filter>
        <filter id="Rectangle_4217" width="257.495" height="232.041" x="75.898" y="308.285" filterUnits="userSpaceOnUse">
            <feOffset dy="30"/>
            <feGaussianBlur result="blur-11" stdDeviation="30"/>
            <feFlood flood-color="#ff4980" flood-opacity=".404"/>
            <feComposite in2="blur-11" operator="in"/>
            <feComposite in="SourceGraphic"/>
        </filter>
        <filter id="Path_2596" width="261.804" height="252.541" x="147.486" y="340.611" filterUnits="userSpaceOnUse">
            <feOffset dy="30"/>
            <feGaussianBlur result="blur-12" stdDeviation="30"/>
            <feFlood flood-color="#ff4980" flood-opacity=".404"/>
            <feComposite in2="blur-12" operator="in"/>
            <feComposite in="SourceGraphic"/>
        </filter>
        <filter id="Path_2597" width="273.363" height="262.552" x="60.094" y="164.529" filterUnits="userSpaceOnUse">
            <feOffset dy="30"/>
            <feGaussianBlur result="blur-13" stdDeviation="30"/>
            <feFlood flood-color="#ff4980" flood-opacity=".404"/>
            <feComposite in2="blur-13" operator="in"/>
            <feComposite in="SourceGraphic"/>
        </filter>
        <filter id="Path_2598" width="273.361" height="262.55" x="223.071" y="164.529" filterUnits="userSpaceOnUse">
            <feOffset dy="30"/>
            <feGaussianBlur result="blur-14" stdDeviation="30"/>
            <feFlood flood-color="#ff4980" flood-opacity=".404"/>
            <feComposite in2="blur-14" operator="in"/>
            <feComposite in="SourceGraphic"/>
        </filter>
        <filter id="Path_2599" width="273.361" height="305.657" x="141.58" y="121.423" filterUnits="userSpaceOnUse">
            <feOffset dy="30"/>
            <feGaussianBlur result="blur-15" stdDeviation="30"/>
            <feFlood flood-color="#ff4980" flood-opacity=".404"/>
            <feComposite in2="blur-15" operator="in"/>
            <feComposite in="SourceGraphic"/>
        </filter>
    </defs>
    <g id="Group_3826" data-name="Group 3826">
        <g class="cls-16" transform="translate(-.004 .002)">
            <rect id="Rectangle_4212-2" width="12.643" height="82.184" class="cls-1" data-name="Rectangle 4212" rx="6" transform="translate(124.58 225.48)"/>
        </g>
        <g class="cls-15" transform="translate(-.004 .002)">
            <path id="Path_2591-2" d="M92.29 596.082H57.725a6.333 6.333 0 0 1-5.489-3.167l-17.283-29.936a6.343 6.343 0 0 1 0-6.335l17.283-29.935a6.332 6.332 0 0 1 5.489-3.168H92.29a6.336 6.336 0 0 1 5.489 3.168l17.283 29.935a6.343 6.343 0 0 1 0 6.335l-17.283 29.935a6.337 6.337 0 0 1-5.489 3.168zm-30.908-12.67h27.251l13.625-23.6-13.625-23.6H61.382l-13.629 23.6z" class="cls-1" data-name="Path 2591" transform="translate(55.89 -378.39)"/>
        </g>
        <g class="cls-14" transform="translate(-.004 .002)">
            <path id="Path_2592-2" d="M178.45 596.082h-34.565a6.337 6.337 0 0 1-5.489-3.167l-17.283-29.935a6.343 6.343 0 0 1 0-6.335l17.287-29.936a6.336 6.336 0 0 1 5.489-3.168h34.561a6.332 6.332 0 0 1 5.489 3.168l17.283 29.935a6.343 6.343 0 0 1 0 6.335l-17.283 29.935a6.333 6.333 0 0 1-5.489 3.168zm-30.908-12.67h27.251l13.629-23.6-13.629-23.6h-27.251l-13.625 23.6z" class="cls-1" data-name="Path 2592" transform="translate(264.78 -378.39)"/>
        </g>
        <g class="cls-13" transform="translate(-.004 .002)">
            <path id="Path_2593-2" d="M92.29 645.816H57.725a6.34 6.34 0 0 1-5.489-3.167l-17.283-29.936a6.342 6.342 0 0 1 0-6.334l17.283-29.936a6.333 6.333 0 0 1 5.489-3.168H92.29a6.337 6.337 0 0 1 5.489 3.168l17.283 29.936a6.342 6.342 0 0 1 0 6.334l-17.283 29.936a6.344 6.344 0 0 1-5.489 3.167zm-30.908-12.67h27.251l13.625-23.6-13.625-23.6H61.382l-13.629 23.6z" class="cls-1" data-name="Path 2593" transform="translate(55.89 -257.82)"/>
        </g>
        <g class="cls-12" transform="translate(-.004 .002)">
            <rect id="Rectangle_4213-2" width="12.643" height="82.184" class="cls-1" data-name="Rectangle 4213" rx="6" transform="translate(419.62 225.48)"/>
        </g>
        <g class="cls-11" transform="translate(-.004 .002)">
            <path id="Path_2594-2" d="M178.45 645.816h-34.565a6.344 6.344 0 0 1-5.489-3.167l-17.283-29.936a6.342 6.342 0 0 1 0-6.334l17.287-29.936a6.337 6.337 0 0 1 5.489-3.168h34.561a6.332 6.332 0 0 1 5.489 3.168l17.283 29.936a6.342 6.342 0 0 1 0 6.334l-17.283 29.936a6.34 6.34 0 0 1-5.489 3.167zm-30.908-12.67h27.251l13.629-23.6-13.629-23.6h-27.251l-13.625 23.6z" class="cls-1" data-name="Path 2594" transform="translate(264.78 -257.82)"/>
        </g>
        <g class="cls-10" transform="translate(-.004 .002)">
            <rect id="Rectangle_4214-2" width="12.643" height="82.184" class="cls-1" data-name="Rectangle 4214" rx="6" transform="rotate(-60 263.883 -209.519)"/>
        </g>
        <g class="cls-9" transform="translate(-.004 .002)">
            <rect id="Rectangle_4215-2" width="12.643" height="82.184" class="cls-1" data-name="Rectangle 4215" rx="6" transform="rotate(60 20.821 261.724)"/>
        </g>
        <g class="cls-8" transform="translate(-.004 .002)">
            <path id="Path_2595-2" d="M135.364 571.215H100.8a6.344 6.344 0 0 1-5.489-3.168l-17.287-29.938a6.337 6.337 0 0 1 0-6.332l17.283-29.936a6.337 6.337 0 0 1 5.489-3.167h34.569a6.332 6.332 0 0 1 5.486 3.167l17.283 29.936a6.336 6.336 0 0 1 0 6.332l-17.284 29.938a6.339 6.339 0 0 1-5.486 3.168zm-30.911-12.67H131.7l13.629-23.6-13.629-23.6h-27.247l-13.625 23.6z" class="cls-1" data-name="Path 2595" transform="translate(160.31 -438.67)"/>
        </g>
        <g class="cls-7" transform="translate(-.004 .002)">
            <rect id="Rectangle_4216-2" width="12.643" height="82.184" class="cls-1" data-name="Rectangle 4216" rx="6" transform="rotate(60 -126.66 517.179)"/>
        </g>
        <g class="cls-6" transform="translate(-.004 .002)">
            <rect id="Rectangle_4217-2" width="12.643" height="82.184" class="cls-1" data-name="Rectangle 4217" rx="6" transform="rotate(-60 411.373 45.941)"/>
        </g>
        <g class="cls-5" transform="translate(-.004 .002)">
            <path id="Path_2596-2" d="M135.364 670.683H100.8a6.337 6.337 0 0 1-5.489-3.167L78.024 637.58a6.342 6.342 0 0 1 0-6.335l17.283-29.935a6.336 6.336 0 0 1 5.489-3.167h34.569a6.331 6.331 0 0 1 5.486 3.167l17.283 29.936a6.342 6.342 0 0 1 0 6.335l-17.284 29.935a6.332 6.332 0 0 1-5.486 3.167zm-30.911-12.67H131.7l13.629-23.6-13.629-23.6h-27.247l-13.625 23.6z" class="cls-1" data-name="Path 2596" transform="translate(160.31 -197.53)"/>
        </g>
        <g class="cls-4" transform="translate(-.004 .002)">
            <path id="Path_2597-2" d="M138.687 629.271a6.336 6.336 0 0 1-5.5-3.171l-34.852-60.374L63.478 626.1a6.335 6.335 0 1 1-10.978-6.331l40.342-69.88a6.337 6.337 0 0 1 10.975 0l40.349 69.88a6.338 6.338 0 0 1-5.482 9.5z" class="cls-1" data-name="Path 2597" transform="translate(98.44 -322.19)"/>
        </g>
        <g class="cls-3" transform="translate(-.004 .002)">
            <path id="Path_2598-2" d="M105.576 629.271a6.338 6.338 0 0 1-5.479-9.5l40.345-69.88a6.333 6.333 0 0 1 5.489-3.167 6.332 6.332 0 0 1 5.486 3.167l40.342 69.88a6.335 6.335 0 1 1-10.975 6.332l-34.853-60.374-34.859 60.371a6.336 6.336 0 0 1-5.496 3.171z" class="cls-1" data-name="Path 2598" transform="translate(213.82 -322.19)"/>
        </g>
        <g class="cls-2" transform="translate(-.004 .002)">
            <path id="Path_2599-2" d="M81.779 659.785a4.761 4.761 0 0 1-3.157-1.291c-3.031-2.665-4.072-8.561-2.322-13.17l40.346-106.369c1.133-2.986 3.226-4.822 5.489-4.822 2.264 0 4.352 1.836 5.486 4.822l40.342 106.369c1.75 4.609.709 10.506-2.318 13.17s-6.907 1.082-8.657-3.531l-34.853-91.9-34.86 91.9c-1.175 3.096-3.304 4.822-5.496 4.822z" class="cls-1" data-name="Path 2599" transform="translate(156.13 -352.71)"/>
        </g>
    </g>
</svg>
