<svg xmlns="http://www.w3.org/2000/svg" width="468" height="204" viewBox="0 0 468 204">
    <defs>
        <style>
            .cls-1{opacity:.314}.cls-2{opacity:.159}.cls-10,.cls-3,.cls-5,.cls-9{fill:#fff}.cls-4{fill:none}.cls-5{opacity:.696}.cls-6,.cls-7{fill:#4b0776;fill-rule:evenodd}.cls-7{fill:#4b0777}.cls-8{opacity:.903}.cls-9{opacity:.698}.cls-10{opacity:.899}.cls-11{fill:#62086d}.cls-12{fill:#5c086f}.cls-13{fill:#5d086f}
        </style>
    </defs>
    <g id="Group_4008" class="cls-1" data-name="Group 4008" transform="translate(-693 -2974)">
        <g id="Group_1148" class="cls-2" data-name="Group 1148" transform="translate(1047 3128)">
            <g id="Group_922" data-name="Group 922" transform="translate(4 4)">
                <path id="Path_515" d="M1415.858 561.443l14.879-15.022 14.95 15.022z" class="cls-3" data-name="Path 515" transform="translate(-1414.736 -529.443)"/>
                <path id="Path_516" d="M1408.5 441.8v30.086l15.178-15.043z" class="cls-3" data-name="Path 516" transform="translate(-1408.499 -440.761)"/>
                <path id="Path_517" d="M1414.686 435h14.914l6.943 6.95h-15z" class="cls-3" data-name="Path 517" transform="translate(-1413.743 -435)"/>
                <path id="Path_518" d="M1526.108 435h14.079v14.15z" class="cls-3" data-name="Path 518" transform="translate(-1508.186 -435)"/>
                <path id="Path_519" d="M1582.62 552.046l-6.45 6.654 6.45 6.632z" class="cls-3" data-name="Path 519" transform="translate(-1550.62 -534.21)"/>
                <path id="Path_520" d="M1527.431 505.826l7.511-7.507-7.565-7.586-7.457 7.543z" class="cls-3" data-name="Path 520" transform="translate(-1502.942 -482.241)"/>
                <path id="Path_521" d="M1468.311 489.046h13.864l-6.932 6.921z" class="cls-3" data-name="Path 521" transform="translate(-1459.197 -480.81)"/>
            </g>
            <path id="Path_535" d="M0 0h40v40H0z" class="cls-4" data-name="Path 535"/>
        </g>
        <g id="Group_1147" class="cls-2" data-name="Group 1147" transform="translate(959 3029)">
            <path id="Path_541" d="M0 0h40v40H0z" class="cls-4" data-name="Path 541"/>
            <g id="Android_greenrobot" transform="translate(6.667 4)">
                <path id="Path_562" d="M249.585 116.593a1.993 1.993 0 1 0-3.985 0v8.3a1.993 1.993 0 0 0 3.985 0z" class="cls-3" data-name="Path 562" transform="translate(-222.351 -104.138)"/>
                <path id="Path_563" d="M11.585 116.593a1.993 1.993 0 0 0-3.985 0v8.3a1.993 1.993 0 0 0 3.985 0z" class="cls-3" data-name="Path 563" transform="translate(-7.6 -104.138)"/>
                <g id="Group_1030" data-name="Group 1030" transform="translate(4.728)">
                    <path id="Path_564" d="M69.246 10.46l1.407-2.54a.274.274 0 0 0-.107-.381.318.318 0 0 0-.137-.039.269.269 0 0 0-.244.147l-1.426 2.569a9.54 9.54 0 0 0-7.7 0l-1.415-2.569a.28.28 0 0 0-.488.274l1.407 2.54A8.1 8.1 0 0 0 56 17.6h17.778a8.106 8.106 0 0 0-4.532-7.14zm-8.459 3.888a.742.742 0 1 1 .742-.742.742.742 0 0 1-.743.742zm8.205 0a.742.742 0 1 1 .742-.742.742.742 0 0 1-.742.742z" class="cls-3" data-name="Path 564" transform="translate(-56 -7.5)"/>
                    <path id="Path_565" d="M56 118.1v12.884a2.143 2.143 0 0 0 2.149 2.149h1.426v4.4a1.993 1.993 0 1 0 3.985 0v-4.4h2.657v4.4a1.993 1.993 0 1 0 3.985 0v-4.4h1.426a2.143 2.143 0 0 0 2.149-2.149V118.1z" class="cls-3" data-name="Path 565" transform="translate(-56 -107.296)"/>
                </g>
            </g>
        </g>
        <g id="Group_1145" class="cls-2" data-name="Group 1145" transform="translate(913 2977)">
            <g id="Group_921" data-name="Group 921" transform="translate(7.333 4)">
                <path id="Path_504" d="M20.763 37.97l8.437-8.438h9.638L25.7 42.908z" class="cls-3" data-name="Path 504" transform="translate(-13.535 -15.074)"/>
                <path id="Path_505" d="M43.986 55.2l-8.434-8.437-4.7 4.938 3.5 3.5z" class="cls-5" data-name="Path 505" transform="translate(-18.683 -23.87)"/>
                <path id="Path_506" d="M21.665 0L6 15.665l4.821 4.821L31.3 0z" class="cls-3" data-name="Path 506" transform="translate(-6)"/>
            </g>
            <path id="Path_542" d="M0 0h40v40H0z" class="cls-4" data-name="Path 542"/>
        </g>
        <g id="Group_1143" class="cls-2" data-name="Group 1143" transform="translate(1121 3000)">
            <path id="Path_536" d="M0 0h40v40H0z" class="cls-4" data-name="Path 536"/>
            <g id="React-icon" transform="translate(2.667 4.667)">
                <path id="Path_487" d="M209.838 93.2c0-2.261-2.832-4.4-7.174-5.734 1-4.426.557-7.946-1.406-9.074a3.051 3.051 0 0 0-1.559-.39v1.552a1.611 1.611 0 0 1 .793.181c.946.543 1.357 2.609 1.037 5.267-.077.654-.2 1.343-.355 2.046a33.723 33.723 0 0 0-4.419-.758 33.941 33.941 0 0 0-2.895-3.479c2.268-2.108 4.4-3.263 5.845-3.263V78c-1.914 0-4.419 1.364-6.951 3.73-2.533-2.352-5.038-3.7-6.951-3.7v1.55c1.44 0 3.577 1.148 5.845 3.243a32.863 32.863 0 0 0-2.874 3.472 32.5 32.5 0 0 0-4.426.765c-.16-.7-.278-1.371-.362-2.018-.327-2.658.077-4.725 1.016-5.274a1.549 1.549 0 0 1 .8-.181v-1.552a3.1 3.1 0 0 0-1.573.39c-1.955 1.127-2.394 4.641-1.385 9.053-4.328 1.336-7.146 3.472-7.146 5.727s2.832 4.4 7.174 5.734c-1 4.426-.557 7.946 1.406 9.074a3.059 3.059 0 0 0 1.566.39c1.914 0 4.419-1.364 6.951-3.73 2.533 2.352 5.038 3.7 6.951 3.7a3.1 3.1 0 0 0 1.573-.39c1.955-1.127 2.394-4.641 1.385-9.053 4.316-1.33 7.134-3.471 7.134-5.73zm-9.06-4.641a31.26 31.26 0 0 1-.939 2.749c-.285-.557-.585-1.113-.912-1.67s-.661-1.1-1-1.628c.986.149 1.939.33 2.851.553zm-3.187 7.411c-.543.939-1.1 1.83-1.677 2.658a36.4 36.4 0 0 1-6.276.007q-.866-1.242-1.684-2.644-.793-1.367-1.447-2.769a37.425 37.425 0 0 1 3.117-5.434 36.4 36.4 0 0 1 6.276-.007q.866 1.242 1.684 2.644.793 1.367 1.447 2.769a38.153 38.153 0 0 1-1.44 2.779zm2.248-.9c.376.932.7 1.865.96 2.769-.912.223-1.872.411-2.867.557.341-.536.682-1.085 1-1.649s.621-1.121.907-1.678zm-7.056 7.425a28.684 28.684 0 0 1-1.934-2.227c.626.028 1.266.049 1.914.049s1.3-.014 1.934-.049a27.16 27.16 0 0 1-1.914 2.225zm-5.177-4.1a31.278 31.278 0 0 1-2.853-.55c.257-.9.578-1.823.939-2.749.285.557.584 1.113.912 1.67s.661 1.1 1.002 1.629zm5.142-14.48a28.688 28.688 0 0 1 1.934 2.227c-.626-.028-1.266-.049-1.914-.049s-1.3.014-1.934.049a27.159 27.159 0 0 1 1.914-2.227zm-5.149 4.1a36.83 36.83 0 0 0-1.9 3.319c-.376-.932-.7-1.865-.96-2.769a31.911 31.911 0 0 1 2.861-.552zm-6.3 8.712c-2.463-1.051-4.057-2.428-4.057-3.521s1.593-2.477 4.057-3.521c.6-.257 1.253-.487 1.927-.7a33.419 33.419 0 0 0 1.566 4.238 32.945 32.945 0 0 0-1.545 4.217 23.498 23.498 0 0 1-1.947-.715zm3.744 9.943c-.946-.543-1.357-2.609-1.037-5.267.077-.654.2-1.343.355-2.046a33.721 33.721 0 0 0 4.419.758 33.94 33.94 0 0 0 2.895 3.479c-2.268 2.108-4.4 3.263-5.845 3.263a1.66 1.66 0 0 1-.785-.189zm16.505-5.3c.327 2.658-.077 4.725-1.016 5.274a1.549 1.549 0 0 1-.8.181c-1.44 0-3.577-1.148-5.845-3.243a32.861 32.861 0 0 0 2.874-3.472 32.491 32.491 0 0 0 4.426-.765 19.476 19.476 0 0 1 .363 2.021zm2.679-4.641c-.6.257-1.253.487-1.927.7a33.421 33.421 0 0 0-1.566-4.238 32.952 32.952 0 0 0 1.545-4.217c.689.216 1.343.452 1.955.71 2.463 1.051 4.057 2.428 4.057 3.521s-1.598 2.476-4.062 3.52z" class="cls-3" data-name="Path 487" transform="translate(-175.7 -78)"/>
                <circle id="Ellipse_262" cx="3.18" cy="3.18" r="3.18" class="cls-3" data-name="Ellipse 262" transform="translate(13.882 12.024)"/>
            </g>
        </g>
        <g id="Group_1146" class="cls-2" data-name="Group 1146" transform="translate(1077 3052)">
            <path id="Path_540" d="M0 0h40v40H0z" class="cls-4" data-name="Path 540"/>
            <g id="Group_1028" data-name="Group 1028" transform="translate(4 4)">
                <rect id="Rectangle_1943" width="32" height="32" class="cls-3" data-name="Rectangle 1943" rx="10.258"/>
                <path id="Path_559" d="M82.787 101.791h-.753V91.733h.753zM82.4 89.267a.575.575 0 1 1 .586-.569.575.575 0 0 1-.586.569z" class="cls-6" data-name="Path 559" transform="translate(-77.528 -79.269)"/>
                <path id="Path_560" d="M90.966 101.987c-3.68 0-6.005-2.68-6.005-6.94 0-4.239 2.336-6.93 6.005-6.93s6 2.69 6 6.93c.004 4.26-2.321 6.94-6 6.94zm0-13.177c-3.2 0-5.249 2.418-5.249 6.237s2.055 6.249 5.249 6.249 5.249-2.428 5.249-6.249-2.045-6.237-5.249-6.237z" class="cls-7" data-name="Path 560" transform="translate(-78.396 -79.269)"/>
                <path id="Path_561" d="M107.109 101.987c-2.763 0-4.744-1.56-4.856-3.792h.738c.112 1.83 1.831 3.11 4.175 3.11 2.287 0 3.884-1.3 3.884-3.054 0-1.412-.952-2.223-3.211-2.793l-1.6-.392c-2.493-.636-3.625-1.645-3.625-3.334 0-2.1 1.962-3.615 4.419-3.615 2.54 0 4.436 1.494 4.521 3.474h-.738c-.1-1.615-1.681-2.793-3.8-2.793-2.028 0-3.643 1.214-3.643 2.914 0 1.346.99 2.12 3.156 2.662l1.5.383c2.605.644 3.773 1.645 3.773 3.437 0 2.232-1.876 3.792-4.7 3.792z" class="cls-6" data-name="Path 561" transform="translate(-83.175 -79.269)"/>
            </g>
        </g>
        <g id="Group_1151" class="cls-2" data-name="Group 1151" transform="translate(693 3069)">
            <path id="Path_537" d="M0 0h40v40H0z" class="cls-4" data-name="Path 537"/>
            <g id="Vue.js_Logo" transform="translate(3.333 5.333)">
                <g id="g12">
                    <path id="path14" d="M-134.028 0l-10.18 17.445L-154.412 0h-6.688l16.9 29.284L-127.291 0z" class="cls-3" transform="translate(161.105)"/>
                </g>
                <g id="g16" class="cls-8" transform="translate(6.763)">
                    <path id="path18" d="M-94.7 0l-3.9 6.763L-102.513 0h-6.24l10.144 17.57L-88.465 0z" class="cls-9" transform="translate(108.753)"/>
                </g>
            </g>
        </g>
        <g id="Group_1150" class="cls-2" data-name="Group 1150" transform="translate(403 415)">
            <path id="Path_538" d="M0 0h40v40H0z" class="cls-4" data-name="Path 538" transform="translate(368 2559)"/>
            <g id="angular" transform="translate(372.667 2562.333)">
                <path id="Path_570" d="M47.114 30L31.9 35.425l2.32 20.116 12.894 7.141z" class="cls-3" data-name="Path 570" transform="translate(-31.9 -30)"/>
                <path id="Path_571" d="M125 30v32.683l12.894-7.141 2.32-20.116z" class="cls-10" data-name="Path 571" transform="translate(-109.786 -30)"/>
                <path id="Path_572" d="M76.311 52.1L66.8 73.426h3.546l1.912-4.772h8.073l1.912 4.772h3.546L76.311 52.1zm2.778 13.613h-5.556l2.778-6.684z" class="cls-11" data-name="Path 572" transform="translate(-61.097 -48.489)"/>
            </g>
        </g>
        <g id="Group_1144" class="cls-2" data-name="Group 1144" transform="translate(739 3138)">
            <path id="Path_541-2" d="M0 0h40v40H0z" class="cls-4" data-name="Path 541"/>
            <g id="Group_932" data-name="Group 932" transform="translate(4.871 2.355)">
                <path id="Path_204" d="M33.489 13.159c1.018-2.454 1.018-7.453-.324-11.3a.76.76 0 0 0-1.435.278v.278c-.231 3.657-1.574 5.648-3.565 6.62a1.286 1.286 0 0 1-1.157-.093 15.239 15.239 0 0 0-16.3 0 1.14 1.14 0 0 1-1.018.093C7.657 8.3 6.268 6.076 6.037 2.373V2.1A.761.761 0 0 0 4.6 1.817c-1.343 3.889-1.3 8.888-.324 11.342A5.487 5.487 0 0 1 4.37 17a14.319 14.319 0 0 0-.787 5.092A15.654 15.654 0 0 0 18.675 37.14 15.3 15.3 0 0 0 33.35 17a5.49 5.49 0 0 1 .139-3.841zM18.675 33.482a11.622 11.622 0 1 1 11.8-11.851 11.657 11.657 0 0 1-11.8 11.851z" class="cls-3" data-name="Path 204" transform="translate(-3.568 -1.402)"/>
                <path id="Path_205" d="M32.744 37.22l-2.731-4.213a1.485 1.485 0 0 0-2.037-.463 1.519 1.519 0 0 0-.694 1.25 1.561 1.561 0 0 0 .231.787l1.852 2.87a.628.628 0 0 1-.046.694l-2.87 3.148a1.469 1.469 0 0 0 .093 2.083 1.618 1.618 0 0 0 1.018.37 1.507 1.507 0 0 0 1.065-.463l2.13-2.5a.368.368 0 0 1 .6.046l1.528 2.176a.908.908 0 0 0 .417.417 1.465 1.465 0 0 0 1.667.046 1.519 1.519 0 0 0 .694-1.25 1.561 1.561 0 0 0-.231-.787z" class="cls-3" data-name="Path 205" transform="translate(-15.647 -18.009)"/>
            </g>
        </g>
        <g id="Group_1152" class="cls-2" data-name="Group 1152" transform="translate(1027 2989)">
            <path id="Path_535-2" d="M0 0h40v40H0z" class="cls-4" data-name="Path 535"/>
            <g id="Group_1037" data-name="Group 1037" transform="translate(4 4)">
                <path id="Rectangle_1944" d="M0 0h31.695v31.695H0z" class="cls-3" data-name="Rectangle 1944"/>
                <path id="Path_573" d="M58.729 113.37h-3.584l-1.766-3.359h-2.355v3.359h-3.169v-12.138h5.454c3.221 0 5.056 1.558 5.056 4.26A4.1 4.1 0 0 1 56.2 109.4zm-7.705-9.61v3.723h2.3a1.773 1.773 0 0 0 2.026-1.887c0-1.195-.745-1.835-2.026-1.835zm9.367-2.528h9.575v2.528h-6.407v2.268h5.783v2.511l-5.783.017v2.285h6.58v2.528h-9.748z" class="cls-12" data-name="Path 573" transform="translate(-39.928 -84.463)"/>
            </g>
        </g>
        <g id="Group_1149" class="cls-2" data-name="Group 1149" transform="translate(846 3032)">
            <path id="Path_541-3" d="M0 0h40v40H0z" class="cls-4" data-name="Path 541"/>
            <g id="postgresql" transform="translate(2.667 2)">
                <path id="Path_566" d="M34.755 21.7a1.753 1.753 0 0 0-1.455-1.171 3.332 3.332 0 0 0-1.161.064 10.436 10.436 0 0 1-1.789.235A34.506 34.506 0 0 0 34 12.14c1.212-4.693.564-6.831-.193-7.8A10.481 10.481 0 0 0 25.359.365a14.977 14.977 0 0 0-4.393.615A16.357 16.357 0 0 0 18.4.746a8.352 8.352 0 0 0-4.475 1.1 20.4 20.4 0 0 0-3.16-.793C7.671.548 5.18.943 3.359 2.23 1.153 3.788.13 6.5.319 10.276a46.243 46.243 0 0 0 1.789 8.317 28.724 28.724 0 0 0 1.926 4.915c.951 1.8 1.968 2.862 3.11 3.243a3.057 3.057 0 0 0 3.026-.651 2.646 2.646 0 0 0 .636.548 4.234 4.234 0 0 0 1.2.506 6.448 6.448 0 0 0 4.2-.25c.008.218.013.426.018.606.008.292.016.578.027.846a14.808 14.808 0 0 0 .56 4.2c.02.054.047.137.075.224a5.057 5.057 0 0 0 1.26 2.22 3.759 3.759 0 0 0 2.659.989 5.976 5.976 0 0 0 1.243-.138 5.842 5.842 0 0 0 3.929-2.273C27.008 32.1 27.51 29.891 27.6 26.4l.033-.282.022-.184.243.021h.063a9.619 9.619 0 0 0 4.024-.7c.8-.373 3.376-1.731 2.77-3.565" class="cls-3" data-name="Path 566" transform="translate(-.297 -.364)"/>
                <path id="Path_567" d="M42 31.617c-4.023.83-4.3-.532-4.3-.532 4.248-6.3 6.024-14.3 4.491-16.262-4.181-5.342-11.418-2.815-11.538-2.75l-.039.007a14.349 14.349 0 0 0-2.684-.28 6.63 6.63 0 0 0-4.249 1.272S10.769 7.753 11.369 19.76c.128 2.554 3.661 19.328 7.876 14.262 1.54-1.853 3.029-3.419 3.029-3.419a3.907 3.907 0 0 0 2.552.652l.072-.061a2.812 2.812 0 0 0 .029.721c-1.086 1.213-.767 1.426-2.937 1.873-2.2.453-.906 1.258-.064 1.469a4.462 4.462 0 0 0 4.98-1.618l-.064.255c.425.341.724 2.216.674 3.917a10.789 10.789 0 0 0 .252 3.779c.335.912.669 2.963 3.523 2.352 2.384-.511 3.62-1.835 3.792-4.044.122-1.57.4-1.338.415-2.742l.221-.665c.255-2.128.041-2.815 1.509-2.5l.357.031a8.136 8.136 0 0 0 3.326-.56c1.788-.83 2.849-2.215 1.085-1.851" class="cls-3" data-name="Path 567" transform="translate(-9.854 -9.923)"/>
                <path id="Path_568" d="M101.749 79.8a1.248 1.248 0 0 0-.857.122.315.315 0 0 0-.13.209.611.611 0 0 0 .148.4 1.12 1.12 0 0 0 .711.444.812.812 0 0 0 .114.008.922.922 0 0 0 .873-.594c.044-.316-.415-.527-.86-.588m12.011.01c-.035-.248-.475-.318-.894-.26s-.823.247-.789.495a.848.848 0 0 0 .788.523.752.752 0 0 0 .106-.007 1.016 1.016 0 0 0 .574-.314.632.632 0 0 0 .215-.436" class="cls-3" data-name="Path 568" transform="translate(-87.168 -68.824)"/>
                <path id="Path_569" d="M39.968 28.019c-.153-.464-.647-.613-1.468-.444-2.436.5-3.308.154-3.594-.056A33.491 33.491 0 0 0 39.2 17.9a18.286 18.286 0 0 0 .636-4.138 4.469 4.469 0 0 0-.648-2.8 9.518 9.518 0 0 0-7.7-3.593 13.183 13.183 0 0 0-4.448.7 11.089 11.089 0 0 0-2.5-.321 7.231 7.231 0 0 0-4.29 1.182 19.146 19.146 0 0 0-3.486-.914c-2.823-.455-5.064-.11-6.664 1.024-1.915 1.354-2.8 3.774-2.626 7.192a45.146 45.146 0 0 0 1.747 8.076c1.361 4.459 2.841 6.984 4.4 7.5a1.97 1.97 0 0 0 .624.1 2.607 2.607 0 0 0 1.989-1.127q1.325-1.59 2.741-3.1a4.416 4.416 0 0 0 1.972.53v.054q-.178.212-.348.43c-.476.6-.576.731-2.109 1.047-.436.09-1.595.329-1.612 1.141-.018.887 1.37 1.26 1.528 1.3a6.544 6.544 0 0 0 1.594.21 4.622 4.622 0 0 0 3.178-1.193c-.027 3.164.105 6.281.485 7.231a3.631 3.631 0 0 0 3.472 2.678 5.57 5.57 0 0 0 1.167-.132c2.506-.537 3.594-1.644 4.014-4.086.225-1.3.612-4.42.794-6.092a4.909 4.909 0 0 0 1.412.174 8.4 8.4 0 0 0 3.2-.611c.905-.42 2.539-1.452 2.243-2.348zM34 16.726a10.137 10.137 0 0 1-.148 1.409 13.011 13.011 0 0 0-.178 1.654 12.541 12.541 0 0 0 .131 1.87 6.661 6.661 0 0 1-.292 3.8 4.938 4.938 0 0 1-.264-.542c-.074-.179-.235-.468-.457-.866-.866-1.552-2.893-5.188-1.855-6.672.309-.442 1.094-.9 3.063-.651zm-2.386-8.359a8.418 8.418 0 0 1 6.786 3.209c1.24 1.584-.125 8.793-4.077 15.012l-.12-.151-.05-.062a7.027 7.027 0 0 0 .647-4.835 11.593 11.593 0 0 1-.124-1.719 12.178 12.178 0 0 1 .167-1.534 9.686 9.686 0 0 0 .156-1.9.787.787 0 0 0 .017-.268 10.661 10.661 0 0 0-2.432-4.574 10.953 10.953 0 0 0-3.87-2.905 13.034 13.034 0 0 1 2.9-.273zM15.465 30.15c-.8.96-1.349.776-1.531.715-1.181-.394-2.551-2.89-3.76-6.848a44.737 44.737 0 0 1-1.7-7.835c-.153-3.054.588-5.183 2.2-6.327 2.625-1.861 6.941-.747 8.675-.182-.025.025-.051.048-.075.073-2.846 2.874-2.778 7.784-2.771 8.084 0 .116.009.28.023.505a20.315 20.315 0 0 1-.1 4.1 5.19 5.19 0 0 0 1.368 4.344q.169.176.354.334a72.731 72.731 0 0 0-2.675 3.034zm3.041-4.057a4.2 4.2 0 0 1-1.1-3.516 21.238 21.238 0 0 0 .111-4.3c-.007-.12-.014-.226-.017-.309a5.476 5.476 0 0 1 3.716-1.086 1.512 1.512 0 0 1 1.168 1.3c.822 3.8.109 5.386-.464 6.66-.118.262-.23.51-.325.767l-.074.2a13 13 0 0 0-.469 1.41 3.547 3.547 0 0 1-2.546-1.128zm.144 5.127a2.2 2.2 0 0 1-.665-.286 3.248 3.248 0 0 1 .709-.211c1.8-.371 2.083-.634 2.691-1.406.139-.177.3-.378.517-.623.326-.365.475-.3.746-.191a1.055 1.055 0 0 1 .519.668.744.744 0 0 1-.064.625 3.944 3.944 0 0 1-4.453 1.424zm9.442 8.787c-2.207.473-2.989-.653-3.5-1.941-.332-.831-.5-4.579-.38-8.718a.5.5 0 0 0-.022-.158 2.09 2.09 0 0 0-.062-.292 2.021 2.021 0 0 0-1.1-1.315 1.546 1.546 0 0 0-1.009-.122 12.194 12.194 0 0 1 .435-1.3l.074-.2c.084-.225.189-.458.3-.7.6-1.332 1.421-3.157.53-7.279a2.6 2.6 0 0 0-3.139-2.123 7.244 7.244 0 0 0-2.4.748c-.1.05-.19.1-.275.146.129-1.556.617-4.463 2.44-6.3a5.993 5.993 0 0 1 4.541-1.7 9.626 9.626 0 0 1 7.355 3.514 11.162 11.162 0 0 1 2.012 3.451c-1.861-.189-3.126.178-3.768 1.1-1.4 2 .764 5.867 1.8 7.728.19.341.355.636.406.761a6.91 6.91 0 0 0 1.095 1.765c.1.122.193.241.265.345-.564.162-1.576.538-1.484 2.414-.074.942-.6 5.35-.872 6.907-.355 2.058-1.112 2.824-3.241 3.281zm9.213-10.543a7.269 7.269 0 0 1-2.457.511 3.081 3.081 0 0 1-1.648-.212c-.057-1.169.378-1.292.839-1.421.072-.02.143-.04.211-.064a1.721 1.721 0 0 0 .14.1c.813.537 2.264.595 4.312.172h.022a5.514 5.514 0 0 1-1.419.913z" class="cls-13" data-name="Path 569" transform="translate(-6.485 -6.42)"/>
            </g>
        </g>
    </g>
</svg>
