<svg xmlns="http://www.w3.org/2000/svg" width="175" height="60.09" viewBox="0 0 175 60.09">
    <defs>
        <style>
            .cls-1{fill:#fff}
        </style>
    </defs>
    <g id="Group_3787" data-name="Group 3787" transform="translate(-34.105 -498.674)">
        <path id="Path_2580" d="M161.611 537a.772.772 0 0 1-.628-.269l-1.853-1.853a.771.771 0 0 1-.269-.627v-12.91a.881.881 0 0 1 .269-.658l1.853-1.852a.772.772 0 0 1 .628-.269h2.331a.927.927 0 0 1 0 1.852H162l-1.285 1.315v12.132l1.285 1.285h1.942a.927.927 0 0 1 0 1.853zm8.038-.269a.88.88 0 0 1-.657.269h-2.3a.926.926 0 0 1 0-1.853h1.908l1.315-1.285v-5.169h-3.676a.906.906 0 0 1-.927-.9.931.931 0 0 1 .927-.926h4.6a.931.931 0 0 1 .926.926v6.455a.86.86 0 0 1-.269.627zm2.121-14.463a.927.927 0 0 1-1.852 0v-.538l-1.315-1.315h-1.913a.926.926 0 0 1 0-1.852h2.3a.88.88 0 0 1 .657.269l1.852 1.852a1.04 1.04 0 0 1 .269.658z" class="cls-1" data-name="Path 2580" transform="translate(-62.622 -9.983)"/>
        <path id="Path_2581" d="M197.929 531.023h-1.942a.926.926 0 1 1 0-1.853h6.065l1.315-1.315v-6.126l-1.315-1.315h-8.815a.926.926 0 0 1 0-1.852h9.2a.878.878 0 0 1 .657.269l1.853 1.852a1.042 1.042 0 0 1 .269.658v6.9a1.043 1.043 0 0 1-.269.657l-1.853 1.853a1.042 1.042 0 0 1-.657.269h-1.907l4.422 4.392a.938.938 0 0 1 0 1.315.938.938 0 0 1-1.315 0zm-5.617-8.756a.926.926 0 0 1 1.852 0v13.805a.926.926 0 1 1-1.852 0z" class="cls-1" data-name="Path 2581" transform="translate(-79.412 -9.983)"/>
        <path id="Path_2582" d="M236.818 531.023h-10.13a1.042 1.042 0 0 1-.657-.269.879.879 0 0 1-.269-.657v-8.755a.88.88 0 0 1 .269-.658l1.853-1.852a.772.772 0 0 1 .628-.269h7.381a.88.88 0 0 1 .657.269l1.852 1.852a1.04 1.04 0 0 1 .269.658v5.976a.926.926 0 1 1-1.852 0v-5.588l-1.315-1.315h-6.6l-1.285 1.315v7.441h10.13a.931.931 0 0 1 .926.926v5.976a.926.926 0 1 1-1.852 0zm-11.057 1.822a.926.926 0 0 1 1.853 0v3.227a.926.926 0 1 1-1.853 0z" class="cls-1" data-name="Path 2582" transform="translate(-96.202 -9.983)"/>
        <path id="Path_2583" d="M270 530.754a1.042 1.042 0 0 1-.657.269h-6.455a.926.926 0 1 1 0-1.853h6.065l1.315-1.315v-6.126l-1.315-1.315h-8.815a.926.926 0 0 1 0-1.852h9.2a.878.878 0 0 1 .657.269l1.853 1.852a1.043 1.043 0 0 1 .269.658v6.9a1.043 1.043 0 0 1-.269.657zm-10.787-8.487a.926.926 0 0 1 1.852 0v13.805a.926.926 0 1 1-1.852 0z" class="cls-1" data-name="Path 2583" transform="translate(-112.992 -9.983)"/>
        <path id="Path_2584" d="M303.716 528.692h-10.13a.906.906 0 0 1-.926-.9v-8.307a.926.926 0 0 1 1.853 0v7.381h10.13a.983.983 0 0 1 .568.179.947.947 0 0 1 .359.747v8.277a.926.926 0 1 1-1.853 0zm-11.056 1.853a.926.926 0 1 1 1.853 0v5.528a.926.926 0 1 1-1.853 0zm11.056-11.057a.926.926 0 0 1 1.853 0v5.528a.926.926 0 0 1-1.853 0z" class="cls-1" data-name="Path 2584" transform="translate(-129.782 -9.983)"/>
        <path id="Path_2585" d="M337.165 521.729l-1.315-1.315h-6.6l-1.285 1.315v.538a.927.927 0 0 1-1.853 0v-.926a.88.88 0 0 1 .269-.658l1.853-1.852a.772.772 0 0 1 .628-.269h7.381a.878.878 0 0 1 .657.269l1.853 1.852a1.04 1.04 0 0 1 .269.658V532.4a.926.926 0 0 1-1.853 0zm-9.2 5.528v6.6l1.285 1.285h5.17a.927.927 0 0 1 0 1.853h-5.558a.772.772 0 0 1-.628-.269l-1.853-1.853a.771.771 0 0 1-.269-.627v-9.234a.871.871 0 0 1 .568-.837.9.9 0 0 1 1.016.179l11.056 11.056a.937.937 0 0 1 0 1.315.937.937 0 0 1-1.314 0z" class="cls-1" data-name="Path 2585" transform="translate(-146.572 -9.983)"/>
        <path id="Path_2586" d="M370.346 536.73a.878.878 0 0 1-.657.269h-7.381a.772.772 0 0 1-.628-.269l-1.853-1.853a.771.771 0 0 1-.269-.627v-14.762a.926.926 0 0 1 1.853 0v14.373l1.285 1.285h6.6l1.315-1.285v-.538a.926.926 0 0 1 1.853 0v.927a.86.86 0 0 1-.269.627z" class="cls-1" data-name="Path 2586" transform="translate(-163.362 -9.983)"/>
        <path id="Path_2587" d="M169.919 577.819h-10.13a1.04 1.04 0 0 1-.657-.269.879.879 0 0 1-.269-.657v-8.755a.88.88 0 0 1 .269-.658l1.853-1.852a.772.772 0 0 1 .628-.269h7.381a.88.88 0 0 1 .657.269l1.852 1.852a1.04 1.04 0 0 1 .269.658v5.976a.926.926 0 1 1-1.852 0v-5.588l-1.32-1.316H162l-1.285 1.315v7.44h10.13a.931.931 0 0 1 .926.926v5.976a.926.926 0 1 1-1.852 0zm-11.057 1.822a.926.926 0 0 1 1.853 0v3.227a.926.926 0 0 1-1.853 0z" class="cls-1" data-name="Path 2587" transform="translate(-62.622 -33.472)"/>
        <path id="Path_2588" d="M203.1 583.526a.878.878 0 0 1-.657.269h-2.3a.926.926 0 0 1 0-1.853h1.912l1.315-1.285v-3.167l-10.488-4.363a.833.833 0 0 1-.568-.837v-4.153a.878.878 0 0 1 .269-.658l1.852-1.852a.772.772 0 0 1 .628-.269h2.331a.927.927 0 0 1 0 1.852h-1.944l-1.285 1.315v3.137l10.489 4.363a.957.957 0 0 1 .568.867v4.154a.861.861 0 0 1-.269.627zm-8.038.269a.773.773 0 0 1-.628-.269l-1.852-1.853a.769.769 0 0 1-.269-.627v-.927a.926.926 0 1 1 1.852 0v.538l1.285 1.285h1.942a.927.927 0 0 1 0 1.853zm10.16-14.731a.927.927 0 0 1-1.853 0v-.538l-1.315-1.315h-1.914a.926.926 0 0 1 0-1.852h2.3a.878.878 0 0 1 .657.269l1.853 1.852a1.042 1.042 0 0 1 .269.658z" class="cls-1" data-name="Path 2588" transform="translate(-79.412 -33.472)"/>
        <path id="Path_2589" d="M226.687 583.795a.926.926 0 0 1 0-1.853h1.375V567.21h-1.375a.926.926 0 0 1 0-1.852h4.6a.926.926 0 0 1 0 1.852h-1.375v14.732h1.375a.926.926 0 0 1 0 1.853z" class="cls-1" data-name="Path 2589" transform="translate(-96.202 -33.472)"/>
        <path id="Path_2590" d="M257.307 577.819h-10.13a1.041 1.041 0 0 1-.658-.269.881.881 0 0 1-.269-.657v-8.755a.882.882 0 0 1 .269-.658l1.853-1.852a.772.772 0 0 1 .628-.269h7.381a.878.878 0 0 1 .657.269l1.853 1.852a1.037 1.037 0 0 1 .269.658v5.976a.926.926 0 1 1-1.852 0v-5.588l-1.315-1.315h-6.6l-1.285 1.315v7.44h10.13a.931.931 0 0 1 .926.926v5.976a.926.926 0 1 1-1.852 0zm-11.057 1.822a.926.926 0 0 1 1.853 0v3.227a.926.926 0 0 1-1.853 0z" class="cls-1" data-name="Path 2590" transform="translate(-106.487 -33.472)"/>
        <g id="Group_3772" data-name="Group 3772" transform="translate(39.135 522.743)">
            <rect id="Rectangle_4212" width="1.839" height="11.953" class="cls-1" data-name="Rectangle 4212" rx=".919"/>
        </g>
        <g id="Group_3773" data-name="Group 3773" transform="translate(34.105 511.059)">
            <path id="Path_2591" d="M42.568 534.092h-5.027a.921.921 0 0 1-.8-.461l-2.514-4.354a.923.923 0 0 1 0-.921L36.742 524a.921.921 0 0 1 .8-.461h5.027a.922.922 0 0 1 .8.461l2.514 4.354a.923.923 0 0 1 0 .921l-2.514 4.354a.922.922 0 0 1-.801.463zm-4.5-1.843h3.963l1.982-3.432-1.982-3.433h-3.958l-1.982 3.433z" class="cls-1" data-name="Path 2591" transform="translate(-34.105 -523.541)"/>
        </g>
        <g id="Group_3774" data-name="Group 3774" transform="translate(77.017 511.059)">
            <path id="Path_2592" d="M128.728 534.092H123.7a.922.922 0 0 1-.8-.461l-2.514-4.354a.923.923 0 0 1 0-.921L122.9 524a.922.922 0 0 1 .8-.461h5.027a.921.921 0 0 1 .8.461l2.514 4.354a.923.923 0 0 1 0 .921l-2.514 4.354a.921.921 0 0 1-.799.463zm-4.5-1.843h3.972l1.982-3.432-1.982-3.433h-3.963l-1.982 3.433z" class="cls-1" data-name="Path 2592" transform="translate(-120.266 -523.541)"/>
        </g>
        <g id="Group_3775" data-name="Group 3775" transform="translate(34.105 535.829)">
            <path id="Path_2593" d="M42.568 583.826h-5.027a.922.922 0 0 1-.8-.461l-2.514-4.354a.922.922 0 0 1 0-.921l2.514-4.354a.921.921 0 0 1 .8-.461h5.027a.922.922 0 0 1 .8.461l2.514 4.354a.922.922 0 0 1 0 .921l-2.514 4.354a.923.923 0 0 1-.8.461zm-4.5-1.843h3.963l1.982-3.433-1.982-3.433h-3.958l-1.983 3.433z" class="cls-1" data-name="Path 2593" transform="translate(-34.105 -573.275)"/>
        </g>
        <g id="Group_3776" data-name="Group 3776" transform="translate(82.047 522.743)">
            <rect id="Rectangle_4213" width="1.839" height="11.953" class="cls-1" data-name="Rectangle 4213" rx=".919"/>
        </g>
        <g id="Group_3777" data-name="Group 3777" transform="translate(77.017 535.829)">
            <path id="Path_2594" d="M128.728 583.826H123.7a.923.923 0 0 1-.8-.461l-2.514-4.354a.922.922 0 0 1 0-.921l2.514-4.354a.922.922 0 0 1 .8-.461h5.027a.921.921 0 0 1 .8.461l2.514 4.354a.922.922 0 0 1 0 .921l-2.514 4.354a.922.922 0 0 1-.799.461zm-4.5-1.843h3.972l1.982-3.433-1.982-3.433h-3.963l-1.982 3.433z" class="cls-1" data-name="Path 2594" transform="translate(-120.266 -573.275)"/>
        </g>
        <g id="Group_3778" data-name="Group 3778" transform="translate(66.596 506.357)">
            <rect id="Rectangle_4214" width="1.839" height="11.953" class="cls-1" data-name="Rectangle 4214" rx=".919" transform="rotate(-60 1.379 .796)"/>
        </g>
        <g id="Group_3779" data-name="Group 3779" transform="translate(45.145 506.357)">
            <rect id="Rectangle_4215" width="1.839" height="11.953" class="cls-1" data-name="Rectangle 4215" rx=".919" transform="rotate(60 5.176 8.965)"/>
        </g>
        <g id="Group_3780" data-name="Group 3780" transform="translate(55.557 498.674)">
            <path id="Path_2595" d="M85.64 509.225h-5.028a.923.923 0 0 1-.8-.461L77.3 504.41a.922.922 0 0 1 0-.921l2.514-4.354a.922.922 0 0 1 .8-.461h5.026a.921.921 0 0 1 .8.461l2.514 4.354a.922.922 0 0 1 0 .921l-2.514 4.354a.922.922 0 0 1-.8.461zm-4.5-1.843h3.963l1.982-3.433-1.982-3.433h-3.959l-1.982 3.433z" class="cls-1" data-name="Path 2595" transform="translate(-77.176 -498.674)"/>
        </g>
        <g id="Group_3781" data-name="Group 3781" transform="translate(66.596 543.512)">
            <rect id="Rectangle_4216" width="1.839" height="11.953" class="cls-1" data-name="Rectangle 4216" rx=".919" transform="rotate(60 5.176 8.965)"/>
        </g>
        <g id="Group_3782" data-name="Group 3782" transform="translate(45.145 543.512)">
            <rect id="Rectangle_4217" width="1.839" height="11.953" class="cls-1" data-name="Rectangle 4217" rx=".919" transform="rotate(-60 1.379 .796)"/>
        </g>
        <g id="Group_3783" data-name="Group 3783" transform="translate(55.557 548.214)">
            <path id="Path_2596" d="M85.64 608.693h-5.028a.922.922 0 0 1-.8-.461l-2.512-4.354a.922.922 0 0 1 0-.921l2.514-4.354a.922.922 0 0 1 .8-.461h5.026a.921.921 0 0 1 .8.461l2.514 4.354a.922.922 0 0 1 0 .921l-2.514 4.354a.921.921 0 0 1-.8.461zm-4.5-1.843h3.963l1.982-3.433-1.982-3.432h-3.959l-1.982 3.432z" class="cls-1" data-name="Path 2596" transform="translate(-77.176 -598.142)"/>
        </g>
        <g id="Group_3784" data-name="Group 3784" transform="translate(42.845 522.604)">
            <path id="Path_2597" d="M64.312 558.727a.922.922 0 0 1-.8-.461l-5.07-8.781-5.07 8.781a.921.921 0 0 1-1.6-.921l5.867-10.164a.922.922 0 0 1 1.6 0l5.868 10.164a.922.922 0 0 1-.8 1.382z" class="cls-1" data-name="Path 2597" transform="translate(-51.654 -546.721)"/>
        </g>
        <g id="Group_3785" data-name="Group 3785" transform="translate(66.549 522.604)">
            <path id="Path_2598" d="M100.168 558.727a.922.922 0 0 1-.8-1.382l5.868-10.164a.921.921 0 0 1 .8-.461.921.921 0 0 1 .8.461l5.867 10.164a.921.921 0 1 1-1.6.921l-5.069-8.781-5.07 8.781a.922.922 0 0 1-.796.461z" class="cls-1" data-name="Path 2598" transform="translate(-99.248 -546.721)"/>
        </g>
        <g id="Group_3786" data-name="Group 3786" transform="translate(54.697 516.334)">
            <path id="Path_2599" d="M76.371 552.408a.692.692 0 0 1-.459-.188 1.851 1.851 0 0 1-.338-1.916l5.868-15.471a.938.938 0 0 1 .8-.7.937.937 0 0 1 .8.7l5.867 15.471a1.852 1.852 0 0 1-.337 1.916c-.441.388-1 .157-1.259-.513l-5.069-13.367-5.07 13.367a.934.934 0 0 1-.803.701z" class="cls-1" data-name="Path 2599" transform="translate(-75.451 -534.133)"/>
        </g>
    </g>
</svg>
