<svg xmlns="http://www.w3.org/2000/svg" width="170.806" height="46.206" viewBox="0 0 170.806 46.206">
    <defs>
        <style>
            .cls-1{fill:#fff}
        </style>
    </defs>
    <g id="Group_3769" data-name="Group 3769" transform="translate(-1036 -123.704)">
        <path id="Path_2554" d="M1124.177 145.284a.892.892 0 0 1-.725-.311l-2.141-2.141a.892.892 0 0 1-.311-.725v-14.914a1.017 1.017 0 0 1 .311-.76l2.141-2.141a.893.893 0 0 1 .725-.311h2.693a1.071 1.071 0 0 1 0 2.141h-2.244l-1.485 1.519v14.017l1.485 1.485h2.244a1.071 1.071 0 0 1 0 2.141zm9.287-.311a1.015 1.015 0 0 1-.759.311h-2.659a1.07 1.07 0 1 1 0-2.141h2.21l1.519-1.485v-5.973h-4.247a1.047 1.047 0 0 1-1.07-1.036 1.076 1.076 0 0 1 1.07-1.07h5.317a1.076 1.076 0 0 1 1.07 1.07v7.457a1 1 0 0 1-.311.725zm2.451-16.711a1.071 1.071 0 0 1-2.141 0v-.621l-1.519-1.519h-2.21a1.07 1.07 0 1 1 0-2.141h2.659a1.017 1.017 0 0 1 .759.311l2.141 2.141a1.2 1.2 0 0 1 .311.76z" class="cls-1" data-name="Path 2554" transform="translate(-32.69 -.118)"/>
        <path id="Path_2555" d="M1157.49 138.378h-2.244a1.07 1.07 0 1 1 0-2.14h7.008l1.519-1.519v-7.078l-1.519-1.519h-10.184a1.07 1.07 0 0 1 0-2.141h10.63a1.017 1.017 0 0 1 .759.311l2.141 2.141a1.2 1.2 0 0 1 .311.76v7.975a1.2 1.2 0 0 1-.311.76l-2.141 2.14a1.2 1.2 0 0 1-.759.311h-2.21l5.109 5.075a1.083 1.083 0 0 1 0 1.519 1.084 1.084 0 0 1-1.519 0zm-6.49-10.116a1.07 1.07 0 0 1 2.141 0v15.951a1.07 1.07 0 1 1-2.141 0z" class="cls-1" data-name="Path 2555" transform="translate(-45.427 -.118)"/>
        <path id="Path_2556" d="M1193.774 138.378h-11.7a1.2 1.2 0 0 1-.759-.311 1.013 1.013 0 0 1-.311-.759v-10.115a1.016 1.016 0 0 1 .311-.76l2.141-2.141a.893.893 0 0 1 .725-.311h8.528a1.017 1.017 0 0 1 .759.311l2.141 2.141a1.2 1.2 0 0 1 .311.76v6.9a1.07 1.07 0 1 1-2.141 0v-6.457l-1.519-1.519h-7.63l-1.485 1.519v8.6h11.7a1.076 1.076 0 0 1 1.07 1.07v6.9a1.07 1.07 0 1 1-2.141 0zM1181 140.484a1.07 1.07 0 1 1 2.141 0v3.729a1.07 1.07 0 1 1-2.141 0z" class="cls-1" data-name="Path 2556" transform="translate(-58.163 -.118)"/>
        <path id="Path_2557" d="M1223.464 138.067a1.2 1.2 0 0 1-.759.311h-7.458a1.07 1.07 0 1 1 0-2.14h7.008l1.519-1.519v-7.078l-1.519-1.519h-10.185a1.07 1.07 0 0 1 0-2.141h10.63a1.017 1.017 0 0 1 .759.311l2.141 2.141a1.2 1.2 0 0 1 .311.76v7.975a1.2 1.2 0 0 1-.311.76zM1211 128.262a1.07 1.07 0 0 1 2.141 0v15.951a1.07 1.07 0 1 1-2.141 0z" class="cls-1" data-name="Path 2557" transform="translate(-70.9 -.118)"/>
        <path id="Path_2558" d="M1253.774 135.686h-11.7a1.046 1.046 0 0 1-1.07-1.036v-9.6a1.07 1.07 0 1 1 2.141 0v8.528h11.7a1.137 1.137 0 0 1 .656.207 1.1 1.1 0 0 1 .414.863v9.563a1.07 1.07 0 1 1-2.141 0zm-12.774 2.14a1.07 1.07 0 1 1 2.141 0v6.387a1.07 1.07 0 1 1-2.141 0zm12.774-12.775a1.07 1.07 0 1 1 2.141 0v6.388a1.07 1.07 0 1 1-2.141 0z" class="cls-1" data-name="Path 2558" transform="translate(-83.636 -.118)"/>
        <path id="Path_2559" d="M1283.774 127.641l-1.519-1.519h-7.63l-1.485 1.519v.621a1.071 1.071 0 0 1-2.141 0v-1.07a1.016 1.016 0 0 1 .311-.76l2.141-2.141a.893.893 0 0 1 .725-.311h8.528a1.017 1.017 0 0 1 .759.311l2.141 2.141a1.2 1.2 0 0 1 .311.76v12.774a1.07 1.07 0 1 1-2.141 0zm-10.634 6.388v7.63l1.485 1.485h5.973a1.071 1.071 0 0 1 0 2.141h-6.422a.892.892 0 0 1-.725-.311l-2.141-2.141a.891.891 0 0 1-.311-.725v-10.669a1.007 1.007 0 0 1 .656-.967 1.039 1.039 0 0 1 1.173.207l12.775 12.774a1.083 1.083 0 0 1 0 1.519 1.084 1.084 0 0 1-1.519 0z" class="cls-1" data-name="Path 2559" transform="translate(-96.372 -.118)"/>
        <path id="Path_2560" d="M1313.464 144.973a1.015 1.015 0 0 1-.759.311h-8.528a.892.892 0 0 1-.725-.311l-2.141-2.141a.891.891 0 0 1-.311-.725v-17.056a1.07 1.07 0 1 1 2.141 0v16.607l1.485 1.485h7.63l1.519-1.485v-.621a1.07 1.07 0 1 1 2.141 0v1.07a.994.994 0 0 1-.311.725z" class="cls-1" data-name="Path 2560" transform="translate(-109.109 -.118)"/>
        <path id="Path_2561" d="M1133.774 181.378h-11.7a1.2 1.2 0 0 1-.759-.311 1.013 1.013 0 0 1-.311-.759v-10.115a1.017 1.017 0 0 1 .311-.76l2.141-2.141a.893.893 0 0 1 .725-.311h8.528a1.017 1.017 0 0 1 .759.311l2.141 2.141a1.2 1.2 0 0 1 .311.76v6.9a1.07 1.07 0 1 1-2.141 0v-6.457l-1.519-1.519h-7.63l-1.485 1.519v8.6h11.7a1.076 1.076 0 0 1 1.07 1.07v6.9a1.07 1.07 0 1 1-2.141 0zM1121 183.484a1.07 1.07 0 1 1 2.141 0v3.729a1.07 1.07 0 1 1-2.141 0z" class="cls-1" data-name="Path 2561" transform="translate(-32.69 -18.373)"/>
        <path id="Path_2562" d="M1163.464 187.973a1.015 1.015 0 0 1-.759.311h-2.659a1.07 1.07 0 1 1 0-2.141h2.21l1.519-1.485V181l-12.118-5.04a.962.962 0 0 1-.656-.967v-4.8a1.016 1.016 0 0 1 .311-.76l2.141-2.141a.893.893 0 0 1 .725-.311h2.693a1.071 1.071 0 0 1 0 2.141h-2.244l-1.485 1.519v3.625l12.119 5.04a1.107 1.107 0 0 1 .656 1v4.8a1 1 0 0 1-.311.725zm-9.287.311a.892.892 0 0 1-.725-.311l-2.141-2.141a.892.892 0 0 1-.311-.725v-1.07a1.07 1.07 0 1 1 2.141 0v.621l1.485 1.485h2.244a1.071 1.071 0 0 1 0 2.141zm11.739-17.021a1.071 1.071 0 0 1-2.141 0v-.621l-1.519-1.519h-2.21a1.07 1.07 0 1 1 0-2.141h2.659a1.017 1.017 0 0 1 .759.311l2.141 2.141a1.2 1.2 0 0 1 .311.76z" class="cls-1" data-name="Path 2562" transform="translate(-45.427 -18.373)"/>
        <path id="Path_2563" d="M1182.07 188.284a1.07 1.07 0 0 1 0-2.141h1.588v-17.021h-1.588a1.07 1.07 0 0 1 0-2.141h5.318a1.07 1.07 0 0 1 0 2.141h-1.588v17.021h1.588a1.07 1.07 0 0 1 0 2.141z" class="cls-1" data-name="Path 2563" transform="translate(-58.163 -18.373)"/>
        <path id="Path_2564" d="M1210.814 181.378h-11.7a1.2 1.2 0 0 1-.76-.311 1.015 1.015 0 0 1-.311-.759v-10.115a1.018 1.018 0 0 1 .311-.76l2.141-2.141a.893.893 0 0 1 .725-.311h8.528a1.016 1.016 0 0 1 .76.311l2.141 2.141a1.2 1.2 0 0 1 .311.76v6.9a1.07 1.07 0 1 1-2.141 0v-6.457l-1.519-1.519h-7.63l-1.485 1.519v8.6h11.7a1.076 1.076 0 0 1 1.07 1.07v6.9a1.07 1.07 0 1 1-2.141 0zm-12.774 2.106a1.07 1.07 0 1 1 2.141 0v3.729a1.07 1.07 0 1 1-2.141 0z" class="cls-1" data-name="Path 2564" transform="translate(-65.397 -18.373)"/>
        <g id="Group_3768" data-name="Group 3768" transform="translate(1036 123.704)">
            <g id="Group_3753" data-name="Group 3753" transform="translate(3.795 19.4)">
                <path id="Path_2565" d="M1051.319 165.384a.724.724 0 0 1-.724-.724v-6.519a.724.724 0 0 1 1.448 0v6.519a.724.724 0 0 1-.724.724z" class="cls-1" data-name="Path 2565" transform="translate(-1050.595 -157.417)"/>
            </g>
            <g id="Group_3754" data-name="Group 3754" transform="translate(9 6.496)">
                <path id="Path_2566" d="M1060.366 139.7a.725.725 0 0 1-.363-1.352l5.645-3.259a.724.724 0 1 1 .724 1.254l-5.645 3.259a.719.719 0 0 1-.361.098z" class="cls-1" data-name="Path 2566" transform="translate(-1059.641 -134.993)"/>
            </g>
            <g id="Group_3755" data-name="Group 3755" transform="translate(26.034 6.287)">
                <path id="Path_2567" d="M1095.61 139.337a.722.722 0 0 1-.361-.1l-5.645-3.259a.724.724 0 0 1 .724-1.254l5.645 3.259a.724.724 0 0 1-.363 1.352z" class="cls-1" data-name="Path 2567" transform="translate(-1089.241 -134.629)"/>
            </g>
            <g id="Group_3756" data-name="Group 3756" transform="translate(37.247 19.4)">
                <path id="Path_2568" d="M1109.451 165.384a.724.724 0 0 1-.724-.724v-6.519a.724.724 0 0 1 1.448 0v6.519a.724.724 0 0 1-.724.724z" class="cls-1" data-name="Path 2568" transform="translate(-1108.727 -157.417)"/>
            </g>
            <g id="Group_3757" data-name="Group 3757" transform="translate(25.727 35.467)">
                <path id="Path_2569" d="M1089.432 190.045a.724.724 0 0 1-.363-1.352l5.645-3.259a.724.724 0 1 1 .724 1.254l-5.645 3.259a.716.716 0 0 1-.361.098z" class="cls-1" data-name="Path 2569" transform="translate(-1088.707 -185.337)"/>
            </g>
            <g id="Group_3758" data-name="Group 3758" transform="translate(9.308 35.258)">
                <path id="Path_2570" d="M1066.544 189.682a.716.716 0 0 1-.361-.1l-5.645-3.259a.724.724 0 1 1 .724-1.254l5.645 3.259a.724.724 0 0 1-.363 1.352z" class="cls-1" data-name="Path 2570" transform="translate(-1060.175 -184.974)"/>
            </g>
            <g id="Group_3759" data-name="Group 3759" transform="translate(16.417)">
                <path id="Path_2571" d="M1079.047 131.843h-3.862a.724.724 0 0 1-.627-.362l-1.931-3.346a.721.721 0 0 1 0-.724l1.931-3.346a.724.724 0 0 1 .627-.362h3.862a.724.724 0 0 1 .627.362l1.931 3.346a.721.721 0 0 1 0 .724l-1.931 3.346a.724.724 0 0 1-.627.362zm-3.444-1.448h3.026l1.513-2.621-1.513-2.621h-3.029l-1.513 2.621z" class="cls-1" data-name="Path 2571" transform="translate(-1072.529 -123.704)"/>
            </g>
            <g id="Group_3760" data-name="Group 3760" transform="translate(16.417 37.662)">
                <path id="Path_2572" d="M1079.047 197.291h-3.862a.724.724 0 0 1-.627-.362l-1.931-3.346a.721.721 0 0 1 0-.724l1.931-3.346a.724.724 0 0 1 .627-.362h3.862a.724.724 0 0 1 .627.362l1.931 3.346a.721.721 0 0 1 0 .724l-1.931 3.346a.724.724 0 0 1-.627.362zm-3.444-1.448h3.026l1.513-2.621-1.513-2.621h-3.029l-1.513 2.621z" class="cls-1" data-name="Path 2572" transform="translate(-1072.529 -189.152)"/>
            </g>
            <g id="Group_3761" data-name="Group 3761" transform="translate(32.834 9.657)">
                <path id="Path_2573" d="M1107.576 148.625h-3.863a.725.725 0 0 1-.627-.362l-1.931-3.345a.725.725 0 0 1 0-.724l1.931-3.345a.725.725 0 0 1 .627-.362h3.863a.725.725 0 0 1 .627.362l1.931 3.345a.725.725 0 0 1 0 .724l-1.931 3.345a.725.725 0 0 1-.627.362zm-3.445-1.448h3.026l1.513-2.621-1.513-2.621h-3.026l-1.513 2.621z" class="cls-1" data-name="Path 2573" transform="translate(-1101.057 -140.486)"/>
            </g>
            <g id="Group_3762" data-name="Group 3762" transform="translate(32.834 28.971)">
                <path id="Path_2574" d="M1107.576 182.188h-3.863a.725.725 0 0 1-.627-.363l-1.931-3.345a.725.725 0 0 1 0-.725l1.931-3.345a.725.725 0 0 1 .627-.362h3.863a.725.725 0 0 1 .627.362l1.931 3.345a.725.725 0 0 1 0 .725l-1.931 3.345a.725.725 0 0 1-.627.363zm-3.445-1.449h3.026l1.513-2.621-1.513-2.621h-3.026l-1.513 2.621z" class="cls-1" data-name="Path 2574" transform="translate(-1101.057 -174.049)"/>
            </g>
            <g id="Group_3763" data-name="Group 3763" transform="translate(0 9.657)">
                <path id="Path_2575" d="M1050.519 148.625h-3.863a.725.725 0 0 1-.627-.362l-1.931-3.345a.725.725 0 0 1 0-.724l1.931-3.345a.725.725 0 0 1 .627-.362h3.863a.724.724 0 0 1 .627.362l1.931 3.345a.724.724 0 0 1 0 .724l-1.931 3.345a.724.724 0 0 1-.627.362zm-3.445-1.448h3.026l1.513-2.621-1.513-2.621h-3.026l-1.513 2.621z" class="cls-1" data-name="Path 2575" transform="translate(-1044 -140.486)"/>
            </g>
            <g id="Group_3764" data-name="Group 3764" transform="translate(0 28.971)">
                <path id="Path_2576" d="M1050.519 182.188h-3.863a.725.725 0 0 1-.627-.363l-1.931-3.345a.725.725 0 0 1 0-.725l1.931-3.345a.725.725 0 0 1 .627-.362h3.863a.724.724 0 0 1 .627.362l1.931 3.345a.724.724 0 0 1 0 .725l-1.931 3.345a.725.725 0 0 1-.627.363zm-3.445-1.449h3.026l1.513-2.621-1.513-2.618h-3.026l-1.513 2.621z" class="cls-1" data-name="Path 2576" transform="translate(-1044 -174.049)"/>
            </g>
            <g id="Group_3765" data-name="Group 3765" transform="translate(6.855 9.279)">
                <path id="Path_2577" d="M1056.637 158.418a.725.725 0 0 1-.627-1.086l9.9-17.14a.724.724 0 1 1 1.254.724l-9.9 17.14a.723.723 0 0 1-.627.362z" class="cls-1" data-name="Path 2577" transform="translate(-1055.913 -139.829)"/>
            </g>
            <g id="Group_3766" data-name="Group 3766" transform="translate(23.325 9.279)">
                <path id="Path_2578" d="M1095.358 158.772a.723.723 0 0 1-.627-.363l-10.1-17.494a.724.724 0 1 1 1.254-.724l10.1 17.494a.724.724 0 0 1-.627 1.086z" class="cls-1" data-name="Path 2578" transform="translate(-1084.533 -139.829)"/>
            </g>
            <g id="Group_3767" data-name="Group 3767" transform="translate(10.01 32.558)">
                <path id="Path_2579" d="M1082.716 181.73h-20.6a.724.724 0 1 1 0-1.448h20.6a.724.724 0 1 1 0 1.448z" class="cls-1" data-name="Path 2579" transform="translate(-1061.395 -180.282)"/>
            </g>
        </g>
    </g>
</svg>
