<svg xmlns="http://www.w3.org/2000/svg" width="1440" height="157.589" viewBox="0 0 1440 157.589">
    <defs>
        <style>
            .cls-1{fill:#24216d;opacity:.038}
        </style>
    </defs>
    <path id="Path_2551" d="M164.921-78.133a82.874 82.874 0 0 1-5.768 31.116 74.994 74.994 0 0 1-16.246 25.03 74.5 74.5 0 0 1-25.241 16.669A85.839 85.839 0 0 1 84.909.715 86.241 86.241 0 0 1 52.1-5.318a74.955 74.955 0 0 1-25.347-16.669 74.588 74.588 0 0 1-16.3-25.03 82.874 82.874 0 0 1-5.767-31.116 82.874 82.874 0 0 1 5.768-31.116 74.014 74.014 0 0 1 16.3-24.977A75.357 75.357 0 0 1 52.1-150.842a86.241 86.241 0 0 1 32.809-6.033 85.181 85.181 0 0 1 32.756 6.086 75.551 75.551 0 0 1 25.242 16.669 74.415 74.415 0 0 1 16.246 24.977 82.587 82.587 0 0 1 5.768 31.01zm-36.619 0a66.672 66.672 0 0 0-2.963-20.585 43.6 43.6 0 0 0-8.52-15.5 36.743 36.743 0 0 0-13.6-9.737 46.806 46.806 0 0 0-18.31-3.387 47.493 47.493 0 0 0-18.468 3.387 36.65 36.65 0 0 0-13.653 9.737 43.6 43.6 0 0 0-8.52 15.5 66.671 66.671 0 0 0-2.963 20.585 67.048 67.048 0 0 0 2.963 20.691 43.6 43.6 0 0 0 8.52 15.5 36.136 36.136 0 0 0 13.653 9.684 48.158 48.158 0 0 0 18.468 3.334 47.46 47.46 0 0 0 18.31-3.334 36.223 36.223 0 0 0 13.6-9.684 43.6 43.6 0 0 0 8.52-15.5 67.049 67.049 0 0 0 2.961-20.691zm77.048-77.048h28.787a12.8 12.8 0 0 1 7.62 2.117 11.6 11.6 0 0 1 4.233 5.609L275.837-64.9q2.011 5.4 4.075 11.748t3.863 13.335q1.482-6.985 3.44-13.335t3.862-11.748l29.634-82.552a11.916 11.916 0 0 1 4.128-5.345 11.888 11.888 0 0 1 7.514-2.381h29L299.544-.979h-32.386zm310.31 0v27.517h-63.29v35.984h48.473v26.459h-48.472V-28.5h63.29V-.979h-99.274v-154.2zm98.427 97.157V-.979h-35.772v-154.2h50.166q16.722 0 28.523 3.44t19.262 9.578a36.252 36.252 0 0 1 10.848 14.5 48.037 48.037 0 0 1 3.387 18.2 48.869 48.869 0 0 1-2.011 14.182 42.944 42.944 0 0 1-5.98 12.33 46.276 46.276 0 0 1-9.737 10.107 51.7 51.7 0 0 1-13.282 7.3 33.624 33.624 0 0 1 6.721 4.445 26.45 26.45 0 0 1 5.451 6.456L704.471-.979h-32.385q-9 0-12.912-6.773l-25.612-44.769a10.782 10.782 0 0 0-3.969-4.233 13.28 13.28 0 0 0-6.4-1.27zm0-24.66h14.394a36.8 36.8 0 0 0 12.436-1.852 22.47 22.47 0 0 0 8.414-5.133 19.548 19.548 0 0 0 4.763-7.673 29.45 29.45 0 0 0 1.482-9.472q0-10.16-6.615-15.875t-20.48-5.711h-14.393zm134.623-72.5h28.79a12.8 12.8 0 0 1 7.62 2.117 11.6 11.6 0 0 1 4.233 5.609L819.2-64.9q2.011 5.4 4.075 11.748t3.863 13.335q1.482-6.985 3.44-13.335t3.86-11.748l29.634-82.552a11.916 11.916 0 0 1 4.128-5.348 11.888 11.888 0 0 1 7.514-2.381h29L842.9-.979h-32.381zm250.2 154.2h-35.988v-154.2h35.984zm170.184-154.2v27.517H1105.8v35.987h48.473v26.459H1105.8V-28.5h63.29V-.979h-99.274v-154.2zm51.013 0h30.057a13.553 13.553 0 0 1 7.779 2.117 9.693 9.693 0 0 1 4.075 5.609l21.167 80.435q1.058 3.916 2.117 8.361a75.319 75.319 0 0 1 1.588 9.314q1.059-4.974 2.328-9.366t2.434-8.308l24.977-80.435a11.084 11.084 0 0 1 4.075-5.345 12.112 12.112 0 0 1 7.567-2.381h10.583a13.3 13.3 0 0 1 7.673 2.064 10.613 10.613 0 0 1 4.18 5.662l24.763 80.437q1.164 3.7 2.434 7.885t2.223 8.943q.847-4.657 1.746-8.89t1.852-7.938l21.167-80.435a10.064 10.064 0 0 1 4.022-5.4 12.531 12.531 0 0 1 7.62-2.328h28.152L1397.06-.979h-32.386l-29-95.57q-.741-2.223-1.535-4.868t-1.535-5.609q-.741 2.963-1.535 5.609t-1.535 4.868l-29.419 95.57h-32.386z" class="cls-1" data-name="Path 2551" transform="translate(-4.686 156.875)"/>
</svg>
