<svg xmlns="http://www.w3.org/2000/svg" width="600" height="632" viewBox="0 0 600 632">
    <defs>
        <style>
            .cls-1{fill:#f81894;opacity:.163}
        </style>
    </defs>
    <path id="Path_2736" d="M48.845-44.951v-37.465h19.837c14.5 0 20.69 7.237 20.69 18.732s-6.186 18.732-20.69 18.732zm77.64-18.732c0-27.46-18.343-48.108-55.03-48.108H12.372V37.641h36.473V-16h22.609c38.18 0 55.031-22.991 55.031-47.684zm183.434.426c0 11.708-6.4 18.732-20.05 18.732H267.26v-37.039h22.609c13.651 0 20.05 7.237 20.05 18.306zm-79.133-48.534V37.641h36.474v-56.41H276l31.141 56.41h41.166l-34.549-59.177c23.036-6.812 33.274-24.48 33.274-43.212 0-25.97-18.343-47.043-55.03-47.043zM602.56-37.5c0-44.915-33.914-76.419-76.573-76.419-42.446 0-77 31.5-77 76.419s34.554 76.632 77 76.632S602.56 7.414 602.56-37.5zm-116.246 0c0-26.608 15.357-43.425 39.673-43.425 23.889 0 39.46 16.816 39.46 43.425 0 26.183-15.57 43.425-39.46 43.425-24.316-.001-39.673-17.243-39.673-43.425zM48.845 194.523v-37.464h19.837c14.5 0 20.69 7.237 20.69 18.732s-6.186 18.732-20.69 18.732zm77.64-18.732c0-27.46-18.343-48.108-55.03-48.108H12.372v149.432h36.473v-53.642h22.609c38.18 0 55.031-22.989 55.031-47.682zm251.689 26.183c0-44.915-33.914-76.419-76.573-76.419-42.446 0-77 31.5-77 76.419s34.554 76.632 77 76.632 76.572-31.718 76.572-76.632zm-116.246 0c0-26.608 15.357-43.425 39.673-43.425 23.889 0 39.46 16.816 39.46 43.425 0 26.183-15.571 43.425-39.46 43.425-24.317.001-39.674-17.243-39.674-43.425zm330.608 30.653c0-50.024-74.013-38.316-74.013-64.286 0-9.366 6.612-13.836 15.357-13.623 9.812.213 16.637 5.96 17.277 15.539h39.46c-1.493-28.524-23.462-44.7-56.1-44.7-31.354 0-54.6 15.752-54.6 44.063-.427 53 74.44 38.1 74.44 65.776 0 8.728-6.825 14.049-17.49 14.049-10.238 0-17.49-5.535-18.557-17.029h-38.82c1.066 30.227 26.235 46.192 58.443 46.192 34.979-.003 54.602-20.863 54.602-45.982zm-478 283.964h38.606L98.97 367.158H56.737L2.56 516.59h38.18l8.958-26.4h55.883zM96.2 462.1H59.3l18.34-54.71zm166.69-94.938V516.59h84.252v-28.1h-47.781V367.158zM593.388 472.1c0-50.024-74.014-38.316-74.014-64.286 0-9.366 6.612-13.836 15.357-13.623 9.812.213 16.637 5.96 17.277 15.539h39.46c-1.493-28.524-23.463-44.7-56.1-44.7-31.354 0-54.6 15.752-54.6 44.063-.427 53 74.44 38.1 74.44 65.776 0 8.728-6.825 14.049-17.49 14.049-10.238 0-17.49-5.535-18.557-17.029h-38.82c1.066 30.227 26.235 46.192 58.443 46.192 34.981-.001 54.604-20.862 54.604-45.981z" class="cls-1" data-name="Path 2736" transform="translate(-2.56 113.92)"/>
</svg>
