<svg xmlns="http://www.w3.org/2000/svg" width="1441.2" height="131.299" viewBox="0 0 1441.2 131.299">
    <defs>
        <style>
            .cls-1{fill:#f81894;opacity:.159}
        </style>
    </defs>
    <path id="Path_2550" d="M40.6-45.625v42.943H10.8v-128.477h45.324q13.58 0 23.323 3.219a44.76 44.76 0 0 1 16.053 8.861 34.55 34.55 0 0 1 9.3 13.315 45.144 45.144 0 0 1 3 16.578 48.742 48.742 0 0 1-3.086 17.636 35.39 35.39 0 0 1-9.435 13.756 44.462 44.462 0 0 1-16.093 8.95 73.764 73.764 0 0 1-23.059 3.219zm0-22.486h15.52q11.64 0 16.754-5.555t5.114-15.52a23.21 23.21 0 0 0-1.318-8.024 16.329 16.329 0 0 0-4.012-6.217 18.038 18.038 0 0 0-6.79-4.012 30.033 30.033 0 0 0-9.744-1.411H40.6zm165.424 17.9v47.529h-29.8v-128.477h41.8q13.932 0 23.764 2.866a44.616 44.616 0 0 1 16.049 7.98 30.2 30.2 0 0 1 9.038 12.081 40.022 40.022 0 0 1 2.822 15.167 40.717 40.717 0 0 1-1.675 11.816 35.78 35.78 0 0 1-4.982 10.273 38.556 38.556 0 0 1-8.112 8.421 43.077 43.077 0 0 1-11.066 6.084 28.015 28.015 0 0 1 5.6 3.7A22.037 22.037 0 0 1 254-47.389l27.334 44.707h-26.983q-7.5 0-10.758-5.643l-21.339-37.3a8.983 8.983 0 0 0-3.307-3.527 11.065 11.065 0 0 0-5.335-1.058zm0-20.546h11.992a30.664 30.664 0 0 0 10.366-1.543 18.722 18.722 0 0 0 7.01-4.277 16.287 16.287 0 0 0 3.968-6.393 24.537 24.537 0 0 0 1.234-7.892q0-8.465-5.511-13.227t-17.063-4.762h-11.991zM468.8-66.965A69.048 69.048 0 0 1 464-41.04a62.483 62.483 0 0 1-13.536 20.854A62.071 62.071 0 0 1 429.431-6.3a71.519 71.519 0 0 1-27.291 5.026A71.853 71.853 0 0 1 374.8-6.3a62.45 62.45 0 0 1-21.119-13.888 62.144 62.144 0 0 1-13.58-20.854 69.048 69.048 0 0 1-4.801-25.923 69.048 69.048 0 0 1 4.806-25.925 61.666 61.666 0 0 1 13.58-20.81 62.785 62.785 0 0 1 21.114-13.844 71.853 71.853 0 0 1 27.336-5.026 70.971 70.971 0 0 1 27.291 5.07 62.947 62.947 0 0 1 21.031 13.888A62 62 0 0 1 464-92.8a68.81 68.81 0 0 1 4.8 25.835zm-30.51 0a55.549 55.549 0 0 0-2.469-17.151 36.323 36.323 0 0 0-7.1-12.918 30.613 30.613 0 0 0-11.331-8.112 39 39 0 0 0-15.255-2.822 39.569 39.569 0 0 0-15.387 2.822 30.535 30.535 0 0 0-11.375 8.112 36.323 36.323 0 0 0-7.1 12.918 55.549 55.549 0 0 0-2.469 17.151 55.863 55.863 0 0 0 2.469 17.239 36.323 36.323 0 0 0 7.1 12.918 30.107 30.107 0 0 0 11.375 8.068 40.123 40.123 0 0 0 15.387 2.778 39.542 39.542 0 0 0 15.255-2.778 30.18 30.18 0 0 0 11.331-8.068 36.323 36.323 0 0 0 7.1-12.918 55.863 55.863 0 0 0 2.472-17.239zm127.51 21.34v42.943H536v-128.477h45.324q13.58 0 23.323 3.219a44.759 44.759 0 0 1 16.049 8.862 34.55 34.55 0 0 1 9.3 13.315 45.144 45.144 0 0 1 3 16.578 48.741 48.741 0 0 1-3.086 17.636 35.389 35.389 0 0 1-9.435 13.756 44.462 44.462 0 0 1-16.093 8.95 73.764 73.764 0 0 1-23.059 3.219zm0-22.486h15.52q11.64 0 16.754-5.555t5.114-15.52a23.211 23.211 0 0 0-1.323-8.024 16.328 16.328 0 0 0-4.012-6.217 18.038 18.038 0 0 0-6.79-4.012 30.033 30.033 0 0 0-9.744-1.411H565.8zm262.421 1.146a69.049 69.049 0 0 1-4.806 25.925 62.482 62.482 0 0 1-13.536 20.854A62.071 62.071 0 0 1 788.849-6.3a71.518 71.518 0 0 1-27.291 5.026A71.853 71.853 0 0 1 734.222-6.3 62.45 62.45 0 0 1 713.1-20.186a62.145 62.145 0 0 1-13.58-20.854 69.049 69.049 0 0 1-4.806-25.925 69.049 69.049 0 0 1 4.806-25.925 61.667 61.667 0 0 1 13.58-20.81 62.785 62.785 0 0 1 21.119-13.844 71.853 71.853 0 0 1 27.336-5.026 70.971 70.971 0 0 1 27.291 5.07 62.947 62.947 0 0 1 21.031 13.888A62 62 0 0 1 823.415-92.8a68.81 68.81 0 0 1 4.806 25.835zm-30.51 0a55.547 55.547 0 0 0-2.469-17.151 36.323 36.323 0 0 0-7.1-12.918 30.613 30.613 0 0 0-11.331-8.112 39 39 0 0 0-15.255-2.822 39.57 39.57 0 0 0-15.387 2.822 30.536 30.536 0 0 0-11.375 8.112 36.325 36.325 0 0 0-7.1 12.918 55.549 55.549 0 0 0-2.469 17.151 55.863 55.863 0 0 0 2.475 17.239 36.325 36.325 0 0 0 7.1 12.918 30.108 30.108 0 0 0 11.375 8.068 40.124 40.124 0 0 0 15.387 2.778 39.542 39.542 0 0 0 15.255-2.778 30.181 30.181 0 0 0 11.331-8.068 36.324 36.324 0 0 0 7.1-12.918 55.861 55.861 0 0 0 2.463-17.239zm169.3-38.093a11.192 11.192 0 0 1-2.778 3.174 6.216 6.216 0 0 1-3.748 1.058 9.168 9.168 0 0 1-4.365-1.279q-2.337-1.279-5.291-2.866a43.9 43.9 0 0 0-6.746-2.866 26.989 26.989 0 0 0-8.642-1.279q-8.377 0-12.477 3.571a12.15 12.15 0 0 0-4.1 9.656 8.894 8.894 0 0 0 2.469 6.437 21.286 21.286 0 0 0 6.481 4.409 69.471 69.471 0 0 0 9.171 3.395q5.159 1.543 10.537 3.439a94.237 94.237 0 0 1 10.537 4.453 35.14 35.14 0 0 1 9.171 6.525 30.454 30.454 0 0 1 6.481 9.656 34.332 34.332 0 0 1 2.469 13.712A44.68 44.68 0 0 1 973.1-27.2a39.022 39.022 0 0 1-8.95 13.535 41.545 41.545 0 0 1-14.461 9.082 54.1 54.1 0 0 1-19.532 3.307 62.6 62.6 0 0 1-12.213-1.235 72.53 72.53 0 0 1-12.036-3.483 69.8 69.8 0 0 1-10.934-5.335 46.457 46.457 0 0 1-8.906-6.878l8.818-13.932a7.177 7.177 0 0 1 2.734-2.557 7.744 7.744 0 0 1 3.792-.97 10.038 10.038 0 0 1 5.335 1.675q2.689 1.675 6.084 3.7a49.518 49.518 0 0 0 7.8 3.7 29.261 29.261 0 0 0 10.407 1.691q8.112 0 12.61-3.571t4.5-11.331a10.709 10.709 0 0 0-2.469-7.319 19.074 19.074 0 0 0-6.481-4.673 59.71 59.71 0 0 0-9.127-3.263q-5.114-1.411-10.493-3.13a76.769 76.769 0 0 1-10.493-4.233 33.118 33.118 0 0 1-9.127-6.613 30.948 30.948 0 0 1-6.481-10.229A40.614 40.614 0 0 1 891-94.388a35.882 35.882 0 0 1 2.91-14.109 36.418 36.418 0 0 1 8.553-12.257 42.057 42.057 0 0 1 13.844-8.6 51.13 51.13 0 0 1 18.782-3.219 70.429 70.429 0 0 1 11.507.926 60.491 60.491 0 0 1 10.626 2.734 58.348 58.348 0 0 1 9.391 4.321 43.3 43.3 0 0 1 7.8 5.688zM1163.478-2.682h-23.1a10.679 10.679 0 0 1-6.393-1.808 9.336 9.336 0 0 1-3.483-4.629l-7.584-22.4h-48.851l-7.583 22.4a9.929 9.929 0 0 1-3.439 4.453 9.9 9.9 0 0 1-6.261 1.984H1033.5l49.733-128.477h30.51zM1080.942-51.8h35.1l-11.816-35.183q-1.146-3.351-2.689-7.892t-3.042-9.832q-1.411 5.379-2.91 9.964t-2.822 7.936zm175.653 25.31h47.617v23.808h-77.421v-128.477h29.8zm186.234-78.568a11.2 11.2 0 0 1-2.778 3.174 6.216 6.216 0 0 1-3.748 1.058 9.167 9.167 0 0 1-4.365-1.279q-2.337-1.279-5.291-2.866a43.911 43.911 0 0 0-6.746-2.866 26.988 26.988 0 0 0-8.641-1.279q-8.377 0-12.477 3.571a12.151 12.151 0 0 0-4.1 9.656 8.894 8.894 0 0 0 2.469 6.437 21.287 21.287 0 0 0 6.481 4.409 69.468 69.468 0 0 0 9.171 3.395q5.158 1.543 10.537 3.439a94.238 94.238 0 0 1 10.537 4.453 35.138 35.138 0 0 1 9.171 6.525 30.456 30.456 0 0 1 6.481 9.656 34.33 34.33 0 0 1 2.47 13.713 44.68 44.68 0 0 1-3.086 16.666 39.021 39.021 0 0 1-8.95 13.535 41.543 41.543 0 0 1-14.464 9.083 54.1 54.1 0 0 1-19.532 3.307 62.6 62.6 0 0 1-12.213-1.235 72.523 72.523 0 0 1-12.036-3.483 69.8 69.8 0 0 1-10.934-5.335 46.457 46.457 0 0 1-8.906-6.878l8.818-13.932a7.177 7.177 0 0 1 2.734-2.557 7.744 7.744 0 0 1 3.792-.97 10.038 10.038 0 0 1 5.335 1.675q2.689 1.675 6.084 3.7a49.517 49.517 0 0 0 7.8 3.7 29.261 29.261 0 0 0 10.405 1.675q8.112 0 12.61-3.571t4.5-11.331a10.709 10.709 0 0 0-2.469-7.319 19.075 19.075 0 0 0-6.481-4.673 59.716 59.716 0 0 0-9.126-3.263q-5.115-1.411-10.493-3.13a76.762 76.762 0 0 1-10.493-4.233 33.116 33.116 0 0 1-9.126-6.613 30.947 30.947 0 0 1-6.481-10.229 40.615 40.615 0 0 1-2.469-15.123 35.885 35.885 0 0 1 2.91-14.109 36.421 36.421 0 0 1 8.553-12.257 42.057 42.057 0 0 1 13.844-8.6 51.129 51.129 0 0 1 18.782-3.219 70.432 70.432 0 0 1 11.507.926 60.493 60.493 0 0 1 10.625 2.734 58.345 58.345 0 0 1 9.391 4.321 43.292 43.292 0 0 1 7.8 5.688z" class="cls-1" data-name="Path 2550" transform="translate(-10.8 132.57)"/>
</svg>
