<svg xmlns="http://www.w3.org/2000/svg" id="streamline-icon-information-desk-ticket_60x60" width="60" height="60" data-name="streamline-icon-information-desk-ticket@60x60" viewBox="0 0 60 60">
    <defs>
        <style>
            .cls-1{fill:none;stroke:#27216e;stroke-linecap:round;stroke-linejoin:round;stroke-width:2.5px}
        </style>
    </defs>
    <path id="Path_5141" d="M45 1.25a6.25 6.25 0 1 1-6.25 6.25A6.249 6.249 0 0 1 45 1.25z" class="cls-1" data-name="Path 5141"/>
    <path id="Path_5142" d="M12.5 1.25A6.25 6.25 0 1 1 6.25 7.5a6.249 6.249 0 0 1 6.25-6.25z" class="cls-1" data-name="Path 5142"/>
    <path id="Path_5143" d="M46.25 55V42.5" class="cls-1" data-name="Path 5143"/>
    <path id="Path_5144" d="M22.5 35a3.751 3.751 0 0 0 3.75 3.75c9.885 0 10.653-8.86 12.5-11.528V55a3.75 3.75 0 0 0 7.5 0 3.75 3.75 0 0 0 7.5 0V41.25h2.5a2.5 2.5 0 0 0 2.5-2.5v-12.5a7.5 7.5 0 0 0-7.5-7.5h-9.98a11.248 11.248 0 0 0-11.077 9.267l-.048.292a3.809 3.809 0 0 1-3.895 2.94A3.751 3.751 0 0 0 22.5 35z" class="cls-1" data-name="Path 5144"/>
    <path id="Path_5145" d="M53.75 41.25V27.5" class="cls-1" data-name="Path 5145"/>
    <path id="Path_5146" d="M1.25 28.75v-2.5a7.5 7.5 0 0 1 7.5-7.5h8.907a5 5 0 0 0 3.843-1.8l5.085-6.1" class="cls-1" data-name="Path 5146"/>
    <path id="Path_5147" d="M18.75 38.75H2.5a1.25 1.25 0 0 1-1.25-1.25V35a1.25 1.25 0 0 1 1.25-1.25h15" class="cls-1" data-name="Path 5147"/>
    <path id="Path_5148" d="M6.25 38.75v20" class="cls-1" data-name="Path 5148"/>
    <path id="Path_5149" d="M32.5 11.25h-5A1.25 1.25 0 0 1 26.25 10V2.5a1.25 1.25 0 0 1 1.25-1.25h5a1.25 1.25 0 0 1 1.25 1.25V10a1.25 1.25 0 0 1-1.25 1.25z" class="cls-1" data-name="Path 5149"/>
</svg>
