<svg xmlns="http://www.w3.org/2000/svg" width="1441.2" height="653.627" viewBox="0 0 1441.2 653.627">
    <defs>
        <style>
            .cls-1{fill:#24216d;opacity:.038}
        </style>
    </defs>
    <path id="Path_2552" d="M173.518-103.58a23.78 23.78 0 0 1-5.9 6.744 13.205 13.205 0 0 1-7.962 2.248 19.477 19.477 0 0 1-9.273-2.716q-4.964-2.716-11.24-6.088a93.276 93.276 0 0 0-14.331-6.089 57.339 57.339 0 0 0-18.362-2.719q-17.8 0-26.509 7.587T71.23-84.1a18.9 18.9 0 0 0 5.246 13.676 45.222 45.222 0 0 0 13.769 9.367 147.6 147.6 0 0 0 19.483 7.213q10.959 3.278 22.387 7.306a200.207 200.207 0 0 1 22.385 9.463 74.656 74.656 0 0 1 19.483 13.863A64.7 64.7 0 0 1 187.755-2.7Q193 9.386 193 26.434a94.923 94.923 0 0 1-6.557 35.407A82.9 82.9 0 0 1 167.429 90.6a88.26 88.26 0 0 1-30.724 19.3q-18.266 7.025-41.5 7.025a133 133 0 0 1-25.942-2.625 154.09 154.09 0 0 1-25.572-7.4 148.29 148.29 0 0 1-23.23-11.334A98.7 98.7 0 0 1 1.54 80.949l18.734-29.6a15.247 15.247 0 0 1 5.808-5.433 16.453 16.453 0 0 1 8.056-2.061 21.326 21.326 0 0 1 11.334 3.559q5.714 3.559 12.926 7.868a105.2 105.2 0 0 0 16.58 7.868q9.367 3.559 22.106 3.559 17.235 0 26.79-7.587t9.554-24.073q0-9.554-5.246-15.549a40.524 40.524 0 0 0-13.769-9.929 126.866 126.866 0 0 0-19.39-6.932q-10.866-3-22.293-6.651A163.1 163.1 0 0 1 50.436-13a70.357 70.357 0 0 1-19.39-14.05 65.749 65.749 0 0 1-13.769-21.733Q12.031-61.8 12.031-80.912a76.234 76.234 0 0 1 6.182-29.974 77.374 77.374 0 0 1 18.172-26.04A89.351 89.351 0 0 1 65.8-155.192q17.423-6.838 39.9-6.838a149.632 149.632 0 0 1 24.448 1.967 128.516 128.516 0 0 1 22.574 5.808 123.967 123.967 0 0 1 19.952 9.18 91.992 91.992 0 0 1 16.58 12.083zm309.3 146.874a12.728 12.728 0 0 1 4.5.843 12.222 12.222 0 0 1 4.309 2.9l25.1 26.415a104.214 104.214 0 0 1-41.308 32.5q-24.822 10.959-58.731 10.959-31.1 0-55.733-10.585a120.615 120.615 0 0 1-41.777-29.225A128.7 128.7 0 0 1 292.853 32.9q-9.18-25.572-9.18-55.546 0-30.536 10.491-56.108a130.866 130.866 0 0 1 29.319-44.118 132.242 132.242 0 0 1 45.055-28.85q26.228-10.3 57.888-10.3a147.45 147.45 0 0 1 28.944 2.716 141.465 141.465 0 0 1 25.385 7.494 119.423 119.423 0 0 1 21.731 11.428 104.748 104.748 0 0 1 17.61 14.706l-21.357 28.655a27.192 27.192 0 0 1-4.871 4.777q-2.81 2.154-7.868 2.154a14.053 14.053 0 0 1-6.37-1.5 70.409 70.409 0 0 1-6.37-3.653q-3.372-2.154-7.4-4.683a56.782 56.782 0 0 0-9.554-4.683 78.957 78.957 0 0 0-12.926-3.653 88.2 88.2 0 0 0-17.329-1.5 79.239 79.239 0 0 0-31.473 6.089 69.005 69.005 0 0 0-24.448 17.424 80.8 80.8 0 0 0-15.924 27.445q-5.714 16.111-5.714 36.157 0 20.982 5.714 37.281a81.865 81.865 0 0 0 15.549 27.445A65.982 65.982 0 0 0 392.7 59.031a68.614 68.614 0 0 0 28.1 5.808A134.51 134.51 0 0 0 436.542 64a64.949 64.949 0 0 0 13.207-2.9 61.09 61.09 0 0 0 11.615-5.339 77.534 77.534 0 0 0 11.147-8.161 22.151 22.151 0 0 1 4.871-3.091 12.762 12.762 0 0 1 5.433-1.215zm375.99 70.627h-63.7V-1.48h-110.9v115.4h-63.7v-272.953h63.7v114.09h110.9v-114.09h63.7zm295.622-272.954v48.708H1042.4v63.7h85.8V.206h-85.8v65.007h112.029v48.708H978.7v-272.954zM545.384 352.03q0 29.6-10.21 54.609a127.761 127.761 0 0 1-28.757 43.275 130.426 130.426 0 0 1-44.68 28.476Q435.6 488.6 403.755 488.6H297.721V215.646h106.034q31.848 0 57.982 10.3a132.3 132.3 0 0 1 44.68 28.476 126.765 126.765 0 0 1 28.757 43.182q10.21 25.013 10.21 54.426zm-64.819 0a118.914 118.914 0 0 0-5.246-36.531 78.046 78.046 0 0 0-15.081-27.633 65.49 65.49 0 0 0-24.073-17.423q-14.238-6.089-32.41-6.089h-42.339v175.538h42.339q18.172 0 32.41-6.089a65.49 65.49 0 0 0 24.073-17.423 78.045 78.045 0 0 0 15.081-27.633q5.245-16.297 5.245-36.717zM764.2 438.58a58.237 58.237 0 0 0 22.762-4.215 46.038 46.038 0 0 0 16.954-12.083 53.41 53.41 0 0 0 10.585-19.2 83.853 83.853 0 0 0 3.653-25.759V215.646h63.321V377.32q0 25.1-8.149 46.086A103.377 103.377 0 0 1 850 459.562a105.245 105.245 0 0 1-36.906 23.6q-21.731 8.43-48.9 8.43-27.351 0-49.083-8.43a105.246 105.246 0 0 1-36.906-23.6 102.292 102.292 0 0 1-23.23-36.156q-8.056-20.982-8.056-46.086V215.646h63.321v161.487a83.854 83.854 0 0 0 3.653 25.759 54.377 54.377 0 0 0 10.585 19.3 45.557 45.557 0 0 0 16.954 12.177 58.236 58.236 0 0 0 22.768 4.211zm296.746-.562h101.163V488.6H997.621V215.646h63.321zm381.8-222.372v48.708h-112.035v63.7h85.8v46.835h-85.8v65.007h112.029V488.6h-175.724V215.646z" class="cls-1" data-name="Path 2552" transform="translate(-1.54 162.03)"/>
</svg>
