<svg xmlns="http://www.w3.org/2000/svg" width="1440" height="152.609" viewBox="0 0 1440 152.609">
    <defs>
        <style>
            .cls-1{fill:#27216e;opacity:.04}
        </style>
    </defs>
    <path id="Path_4324" d="M119.256-40.1a41.031 41.031 0 0 1-6 21.681q-6 9.893-17.682 15.787t-28.31 5.897q-25.049 0-41.257-12.209t-17.682-34.1h38.31q.842 8.42 6 13.261a18.455 18.455 0 0 0 13.155 4.842q6.946 0 10.946-3.789a13.263 13.263 0 0 0 4-10.1 13.046 13.046 0 0 0-3.684-9.472 28.884 28.884 0 0 0-9.157-6.21Q62.422-56.936 52.74-60.3a186.086 186.086 0 0 1-23.05-9.371 42.453 42.453 0 0 1-15.366-13.472Q7.9-92.089 7.9-106.4q0-13.261 6.736-22.944a42.818 42.818 0 0 1 18.629-14.84q11.893-5.157 27.259-5.157 24.838 0 39.468 11.788t16.528 32.413H77.578q-1.053-7.367-5.368-11.682t-11.682-4.315q-6.315 0-10.209 3.368t-3.894 9.893A12.564 12.564 0 0 0 49.9-98.93a26.467 26.467 0 0 0 8.736 6q5.262 2.315 15.156 5.894a166.59 166.59 0 0 1 23.362 9.576 44.7 44.7 0 0 1 15.577 13.787q6.525 9.052 6.525 23.573zm114.931-10.311v52.2h-35.995v-148.82H256.5q26.522 0 40.415 13.156T310.807-98.4a48.866 48.866 0 0 1-6.21 24.733 43.052 43.052 0 0 1-18.418 17.05q-12.209 6.21-29.68 6.21zM252.5-79.249q21.681 0 21.681-19.155 0-19.576-21.681-19.576h-18.313v38.731zM423.422-118.4v31.153h50.308v27.154h-50.308v33.048h56.623V1.792h-92.618v-148.82h92.618v28.628zM651.6-25.362h-55.782l-9.262 27.154h-37.889l54.518-147.768h41.468L699.171 1.792h-38.31zm-9.262-27.365l-18.524-54.729-18.734 54.729zM842.1-74.2l59.989 75.992h-43.573L808-64.935V1.792h-36v-148.82h36v65.464l50.94-65.464h43.152zm170.08-44.2v31.153h50.308v27.154h-50.308v33.048h56.62V1.792h-92.617v-148.82h92.617v28.628zM1224.568 1.792l-32.206-56.2h-8.209v56.2h-35.995v-148.82h61.465q17.682 0 29.89 6.1t18.313 16.734a47.94 47.94 0 0 1 6.1 24.312q0 16.208-8.946 27.575t-26 15.577l35.363 58.518zm-40.415-80.83h22.313q10.735 0 15.787-4.736t5.052-14q0-8.841-5.157-13.893t-15.682-5.052h-22.313zM1447.9-40.1a41.03 41.03 0 0 1-6 21.681q-6 9.893-17.682 15.787t-28.312 5.894q-25.049 0-41.257-12.209t-17.682-34.1h38.31q.842 8.42 6 13.261a18.454 18.454 0 0 0 13.156 4.842q6.946 0 10.946-3.789a13.264 13.264 0 0 0 4-10.1 13.046 13.046 0 0 0-3.684-9.472 28.883 28.883 0 0 0-9.157-6.21q-5.473-2.421-15.156-5.789a186.091 186.091 0 0 1-23.049-9.367 42.454 42.454 0 0 1-15.366-13.472q-6.42-8.946-6.42-23.26 0-13.261 6.736-22.944a42.818 42.818 0 0 1 18.629-14.84q11.893-5.157 27.259-5.157 24.839 0 39.468 11.788t16.524 32.416h-38.942q-1.052-7.367-5.368-11.682t-11.683-4.315q-6.315 0-10.209 3.368t-3.894 9.893a12.564 12.564 0 0 0 3.473 8.946 26.467 26.467 0 0 0 8.736 6q5.262 2.315 15.156 5.894a166.585 166.585 0 0 1 23.368 9.576 44.7 44.7 0 0 1 15.577 13.787q6.523 9.052 6.523 23.573z" class="cls-1" data-name="Path 4324" transform="translate(-7.904 149.344)"/>
</svg>
