<svg xmlns="http://www.w3.org/2000/svg" width="214" height="60" viewBox="0 0 214 60">
    <defs>
        <style>
            .cls-1{opacity:.403}.cls-2{fill:#27216e}.cls-3{fill:none}
        </style>
    </defs>
    <g id="Group_4011" data-name="Group 4011" transform="translate(-602 -4218)">
        <g id="Group_3732" class="cls-1" data-name="Group 3732" transform="translate(609 4229)">
            <g id="Group_3731" data-name="Group 3731">
                <g id="Group_3730" data-name="Group 3730">
                    <g id="Group_3728" data-name="Group 3728" transform="translate(87.937)">
                        <path id="Path_2502" d="M735.89 512.878h4.775v23.138h-.334a4.441 4.441 0 0 1-4.441-4.441zm-40.281 23.541a12.547 12.547 0 0 1-8.967-1.484 11.788 11.788 0 0 1-5.714-7.085 12.235 12.235 0 0 1 8.4-15.081 11.721 11.721 0 0 1 9.063 1.147c4.78 2.67 6.521 6.8 6.217 12.125L685.359 526a7.367 7.367 0 0 0 8.841 5.748 10.645 10.645 0 0 0 4.489-3.433l3.922 2.857a9.909 9.909 0 0 1-7.002 5.246zm3.644-14.738a5.736 5.736 0 0 0-3.1-3.759c-4.139-2.314-8.213-.344-10.108 3.739zm65.4 1.351a5.433 5.433 0 0 0-2.146-4.5 7.6 7.6 0 0 0-4.859-1.534c-4.323 0-7.1 3.381-7.1 7.547a7.1 7.1 0 0 0 7.052 7.355c2.859 0 4.389-1.671 6.021-3.751v6a13.2 13.2 0 0 1-2.765 1.7 9.49 9.49 0 0 1-3.678.642c-6.875 0-11.411-5.7-11.411-12.279a11.517 11.517 0 0 1 3.163-8.352 11.717 11.717 0 0 1 8.785-3.452c6.828 0 11.711 3.919 11.711 11v12.606h-.336a4.441 4.441 0 0 1-4.441-4.441zm-24.273-12.9a2.688 2.688 0 0 1-2.1.819 2.735 2.735 0 0 1-2.81-2.836 2.663 2.663 0 0 1 2.81-2.789 2.735 2.735 0 0 1 2.815 2.789 2.931 2.931 0 0 1-.719 2.019zm-13.49 22.828a11.03 11.03 0 0 1-8.437 3.528 11.257 11.257 0 0 1-8.791-3.748 12.839 12.839 0 0 1-3.154-8.861 11.267 11.267 0 0 1 11.173-11.474 13.4 13.4 0 0 1 6.719 1.695v5.173a11.412 11.412 0 0 0-6.021-2.28c-4.45 0-7.1 3.064-7.1 7.406 0 4.287 2.8 7.5 7.193 7.5a6.262 6.262 0 0 0 4.932-2.245c1.3-1.492 1.976-3.681 1.976-6.624v-16.1a4.443 4.443 0 0 1 4.444-4.441h.333v21.291a12.945 12.945 0 0 1-3.272 9.182zm-51.724.17a10.7 10.7 0 0 1-7.884 3.358 12.7 12.7 0 0 1-6.707-1.749v-5.119a11.379 11.379 0 0 0 6.02 2.28c4.451 0 7.1-3.064 7.1-7.4s-2.742-7.5-7.195-7.5a6.168 6.168 0 0 0-4.861 2.148c-1.349 1.555-2.047 3.773-2.047 6.707v20.223h-.336a4.443 4.443 0 0 1-4.441-4.442V525.09c0-7.017 4.291-12.683 11.664-12.683a11.32 11.32 0 0 1 8.84 3.744 12.742 12.742 0 0 1 3.153 8.862 11.137 11.137 0 0 1-3.311 8.118z" class="cls-2" data-name="Path 2502" transform="translate(-654.811 -502.495)"/>
                    </g>
                    <g id="Group_3729" data-name="Group 3729">
                        <path id="Path_2503" d="M631.68 519.064a6.656 6.656 0 0 0-5.044-2.07c-4.4 0-7.027 3.206-7.027 7.455 0 4.189 2.694 7.451 7.027 7.451s7.03-3.263 7.03-7.451a7.452 7.452 0 0 0-1.986-5.385zm47 0a6.664 6.664 0 0 0-5.045-2.07c-4.4 0-7.028 3.206-7.028 7.455 0 4.189 2.7 7.451 7.028 7.451s7.028-3.263 7.028-7.451a7.456 7.456 0 0 0-1.988-5.385zm3.447 14.027a12.251 12.251 0 0 1-16.938 0 11.47 11.47 0 0 1-3.547-8.642 12.052 12.052 0 0 1 20.462-8.622 12.241 12.241 0 0 1 .023 17.264zm-24.659-14.644q-1.052 1.762-1.627 2.526a6.515 6.515 0 0 1-1.249 1.3c3.321 1.075 4.557 3.374 4.557 6.8v6.942h-.336a4.441 4.441 0 0 1-4.443-4.441v-2.03c0-2.219-.994-3.725-3.345-3.725h-4.339v10.2h-.334a4.441 4.441 0 0 1-4.443-4.441v-24.642a4.443 4.443 0 0 1 4.443-4.441h.334v18.689h1.412a3.323 3.323 0 0 0 3.156-1.532l4.012-6.773h5.444zm-22.338 14.644a12.251 12.251 0 0 1-16.937 0 11.467 11.467 0 0 1-3.55-8.642 12.053 12.053 0 0 1 20.464-8.622 12.247 12.247 0 0 1 .024 17.264zm-27.745 2.925c-4.67 0-6.989-3.177-6.989-7.615v-16.838a4.442 4.442 0 0 1 4.442-4.442h.335v5.758h8.07v4.59h-8.07v11.464c0 1.95.871 2.5 2.733 2.5h5.338v4.586z" class="cls-2" data-name="Path 2503" transform="translate(-600.395 -502.495)"/>
                    </g>
                </g>
            </g>
        </g>
        <path id="Rectangle_4320" d="M0 0h214v60H0z" class="cls-3" data-name="Rectangle 4320" transform="translate(602 4218)"/>
    </g>
</svg>
