<svg width="345" height="376" viewBox="0 0 345 376" fill="none" xmlns="http://www.w3.org/2000/svg">
<path d="M82.8662 313.408H87.5537L80.1855 335H75.9229L68.6279 313.408H73.4473L78.1348 329.8L82.8662 313.408ZM92.9443 319.033V328.657C92.9443 329.565 93.0518 330.249 93.2666 330.708C93.6475 331.519 94.3945 331.924 95.5078 331.924C96.9336 331.924 97.9102 331.348 98.4375 330.195C98.7109 329.57 98.8477 328.745 98.8477 327.72V319.033H103.081V335H99.0234V332.744C98.9844 332.793 98.8867 332.939 98.7305 333.184C98.5742 333.428 98.3887 333.643 98.1738 333.828C97.5195 334.414 96.8848 334.814 96.2695 335.029C95.6641 335.244 94.9512 335.352 94.1309 335.352C91.7676 335.352 90.1758 334.502 89.3555 332.803C88.8965 331.865 88.667 330.483 88.667 328.657V319.033H92.9443ZM113.423 322.051C112.456 322.051 111.704 322.354 111.167 322.959C110.64 323.564 110.308 324.385 110.171 325.42H116.66C116.592 324.316 116.255 323.481 115.649 322.915C115.054 322.339 114.312 322.051 113.423 322.051ZM113.423 318.608C114.751 318.608 115.947 318.857 117.012 319.355C118.076 319.854 118.955 320.64 119.648 321.714C120.273 322.661 120.679 323.76 120.864 325.01C120.972 325.742 121.016 326.797 120.996 328.174H110.068C110.127 329.775 110.63 330.898 111.577 331.543C112.153 331.943 112.847 332.144 113.657 332.144C114.517 332.144 115.215 331.899 115.752 331.411C116.045 331.147 116.304 330.781 116.528 330.312H120.791C120.684 331.26 120.19 332.222 119.312 333.198C117.944 334.751 116.03 335.527 113.569 335.527C111.538 335.527 109.746 334.873 108.193 333.564C106.641 332.256 105.864 330.127 105.864 327.178C105.864 324.414 106.562 322.295 107.959 320.82C109.365 319.346 111.187 318.608 113.423 318.608ZM136.89 317.158V321.919H142.192C143.14 321.919 143.906 321.743 144.492 321.392C145.088 321.03 145.386 320.396 145.386 319.487C145.386 318.481 144.995 317.817 144.214 317.495C143.54 317.271 142.681 317.158 141.636 317.158H136.89ZM136.89 325.493V331.25H142.192C143.14 331.25 143.877 331.123 144.404 330.869C145.361 330.4 145.84 329.502 145.84 328.174C145.84 327.051 145.376 326.279 144.448 325.859C143.931 325.625 143.203 325.503 142.266 325.493H136.89ZM143.071 313.408C145.718 313.447 147.593 314.214 148.696 315.708C149.36 316.626 149.692 317.725 149.692 319.004C149.692 320.322 149.36 321.382 148.696 322.183C148.325 322.632 147.778 323.042 147.056 323.413C148.159 323.813 148.989 324.448 149.546 325.317C150.112 326.187 150.396 327.241 150.396 328.481C150.396 329.761 150.073 330.908 149.429 331.924C149.019 332.598 148.506 333.164 147.891 333.623C147.197 334.15 146.377 334.512 145.43 334.707C144.492 334.902 143.472 335 142.368 335H132.583V313.408H143.071ZM162.656 327.236C162.393 327.402 162.124 327.539 161.851 327.646C161.587 327.744 161.221 327.837 160.752 327.925L159.814 328.101C158.936 328.257 158.306 328.447 157.925 328.672C157.28 329.053 156.958 329.644 156.958 330.444C156.958 331.157 157.153 331.675 157.544 331.997C157.944 332.31 158.428 332.466 158.994 332.466C159.893 332.466 160.718 332.202 161.47 331.675C162.231 331.147 162.627 330.186 162.656 328.789V327.236ZM160.122 325.288C160.894 325.19 161.445 325.068 161.777 324.922C162.373 324.668 162.671 324.272 162.671 323.735C162.671 323.081 162.441 322.632 161.982 322.388C161.533 322.134 160.869 322.007 159.99 322.007C159.004 322.007 158.306 322.251 157.896 322.739C157.603 323.101 157.407 323.589 157.31 324.204H153.281C153.369 322.808 153.76 321.66 154.453 320.762C155.557 319.355 157.451 318.652 160.137 318.652C161.885 318.652 163.438 318.999 164.795 319.692C166.152 320.386 166.831 321.694 166.831 323.618V330.942C166.831 331.45 166.841 332.065 166.86 332.788C166.89 333.335 166.973 333.706 167.109 333.901C167.246 334.097 167.451 334.258 167.725 334.385V335H163.184C163.057 334.678 162.969 334.375 162.92 334.092C162.871 333.809 162.832 333.486 162.803 333.125C162.227 333.75 161.562 334.282 160.811 334.722C159.912 335.239 158.896 335.498 157.764 335.498C156.318 335.498 155.122 335.088 154.175 334.268C153.237 333.438 152.769 332.266 152.769 330.752C152.769 328.789 153.525 327.368 155.039 326.489C155.869 326.011 157.09 325.669 158.701 325.464L160.122 325.288ZM179.399 318.652C181.05 318.652 182.397 319.087 183.442 319.956C184.497 320.815 185.024 322.246 185.024 324.248V335H180.747V325.288C180.747 324.448 180.635 323.804 180.41 323.354C180 322.534 179.219 322.124 178.066 322.124C176.65 322.124 175.679 322.725 175.151 323.926C174.878 324.561 174.741 325.371 174.741 326.357V335H170.581V319.062H174.609V321.392C175.146 320.571 175.654 319.98 176.133 319.619C176.992 318.975 178.081 318.652 179.399 318.652ZM195.747 331.572C196.724 331.572 197.549 331.206 198.223 330.474C198.896 329.731 199.233 328.555 199.233 326.943C199.233 325.43 198.911 324.277 198.267 323.486C197.632 322.695 196.777 322.3 195.703 322.3C194.238 322.3 193.228 322.988 192.671 324.365C192.378 325.098 192.231 326.001 192.231 327.075C192.231 328.003 192.388 328.828 192.7 329.551C193.267 330.898 194.282 331.572 195.747 331.572ZM194.707 318.652C195.508 318.652 196.206 318.774 196.802 319.019C197.817 319.438 198.638 320.21 199.263 321.333V319.033H203.32V334.18C203.32 336.24 202.974 337.793 202.28 338.838C201.089 340.635 198.804 341.533 195.425 341.533C193.384 341.533 191.719 341.133 190.43 340.332C189.141 339.531 188.428 338.335 188.291 336.743H192.832C192.949 337.231 193.14 337.583 193.403 337.798C193.853 338.179 194.609 338.369 195.674 338.369C197.178 338.369 198.184 337.866 198.691 336.86C199.023 336.216 199.189 335.132 199.189 333.608V332.583C198.789 333.267 198.359 333.779 197.9 334.121C197.07 334.756 195.991 335.073 194.663 335.073C192.612 335.073 190.972 334.355 189.741 332.92C188.521 331.475 187.91 329.521 187.91 327.061C187.91 324.688 188.501 322.695 189.683 321.084C190.864 319.463 192.539 318.652 194.707 318.652ZM216.035 327.236C215.771 327.402 215.503 327.539 215.229 327.646C214.966 327.744 214.6 327.837 214.131 327.925L213.193 328.101C212.314 328.257 211.685 328.447 211.304 328.672C210.659 329.053 210.337 329.644 210.337 330.444C210.337 331.157 210.532 331.675 210.923 331.997C211.323 332.31 211.807 332.466 212.373 332.466C213.271 332.466 214.097 332.202 214.849 331.675C215.61 331.147 216.006 330.186 216.035 328.789V327.236ZM213.501 325.288C214.272 325.19 214.824 325.068 215.156 324.922C215.752 324.668 216.05 324.272 216.05 323.735C216.05 323.081 215.82 322.632 215.361 322.388C214.912 322.134 214.248 322.007 213.369 322.007C212.383 322.007 211.685 322.251 211.274 322.739C210.981 323.101 210.786 323.589 210.688 324.204H206.66C206.748 322.808 207.139 321.66 207.832 320.762C208.936 319.355 210.83 318.652 213.516 318.652C215.264 318.652 216.816 318.999 218.174 319.692C219.531 320.386 220.21 321.694 220.21 323.618V330.942C220.21 331.45 220.22 332.065 220.239 332.788C220.269 333.335 220.352 333.706 220.488 333.901C220.625 334.097 220.83 334.258 221.104 334.385V335H216.562C216.436 334.678 216.348 334.375 216.299 334.092C216.25 333.809 216.211 333.486 216.182 333.125C215.605 333.75 214.941 334.282 214.189 334.722C213.291 335.239 212.275 335.498 211.143 335.498C209.697 335.498 208.501 335.088 207.554 334.268C206.616 333.438 206.147 332.266 206.147 330.752C206.147 328.789 206.904 327.368 208.418 326.489C209.248 326.011 210.469 325.669 212.08 325.464L213.501 325.288ZM228.193 335H224.019V313.408H228.193V335ZM239.443 332.056C240.664 332.056 241.602 331.621 242.256 330.752C242.91 329.883 243.237 328.647 243.237 327.046C243.237 325.444 242.91 324.214 242.256 323.354C241.602 322.485 240.664 322.051 239.443 322.051C238.223 322.051 237.28 322.485 236.616 323.354C235.962 324.214 235.635 325.444 235.635 327.046C235.635 328.647 235.962 329.883 236.616 330.752C237.28 331.621 238.223 332.056 239.443 332.056ZM247.617 327.046C247.617 329.39 246.943 331.396 245.596 333.066C244.248 334.727 242.202 335.557 239.458 335.557C236.714 335.557 234.668 334.727 233.32 333.066C231.973 331.396 231.299 329.39 231.299 327.046C231.299 324.741 231.973 322.744 233.32 321.055C234.668 319.365 236.714 318.521 239.458 318.521C242.202 318.521 244.248 319.365 245.596 321.055C246.943 322.744 247.617 324.741 247.617 327.046ZM259.292 318.652C259.37 318.652 259.434 318.657 259.482 318.667C259.541 318.667 259.663 318.672 259.849 318.682V322.959C259.585 322.93 259.351 322.91 259.146 322.9C258.94 322.891 258.774 322.886 258.647 322.886C256.968 322.886 255.84 323.433 255.264 324.526C254.941 325.142 254.78 326.089 254.78 327.368V335H250.576V319.033H254.561V321.816C255.205 320.752 255.767 320.024 256.245 319.634C257.026 318.979 258.042 318.652 259.292 318.652ZM268.608 322.051C267.642 322.051 266.89 322.354 266.353 322.959C265.825 323.564 265.493 324.385 265.356 325.42H271.846C271.777 324.316 271.44 323.481 270.835 322.915C270.239 322.339 269.497 322.051 268.608 322.051ZM268.608 318.608C269.937 318.608 271.133 318.857 272.197 319.355C273.262 319.854 274.141 320.64 274.834 321.714C275.459 322.661 275.864 323.76 276.05 325.01C276.157 325.742 276.201 326.797 276.182 328.174H265.254C265.312 329.775 265.815 330.898 266.763 331.543C267.339 331.943 268.032 332.144 268.843 332.144C269.702 332.144 270.4 331.899 270.938 331.411C271.23 331.147 271.489 330.781 271.714 330.312H275.977C275.869 331.26 275.376 332.222 274.497 333.198C273.13 334.751 271.216 335.527 268.755 335.527C266.724 335.527 264.932 334.873 263.379 333.564C261.826 332.256 261.05 330.127 261.05 327.178C261.05 324.414 261.748 322.295 263.145 320.82C264.551 319.346 266.372 318.608 268.608 318.608ZM107.71 352.857C108.481 351.061 109.609 349.127 111.094 347.057H114.243L113.35 348.697C112.119 350.953 111.265 353.316 110.786 355.787C110.474 357.408 110.317 359.176 110.317 361.09C110.317 364.078 110.752 366.827 111.621 369.337C112.129 370.821 113.027 372.726 114.316 375.05H111.226L110.186 373.629C109.512 372.77 108.794 371.49 108.032 369.791C106.675 366.754 105.996 363.766 105.996 360.826C105.996 358.15 106.567 355.494 107.71 352.857ZM129.609 347.408H134.297L126.929 369H122.666L115.371 347.408H120.19L124.878 363.8L129.609 347.408ZM139.688 353.033V362.657C139.688 363.565 139.795 364.249 140.01 364.708C140.391 365.519 141.138 365.924 142.251 365.924C143.677 365.924 144.653 365.348 145.181 364.195C145.454 363.57 145.591 362.745 145.591 361.72V353.033H149.824V369H145.767V366.744C145.728 366.793 145.63 366.939 145.474 367.184C145.317 367.428 145.132 367.643 144.917 367.828C144.263 368.414 143.628 368.814 143.013 369.029C142.407 369.244 141.694 369.352 140.874 369.352C138.511 369.352 136.919 368.502 136.099 366.803C135.64 365.865 135.41 364.483 135.41 362.657V353.033H139.688ZM160.166 356.051C159.199 356.051 158.447 356.354 157.91 356.959C157.383 357.564 157.051 358.385 156.914 359.42H163.403C163.335 358.316 162.998 357.481 162.393 356.915C161.797 356.339 161.055 356.051 160.166 356.051ZM160.166 352.608C161.494 352.608 162.69 352.857 163.755 353.355C164.819 353.854 165.698 354.64 166.392 355.714C167.017 356.661 167.422 357.76 167.607 359.01C167.715 359.742 167.759 360.797 167.739 362.174H156.812C156.87 363.775 157.373 364.898 158.32 365.543C158.896 365.943 159.59 366.144 160.4 366.144C161.26 366.144 161.958 365.899 162.495 365.411C162.788 365.147 163.047 364.781 163.271 364.312H167.534C167.427 365.26 166.934 366.222 166.055 367.198C164.688 368.751 162.773 369.527 160.312 369.527C158.281 369.527 156.489 368.873 154.937 367.564C153.384 366.256 152.607 364.127 152.607 361.178C152.607 358.414 153.306 356.295 154.702 354.82C156.108 353.346 157.93 352.608 160.166 352.608ZM175.283 351.158V355.919H180.586C181.533 355.919 182.3 355.743 182.886 355.392C183.481 355.03 183.779 354.396 183.779 353.487C183.779 352.481 183.389 351.817 182.607 351.495C181.934 351.271 181.074 351.158 180.029 351.158H175.283ZM175.283 359.493V365.25H180.586C181.533 365.25 182.271 365.123 182.798 364.869C183.755 364.4 184.233 363.502 184.233 362.174C184.233 361.051 183.77 360.279 182.842 359.859C182.324 359.625 181.597 359.503 180.659 359.493H175.283ZM181.465 347.408C184.111 347.447 185.986 348.214 187.09 349.708C187.754 350.626 188.086 351.725 188.086 353.004C188.086 354.322 187.754 355.382 187.09 356.183C186.719 356.632 186.172 357.042 185.449 357.413C186.553 357.813 187.383 358.448 187.939 359.317C188.506 360.187 188.789 361.241 188.789 362.481C188.789 363.761 188.467 364.908 187.822 365.924C187.412 366.598 186.899 367.164 186.284 367.623C185.591 368.15 184.771 368.512 183.823 368.707C182.886 368.902 181.865 369 180.762 369H170.977V347.408H181.465ZM192.583 347.408H197.095V365.118H207.788V369H192.583V347.408ZM215.435 351.158V356.959H220.547C221.562 356.959 222.324 356.842 222.832 356.607C223.73 356.197 224.18 355.387 224.18 354.176C224.18 352.867 223.745 351.988 222.876 351.539C222.388 351.285 221.655 351.158 220.679 351.158H215.435ZM221.616 347.408C223.13 347.438 224.292 347.623 225.103 347.965C225.923 348.307 226.616 348.81 227.183 349.474C227.651 350.021 228.022 350.626 228.296 351.29C228.569 351.954 228.706 352.711 228.706 353.561C228.706 354.586 228.447 355.597 227.93 356.593C227.412 357.579 226.558 358.277 225.366 358.688C226.362 359.088 227.065 359.659 227.476 360.401C227.896 361.134 228.105 362.257 228.105 363.771V365.221C228.105 366.207 228.145 366.876 228.223 367.228C228.34 367.784 228.613 368.194 229.043 368.458V369H224.077C223.94 368.521 223.843 368.136 223.784 367.843C223.667 367.237 223.604 366.617 223.594 365.982L223.564 363.976C223.545 362.599 223.291 361.681 222.803 361.222C222.324 360.763 221.421 360.533 220.093 360.533H215.435V369H211.025V347.408H221.616ZM233.848 347.057C235.332 349.127 236.46 351.061 237.231 352.857C238.374 355.494 238.945 358.15 238.945 360.826C238.945 363.766 238.267 366.754 236.909 369.791C236.147 371.49 235.43 372.77 234.756 373.629L233.716 375.05H230.625C231.914 372.726 232.812 370.821 233.32 369.337C234.189 366.827 234.624 364.078 234.624 361.09C234.624 359.176 234.468 357.408 234.155 355.787C233.677 353.316 232.822 350.953 231.592 348.697L230.698 347.057H233.848Z" fill="#41B883"/>
<rect x="41" y="35" width="262" height="263" rx="131" fill="#F7F7F7" stroke="#B3B3B3"/>
<rect x="55" y="50" width="234" height="234" rx="117" fill="white"/>
<rect x="67" y="62" width="210" height="210" rx="105" fill="#35495E"/>
<path fill-rule="evenodd" clip-rule="evenodd" d="M78 167.5C78 115.309 120.309 73 172.5 73C224.691 73 267 115.309 267 167.5C267 219.691 224.691 262 172.5 262C120.309 262 78 219.691 78 167.5Z" fill="#41B883"/>
<path fill-rule="evenodd" clip-rule="evenodd" d="M88 168C88 121.056 126.056 83 173 83C219.944 83 258 121.056 258 168C258 214.944 219.944 253 173 253C126.056 253 88 214.944 88 168Z" fill="white"/>
<path fill-rule="evenodd" clip-rule="evenodd" d="M105 167.5C105 129.945 135.445 99 173 99V99C210.555 99 241 129.945 241 167.5V167.5C241 205.055 210.555 236 173 236V236C135.445 236 105 205.055 105 167.5V167.5Z" stroke="#35495E" stroke-width="2" stroke-dasharray="20"/>
<path d="M266.766 115.02L268.534 111.96H265H227.8H193.39H192.208L191.62 112.986L171.981 147.263L151.906 112.969L151.315 111.96H150.145H79H75.4657L77.2335 115.02L170.234 276.02L172 279.078L173.766 276.02L266.766 115.02Z" fill="#41B883" stroke="white" stroke-width="4.08"/>
<path d="M79 114L172 275L265 114H227.8L172 210.6L115.735 114H79Z" fill="#41B883"/>
<path d="M115.726 114L172.035 211.074L227.879 114H193.442L172.035 151.336L150.163 114H115.726Z" fill="#35495E"/>
</svg>
