<svg width="35" height="32" viewBox="0 0 35 32" fill="none" xmlns="http://www.w3.org/2000/svg">
    <path
        d="M13.5349 26.8096C12.8092 26.6815 2.15247 30.58 2.15247 30.58C4.77042 28.1186 6.12208 25.7425 5.80906 23.3806C4.35327 22.2936 3.16379 20.8897 2.33062 19.2751C1.49746 17.6606 1.04244 15.8777 1 14.0613C1 6.84771 8.114 1 17.0065 1C25.899 1 33.013 6.84771 33.013 14.0613C33.013 21.2749 25.8421 27.1653 17.0065 27.1653C15.841 27.1504 14.6792 27.0314 13.5349 26.8096V26.8096Z"
        stroke="#F5E7D3" stroke-width="2" stroke-linecap="round" stroke-linejoin="round" />
    <path
        d="M19.7246 5.53857C24.5621 6.53453 28.1476 10.0915 28.1476 14.3457C28.1038 15.7043 27.7363 17.0328 27.0755 18.2206C26.4148 19.4085 25.4799 20.4214 24.3487 21.1751"
        stroke="#F5E7D3" stroke-width="2" stroke-linecap="round" stroke-linejoin="round" />
</svg>