<svg width="36" height="36" viewBox="0 0 36 36" fill="none" xmlns="http://www.w3.org/2000/svg">
<path d="M14.1433 29.0034C13.4403 28.8793 3.11647 32.656 3.11647 32.656C5.65264 30.2714 6.96208 27.9696 6.65884 25.6815C5.24852 24.6285 4.0962 23.2684 3.28906 21.7043C2.48192 20.1401 2.04112 18.4129 2 16.6533C2 9.66504 8.89177 4 17.5065 4C26.1212 4 33.013 9.66504 33.013 16.6533C33.013 23.6416 26.0661 29.3479 17.5065 29.3479C16.3774 29.3336 15.2519 29.2183 14.1433 29.0034V29.0034Z" stroke="#F5E7D3" stroke-width="1.75" stroke-linecap="round" stroke-linejoin="round"/>
<path d="M20.1396 8.39673C24.8261 9.36158 28.2995 12.8075 28.2995 16.9287C28.2571 18.2449 27.901 19.5319 27.2609 20.6826C26.6208 21.8334 25.7152 22.8147 24.6193 23.5448" stroke="#F5E7D3" stroke-width="1.75" stroke-linecap="round" stroke-linejoin="round"/>
</svg>
