<svg width="36" height="36" viewBox="0 0 36 36" fill="none" xmlns="http://www.w3.org/2000/svg">
<path d="M17.3976 34.5273L31.3965 26.257L31.3965 9.74665L17.3976 1.47632L3.39864 9.74665L3.39864 26.257L17.3976 34.5273ZM29.7944 25.3433L17.3932 32.6697L4.99208 25.3433L4.99209 10.6559L17.3932 3.32957L29.7944 10.6559L29.7944 25.3433Z" fill="#F5E7D3"/>
<path d="M17.3977 5.60303C15.8505 5.60303 14.5962 4.34874 14.5962 2.8015C14.5962 1.25427 15.8505 -3.8018e-07 17.3977 -2.44916e-07C18.9449 -1.09653e-07 20.1992 1.25427 20.1992 2.8015C20.1992 4.34874 18.9449 5.60303 17.3977 5.60303Z" fill="#F5E7D3"/>
<path d="M17.3977 36C15.8505 36 14.5962 34.7457 14.5962 33.1985C14.5962 31.6512 15.8505 30.397 17.3977 30.397C18.9449 30.397 20.1992 31.6512 20.1992 33.1985C20.1992 34.7457 18.9449 36 17.3977 36Z" fill="#F5E7D3"/>
<path d="M30.1985 28.0015C28.6512 28.0015 27.397 26.7472 27.397 25.2C27.397 23.6527 28.6512 22.3984 30.1985 22.3984C31.7457 22.3984 33 23.6527 33 25.2C33 26.7472 31.7457 28.0015 30.1985 28.0015Z" fill="#F5E7D3"/>
<path d="M4.59984 28.0015C3.0526 28.0015 1.79833 26.7472 1.79833 25.2C1.79833 23.6527 3.0526 22.3984 4.59984 22.3984C6.14707 22.3984 7.40137 23.6527 7.40137 25.2C7.40137 26.7472 6.14707 28.0015 4.59984 28.0015Z" fill="#F5E7D3"/>
<path d="M30.1985 13.5999C28.6512 13.5999 27.397 12.3456 27.397 10.7984C27.397 9.25112 28.6512 7.99683 30.1985 7.99683C31.7457 7.99683 33 9.25112 33 10.7984C33 12.3456 31.7457 13.5999 30.1985 13.5999Z" fill="#F5E7D3"/>
<path d="M4.59984 13.5999C3.0526 13.5999 1.79833 12.3456 1.79833 10.7984C1.79833 9.25112 3.0526 7.99683 4.59984 7.99683C6.14707 7.99683 7.40137 9.25112 7.40137 10.7984C7.40137 12.3456 6.14707 13.5999 4.59984 13.5999Z" fill="#F5E7D3"/>
<path d="M2.82497 26.4L31.9746 26.4L17.3998 0.78369L2.82497 26.4ZM29.2207 24.7979L5.57452 24.7979L17.3998 4.01819L29.2207 24.7979Z" fill="#F5E7D3"/>
</svg>
