<svg width="27" height="30" viewBox="0 0 27 30" fill="none" xmlns="http://www.w3.org/2000/svg">
    <path
        d="M12.9993 28.7727L24.665 21.8808L24.665 8.12217L12.9993 1.23022L1.3335 8.12217L1.3335 21.8808L12.9993 28.7727ZM23.3299 21.1194L12.9957 27.2247L2.66137 21.1194L2.66137 8.87991L12.9957 2.7746L23.3299 8.87991L23.3299 21.1194Z"
        fill="#F5E7D3" />
    <path
        d="M12.9984 4.6692C11.709 4.6692 10.6638 3.62395 10.6638 2.33459C10.6638 1.04522 11.709 -3.16817e-07 12.9984 -2.04097e-07C14.2878 -9.13774e-08 15.333 1.04522 15.333 2.33459C15.333 3.62395 14.2878 4.6692 12.9984 4.6692Z"
        fill="#F5E7D3" />
    <path
        d="M12.9984 30C11.709 30 10.6638 28.9548 10.6638 27.6654C10.6638 26.376 11.709 25.3308 12.9984 25.3308C14.2878 25.3308 15.333 26.376 15.333 27.6654C15.333 28.9548 14.2878 30 12.9984 30Z"
        fill="#F5E7D3" />
    <path
        d="M23.6664 23.3347C22.377 23.3347 21.3318 22.2895 21.3318 21.0001C21.3318 19.7108 22.377 18.6655 23.6664 18.6655C24.9557 18.6655 26.001 19.7108 26.001 21.0001C26.001 22.2895 24.9557 23.3347 23.6664 23.3347Z"
        fill="#F5E7D3" />
    <path
        d="M2.33434 23.3347C1.04497 23.3347 -0.000251133 22.2895 -0.00025102 21.0001C-0.000250908 19.7108 1.04497 18.6655 2.33434 18.6655C3.6237 18.6655 4.66895 19.7108 4.66895 21.0001C4.66894 22.2895 3.6237 23.3347 2.33434 23.3347Z"
        fill="#F5E7D3" />
    <path
        d="M23.6664 11.3333C22.377 11.3333 21.3318 10.288 21.3318 8.99867C21.3318 7.70931 22.377 6.66406 23.6664 6.66406C24.9557 6.66406 26.001 7.70931 26.001 8.99867C26.001 10.288 24.9557 11.3333 23.6664 11.3333Z"
        fill="#F5E7D3" />
    <path
        d="M2.33434 11.3333C1.04497 11.3333 -0.000251133 10.288 -0.00025102 8.99867C-0.000250908 7.70931 1.04497 6.66406 2.33434 6.66406C3.6237 6.66406 4.66895 7.70931 4.66895 8.99867C4.66894 10.288 3.6237 11.3333 2.33434 11.3333Z"
        fill="#F5E7D3" />
    <path
        d="M0.855116 22L25.1465 22L13.0008 0.653075L0.855116 22ZM22.8516 20.6649L3.14641 20.6649L13.0008 3.3485L22.8516 20.6649Z"
        fill="#F5E7D3" />
</svg>