<svg width="32" height="32" viewBox="0 0 32 32" fill="none" xmlns="http://www.w3.org/2000/svg">
    <path
        d="M6 11V7C6 6.46957 6.21071 5.96086 6.58579 5.58579C6.96086 5.21071 7.46957 5 8 5C8.53043 5 9.03914 5.21071 9.41421 5.58579C9.78929 5.96086 10 6.46957 10 7V11"
        stroke="#F5E7D3" stroke-width="2" stroke-linecap="round" stroke-linejoin="round" />
    <path d="M6 9H10" stroke="#F5E7D3" stroke-width="2" stroke-linecap="round" stroke-linejoin="round" />
    <path d="M22 14V16" stroke="#F5E7D3" stroke-width="2" stroke-linecap="round" stroke-linejoin="round" />
    <path d="M18 16H26" stroke="#F5E7D3" stroke-width="2" stroke-linecap="round" stroke-linejoin="round" />
    <path d="M24 16C24 16 22 22 18 22" stroke="#F5E7D3" stroke-width="2" stroke-linecap="round"
        stroke-linejoin="round" />
    <path d="M22 19.6892C22.446 20.3543 23.0384 20.9083 23.7318 21.3088C24.4252 21.7094 25.2011 21.9458 26 21.9999"
        stroke="#F5E7D3" stroke-width="2" stroke-linecap="round" stroke-linejoin="round" />
    <path
        d="M15 25C14.4696 25 13.9609 24.7893 13.5858 24.4142C13.2107 24.0391 13 23.5304 13 23V13C13 12.4696 13.2107 11.9609 13.5858 11.5858C13.9609 11.2107 14.4696 11 15 11H29C29.5304 11 30.0391 11.2107 30.4142 11.5858C30.7893 11.9609 31 12.4696 31 13V23C31 23.5304 30.7893 24.0391 30.4142 24.4142C30.0391 24.7893 29.5304 25 29 25H27V31L21 25H15Z"
        stroke="#F5E7D3" stroke-width="2" stroke-linecap="round" stroke-linejoin="round" />
    <path
        d="M9 17L5 21V15H3C2.46957 15 1.96086 14.7893 1.58579 14.4142C1.21071 14.0391 1 13.5304 1 13V3C1 2.46957 1.21071 1.96086 1.58579 1.58579C1.96086 1.21071 2.46957 1 3 1H17C17.5304 1 18.0391 1.21071 18.4142 1.58579C18.7893 1.96086 19 2.46957 19 3V7"
        stroke="#F5E7D3" stroke-width="2" stroke-linecap="round" stroke-linejoin="round" />
</svg>