<svg width="24" height="24" viewBox="0 0 24 24" fill="none" xmlns="http://www.w3.org/2000/svg">
    <path
        d="M19.8281 12.0014C19.8281 12.0014 19.1734 10.7772 18.0931 10.0403C17.0097 9.30635 16.0292 10.0609 16.0086 10.7537C15.9881 11.4466 17.1125 11.611 17.1125 11.9985C17.1125 12.386 15.9881 12.5504 16.0086 13.2433C16.0292 13.9362 17.0097 14.6936 18.0931 13.9567C19.1764 13.2257 19.8281 12.0014 19.8281 12.0014Z"
        fill="#C63939" />
    <path
        d="M21.8803 9.60912C20.5592 8.71076 19.3614 9.63261 19.3379 10.4811C19.3144 11.3295 20.6855 11.5292 20.6855 12.0018C20.6855 12.4745 19.3144 12.6741 19.3379 13.5226C19.3614 14.371 20.5592 15.2929 21.8803 14.3945C23.2015 13.4991 24 12.0018 24 12.0018C24 12.0018 23.2015 10.5045 21.8803 9.60912Z"
        fill="#C63939" />
    <path
        d="M15.2871 9.22062C15.6335 9.49659 16.9018 9.27053 17.6152 9.33219C18.3316 9.39384 18.5253 10.028 18.7778 9.99568C19.0332 9.96632 18.9217 9.17952 19.5118 9.05622C20.1048 8.93291 20.5129 8.93291 20.4219 8.56594C20.3309 8.19896 18.2993 7.3505 16.94 7.88189C15.5836 8.41327 14.9407 8.94466 15.2871 9.22062Z"
        fill="#C63939" />
    <path
        d="M18.7778 14.0037C18.5224 13.9743 18.3286 14.6055 17.6152 14.6672C16.9018 14.7288 15.6335 14.5028 15.2871 14.7787C14.9407 15.0547 15.5836 15.5861 16.94 16.1175C18.2963 16.6489 20.3309 15.8004 20.4219 15.4334C20.5129 15.0664 20.1048 15.0664 19.5118 14.9431C18.9217 14.8228 19.0332 14.036 18.7778 14.0037Z"
        fill="#C63939" />
    <path
        d="M13.2433 7.98833C13.9361 7.96778 14.6936 6.98722 13.9567 5.9039C13.2227 4.82058 11.9985 4.16882 11.9956 4.16882C11.9956 4.16882 10.7713 4.82351 10.0344 5.9039C9.30047 6.98722 10.055 7.96778 10.7508 7.98833C11.4436 8.00888 11.608 6.88446 11.9956 6.88446C12.386 6.8874 12.5504 8.00888 13.2433 7.98833Z"
        fill="#C63939" />
    <path
        d="M10.4778 4.66503C11.3262 4.68851 11.5259 3.31748 11.9985 3.31748C12.4712 3.31748 12.6708 4.68851 13.5193 4.66503C14.3678 4.64154 15.2896 3.44372 14.3912 2.1226C13.4958 0.798544 11.9985 -4.94992e-07 11.9985 -4.94992e-07C11.9985 -4.94992e-07 10.5013 0.798544 9.60585 2.11967C8.70748 3.44372 9.62933 4.63861 10.4778 4.66503Z"
        fill="#C63939" />
    <path
        d="M9.21789 8.7135C9.49386 8.36707 9.2678 7.0988 9.32945 6.38539C9.39111 5.66905 10.0252 5.47529 9.99295 5.21987C9.96359 4.96445 9.17679 5.07601 9.05349 4.48591C8.93018 3.89288 8.93018 3.4848 8.5632 3.57581C8.19622 3.66682 7.34777 5.69841 7.87916 7.0577C8.41348 8.41698 8.94192 9.06286 9.21789 8.7135Z"
        fill="#C63939" />
    <path
        d="M14.9434 4.48603C14.8201 5.07907 14.0333 4.96457 14.004 5.21999C13.9746 5.4754 14.6058 5.66917 14.6674 6.38551C14.7291 7.09891 14.503 8.36719 14.779 8.71362C15.055 9.06005 15.5864 8.4171 16.1177 7.06075C16.6491 5.70146 15.8007 3.66987 15.4337 3.57886C15.0638 3.48785 15.0638 3.89593 14.9434 4.48603Z"
        fill="#C63939" />
    <path
        d="M6.88511 12.0016C6.88511 11.6141 8.00953 11.4497 7.98898 10.7568C7.96843 10.064 6.98786 9.30654 5.90748 10.0434C4.82416 10.7774 4.17241 12.0016 4.17241 12.0046C4.17241 12.0046 4.8271 13.2288 5.90748 13.9657C6.9908 14.6997 7.96843 13.9451 7.98898 13.2523C8.00659 12.5536 6.88511 12.3892 6.88511 12.0016Z"
        fill="#C63939" />
    <path
        d="M4.66173 13.5226C4.68816 12.6741 3.31419 12.4745 3.31419 12.0018C3.31419 11.5292 4.68522 11.3295 4.66173 10.4811C4.63825 9.63261 3.44043 8.71076 2.11931 9.60912C0.798185 10.5075 -0.000360518 12.0018 -0.000360518 12.0018C-0.000360518 12.0018 0.798185 13.4991 2.11931 14.3945C3.44043 15.2929 4.63531 14.371 4.66173 13.5226Z"
        fill="#C63939" />
    <path
        d="M8.71015 14.782C8.36372 14.506 7.09544 14.7321 6.38204 14.6704C5.6657 14.6088 5.47193 13.9746 5.21652 14.0069C4.9611 14.0363 5.07266 14.8231 4.48256 14.9464C3.88952 15.0697 3.48144 15.0697 3.57245 15.4367C3.66346 15.8037 5.69506 16.6521 7.05434 16.1207C8.41363 15.5893 9.05951 15.058 8.71015 14.782Z"
        fill="#C63939" />
    <path
        d="M5.21952 9.99934C5.47494 10.0287 5.6687 9.3975 6.38504 9.33585C7.09845 9.2742 8.36672 9.50025 8.71315 9.22429C9.05958 8.94832 8.41663 8.41693 7.06028 7.88555C5.70099 7.35417 3.6694 8.20262 3.57839 8.5696C3.48738 8.93658 3.89546 8.93658 4.4885 9.05988C5.07566 9.18025 4.9641 9.96705 5.21952 9.99934Z"
        fill="#C63939" />
    <path
        d="M10.754 16.0148C10.0582 16.0354 9.30371 17.0159 10.0377 18.0963C10.7716 19.1796 11.9988 19.8314 11.9988 19.8314C11.9988 19.8314 13.223 19.1767 13.9599 18.0963C14.6939 17.013 13.9394 16.0354 13.2465 16.0148C12.5507 15.9943 12.3893 17.1187 12.0017 17.1187C11.6113 17.1157 11.4469 15.9943 10.754 16.0148Z"
        fill="#C63939" />
    <path
        d="M13.5192 19.3387C12.6708 19.3152 12.4711 20.6862 11.9985 20.6862C11.5258 20.6862 11.3262 19.3152 10.4777 19.3387C9.62926 19.3622 8.70741 20.56 9.60577 21.8811C10.5041 23.2022 11.9985 24.0008 11.9985 24.0008C11.9985 24.0008 13.4957 23.2022 14.3941 21.8811C15.2895 20.56 14.3677 19.3651 13.5192 19.3387Z"
        fill="#C63939" />
    <path
        d="M14.779 15.2891C14.503 15.6355 14.7291 16.9038 14.6674 17.6172C14.6058 18.3336 13.9717 18.5273 14.004 18.7828C14.0333 19.0382 14.8201 18.9266 14.9434 19.5167C15.0667 20.1097 15.0667 20.5178 15.4337 20.4268C15.8007 20.3358 16.6491 18.3042 16.1177 16.9449C15.5864 15.5856 15.055 14.9398 14.779 15.2891Z"
        fill="#C63939" />
    <path
        d="M9.05661 19.5175C9.17992 18.9245 9.96378 19.039 9.99608 18.7835C10.0254 18.5281 9.39423 18.3344 9.33258 17.618C9.27093 16.9046 9.49699 15.6363 9.22102 15.2899C8.94505 14.9435 8.41367 15.5864 7.88228 16.9428C7.3509 18.3021 8.19935 20.3337 8.56633 20.4247C8.93331 20.5157 8.93331 20.1076 9.05661 19.5175Z"
        fill="#C63939" />
    <path
        d="M8.59612 12.0017C8.59612 10.1257 10.1228 8.59912 11.9987 8.59912C13.8747 8.59912 15.4014 10.1258 15.4014 12.0017C15.4014 13.8777 13.8747 15.4044 11.9987 15.4044C10.1228 15.4044 8.59612 13.8777 8.59612 12.0017ZM11.9987 14.5236C13.3903 14.5236 14.5206 13.3904 14.5206 12.0017C14.5206 10.6102 13.3874 9.47987 11.9987 9.47987C10.6072 9.47987 9.47687 10.6131 9.47687 12.0017C9.47687 13.3933 10.6072 14.5236 11.9987 14.5236Z"
        fill="#C63939" />
    <path
        d="M11.9987 13.5605C11.1385 13.5605 10.4398 12.8617 10.4398 12.0015C10.4398 11.1414 11.1385 10.4426 11.9987 10.4426C12.8589 10.4426 13.5576 11.1414 13.5576 12.0015C13.5576 12.8617 12.8589 13.5605 11.9987 13.5605ZM11.9987 12.6797C12.3715 12.6797 12.6769 12.3773 12.6769 12.0015C12.6769 11.6287 12.3715 11.3234 11.9987 11.3234C11.6258 11.3234 11.3205 11.6287 11.3205 12.0015C11.3205 12.3744 11.6258 12.6797 11.9987 12.6797Z"
        fill="#C63939" />
</svg>