<svg width="36" height="36" viewBox="0 0 36 36" fill="none" xmlns="http://www.w3.org/2000/svg">
<path d="M29.4372 16.731V30.9663C29.4372 31.5057 29.223 32.0229 28.8416 32.4043C28.4602 32.7857 27.943 33 27.4036 33H9.10101C8.56166 33 8.0444 32.7857 7.66302 32.4043C7.28164 32.0229 7.06738 31.5057 7.06738 30.9663V16.731" stroke="#F5E7D3" stroke-width="1.75" stroke-linecap="round" stroke-linejoin="round"/>
<path d="M3 14.6974L17.0496 4.39365C17.3984 4.1379 17.8197 4 18.2522 4C18.6847 4 19.1059 4.1379 19.4547 4.39365L33.5044 14.6974" stroke="#F5E7D3" stroke-width="1.75" stroke-linecap="round" stroke-linejoin="round"/>
<path d="M27.4033 4.5293H31.4706V8.59655" stroke="#F5E7D3" stroke-width="1.75" stroke-linecap="round" stroke-linejoin="round"/>
<path d="M20.286 28.9327V25.5081C21.118 25.2232 21.8775 24.7594 22.5109 24.1493C23.1443 23.5392 23.6362 22.7977 23.9521 21.977C24.268 21.1562 24.4001 20.2762 24.3392 19.3989C24.2783 18.5216 24.0258 17.6683 23.5995 16.8991C23.5995 16.8991 20.8229 19.7353 20.5287 20.1122C20.3669 20.3206 20.1626 20.4922 19.9294 20.6157C19.6962 20.7391 19.4394 20.8116 19.1761 20.8282C18.9128 20.8449 18.6489 20.8054 18.402 20.7123C18.1551 20.6193 17.9308 20.4748 17.744 20.2885C17.5579 20.1017 17.4136 19.8774 17.3207 19.6307C17.2278 19.3839 17.1883 19.1202 17.205 18.8571C17.2217 18.5939 17.294 18.3373 17.4173 18.1042C17.5406 17.8712 17.7121 17.6669 17.9202 17.5051C18.2971 17.2095 21.1334 14.4343 21.1334 14.4343C20.3551 13.9981 19.4882 13.7436 18.5976 13.6901C17.7071 13.6366 16.8159 13.7853 15.991 14.1252C14.8361 14.5788 13.8479 15.3754 13.1594 16.4076C12.4709 17.4398 12.1151 18.6581 12.1399 19.8987C12.1647 21.1392 12.5689 22.3423 13.2982 23.3462C14.0274 24.3501 15.0467 25.1064 16.2188 25.5135V28.9327" stroke="#F5E7D3" stroke-width="1.75" stroke-linecap="round" stroke-linejoin="round"/>
</svg>
