<svg width="34" height="32" viewBox="0 0 34 32" fill="none" xmlns="http://www.w3.org/2000/svg">
    <path
        d="M28.1489 14.0737V28.6924C28.1489 29.2462 27.9289 29.7774 27.5372 30.1691C27.1456 30.5607 26.6144 30.7807 26.0605 30.7807H7.26513C6.71126 30.7807 6.18007 30.5607 5.78843 30.1691C5.39678 29.7774 5.17676 29.2462 5.17676 28.6924V14.0737"
        stroke="#F5E7D3" stroke-width="2" stroke-linecap="round" stroke-linejoin="round" />
    <path
        d="M1 11.9853L15.4279 1.40425C15.7861 1.14161 16.2187 1 16.6628 1C17.107 1 17.5396 1.14161 17.8977 1.40425L32.3256 11.9853"
        stroke="#F5E7D3" stroke-width="2" stroke-linecap="round" stroke-linejoin="round" />
    <path d="M26.0605 1.54346H30.2373V5.72021" stroke="#F5E7D3" stroke-width="2" stroke-linecap="round"
        stroke-linejoin="round" />
    <path
        d="M18.7515 26.6039V23.087C19.6059 22.7945 20.3858 22.3182 21.0362 21.6917C21.6867 21.0652 22.1919 20.3037 22.5163 19.4608C22.8407 18.618 22.9763 17.7143 22.9138 16.8134C22.8512 15.9124 22.5919 15.0362 22.1541 14.2463C22.1541 14.2463 19.3028 17.1588 19.0007 17.5459C18.8345 17.7599 18.6247 17.9361 18.3852 18.0629C18.1457 18.1897 17.8821 18.2641 17.6116 18.2812C17.3412 18.2983 17.0703 18.2577 16.8167 18.1622C16.5632 18.0666 16.3328 17.9182 16.141 17.7269C15.9499 17.5351 15.8017 17.3048 15.7063 17.0514C15.6109 16.798 15.5704 16.5272 15.5875 16.257C15.6046 15.9867 15.6789 15.7232 15.8056 15.4839C15.9322 15.2445 16.1082 15.0348 16.322 14.8686C16.709 14.5651 19.6216 11.7151 19.6216 11.7151C18.8224 11.2671 17.9322 11.0059 17.0176 10.9509C16.1031 10.8959 15.1879 11.0487 14.3408 11.3977C13.1548 11.8636 12.14 12.6815 11.433 13.7415C10.7259 14.8015 10.3605 16.0527 10.386 17.3266C10.4115 18.6005 10.8266 19.8361 11.5755 20.867C12.3244 21.8978 13.3711 22.6746 14.5747 23.0926V26.6039"
        stroke="#F5E7D3" stroke-width="2" stroke-linecap="round" stroke-linejoin="round" />
</svg>