<svg xmlns="http://www.w3.org/2000/svg" width="16.552" height="16.552" viewBox="0 0 16.552 16.552">
    <defs>
        <style>
            .cls-1{fill:none;stroke:#f81894;stroke-linecap:round;stroke-linejoin:round}
        </style>
    </defs>
    <g id="streamline-icon-presentation-statistics_60x60" data-name="streamline-icon-presentation-statistics@60x60" transform="translate(-1.375 -1.375)">
        <path id="Path_5175" d="M7.671 1.875a2.046 2.046 0 1 1-2.046 2.046 2.046 2.046 0 0 1 2.046-2.046z" class="cls-1" data-name="Path 5175" transform="translate(-2.727)"/>
        <path id="Path_5176" d="M8.014 24.717v-1.023a3.069 3.069 0 0 0-6.139 0v2.046H2.9l.512 5.116h3.067l.46-4.6" class="cls-1" data-name="Path 5176" transform="translate(0 -13.634)"/>
        <path id="Path_5177" d="M29.148 10.06h6.139a1.023 1.023 0 0 0 1.023-1.023V2.9a1.023 1.023 0 0 0-1.023-1.023h-7.162" class="cls-1" data-name="Path 5177" transform="translate(-19.088)"/>
        <path id="Path_5178" d="M36.991 24.375h-5.116" class="cls-1" data-name="Path 5178" transform="translate(-21.815 -16.361)"/>
        <path id="Path_5179" d="M28.355 39.375a1.79 1.79 0 1 1-1.79 1.79 1.79 1.79 0 0 1 1.79-1.79z" class="cls-1" data-name="Path 5179" transform="translate(-17.954 -27.269)"/>
        <path id="Path_5180" d="M29.433 55.4a2.912 2.912 0 0 0-4.1-.329A2.992 2.992 0 0 0 25 55.4" class="cls-1" data-name="Path 5180" transform="translate(-16.816 -38.174)"/>
        <path id="Path_5181" d="M45.23 39.375a1.79 1.79 0 1 1-1.79 1.79 1.79 1.79 0 0 1 1.79-1.79z" class="cls-1" data-name="Path 5181" transform="translate(-30.225 -27.269)"/>
        <path id="Path_5182" d="M46.308 55.4a2.912 2.912 0 0 0-4.1-.329 2.993 2.993 0 0 0-.329.329" class="cls-1" data-name="Path 5182" transform="translate(-29.087 -38.174)"/>
        <path id="Path_5183" d="M46.875 13.467V9.375" class="cls-1" data-name="Path 5183" transform="translate(-32.723 -5.454)"/>
        <path id="Path_5184" d="M39.375 17.558V15" class="cls-1" data-name="Path 5184" transform="translate(-27.269 -9.544)"/>
    </g>
</svg>
