<svg xmlns="http://www.w3.org/2000/svg" width="16" height="16" viewBox="0 0 16 16">
    <defs>
        <style>
            .cls-1{fill:#fff;opacity:.599}
        </style>
    </defs>
    <path id="copyright-regular" d="M16 8a8 8 0 1 0 8 8 8 8 0 0 0-8-8zm0 14.452A6.452 6.452 0 1 1 22.452 16 6.448 6.448 0 0 1 16 22.452zm3.463-3.26a4.775 4.775 0 0 1-3.357 1.335 4.416 4.416 0 0 1-4.532-4.567 4.414 4.414 0 0 1 4.508-4.5 4.67 4.67 0 0 1 3.148 1.122.386.386 0 0 1 .062.494l-.586.907a.387.387 0 0 1-.564.094 3.346 3.346 0 0 0-1.991-.727 2.437 2.437 0 0 0-2.513 2.583 2.539 2.539 0 0 0 2.525 2.7 3.246 3.246 0 0 0 2.12-.878.387.387 0 0 1 .575.056l.641.876a.385.385 0 0 1-.037.5z" class="cls-1" transform="translate(-8 -8)"/>
</svg>
