<svg xmlns="http://www.w3.org/2000/svg" width="98" height="98" viewBox="0 0 98 98">
    <defs>
        <style>
            .cls-1{fill:#fff}.cls-2{fill:#27216e}.cls-3{filter:url(#Ellipse_810)}
        </style>
        <filter id="Ellipse_810" width="98" height="98" x="0" y="0" filterUnits="userSpaceOnUse">
            <feOffset dy="3"/>
            <feGaussianBlur result="blur" stdDeviation="3"/>
            <feFlood flood-opacity=".161"/>
            <feComposite in2="blur" operator="in"/>
            <feComposite in="SourceGraphic"/>
        </filter>
    </defs>
    <g id="Group_5205" data-name="Group 5205" transform="translate(-153 -2141)">
        <g class="cls-3" transform="translate(153 2141)">
            <circle id="Ellipse_810-2" cx="40" cy="40" r="40" class="cls-1" data-name="Ellipse 810" transform="translate(9 6)"/>
        </g>
        <path id="Path_2833" d="M34.111 160.339a5.9 5.9 0 0 0 .7-2.805 5.84 5.84 0 0 0-11.508-1.4c-.542-.032-1.084-.064-1.626-.064a20.176 20.176 0 0 0-14.439 34.266 5.834 5.834 0 1 0 10.105 5.611 19.433 19.433 0 0 0 4.335.478 20.162 20.162 0 0 0 20.179-20.179 19.955 19.955 0 0 0-7.746-15.907zm-5.1.765a2.75 2.75 0 0 1-.893-.128l-2.418 7.046 3.538-.574-4.973 8.129 4.144-1.02-13.998 16.672a3.483 3.483 0 0 1 1.116 2.614 3.57 3.57 0 1 1-3.57-3.57 3.667 3.667 0 0 1 1.307.255l3.953-8.639-3.857 1.052 6.28-8.99-3.857.924 10.934-14.568a3.605 3.605 0 1 1 2.3.8z" class="cls-2" data-name="Path 2833" transform="translate(180.5 2011.3)"/>
    </g>
</svg>
