<svg xmlns="http://www.w3.org/2000/svg" width="273" height="88.114" viewBox="0 0 273 88.114">
    <defs>
        <style>
            .cls-1{fill:#6a7a91}.cls-2{fill:#e50695}.cls-3{fill:url(#linear-gradient)}
        </style>
        <linearGradient id="linear-gradient" x2="1" y1="35.437" y2="35.437" gradientUnits="objectBoundingBox">
            <stop offset="0" stop-color="#ff4200"/>
            <stop offset="1" stop-color="#e50695"/>
        </linearGradient>
    </defs>
    <g id="dgraph-graphql-logo-dark" transform="translate(-1.5 -151.7)">
        <g id="Group_4068" data-name="Group 4068" transform="translate(87.96 222.831)">
            <path id="Path_2815" d="M161.994 282.964v10.973h1.985v-10.973h3.75V281.2H158.3v1.764z" class="cls-1" data-name="Path 2815" transform="translate(-158.3 -280.924)"/>
            <path id="Path_2816" d="M177.7 280.7v13.013h1.875v-6.065a2.894 2.894 0 0 1 2.536-1.6c1.1 0 1.709.662 1.709 1.875v5.79h1.88V287.7a2.983 2.983 0 0 0-3.143-3.253 3.6 3.6 0 0 0-2.978 1.489v-5.183H177.7v-.053z" class="cls-1" data-name="Path 2816" transform="translate(-167.003 -280.7)"/>
            <path id="Path_2817" d="M196.985 291.36a2.319 2.319 0 0 1 4.632 0zm6.617.882a4.634 4.634 0 0 0-1.213-3.419 3.925 3.925 0 0 0-3.089-1.323 4 4 0 0 0-3.088 1.323 4.968 4.968 0 0 0-1.212 3.419 4.71 4.71 0 0 0 1.268 3.474 4.448 4.448 0 0 0 3.253 1.268 4.189 4.189 0 0 0 3.694-1.875l-1.544-.882a2.318 2.318 0 0 1-2.206 1.158 2.49 2.49 0 0 1-2.592-2.481h6.617a1.194 1.194 0 0 0 .11-.662z" class="cls-1" data-name="Path 2817" transform="translate(-174.763 -283.75)"/>
            <path id="Path_2818" d="M225.879 280.9a5.015 5.015 0 0 0-4.191 1.82 7.284 7.284 0 0 0-1.489 4.742 6.952 6.952 0 0 0 1.6 4.852 5.49 5.49 0 0 0 4.3 1.709 6.962 6.962 0 0 0 2.812-.607 4.9 4.9 0 0 0 1.985-1.6v-4.852h-4.8v1.764h2.867v2.372a3.711 3.711 0 0 1-2.922 1.213c-2.316 0-3.86-1.654-3.86-4.8a5.835 5.835 0 0 1 .937-3.419 3.174 3.174 0 0 1 2.7-1.323 3.118 3.118 0 0 1 3.088 2.1l1.875-.607a4.791 4.791 0 0 0-4.908-3.364z" class="cls-2" data-name="Path 2818" transform="translate(-186.068 -280.79)"/>
            <path id="Path_2819" d="M248.066 287.5a2.805 2.805 0 0 0-2.592 1.544v-1.323H243.6v9.043h1.875v-5.845a2.548 2.548 0 0 1 2.481-1.82 3.337 3.337 0 0 1 .827.11l.221-1.6a2.3 2.3 0 0 0-.937-.11z" class="cls-2" data-name="Path 2819" transform="translate(-196.565 -283.75)"/>
            <path id="Path_2820" d="M260.4 293.951a2.389 2.389 0 0 1-2.316 1.379c-.993 0-1.709-.441-1.709-1.213q0-1.323 1.82-1.323a8.774 8.774 0 0 1 2.206.221v.937zm-3.915-3.694a2.386 2.386 0 0 1 1.985-1.158c1.158 0 1.93.607 1.93 1.6v.827a9.818 9.818 0 0 0-2.426-.221c-2.206 0-3.474 1.1-3.474 2.867a2.7 2.7 0 0 0 .882 2.04 3.553 3.553 0 0 0 2.316.772 3.309 3.309 0 0 0 2.757-1.268v1.048h1.875v-6.01c0-2.04-1.434-3.253-3.75-3.253a4.025 4.025 0 0 0-3.694 2.04l1.6.717z" class="cls-2" data-name="Path 2820" transform="translate(-201.455 -283.75)"/>
            <path id="Path_2821" d="M272.5 287.721v13.013h1.875v-4.963a3.333 3.333 0 0 0 2.592 1.213 3.913 3.913 0 0 0 2.978-1.268 5.79 5.79 0 0 0 0-6.948 3.913 3.913 0 0 0-2.978-1.268 3.333 3.333 0 0 0-2.592 1.213v-.993zm1.875 2.7a2.759 2.759 0 0 1 2.316-1.323c1.544 0 2.481 1.158 2.481 3.143s-.937 3.143-2.481 3.143a2.64 2.64 0 0 1-2.316-1.323z" class="cls-2" data-name="Path 2821" transform="translate(-209.53 -283.75)"/>
            <path id="Path_2822" d="M291.1 280.7v13.013h1.875v-6.065a2.894 2.894 0 0 1 2.536-1.6c1.1 0 1.709.662 1.709 1.875v5.79h1.88V287.7a2.983 2.983 0 0 0-3.143-3.253 3.6 3.6 0 0 0-2.978 1.489v-5.183H291.1z" class="cls-2" data-name="Path 2822" transform="translate(-217.874 -280.7)"/>
            <path id="Path_2823" d="M314.414 292.259a3.011 3.011 0 0 1-2.647-1.323 6.017 6.017 0 0 1-.882-3.474 6.27 6.27 0 0 1 .882-3.419 3.308 3.308 0 0 1 5.293 0 5.948 5.948 0 0 1 .882 3.419 7.249 7.249 0 0 1-.607 3.033l-1.6-1.379-1.1 1.213 1.6 1.378a2.964 2.964 0 0 1-1.821.552zm5.514-4.8a7.585 7.585 0 0 0-1.434-4.742 5.485 5.485 0 0 0-8.161 0 8.559 8.559 0 0 0 0 9.484 4.868 4.868 0 0 0 4.08 1.82 5.27 5.27 0 0 0 3.308-1.048l1.489 1.268 1.1-1.213-1.489-1.268a7.57 7.57 0 0 0 1.107-4.298z" class="cls-2" data-name="Path 2823" transform="translate(-225.859 -280.79)"/>
            <path id="Path_2824" d="M340.4 293.937v-1.764h-6.01V281.2h-1.99v12.682h8z" class="cls-2" data-name="Path 2824" transform="translate(-236.401 -280.924)"/>
            <path id="Path_2825" d="M361.132 283.009c2.316 0 3.419 1.709 3.419 4.632s-1.158 4.632-3.419 4.632h-2.647v-9.208c0-.056 2.647-.056 2.647-.056zm0 10.973c3.529 0 5.4-2.426 5.4-6.341s-1.875-6.341-5.4-6.341H356.5v12.682z" class="cls-1" data-name="Path 2825" transform="translate(-247.212 -280.969)"/>
            <path id="Path_2826" d="M383.445 293.951a2.389 2.389 0 0 1-2.316 1.379c-.993 0-1.709-.441-1.709-1.213q0-1.323 1.82-1.323a8.774 8.774 0 0 1 2.206.221zm-3.915-3.694a2.406 2.406 0 0 1 2.04-1.158c1.158 0 1.93.607 1.93 1.6v.827a9.818 9.818 0 0 0-2.426-.221c-2.206 0-3.474 1.1-3.474 2.867a2.7 2.7 0 0 0 .882 2.04 3.553 3.553 0 0 0 2.316.772 3.31 3.31 0 0 0 2.757-1.268v1.048h1.875v-6.01c0-2.04-1.434-3.253-3.75-3.253a4.026 4.026 0 0 0-3.694 2.04l1.544.717z" class="cls-1" data-name="Path 2826" transform="translate(-256.677 -283.75)"/>
            <path id="Path_2827" d="M399.49 287.3v-1.6h-2.426V283h-1.875v2.7H393.7v1.6h1.489v4.466c0 2.15.937 3.143 3.033 3.143a5.549 5.549 0 0 0 1.489-.165l-.221-1.544a2.15 2.15 0 0 1-.882.11c-1.048 0-1.489-.5-1.489-1.654v-4.3h2.371z" class="cls-1" data-name="Path 2827" transform="translate(-263.9 -281.732)"/>
            <path id="Path_2828" d="M412.345 293.951a2.389 2.389 0 0 1-2.316 1.379c-.993 0-1.709-.441-1.709-1.213q0-1.323 1.82-1.323a8.774 8.774 0 0 1 2.206.221l-.001.936zm-3.915-3.694a2.406 2.406 0 0 1 2.04-1.158c1.158 0 1.93.607 1.93 1.6v.827a9.818 9.818 0 0 0-2.426-.221c-2.206 0-3.474 1.1-3.474 2.867a2.7 2.7 0 0 0 .882 2.04 3.553 3.553 0 0 0 2.316.772 3.31 3.31 0 0 0 2.757-1.268v1.048h1.875v-6.01c0-2.04-1.434-3.253-3.75-3.253a4.026 4.026 0 0 0-3.694 2.04l1.544.717z" class="cls-1" data-name="Path 2828" transform="translate(-269.642 -283.75)"/>
            <path id="Path_2829" d="M426.275 292.721a3.333 3.333 0 0 0 2.592 1.213 3.913 3.913 0 0 0 2.978-1.268 5.79 5.79 0 0 0 0-6.948 3.913 3.913 0 0 0-2.978-1.268 3.333 3.333 0 0 0-2.592 1.213V280.7H424.4v13.013h1.875zm0-5.349a2.759 2.759 0 0 1 2.316-1.323c1.544 0 2.481 1.158 2.481 3.143s-.937 3.143-2.481 3.143a2.64 2.64 0 0 1-2.316-1.323z" class="cls-1" data-name="Path 2829" transform="translate(-277.671 -280.7)"/>
            <path id="Path_2830" d="M448.245 293.951a2.389 2.389 0 0 1-2.316 1.379c-.993 0-1.709-.441-1.709-1.213q0-1.323 1.82-1.323a8.774 8.774 0 0 1 2.206.221zm-3.915-3.694a2.406 2.406 0 0 1 2.04-1.158c1.158 0 1.93.607 1.93 1.6v.827a9.818 9.818 0 0 0-2.426-.221c-2.206 0-3.474 1.1-3.474 2.867a2.7 2.7 0 0 0 .882 2.04 3.553 3.553 0 0 0 2.316.772 3.31 3.31 0 0 0 2.757-1.268v1.048h1.875v-6.01c0-2.04-1.434-3.253-3.75-3.253a4.026 4.026 0 0 0-3.694 2.04l1.544.717z" class="cls-1" data-name="Path 2830" transform="translate(-285.746 -283.75)"/>
            <path id="Path_2831" d="M463.2 292.959c1.158.221 1.544.607 1.544 1.323s-.662 1.158-1.654 1.158a1.747 1.747 0 0 1-1.875-1.268l-1.82.331c.331 1.6 1.709 2.536 3.694 2.536a3.975 3.975 0 0 0 2.536-.772 2.429 2.429 0 0 0 .993-1.985c0-1.654-.937-2.371-3.033-2.757l-.772-.165c-1.1-.221-1.489-.551-1.489-1.213 0-.607.551-1.048 1.434-1.048.937 0 1.544.386 1.709 1.1l1.82-.331c-.331-1.489-1.654-2.371-3.529-2.371-2.04 0-3.364 1.048-3.364 2.647 0 1.544.937 2.261 2.978 2.647l.827.165z" class="cls-1" data-name="Path 2831" transform="translate(-293.372 -283.75)"/>
            <path id="Path_2832" d="M476.385 291.36a2.319 2.319 0 0 1 4.632 0zm6.617.882a4.634 4.634 0 0 0-1.213-3.419 3.925 3.925 0 0 0-3.089-1.323 4 4 0 0 0-3.088 1.323 4.968 4.968 0 0 0-1.213 3.419 4.71 4.71 0 0 0 1.268 3.474 4.447 4.447 0 0 0 3.253 1.268 4.19 4.19 0 0 0 3.694-1.875l-1.544-.882a2.318 2.318 0 0 1-2.206 1.158 2.49 2.49 0 0 1-2.592-2.481h6.617a1.194 1.194 0 0 0 .11-.662z" class="cls-1" data-name="Path 2832" transform="translate(-300.101 -283.75)"/>
        </g>
        <path id="Path_2833" d="M57.909 166.643a10.209 10.209 0 0 0 1.213-4.852 10.1 10.1 0 0 0-19.906-2.426c-.937-.055-1.875-.11-2.812-.11a34.9 34.9 0 0 0-24.979 59.275 10.092 10.092 0 1 0 17.48 9.7 33.612 33.612 0 0 0 7.5.827 34.875 34.875 0 0 0 34.9-34.9 34.518 34.518 0 0 0-13.396-27.514zm-8.822 1.323a4.758 4.758 0 0 1-1.544-.221l-4.191 12.186 6.121-.993L40.87 193l7.168-1.764-24.206 28.838a6.024 6.024 0 0 1 1.93 4.522 6.176 6.176 0 1 1-6.176-6.176 6.343 6.343 0 0 1 2.261.441l6.837-14.943-6.672 1.82 10.863-15.55-6.672 1.6 18.913-25.2a6.236 6.236 0 1 1 3.97 1.379z" class="cls-3" data-name="Path 2833"/>
        <g id="Group_4069" data-name="Group 4069" transform="translate(87.96 163.555)">
            <path id="Path_2834" d="M158.355 173.2h14.171a13.527 13.527 0 0 1 12.351 7.058 12.672 12.672 0 0 1 1.875 4.963 81 81 0 0 1 .331 8.933 60.154 60.154 0 0 1-.5 9.429 14.07 14.07 0 0 1-.662 2.426c-.331.662-.717 1.434-1.158 2.15a13.964 13.964 0 0 1-4.963 4.852 13.776 13.776 0 0 1-7.72 2.04H158.3l.055-41.852zm6.176 35.9h7.334c3.474 0 5.955-1.213 7.5-3.639a7.668 7.668 0 0 0 1.323-3.419 74.123 74.123 0 0 0 .276-7.665c0-3.639-.11-6.231-.276-7.83a7.084 7.084 0 0 0-1.6-3.8 8.01 8.01 0 0 0-7.223-3.529h-7.334z" data-name="Path 2834" transform="translate(-158.3 -173.2)"/>
            <path id="Path_2835" d="M245.314 221.419a9.953 9.953 0 0 1-7.444 3.474 9.359 9.359 0 0 1-4.687-1.213 10.517 10.517 0 0 1-2.978-2.426 8.969 8.969 0 0 1-1.654-3.584 40.2 40.2 0 0 1-.551-8 36.81 36.81 0 0 1 .551-8.106 8.727 8.727 0 0 1 1.654-3.529 9.241 9.241 0 0 1 2.978-2.536 9.807 9.807 0 0 1 4.687-1.1 9.6 9.6 0 0 1 7.444 3.529v-3.2h5.79v29.062c-.055 4.466-1.323 7.775-3.75 9.87a12.784 12.784 0 0 1-8.767 3.253 13.054 13.054 0 0 1-9.98-4.963l4.521-3.694a10.61 10.61 0 0 0 2.536 1.82 6.2 6.2 0 0 0 3.033.882 6.643 6.643 0 0 0 4.8-1.709 6.528 6.528 0 0 0 1.82-4.8v-3.033zm-11.469-11.745a31.278 31.278 0 0 0 .221 4.742 4.4 4.4 0 0 0 .937 2.261 5.367 5.367 0 0 0 1.764 1.489 4.711 4.711 0 0 0 2.812.827 4.486 4.486 0 0 0 2.812-.827 5.125 5.125 0 0 0 1.709-1.489 4.731 4.731 0 0 0 .992-2.261 44.488 44.488 0 0 0 .165-4.742 47.766 47.766 0 0 0-.165-4.852 4.528 4.528 0 0 0-.992-2.206 6.921 6.921 0 0 0-1.709-1.6 6.225 6.225 0 0 0-2.812-.717 5.861 5.861 0 0 0-2.812.717 6.318 6.318 0 0 0-1.764 1.6 4.269 4.269 0 0 0-.937 2.206 33.024 33.024 0 0 0-.221 4.852z" data-name="Path 2835" transform="translate(-189.567 -182.71)"/>
            <path id="Path_2836" d="M290.6 194.686h5.79v3.143h.11a9.173 9.173 0 0 1 7.5-3.529 9.57 9.57 0 0 1 6.065 2.261l-4.246 5.183a5.938 5.938 0 0 0-3.8-1.489 5.331 5.331 0 0 0-3.8 1.489c-1.213.993-1.82 2.536-1.82 4.742v17.976H290.6v-29.776z" data-name="Path 2836" transform="translate(-217.649 -182.665)"/>
            <path id="Path_2837" d="M348.824 221.868h-.11a5.225 5.225 0 0 1-2.481 2.261 11.522 11.522 0 0 1-4.632.772c-3.2-.055-5.735-.937-7.444-2.647a8.5 8.5 0 0 1-2.757-6.454 8.614 8.614 0 0 1 2.371-6.231c1.6-1.709 3.915-2.536 7-2.592h8.05v-3.143c.055-2.647-1.93-3.915-5.9-3.86a11.179 11.179 0 0 0-3.419.441 4.36 4.36 0 0 0-2.04 1.82l-4.577-3.584c2.206-2.978 5.459-4.411 9.76-4.356a14.812 14.812 0 0 1 8.712 2.15c2.15 1.489 3.253 4.08 3.308 7.72v20.347h-5.845v-2.647zm0-9.98h-6.948c-3.364.055-5.073 1.268-5.018 3.584a3.264 3.264 0 0 0 1.323 2.592 5.98 5.98 0 0 0 4.136 1.158 9.907 9.907 0 0 0 5.128-.882c.937-.607 1.379-2.1 1.379-4.3v-2.15z" data-name="Path 2837" transform="translate(-235.952 -182.663)"/>
            <path id="Path_2838" d="M394.2 194.686h5.79v3.088a9.953 9.953 0 0 1 7.444-3.474c3.529.11 6.121 1.379 7.775 3.915a8.479 8.479 0 0 1 1.654 3.694 48.019 48.019 0 0 1 .441 7.72 46.558 46.558 0 0 1-.441 7.554 7.817 7.817 0 0 1-1.654 3.75 8.507 8.507 0 0 1-3.143 2.757 9.283 9.283 0 0 1-4.632 1.1 7.859 7.859 0 0 1-3.97-.993 11.712 11.712 0 0 1-3.474-2.536v15.219h-5.79v-41.8zm11.469 24.207a5.567 5.567 0 0 0 3.253-.827 4.667 4.667 0 0 0 1.709-2.15 11.764 11.764 0 0 0 .772-2.978c.055-1.048.055-2.206.055-3.308 0-1.213 0-2.371-.055-3.474a9.046 9.046 0 0 0-.772-2.978 4.343 4.343 0 0 0-1.709-2.15 6.06 6.06 0 0 0-3.253-.717 5.131 5.131 0 0 0-3.088.827 5 5 0 0 0-1.764 2.206 11.938 11.938 0 0 0-.717 2.922 34.39 34.39 0 0 0-.165 3.364 30 30 0 0 0 .165 3.143 10.618 10.618 0 0 0 .717 3.033 4.965 4.965 0 0 0 4.852 3.088z" data-name="Path 2838" transform="translate(-264.124 -182.665)"/>
            <path id="Path_2839" d="M454.8 173.2h5.79v15.219h.11a9.173 9.173 0 0 1 7.5-3.529 9.9 9.9 0 0 1 6.562 2.592c1.985 1.764 2.978 4.356 3.088 7.775v19.8h-5.79V197.3a6.713 6.713 0 0 0-1.6-4.8 5.4 5.4 0 0 0-4.08-1.654 5.611 5.611 0 0 0-4.135 1.654 6.5 6.5 0 0 0-1.654 4.8v17.755H454.8V173.2z" data-name="Path 2839" transform="translate(-291.309 -173.2)"/>
        </g>
    </g>
</svg>
