<svg xmlns="http://www.w3.org/2000/svg" width="287" height="60" viewBox="0 0 287 60">
    <defs>
        <style>
            .cls-1{opacity:.603}.cls-2,.cls-3{fill:#27216e}.cls-3{fill-rule:evenodd}.cls-4{fill:none}
        </style>
    </defs>
    <g id="Group_4028" data-name="Group 4028" transform="translate(-100 -4171)">
        <g id="DO_Logo_horizontal_blue" class="cls-1" transform="translate(98.5 4176.137)">
            <g id="XMLID_2638_" transform="translate(1.5 .906)">
                <g id="XMLID_2639_">
                    <g id="Group_833" data-name="Group 833">
                        <g id="XMLID_44_">
                            <g id="XMLID_48_">
                                <path id="XMLID_49_" d="M25.338 48.58v-9.234a14.662 14.662 0 0 0 13.615-19.975 13.85 13.85 0 0 0-8.244-8.244 14.662 14.662 0 0 0-19.975 13.614H1.5a23.929 23.929 0 0 1 31.423-22.66 22.932 22.932 0 0 1 15.028 15.028A23.925 23.925 0 0 1 25.338 48.58z" class="cls-2" transform="translate(-1.5 -.906)"/>
                            </g>
                            <path id="XMLID_47_" d="M41.787 72.187H32.6V63h9.187z" class="cls-3" transform="translate(-17.949 -33.747)"/>
                            <path id="XMLID_46_" d="M24.667 89.567H17.6V82.5h7.067z" class="cls-3" transform="translate(-10.015 -44.06)"/>
                            <path id="XMLID_45_" d="M10.936 75.889H5V70h5.936z" class="cls-3" transform="translate(-3.351 -37.449)"/>
                        </g>
                    </g>
                </g>
            </g>
            <g id="XMLID_2370_" transform="translate(67.597 11.362)">
                <path id="XMLID_2635_" d="M160.5 26.974a17.421 17.421 0 0 0-10.079-2.874H141.8v27.371h8.621a16.508 16.508 0 0 0 10.079-3.015 10.128 10.128 0 0 0 3.486-4.381 16.093 16.093 0 0 0 1.225-6.454 16.02 16.02 0 0 0-1.225-6.407 9.717 9.717 0 0 0-3.486-4.24zm-13.662 1.79h2.732a14.315 14.315 0 0 1 7.4 1.743c2.073 1.272 3.156 3.675 3.156 7.114 0 3.58-1.084 6.077-3.156 7.444a13.353 13.353 0 0 1-7.349 1.79h-2.732V28.764z" class="cls-2" transform="translate(-141.8 -23.629)"/>
                <path id="XMLID_2634_" d="M200.915 23.4a2.977 2.977 0 0 0-3.015 2.921 2.745 2.745 0 0 0 .9 2.12 2.916 2.916 0 0 0 2.12.9 2.745 2.745 0 0 0 2.12-.9 3 3 0 0 0 .9-2.12 2.581 2.581 0 0 0-.9-2.073 2.953 2.953 0 0 0-2.125-.848z" class="cls-2" transform="translate(-171.471 -23.259)"/>
                <path id="XMLID_2564_" d="M0 0h4.852v19.315H0z" class="cls-2" transform="translate(26.947 8.574)"/>
                <path id="XMLID_2561_" d="M230.986 42.373a7.249 7.249 0 0 0-4.852-2.073 8.913 8.913 0 0 0-6.643 2.732 9.57 9.57 0 0 0-2.591 6.925 9.8 9.8 0 0 0 2.591 6.925 8.913 8.913 0 0 0 6.643 2.732 7.539 7.539 0 0 0 4.805-1.555v.471a5.169 5.169 0 0 1-1.272 3.722 4.735 4.735 0 0 1-3.486 1.272c-2.261 0-3.628-.9-5.371-3.2l-3.3 3.156.094.141a11.82 11.82 0 0 0 3.251 2.921 9.758 9.758 0 0 0 5.418 1.413 9.3 9.3 0 0 0 6.925-2.638 9.5 9.5 0 0 0 2.591-7.02V40.771h-4.758v1.6zm-1.272 11.4a4.24 4.24 0 0 1-3.345 1.413 4.077 4.077 0 0 1-3.3-1.413A5.448 5.448 0 0 1 221.8 50a5.573 5.573 0 0 1 1.272-3.816 4.247 4.247 0 0 1 3.3-1.46 4.13 4.13 0 0 1 3.345 1.46A5.573 5.573 0 0 1 230.986 50a5.684 5.684 0 0 1-1.272 3.774z" class="cls-2" transform="translate(-181.52 -32.197)"/>
                <path id="XMLID_2560_" d="M0 0h4.852v19.315H0z" class="cls-2" transform="translate(58.37 8.574)"/>
                <path id="XMLID_2552_" d="M267.615 23.4a2.977 2.977 0 0 0-3.015 2.921 2.745 2.745 0 0 0 .9 2.12 2.916 2.916 0 0 0 2.12.9 2.745 2.745 0 0 0 2.12-.9 3 3 0 0 0 .9-2.12 2.581 2.581 0 0 0-.9-2.073 2.953 2.953 0 0 0-2.125-.848z" class="cls-2" transform="translate(-206.748 -23.259)"/>
                <path id="XMLID_2509_" d="M290.138 30.3h-4.758v5.229h-2.78v4.428h2.78v8.009c0 2.5.518 4.287 1.508 5.324s2.732 1.555 5.229 1.555c.8 0 1.6-.047 2.356-.094h.236v-4.429l-1.649.094a3.081 3.081 0 0 1-2.308-.612 4.026 4.026 0 0 1-.565-2.544v-7.349h4.523v-4.429h-4.523V30.3z" class="cls-2" transform="translate(-216.268 -26.908)"/>
                <path id="XMLID_2508_" d="M0 0h4.852v27.371H0z" class="cls-2" transform="translate(101.147 .471)"/>
                <path id="XMLID_2470_" d="M454.187 53.161a11.518 11.518 0 0 1-2.45 2.261 4.575 4.575 0 0 1-2.5.66 4.468 4.468 0 0 1-3.533-1.6 6.67 6.67 0 0 1-.047-8.15 4.375 4.375 0 0 1 3.486-1.6 6.5 6.5 0 0 1 4.617 2.638l3.2-3.062a9.528 9.528 0 0 0-7.962-4 9.43 9.43 0 0 0-6.878 2.874 9.837 9.837 0 0 0-2.827 7.208 9.913 9.913 0 0 0 2.827 7.208 9.25 9.25 0 0 0 6.88 2.865 9.524 9.524 0 0 0 8.244-4.287z" class="cls-2" transform="translate(-299.145 -32.197)"/>
                <path id="XMLID_2460_" d="M495.429 43.456a7.862 7.862 0 0 0-2.78-2.308 9.091 9.091 0 0 0-4-.848 8.172 8.172 0 0 0-6.6 2.968 11.162 11.162 0 0 0-2.45 7.255 10.043 10.043 0 0 0 2.685 7.208 9.33 9.33 0 0 0 7.02 2.78 9.546 9.546 0 0 0 7.962-3.957l.094-.141-3.16-3.063a12.015 12.015 0 0 1-1.084 1.131 5.407 5.407 0 0 1-1.413 1.036 5.2 5.2 0 0 1-2.45.518 4.567 4.567 0 0 1-3.3-1.178 4.187 4.187 0 0 1-1.366-2.921h12.861l.047-1.79a12.647 12.647 0 0 0-.518-3.58 10.691 10.691 0 0 0-1.548-3.11zm-10.6 4.57a4.82 4.82 0 0 1 1.272-2.308 3.444 3.444 0 0 1 2.544-.989 3.486 3.486 0 0 1 2.685.989 3.827 3.827 0 0 1 .989 2.261h-7.491z" class="cls-2" transform="translate(-320.459 -32.197)"/>
                <path id="XMLID_2456_" d="M536.775 42.284a8.9 8.9 0 0 0-6.03-1.884 10.241 10.241 0 0 0-4.476 1.036 8.014 8.014 0 0 0-3.3 3.109l.047.047 3.109 2.968a4.967 4.967 0 0 1 4.57-2.732 3.868 3.868 0 0 1 2.5.8 2.483 2.483 0 0 1 .942 2.073v.942a12.064 12.064 0 0 0-3.58-.565 9.354 9.354 0 0 0-5.842 1.7 5.8 5.8 0 0 0-2.215 4.802 5.506 5.506 0 0 0 1.884 4.381 7.177 7.177 0 0 0 4.664 1.6 8.128 8.128 0 0 0 5.135-2.026v1.6h4.758V47.7a6.4 6.4 0 0 0-2.166-5.416zm-8.621 10.459a4.08 4.08 0 0 1 2.308-.565 10.562 10.562 0 0 1 3.675.707v1.884a5.833 5.833 0 0 1-4.193 1.46 2.865 2.865 0 0 1-1.932-.565 1.766 1.766 0 0 1-.66-1.413 1.816 1.816 0 0 1 .801-1.508z" class="cls-2" transform="translate(-343.149 -32.25)"/>
                <path id="XMLID_2454_" d="M580.276 42.661a7.244 7.244 0 0 0-5.653-2.261 6.631 6.631 0 0 0-4.664 1.649v-1.178H565.2v19.316h4.852V49.492a5.086 5.086 0 0 1 1.036-3.439 3.429 3.429 0 0 1 2.874-1.225 3.2 3.2 0 0 1 2.544 1.084 4.616 4.616 0 0 1 .942 3.015v11.165h4.852V48.927a9.036 9.036 0 0 0-2.024-6.266z" class="cls-2" transform="translate(-365.732 -32.25)"/>
                <path id="XMLID_2450_" d="M327.575 42.284a8.894 8.894 0 0 0-6.03-1.884 10.241 10.241 0 0 0-4.476 1.036 8.013 8.013 0 0 0-3.3 3.109l.047.047 3.109 2.968a4.967 4.967 0 0 1 4.57-2.732 3.869 3.869 0 0 1 2.5.8 2.483 2.483 0 0 1 .942 2.073v.942a12.064 12.064 0 0 0-3.58-.565 9.353 9.353 0 0 0-5.842 1.7 5.8 5.8 0 0 0-2.215 4.802 5.506 5.506 0 0 0 1.884 4.381 7.177 7.177 0 0 0 4.664 1.6 8.128 8.128 0 0 0 5.135-2.026v1.6h4.758V47.7a6.679 6.679 0 0 0-2.166-5.416zm-8.621 10.459a4.08 4.08 0 0 1 2.308-.565 10.562 10.562 0 0 1 3.675.707v1.884a5.833 5.833 0 0 1-4.193 1.46 2.865 2.865 0 0 1-1.932-.565 1.766 1.766 0 0 1-.66-1.413 1.707 1.707 0 0 1 .801-1.508z" class="cls-2" transform="translate(-232.505 -32.25)"/>
                <path id="XMLID_2371_" d="M388.333 51.367a14.133 14.133 0 1 1 14.133-14.133 14.144 14.144 0 0 1-14.133 14.133zm0-23.226a9.14 9.14 0 1 0 9.14 9.14 9.148 9.148 0 0 0-9.14-9.14z" class="cls-2" transform="translate(-264.714 -23.1)"/>
            </g>
        </g>
        <path id="Rectangle_4327" d="M0 0h287v60H0z" class="cls-4" data-name="Rectangle 4327" transform="translate(100 4171)"/>
    </g>
</svg>
