<svg xmlns="http://www.w3.org/2000/svg" width="60" height="61.09" viewBox="0 0 60 61.09">
    <defs>
        <style>
            .cls-1{stroke:rgba(0,0,0,0);fill:url(#linear-gradient)}.cls-2{fill:none}
        </style>
        <linearGradient id="linear-gradient" x1=".5" x2=".5" y2="1" gradientUnits="objectBoundingBox">
            <stop offset="0" stop-color="#f61893"/>
            <stop offset="1" stop-color="#27216e"/>
        </linearGradient>
    </defs>
    <g id="Group_3967" data-name="Group 3967" transform="translate(-540 -1206.5)">
        <g id="Group_3966" data-name="Group 3966" transform="translate(-6019 1348)">
            <path id="Union_1" d="M24.887 60.09a.921.921 0 0 1-.8-.461l-2.514-4.354a.92.92 0 0 1 0-.921L24.089 50a.921.921 0 0 1 .8-.461h5.027a.923.923 0 0 1 .8.461l2.513 4.354a.92.92 0 0 1 0 .921l-2.516 4.355a.923.923 0 0 1-.8.461zm-1.45-5.275l1.982 3.433h3.963l1.983-3.433-1.983-3.433h-3.963zm9.513-3.2a.919.919 0 0 1 .337-1.256l8.758-5.059a.919.919 0 1 1 .92 1.592l-8.76 5.057a.918.918 0 0 1-1.256-.337zm-12.355.337l-8.76-5.057a.919.919 0 1 1 .92-1.592l8.759 5.057a.919.919 0 1 1-.919 1.592zm25.753-4.242a.924.924 0 0 1-.8-.461l-2.513-4.359a.92.92 0 0 1 0-.921l2.513-4.354a.924.924 0 0 1 .8-.461h5.027a.92.92 0 0 1 .8.461l2.514 4.354a.92.92 0 0 1 0 .921l-2.514 4.354a.92.92 0 0 1-.8.461zM44.9 42.431l1.982 3.432h3.963l1.983-3.432L50.842 39h-3.963zM3.435 47.705a.921.921 0 0 1-.8-.461L.123 42.89a.92.92 0 0 1 0-.921l2.514-4.354a.921.921 0 0 1 .8-.461h5.026a.921.921 0 0 1 .8.461l2.514 4.354a.924.924 0 0 1 0 .921l-2.516 4.355a.921.921 0 0 1-.8.461zm-1.45-5.275l1.982 3.432h3.964l1.982-3.432L7.931 39H3.967zm45.956-7.33V24.988a.919.919 0 0 1 1.839 0V35.1a.919.919 0 0 1-1.839 0zm-42.911 0V24.988a.919.919 0 0 1 1.839 0V35.1a.919.919 0 0 1-1.839 0zm27.42.131l-5.068-13.363-5.07 13.366a.933.933 0 0 1-.8.7h-.113a.922.922 0 0 1-.8-.461l-5.07-8.781-5.07 8.781a.922.922 0 1 1-1.6-.922l5.872-10.161a.921.921 0 0 1 1.6 0l4.81 8.33 5.446-14.358a.805.805 0 0 1 1.6 0l5.446 14.359 4.81-8.331a.922.922 0 0 1 1.6 0L45.9 34.554a.922.922 0 1 1-1.6.922l-5.069-8.781-5.07 8.781a.923.923 0 0 1-.8.461H33.247a.935.935 0 0 1-.797-.703zm13.9-12.3a.924.924 0 0 1-.8-.461l-2.513-4.354a.92.92 0 0 1 0-.921l2.513-4.354a.924.924 0 0 1 .8-.461h5.027a.92.92 0 0 1 .8.461l2.509 4.359a.92.92 0 0 1 0 .921l-2.514 4.354a.92.92 0 0 1-.8.461zm-1.45-5.27l1.982 3.432h3.963l1.983-3.432-1.983-3.433h-3.966zM3.435 22.936a.921.921 0 0 1-.8-.461L.123 18.121a.92.92 0 0 1 0-.921l2.514-4.354a.921.921 0 0 1 .8-.461h5.026a.921.921 0 0 1 .8.461l2.512 4.354a.924.924 0 0 1 0 .921l-2.514 4.354a.921.921 0 0 1-.8.461zm-1.45-5.275l1.982 3.432h3.964l1.982-3.432-1.982-3.433H3.967zm40.06-2.868l-8.759-5.058a.919.919 0 0 1 .919-1.592l8.76 5.057a.919.919 0 1 1-.92 1.592zM11.5 14.456a.92.92 0 0 1 .337-1.255l8.76-5.057a.919.919 0 0 1 .919 1.592l-8.759 5.057a.919.919 0 0 1-1.256-.337zm13.388-3.905a.921.921 0 0 1-.8-.461l-2.513-4.354a.92.92 0 0 1 0-.921L24.089.461a.921.921 0 0 1 .8-.461h5.027a.923.923 0 0 1 .8.461l2.513 4.354a.92.92 0 0 1 0 .921l-2.516 4.354a.923.923 0 0 1-.8.461zm-1.45-5.276l1.982 3.433h3.963l1.983-3.433-1.985-3.433h-3.962z" class="cls-1" data-name="Union 1" transform="translate(6562 -141)"/>
        </g>
        <path id="Rectangle_4298" d="M0 0h60v60H0z" class="cls-2" data-name="Rectangle 4298" transform="translate(540 1207)"/>
    </g>
</svg>
