<svg xmlns="http://www.w3.org/2000/svg" width="436.847" height="473.152" viewBox="0 0 436.847 473.152">
    <defs>
        <style>
            .cls-1{fill:url(#linear-gradient)}.cls-2{filter:url(#Union_4)}
        </style>
        <linearGradient id="linear-gradient" x1=".034" x2=".875" y1="-.368" y2="1" gradientUnits="objectBoundingBox">
            <stop offset="0" stop-color="#1b1653"/>
            <stop offset=".486" stop-color="#fe4283"/>
            <stop offset=".749" stop-color="#c83a7e"/>
            <stop offset="1" stop-color="#27216e"/>
            <stop offset="1" stop-color="#f81894"/>
        </linearGradient>
        <filter id="Union_4" width="436.847" height="473.152" x="0" y="0" filterUnits="userSpaceOnUse">
            <feOffset dy="8"/>
            <feGaussianBlur result="blur" stdDeviation="10"/>
            <feFlood flood-color="#ff4980" flood-opacity=".243"/>
            <feComposite in2="blur" operator="in"/>
            <feComposite in="SourceGraphic"/>
        </filter>
    </defs>
    <g id="Group_3826" class="cls-2" data-name="Group 3826" transform="translate(-.004 .002)">
        <path id="Union_4-2" d="M1272.857-1505.727a6.336 6.336 0 0 1-5.489-3.168l-17.283-29.935a6.341 6.341 0 0 1 0-6.335l17.283-29.936a6.337 6.337 0 0 1 5.489-3.167h34.568a6.333 6.333 0 0 1 5.486 3.167l17.283 29.936a6.345 6.345 0 0 1 0 6.335l-17.283 29.935a6.332 6.332 0 0 1-5.486 3.168zm-9.969-36.273l13.625 23.6h27.251l13.629-23.6-13.629-23.6h-27.251zm65.571-21.752l-.321-.556a6 6 0 0 1 2.2-8.2l60.781-35.092a6 6 0 0 1 8.2 2.2l.321.556a6 6 0 0 1-2.2 8.2l-60.781 35.092a5.974 5.974 0 0 1-2.995.805 6 6 0 0 1-5.205-3.003zm-84.833 2.2l-60.781-35.092a6 6 0 0 1-2.2-8.2l.321-.556a6 6 0 0 1 8.2-2.2l60.781 35.092a6 6 0 0 1 2.2 8.2l-.321.556a6 6 0 0 1-5.2 3 5.974 5.974 0 0 1-3-.802zm176.787-29.326a6.343 6.343 0 0 1-5.489-3.167l-17.283-29.935a6.341 6.341 0 0 1 0-6.335l17.283-29.936a6.337 6.337 0 0 1 5.489-3.167h34.565a6.334 6.334 0 0 1 5.489 3.167l17.283 29.936a6.345 6.345 0 0 1 0 6.335l-17.283 29.935a6.34 6.34 0 0 1-5.489 3.167zm-9.968-36.27l13.625 23.6h27.251l13.629-23.6-13.629-23.6h-27.251zm-285.075 36.27a6.34 6.34 0 0 1-5.489-3.167l-17.283-29.935a6.345 6.345 0 0 1 0-6.335l17.283-29.936a6.334 6.334 0 0 1 5.489-3.167h34.565a6.337 6.337 0 0 1 5.489 3.167l17.283 29.936a6.341 6.341 0 0 1 0 6.335l-17.283 29.935a6.342 6.342 0 0 1-5.489 3.167zm-9.971-36.27l13.629 23.6h27.251l13.625-23.6-13.625-23.6h-27.251zm321.974-44.061a6 6 0 0 1-6-6v-70.191a6 6 0 0 1 6-6h.643a6 6 0 0 1 6 6v70.184a6 6 0 0 1-6 6zm-295.042 0a6 6 0 0 1-6-6v-70.191a6 6 0 0 1 6-6h.643a6 6 0 0 1 6 6v70.184a6 6 0 0 1-6 6zm182.537-5.413l-34.853-91.9-34.86 91.9c-1.174 3.1-3.3 4.821-5.5 4.821q-.166 0-.332-.014-.224.016-.448.016a6.335 6.335 0 0 1-5.5-3.171l-34.856-60.375-34.856 60.375a6.333 6.333 0 0 1-8.654 2.321 6.334 6.334 0 0 1-2.322-8.654l40.343-69.88a6.337 6.337 0 0 1 5.489-3.167 6.331 6.331 0 0 1 5.485 3.167l33.069 57.272 37.445-98.723c1.133-2.986 3.226-4.821 5.489-4.821s4.352 1.835 5.485 4.821l37.445 98.731 33.071-57.281a6.332 6.332 0 0 1 5.489-3.167 6.331 6.331 0 0 1 5.485 3.167l40.343 69.88a6.337 6.337 0 0 1-2.318 8.654 6.338 6.338 0 0 1-8.657-2.321l-34.852-60.375-34.86 60.375a6.336 6.336 0 0 1-5.5 3.171c-.141 0-.283 0-.425-.014a4.05 4.05 0 0 1-.365.016c-2.177-.002-4.307-1.733-5.48-4.826zm95.546-84.561a6.337 6.337 0 0 1-5.489-3.167l-17.283-29.936a6.341 6.341 0 0 1 0-6.335l17.283-29.935a6.336 6.336 0 0 1 5.489-3.168h34.565a6.334 6.334 0 0 1 5.489 3.168l17.283 29.935a6.345 6.345 0 0 1 0 6.335l-17.283 29.936a6.335 6.335 0 0 1-5.489 3.167zm-9.968-36.27l13.625 23.6h27.251l13.629-23.6-13.629-23.6h-27.252zm-285.075 36.27a6.334 6.334 0 0 1-5.489-3.167l-17.283-29.936a6.345 6.345 0 0 1 0-6.335l17.283-29.935a6.333 6.333 0 0 1 5.489-3.168h34.565a6.336 6.336 0 0 1 5.489 3.168l17.283 29.935a6.341 6.341 0 0 1 0 6.335l-17.283 29.936a6.337 6.337 0 0 1-5.489 3.167zm-9.971-36.27l13.629 23.6h27.251l13.625-23.6-13.625-23.6h-27.251zm275.717-19.557l-60.781-35.092a6 6 0 0 1-2.2-8.2l.321-.556a6 6 0 0 1 8.2-2.2l60.781 35.092a6 6 0 0 1 2.2 8.2l-.321.556a6 6 0 0 1-5.2 3 5.974 5.974 0 0 1-3.001-.803zm-210.146-2.2l-.321-.556a6 6 0 0 1 2.2-8.2l60.781-35.092a6 6 0 0 1 8.2 2.2l.321.556a6 6 0 0 1-2.2 8.2l-60.781 35.093a5.973 5.973 0 0 1-2.994.8 6 6 0 0 1-5.207-3.001zm91.886-27.129a6.345 6.345 0 0 1-5.489-3.168l-17.283-29.938a6.335 6.335 0 0 1 0-6.332l17.283-29.936a6.337 6.337 0 0 1 5.489-3.167h34.568a6.333 6.333 0 0 1 5.486 3.167l17.283 29.936a6.339 6.339 0 0 1 0 6.332l-17.283 29.938a6.342 6.342 0 0 1-5.486 3.168zm-9.968-36.271l13.625 23.6h27.251l13.629-23.6-13.629-23.6h-27.251z" class="cls-1" data-name="Union 4" transform="translate(-1071.75 1940.88)"/>
    </g>
</svg>
