<svg xmlns="http://www.w3.org/2000/svg" width="98" height="98" viewBox="0 0 98 98">
    <defs>
        <style>
            .cls-1{fill:#fff}.cls-2{fill:#27216e}.cls-3{filter:url(#Ellipse_845)}
        </style>
        <filter id="Ellipse_845" width="98" height="98" x="0" y="0" filterUnits="userSpaceOnUse">
            <feOffset dy="3"/>
            <feGaussianBlur result="blur" stdDeviation="3"/>
            <feFlood flood-opacity=".161"/>
            <feComposite in2="blur" operator="in"/>
            <feComposite in="SourceGraphic"/>
        </filter>
    </defs>
    <g id="Group_5202" data-name="Group 5202" transform="translate(-264 -2090)">
        <g class="cls-3" transform="translate(264 2090)">
            <circle id="Ellipse_845-2" cx="40" cy="40" r="40" class="cls-1" data-name="Ellipse 845" transform="translate(9 6)"/>
        </g>
        <g id="Group_3" data-name="Group 3" transform="translate(292 2112)">
            <g id="Group_2" data-name="Group 2">
                <path id="Path_7" d="M43.795 17.209c1.369-3.3 1.369-10.021-.436-15.186a1.022 1.022 0 0 0-1.929.373v.374c-.311 4.917-2.116 7.593-4.792 8.9a1.729 1.729 0 0 1-1.556-.124 20.488 20.488 0 0 0-21.908 0 1.533 1.533 0 0 1-1.369.124c-2.739-1-4.606-3.983-4.917-8.962v-.374a1.024 1.024 0 0 0-1.929-.373c-1.8 5.228-1.743 11.95-.436 15.249a7.377 7.377 0 0 1 .124 5.166 19.252 19.252 0 0 0-1.058 6.846 21.046 21.046 0 0 0 20.29 20.228 20.564 20.564 0 0 0 19.73-27.074 7.381 7.381 0 0 1 .186-5.167zM23.878 44.532A15.625 15.625 0 1 1 39.749 28.6a15.672 15.672 0 0 1-15.871 15.932z" class="cls-2" data-name="Path 7" transform="translate(-3.568 -1.402)"/>
                <path id="Path_8" d="M35.047 38.906l-3.672-5.664a2 2 0 0 0-2.739-.622 2.043 2.043 0 0 0-.936 1.68 2.1 2.1 0 0 0 .311 1.058l2.49 3.859a.845.845 0 0 1-.062.934l-3.859 4.232a1.974 1.974 0 0 0 .124 2.8 2.175 2.175 0 0 0 1.369.5 2.026 2.026 0 0 0 1.431-.622l2.867-3.361a.5.5 0 0 1 .809.062l2.054 2.925a1.221 1.221 0 0 0 .56.56 1.969 1.969 0 0 0 2.241.062 2.043 2.043 0 0 0 .934-1.68 2.1 2.1 0 0 0-.311-1.058z" class="cls-2" data-name="Path 8" transform="translate(-12.061 -13.078)"/>
            </g>
        </g>
    </g>
</svg>
