<svg xmlns="http://www.w3.org/2000/svg" width="25.806" height="25.5" viewBox="0 0 25.806 25.5">
    <defs>
        <style>
            .cls-1{fill:none;stroke:#909090;stroke-linecap:round;stroke-linejoin:round;stroke-width:1.5px}
        </style>
    </defs>
    <g id="streamline-icon-chick_40x40" data-name="streamline-icon-chick@40x40" transform="translate(.765 .75)">
        <path id="Path_5075" d="M23.95 1.27a5.2 5.2 0 1 1-5.2 5.2 5.2 5.2 0 0 1 5.2-5.2z" class="cls-1" data-name="Path 5075" transform="translate(-7.549 -1.27)"/>
        <path id="Path_5076" d="M17.083 13.889A8 8 0 1 1 12.475 8.2" class="cls-1" data-name="Path 5076" transform="translate(-1.249 -3.519)"/>
        <path id="Path_5077" d="M37.332 5.02l-2.52 1.68" class="cls-1" data-name="Path 5077" transform="translate(-13.332 -2.62)"/>
        <path id="Path_5078" d="M34.975 8.755l2.416 1.61" class="cls-1" data-name="Path 5078" transform="translate(-13.39 -3.965)"/>
        <path id="Path_5079" d="M28.125 7.52a.4.4 0 0 1 .4.4" class="cls-1" data-name="Path 5079" transform="translate(-10.924 -3.52)"/>
        <path id="Path_5080" d="M27.5 7.92a.4.4 0 0 1 .4-.4" class="cls-1" data-name="Path 5080" transform="translate(-10.699 -3.52)"/>
        <path id="Path_5081" d="M27.9 8.545a.4.4 0 0 1-.4-.4" class="cls-1" data-name="Path 5081" transform="translate(-10.699 -3.745)"/>
        <path id="Path_5082" d="M28.525 8.145a.4.4 0 0 1-.4.4" class="cls-1" data-name="Path 5082" transform="translate(-10.924 -3.745)"/>
        <path id="Path_5083" d="M21.25 30.02l3.2 3.2" class="cls-1" data-name="Path 5083" transform="translate(-8.449 -11.62)"/>
        <path id="Path_5084" d="M7.307 31.417L5 33.723" class="cls-1" data-name="Path 5084" transform="translate(-2.599 -12.123)"/>
        <path id="Path_5085" d="M26.25 37.42v-2.4h2.4" class="cls-1" data-name="Path 5085" transform="translate(-10.249 -13.42)"/>
        <path id="Path_5086" d="M1.25 35.02h2.4v2.4" class="cls-1" data-name="Path 5086" transform="translate(-1.249 -13.42)"/>
        <path id="Path_5087" d="M15.5 20.02a4 4 0 0 1-8 0h3.2" class="cls-1" data-name="Path 5087" transform="translate(-3.499 -8.02)"/>
    </g>
</svg>
