<svg xmlns="http://www.w3.org/2000/svg" width="20" height="21" viewBox="0 0 20 21">
    <defs>
        <style>
            .cls-1{fill:#f81894}
        </style>
    </defs>
    <g id="streamline-icon-professional-network-linkedin_24x24_1_" data-name="streamline-icon-professional-network-linkedin@24x24 (1)" transform="translate(-2 -1.5)">
        <path id="Path_4266" d="M2.5 8.5h4A.5.5 0 0 1 7 9v13a.5.5 0 0 1-.5.5h-4A.5.5 0 0 1 2 22V9a.5.5 0 0 1 .5-.5zm1.98-7A2.5 2.5 0 1 1 2 4a2.49 2.49 0 0 1 2.48-2.5zm14.02 21h3a.5.5 0 0 0 .5-.5v-8.4C22 9.83 19.87 8 16.89 8a4.212 4.212 0 0 0-3.17 1.27A.41.41 0 0 1 13 9a.5.5 0 0 0-.5-.5h-3A.5.5 0 0 0 9 9v13a.5.5 0 0 0 .5.5h3a.5.5 0 0 0 .5-.5v-7.5a2.5 2.5 0 0 1 5 0V22a.5.5 0 0 0 .5.5z" class="cls-1" data-name="Path 4266"/>
    </g>
</svg>
