<svg xmlns="http://www.w3.org/2000/svg" width="66.667" height="80" viewBox="0 0 66.667 80">
    <defs>
        <style>
            .cls-1{fill:url(#linear-gradient)}
        </style>
        <linearGradient id="linear-gradient" x2="1" y1=".5" y2=".5" gradientUnits="objectBoundingBox">
            <stop offset="0" stop-color="#f81894"/>
            <stop offset="1" stop-color="#27216e"/>
        </linearGradient>
    </defs>
    <path id="Path_2744" d="M35.333 80a3.336 3.336 0 0 1-1.85-.56C32.2 78.583 2 58.163 2 33.333a33.333 33.333 0 0 1 66.667 0c0 24.83-30.2 45.25-31.483 46.107a3.336 3.336 0 0 1-1.851.56zm0-73.333A26.7 26.7 0 0 0 8.667 33.333c0 18.043 20.343 34.543 26.667 39.237C41.657 67.877 62 51.377 62 33.333A26.7 26.7 0 0 0 35.333 6.667zm0 40a13.333 13.333 0 1 1 13.334-13.334 13.347 13.347 0 0 1-13.334 13.334zm0-20A6.667 6.667 0 1 0 42 33.333a6.673 6.673 0 0 0-6.667-6.666z" class="cls-1" data-name="Path 2744" transform="translate(-2)"/>
</svg>
