<svg xmlns="http://www.w3.org/2000/svg" width="73.333" height="60" viewBox="0 0 73.333 60">
    <defs>
        <style>
            .cls-1{fill:url(#linear-gradient)}
        </style>
        <linearGradient id="linear-gradient" x2="1" y1=".5" y2=".5" gradientUnits="objectBoundingBox">
            <stop offset="0" stop-color="#f81894"/>
            <stop offset="1" stop-color="#27216e"/>
        </linearGradient>
    </defs>
    <path id="Path_2746" d="M95.04 26.7H41.707a10.012 10.012 0 0 0-10 10v40a10.012 10.012 0 0 0 10 10H95.04a10.012 10.012 0 0 0 10-10v-40a10.012 10.012 0 0 0-10-10zm-53.333 6.669H95.04a3.308 3.308 0 0 1 2.953 1.863L68.374 55.965l-29.62-20.733a3.309 3.309 0 0 1 2.953-1.863zM95.04 80.035H41.707a3.335 3.335 0 0 1-3.333-3.335V43.1l28.09 19.66a3.325 3.325 0 0 0 3.82 0l28.09-19.66v33.6a3.335 3.335 0 0 1-3.334 3.335z" class="cls-1" data-name="Path 2746" transform="translate(-31.707 -26.702)"/>
</svg>
