<svg xmlns="http://www.w3.org/2000/svg" width="18.071" height="17.895" viewBox="0 0 18.071 17.895">
    <defs>
        <style>
            .cls-1{fill:none;stroke:#f81894;stroke-linecap:round;stroke-linejoin:round}
        </style>
    </defs>
    <g id="streamline-icon-team-meeting_40x40" data-name="streamline-icon-team-meeting@40x40" transform="translate(-.572 -.75)">
        <path id="Path_5213" d="M5.074 25a1.95 1.95 0 1 1-1.95 1.95A1.95 1.95 0 0 1 5.074 25z" class="cls-1" data-name="Path 5213" transform="translate(-1.039 -13.162)"/>
        <path id="Path_5214" d="M6.821 36.671a3.158 3.158 0 0 0-5.573 0" class="cls-1" data-name="Path 5214" transform="translate(0 -18.703)"/>
        <path id="Path_5215" d="M30.074 25a1.95 1.95 0 1 1-1.95 1.95 1.95 1.95 0 0 1 1.95-1.95z" class="cls-1" data-name="Path 5215" transform="translate(-14.894 -13.162)"/>
        <path id="Path_5216" d="M31.821 36.671a3.158 3.158 0 0 0-5.573 0" class="cls-1" data-name="Path 5216" transform="translate(-13.855 -18.703)"/>
        <path id="Path_5217" d="M17.574 1.25a1.95 1.95 0 1 1-1.95 1.95 1.95 1.95 0 0 1 1.95-1.95z" class="cls-1" data-name="Path 5217" transform="translate(-7.966)"/>
        <path id="Path_5218" d="M19.41 12.363a3.172 3.172 0 0 0-4.472-.358 3.26 3.26 0 0 0-.358.358" class="cls-1" data-name="Path 5218" transform="translate(-7.388 -5.541)"/>
        <path id="Path_5219" d="M15.083 32.828a6.15 6.15 0 0 0 4.417-.013" class="cls-1" data-name="Path 5219" transform="translate(-7.667 -17.493)"/>
        <path id="Path_5220" d="M8.179 10a6.105 6.105 0 0 0-1.932 4.458c0 .188.011.372.028.557" class="cls-1" data-name="Path 5220" transform="translate(-2.77 -4.849)"/>
        <path id="Path_5221" d="M31.319 15.015a6.47 6.47 0 0 0 .028-.557A6.1 6.1 0 0 0 29.415 10" class="cls-1" data-name="Path 5221" transform="translate(-15.609 -4.849)"/>
    </g>
</svg>
