<svg xmlns="http://www.w3.org/2000/svg" width="1440" height="150.108" viewBox="0 0 1440 150.108">
    <defs>
        <style>
            .cls-1{fill:#111;opacity:.04}
        </style>
    </defs>
    <path id="Path_2855" d="M116.367-21.784a40.358 40.358 0 0 1-5.9 21.326 41.615 41.615 0 0 1-17.393 15.529q-11.491 5.8-27.848 5.8-24.638 0-40.581-12.009T7.254-24.682h37.682q.828 8.282 5.9 13.044a18.152 18.152 0 0 0 12.94 4.762q6.832 0 10.766-3.727a13.046 13.046 0 0 0 3.934-9.938 12.832 12.832 0 0 0-3.623-9.317 28.408 28.408 0 0 0-9.006-6.108q-5.383-2.381-14.907-5.694a183.023 183.023 0 0 1-22.671-9.214 41.755 41.755 0 0 1-15.114-13.25Q6.84-72.924 6.84-87q0-13.044 6.625-22.568a42.116 42.116 0 0 1 18.324-14.6q11.7-5.073 26.812-5.073 24.431 0 38.821 11.595t16.253 31.886h-38.3q-1.035-7.247-5.28-11.491T58.6-101.5q-6.211 0-10.042 3.313t-3.83 9.731a12.358 12.358 0 0 0 3.416 8.8 26.035 26.035 0 0 0 8.592 5.9q5.176 2.277 14.907 5.8a163.858 163.858 0 0 1 22.982 9.421 43.965 43.965 0 0 1 15.321 13.561q6.421 8.904 6.421 23.19zm144.518-106.628q27.951 0 46.275 14.7t23.707 39.753h-37.476A34.384 34.384 0 0 0 280.657-89.9q-8.592-5.8-20.394-5.8-15.528 0-25.052 11.388t-9.524 30.436q0 19.048 9.524 30.332t25.052 11.284q11.8 0 20.394-5.8a34.532 34.532 0 0 0 12.733-15.735h37.475q-5.382 24.848-23.706 39.652t-46.275 14.8q-21.326 0-37.475-9.421a63.944 63.944 0 0 1-24.949-26.4q-8.8-16.978-8.8-38.717t8.8-38.717a63.944 63.944 0 0 1 24.949-26.4q16.15-9.414 37.476-9.414zm274.335 1.449V19.419h-35.612V-41.66H444.12v61.079h-35.4v-146.382h35.4v56.73h55.488v-56.73zM653.028-98.8v30.643h49.484v26.709h-49.484v32.501h55.7v28.366h-91.1v-146.382h91.1V-98.8zM918.46-54.083q0 21.533-9.214 38.2a64.538 64.538 0 0 1-26.5 25.984q-17.288 9.317-40.684 9.317H786.78v-146.381h55.281q23.6 0 40.788 9.11a63.556 63.556 0 0 1 26.4 25.674q9.211 16.564 9.211 38.096zm-79.505 41.824q20.7 0 32.2-10.973t11.491-30.85q0-19.876-11.491-30.85t-32.2-10.973h-16.771v83.646zm191.931-114.7v84.474q0 14.493 6.522 22.154t18.945 7.661q12.423 0 18.945-7.661t6.522-22.154v-84.474h35.4v84.474q0 20.7-8.075 34.887a52.491 52.491 0 0 1-22.05 21.326q-13.976 7.143-31.574 7.143t-31.057-7.04A50 50 0 0 1 1003.349-7.5q-7.661-14.286-7.661-34.991v-84.474zM1234.2-7.7h47.206v27.119H1198.8v-146.382h35.4zm156.94-91.1v30.643h49.484v26.709h-49.484v32.501h55.7v28.366h-91.1v-146.382h91.1V-98.8z" class="cls-1" data-name="Path 2855" transform="translate(-6.84 129.24)"/>
</svg>
