<svg xmlns="http://www.w3.org/2000/svg" width="60" height="60.518" viewBox="0 0 60 60.518">
    <defs>
        <style>
            .cls-1{fill:none;stroke:#27216e;stroke-linecap:round;stroke-linejoin:round;stroke-width:2.5px}
        </style>
    </defs>
    <g id="streamline-icon-tea-cup_60x60" data-name="streamline-icon-tea-cup@60x60" transform="translate(0 .518)">
        <path id="Path_5158" d="M12.5 1.25a4.421 4.421 0 0 1 0 6.25 4.421 4.421 0 0 0 0 6.25" class="cls-1" data-name="Path 5158"/>
        <path id="Path_5159" d="M23.75 1.25a4.421 4.421 0 0 1 0 6.25 4.421 4.421 0 0 0 0 6.25" class="cls-1" data-name="Path 5159"/>
        <path id="Path_5160" d="M35 1.25a4.421 4.421 0 0 1 0 6.25 4.421 4.421 0 0 0 0 6.25" class="cls-1" data-name="Path 5160"/>
        <path id="Path_5161" d="M43.75 38.75a20 20 0 0 1-40 0V22.5A1.25 1.25 0 0 1 5 21.25h38.75z" class="cls-1" data-name="Path 5161"/>
        <path id="Path_5162" d="M43.75 21.25h3.75a11.25 11.25 0 0 1 0 22.5h-4.373" class="cls-1" data-name="Path 5162"/>
        <path id="Path_5163" d="M21.25 40A1.25 1.25 0 0 1 20 41.25h-7.5A1.25 1.25 0 0 1 11.25 40v-6.25a5 5 0 0 1 10 0z" class="cls-1" data-name="Path 5163"/>
        <path id="Path_5164" d="M16.25 28.75v-10" class="cls-1" data-name="Path 5164"/>
        <path id="Path_5165" d="M1.25 58.75h50" class="cls-1" data-name="Path 5165"/>
    </g>
</svg>
