<svg xmlns="http://www.w3.org/2000/svg" width="253.133" height="61.01" viewBox="0 0 253.133 61.01">
    <defs>
        <style>
            .cls-1{opacity:.796}.cls-2{fill:#fff}
        </style>
    </defs>
    <g id="Townscript_White_Logo" class="cls-1" data-name="Townscript White Logo">
        <path id="Path_2753" d="M7.33 505.247H1.669a1.9 1.9 0 1 1 0-3.8H17.15a1.9 1.9 0 0 1 0 3.8h-5.691v17.646a2.066 2.066 0 0 1-4.129 0z" class="cls-2" data-name="Path 2753" transform="translate(72.805 -479.359)"/>
        <path id="Path_2754" d="M71.59 531.886v-.066a9.38 9.38 0 0 1 18.755-.076v.066a9.189 9.189 0 0 1-9.42 9.154 9.078 9.078 0 0 1-9.335-9.078zm14.714 0v-.066a5.434 5.434 0 0 0-5.392-5.661 5.277 5.277 0 0 0-5.294 5.595v.066a5.419 5.419 0 0 0 5.36 5.628 5.275 5.275 0 0 0 5.322-5.562z" class="cls-2" data-name="Path 2754" transform="translate(19.168 -495.177)"/>
        <path id="Path_2755" d="M159.467 539.566l-4.727-13.382a3.4 3.4 0 0 1-.2-1.033 1.886 1.886 0 0 1 1.965-1.866 2.056 2.056 0 0 1 1.965 1.6l3.395 10.653 3.43-10.653a2.135 2.135 0 0 1 2.063-1.6h.233a2.129 2.129 0 0 1 2.063 1.6l3.484 10.653 3.43-10.689a2.007 2.007 0 0 1 1.962-1.565 1.871 1.871 0 0 1 1.9 1.866 3.366 3.366 0 0 1-.167.9l-4.805 13.517a2.343 2.343 0 0 1-2.233 1.8h-.132a2.234 2.234 0 0 1-2.2-1.732l-3.43-10.453-3.463 10.45a2.227 2.227 0 0 1-2.165 1.732h-.135a2.3 2.3 0 0 1-2.233-1.798z" class="cls-2" data-name="Path 2755" transform="translate(-42.782 -495.665)"/>
        <path id="Path_2756" d="M271.749 524.83a1.992 1.992 0 0 1 2-2.025 2.025 2.025 0 0 1 2.025 2.025v.866a6.372 6.372 0 0 1 5.494-3.066c3.962 0 6.258 2.666 6.258 6.727v9.39a1.962 1.962 0 0 1-2 2 1.99 1.99 0 0 1-2.025-2v-8.16c0-2.729-1.365-4.3-3.762-4.3-2.329 0-3.962 1.63-3.962 4.362v8.1a2.025 2.025 0 0 1-4.028 0z" class="cls-2" data-name="Path 2756" transform="translate(-130.318 -495.177)"/>
        <path id="Path_2757" d="M348.415 539.014a1.544 1.544 0 0 1-.759-1.4 1.613 1.613 0 0 1 1.633-1.63 1.773 1.773 0 0 1 .863.233 9.289 9.289 0 0 0 5.063 1.7c1.732 0 2.732-.734 2.732-1.9v-.066c0-1.365-1.866-1.83-3.929-2.463-2.6-.734-5.494-1.8-5.494-5.16v-.068c0-3.329 2.765-5.36 6.258-5.36a12.073 12.073 0 0 1 5.527 1.43 1.711 1.711 0 0 1 .967 1.532 1.623 1.623 0 0 1-1.666 1.633 1.593 1.593 0 0 1-.8-.2 9.606 9.606 0 0 0-4.129-1.2c-1.565 0-2.463.734-2.463 1.732v.068c0 1.3 1.9 1.83 3.962 2.5 2.562.8 5.461 1.965 5.461 5.127v.066c0 3.7-2.863 5.527-6.527 5.527a12.018 12.018 0 0 1-6.699-2.101z" class="cls-2" data-name="Path 2757" transform="translate(-187.006 -495.378)"/>
        <path id="Path_2758" d="M415.358 531.886v-.066a9.076 9.076 0 0 1 9.157-9.19 8.9 8.9 0 0 1 6.157 2.2 1.9 1.9 0 0 1 .633 1.4 1.833 1.833 0 0 1-1.863 1.83 2.063 2.063 0 0 1-1.2-.4 5.568 5.568 0 0 0-3.762-1.5 5.3 5.3 0 0 0-5.094 5.595v.066a5.321 5.321 0 0 0 5.261 5.628 5.872 5.872 0 0 0 3.929-1.565 1.7 1.7 0 0 1 2.83 1.332 1.565 1.565 0 0 1-.567 1.266 8.6 8.6 0 0 1-6.392 2.5 8.975 8.975 0 0 1-9.089-9.091z" class="cls-2" data-name="Path 2758" transform="translate(-237.569 -495.177)"/>
        <path id="Path_2759" d="M494.269 525.226a1.992 1.992 0 0 1 2-2.025 2.025 2.025 0 0 1 2.025 2.025v1.8c.932-2.2 2.663-3.863 4.428-3.863a1.87 1.87 0 0 1 2 2 1.891 1.891 0 0 1-1.6 1.932c-2.863.506-4.828 2.7-4.828 6.858v5.2a2.025 2.025 0 0 1-2.025 2 1.982 1.982 0 0 1-2-2z" class="cls-2" data-name="Path 2759" transform="translate(-296.503 -495.573)"/>
        <path id="Path_2760" d="M548.32 499.615a2.326 2.326 0 0 1 4.6 0v.2a2.32 2.32 0 0 1-4.6 0zm.3 6.56a1.992 1.992 0 0 1 2-2.025 2.025 2.025 0 0 1 2.025 2.025V520.1a2.025 2.025 0 0 1-4.03 0z" class="cls-2" data-name="Path 2760" transform="translate(-336.87 -476.521)"/>
        <path id="Path_2761" d="M586.185 524.852a1.992 1.992 0 0 1 2-2.025 2.025 2.025 0 0 1 2.025 2.025v1.1a7.028 7.028 0 0 1 5.992-3.291c4.129 0 8.157 3.263 8.157 9.114v.066c0 5.823-3.995 9.114-8.157 9.114a7.174 7.174 0 0 1-5.992-3.1v6.225a2.025 2.025 0 0 1-4.028 0zm14.081 6.99v-.066c0-3.4-2.3-5.625-5.025-5.625a5.3 5.3 0 0 0-5.129 5.625v.066a5.3 5.3 0 0 0 5.129 5.628c2.732 0 5.025-2.164 5.025-5.628z" class="cls-2" data-name="Path 2761" transform="translate(-365.146 -495.199)"/>
        <path id="Path_2762" d="M670.657 522.622v-9.256h-.666a1.732 1.732 0 0 1 0-3.463h.666v-2.995a2.025 2.025 0 0 1 4.028 0v2.992h3.162a1.732 1.732 0 1 1 0 3.463h-3.162v8.623a1.919 1.919 0 0 0 2.165 2.2 9.311 9.311 0 0 0 1-.1 1.7 1.7 0 0 1 1.7 1.666 1.732 1.732 0 0 1-1.066 1.565 8.037 8.037 0 0 1-2.762.466c-2.971-.001-5.065-1.3-5.065-5.161z" class="cls-2" data-name="Path 2762" transform="translate(-426.446 -482.083)"/>
        <path id="Path_2763" d="M73.353 48.11H52.871l19.707-26.448-1.772-1.322L54.74 41.9l-.532-.4-4.251 5.7-16.941-20.288-1.7 1.415L47.831 48.11H18.58v2.213h29.053l-14.451 19.4 1.775 1.322 15.1-20.263 16.365 19.6 1.7-1.418-15.559-18.642h20.79z" class="cls-2" data-name="Path 2763" transform="translate(-13.876 -15.191)"/>
        <path id="Path_2764" d="M-222.726 451.874a5.808 5.808 0 0 1-8.182-.737 5.823 5.823 0 0 1 .734-8.182 5.823 5.823 0 0 1 8.182.737 5.808 5.808 0 0 1-.734 8.182" class="cls-2" data-name="Path 2764" transform="translate(246.088 -434.668)"/>
        <path id="Path_2765" d="M-88.732 616.029a5.823 5.823 0 0 1-8.195.593 5.805 5.805 0 0 1-1.994-3.974 5.8 5.8 0 0 1 1.4-4.219 5.808 5.808 0 0 1 8.187-.595 5.823 5.823 0 0 1 .595 8.195" class="cls-2" data-name="Path 2765" transform="translate(146.523 -557.755)"/>
        <path id="Path_2766" d="M-162.6 513.48a10.789 10.789 0 0 1-10.787 10.787 10.788 10.788 0 0 1-10.79-10.79A10.789 10.789 0 0 1-173.4 502.69a10.792 10.792 0 0 1 10.8 10.79" class="cls-2" data-name="Path 2766" transform="translate(210.185 -480.285)"/>
        <path id="Path_2767" d="M-218.452 615.04a5.823 5.823 0 0 1-5.81 5.823 5.823 5.823 0 0 1-5.808-5.823 5.808 5.808 0 0 1 5.808-5.81 5.823 5.823 0 0 1 5.81 5.81" class="cls-2" data-name="Path 2767" transform="translate(244.457 -559.852)"/>
        <path id="Path_2768" d="M-275.28 528.17a5.823 5.823 0 0 1-5.81 5.823 5.823 5.823 0 0 1-5.81-5.823 5.823 5.823 0 0 1 5.81-5.81 5.823 5.823 0 0 1 5.81 5.81" class="cls-2" data-name="Path 2768" transform="translate(286.9 -494.975)"/>
        <path id="Path_2769" d="M-63.41 530.516a5.823 5.823 0 0 1-4.81 6.668 5.805 5.805 0 0 1-6.668-4.795 5.808 5.808 0 0 1 4.795-6.671 5.823 5.823 0 0 1 6.671 4.8" class="cls-2" data-name="Path 2769" transform="translate(128.62 -497.428)"/>
        <path id="Path_2770" d="M-69.89 420a5.808 5.808 0 0 0-1.706-4.112 5.808 5.808 0 0 0-4.116-1.7A5.808 5.808 0 0 0-81.52 420a5.808 5.808 0 0 0 5.808 5.81 5.807 5.807 0 0 0 4.117-1.7A5.808 5.808 0 0 0-69.89 420" class="cls-2" data-name="Path 2770" transform="translate(133.515 -414.19)"/>
    </g>
</svg>
