<svg xmlns="http://www.w3.org/2000/svg" width="1440" height="307" viewBox="0 0 1440 307">
    <defs>
        <style>
            .cls-1{opacity:.237}.cls-2{fill:none}.cls-3,.cls-4{stroke:none}.cls-4{fill:#f81894}
        </style>
    </defs>
    <g id="Group_3985" class="cls-1" data-name="Group 3985" transform="translate(-8214.062 -3681)">
        <g id="Path_2697" class="cls-2" data-name="Path 2697">
            <path d="M-650.418 147.716a12.5 12.5 0 0 1 17.88.872c4.8 4.812 4.362 13.121-.874 17.933l-44.488 41.544a27.734 27.734 0 0 1-17.443 6.561h-256a12.673 12.673 0 0 1-12.645-12.683v-94.025a25.881 25.881 0 0 1 8.283-18.8l40.562-37.618a25.894 25.894 0 0 1 17.443-6.991h193.634L-663.5 6.9v-36.3l-41-38.046h-197.121L-946.542-25.9a11.977 11.977 0 0 1-17.443-.434 12.963 12.963 0 0 1 .437-17.93l44.917-41.547a25.193 25.193 0 0 1 17.01-6.561H-704.5a25.482 25.482 0 0 1 17.447 6.561l40.559 37.608a25.894 25.894 0 0 1 8.287 18.803V6.9a25.894 25.894 0 0 1-8.286 18.8l-40.559 37.608a27.75 27.75 0 0 1-17.448 6.564h-193.633l-40.559 38.046v81.342h243.353z" class="cls-3" transform="translate(9181.435 3773.374)"/>
            <path d="M-695.339 210.626c5.134 0 10.389-1.979 14.81-5.574l44.387-41.453.011-.011.012-.011a9.098 9.098 0 0 0 2.92-6.472c.049-2.217-.722-4.239-2.171-5.692l-.061-.061-.059-.064c-1.724-1.885-4.016-2.923-6.454-2.923-2.109 0-4.157.815-5.766 2.295l-44.913 41.536-1.15 1.064h-248.919v-87.075l1.263-1.185 40.56-38.046 1.153-1.082H-704.5c5.136 0 10.394-1.98 14.82-5.58l40.467-37.522.006-.005.006-.006c4.38-4.028 6.994-9.958 6.994-15.862V-29.4c0-5.904-2.615-11.833-6.994-15.861l-.006-.006-.006-.005-40.544-37.594c-3.958-3.604-9.056-5.508-14.743-5.508H-901.62c-5.324 0-10.403 1.956-14.305 5.508l-44.841 41.477a9.054 9.054 0 0 0-2.6 6.057 8.844 8.844 0 0 0 2.335 6.297c1.585 1.734 3.706 2.69 5.972 2.69 2.136 0 4.155-.846 5.686-2.382l.057-.057.06-.055 44.92-41.543 1.15-1.064h200.257l1.151 1.068 40.997 38.046 1.279 1.187V8.643l-1.28 1.187-40.56 37.612-1.15 1.067h-195.203c-2.683 0-5.33.525-7.866 1.56-2.482 1.014-4.795 2.488-6.874 4.38l-40.546 37.6-.007.006-.006.006c-4.377 4.022-6.99 9.95-6.99 15.857v94.025c0 4.788 3.878 8.683 8.645 8.683h256.001m0 4H-951.34c-6.976 0-12.645-5.684-12.645-12.683v-94.025c0-6.995 3.051-13.994 8.283-18.802l40.56-37.612c4.797-4.374 10.903-6.995 17.446-6.995h193.634l40.559-37.612V-29.4L-704.5-67.446H-901.62l-44.92 41.544a12.006 12.006 0 0 1-8.519 3.556c-3.23 0-6.475-1.31-8.925-3.99-4.799-5.25-4.361-13.122.437-17.93l44.917-41.547c4.799-4.374 10.905-6.561 17.01-6.561H-704.5c6.543 0 12.649 2.187 17.448 6.56l40.559 37.608c5.231 4.812 8.286 11.807 8.286 18.806V6.897c0 7-3.055 13.994-8.286 18.806l-40.56 37.608c-4.798 3.936-10.904 6.56-17.447 6.56h-193.633l-40.56 38.047v81.342h243.354l44.92-41.544c2.447-2.25 5.464-3.351 8.475-3.351 3.43 0 6.85 1.43 9.406 4.224 4.799 4.812 4.361 13.121-.874 17.933l-44.484 41.543c-4.795 3.936-10.9 6.561-17.443 6.561z" class="cls-4" transform="translate(9181.435 3773.374)"/>
        </g>
        <g id="Path_2698" class="cls-2" data-name="Path 2698">
            <path d="M-545.032-44.011a11.72 11.72 0 0 1 3.921 11.353l.437 3.055V151.19c0 1.313-.437 2.184-.437 3.5a11.725 11.725 0 0 1-3.921 11.353l-44.488 41.488a27.583 27.583 0 0 1-13.955 6.548c-.874 0-2.181.438-3.488.438h-198a24.78 24.78 0 0 1-16.136-6.985l-40.559-37.558a3.4 3.4 0 0 1-1.744-1.746l-2.618-2.184a14.089 14.089 0 0 1-3.925-11.353V-32.658a14.08 14.08 0 0 1 3.925-11.353l44.92-41.488c3.925-3.5 8.283-6.114 13.519-6.551a10.8 10.8 0 0 1 3.488-.438h198.433a24.78 24.78 0 0 1 16.14 6.988l40.559 37.117c.437.875 1.307 1.313 1.744 2.184zm-20.935 195.2V-29.6l-40.559-37.554h-197.563l-40.559 37.992V151.19l40.559 37.992h197.126z" class="cls-3" transform="translate(9457.231 3773.488)"/>
            <path d="M-804.089-88.488c-.68 0-1.529 0-2.217.23l-.457.154-.48.04c-3.725.31-7.273 2.068-11.165 5.528l-44.83 41.404c-2.007 2.042-3.051 5.112-2.727 8.032l.025.22v187.788l-.025.22c-.32 2.886.698 5.922 2.665 7.967l2.465 2.056.646.539.356.717.48.24.417.387 40.559 37.558.057.053.055.055a19.05 19.05 0 0 0 6.132 4.105c2.213.93 4.675 1.504 7.322 1.707h197.848c.354 0 .866-.094 1.36-.185.55-.102 1.116-.206 1.718-.24a24.876 24.876 0 0 0 6.19-1.93 22.706 22.706 0 0 0 5.483-3.589l44.452-41.454.044-.042.046-.04c1.144-1.004 1.987-2.25 2.438-3.606a7.268 7.268 0 0 0 .216-3.87l-.096-.43v-.44c0-1.052.172-1.908.297-2.533.092-.462.14-.715.14-.963V-29.319l-.396-2.773-.104-.722.159-.713a7.278 7.278 0 0 0-.216-3.874c-.45-1.355-1.293-2.6-2.436-3.601l-.1-.088-.094-.094-2.185-2.188-.457-.457-.216-.43c-.055-.059-.136-.14-.2-.204-.318-.319-.752-.755-1.16-1.352l-40.14-36.733-.067-.06-.063-.065a19.066 19.066 0 0 0-6.135-4.107c-2.212-.93-4.674-1.505-7.32-1.708h-198.284m198.694 281.67H-805.669l-1.154-1.081-40.559-37.992-1.265-1.185V-30.9l1.265-1.185 40.559-37.992 1.153-1.08h200.711l1.15 1.064 40.56 37.554 1.282 1.188v184.288l-1.281 1.187-40.996 37.992-1.15 1.066M-804.09-92.488h198.433c6.106.438 11.774 2.621 16.136 6.989l40.559 37.117c.437.875 1.307 1.312 1.744 2.183l2.185 2.188c3.488 3.055 4.795 7.423 3.92 11.353l.438 3.055V151.19c0 1.313-.438 2.184-.438 3.496.875 3.927-.432 8.294-3.92 11.353l-44.488 41.488c-3.925 3.493-8.72 5.676-13.955 6.547-.874 0-2.181.438-3.488.438H-804.96c-6.109-.438-11.778-2.621-16.136-6.985l-40.559-37.558c-.874-.438-1.31-.875-1.743-1.746l-2.618-2.184c-3.055-3.059-4.362-7.426-3.925-11.353V-32.658c-.437-3.93.87-8.298 3.925-11.353l44.92-41.488c3.925-3.496 8.283-6.114 13.519-6.551 1.307-.438 2.618-.438 3.487-.438zm197.126 281.67l40.996-37.992V-29.603l-40.56-37.555h-197.562l-40.558 37.992V151.19l40.558 37.992h197.126z" class="cls-4" transform="translate(9457.231 3773.488)"/>
        </g>
        <g id="Path_2699" class="cls-2" data-name="Path 2699">
            <path d="M-458.01 147.716a12.5 12.5 0 0 1 17.88.872c4.8 4.812 4.362 13.121-.874 17.933l-44.48 41.543a27.753 27.753 0 0 1-17.447 6.561h-256a12.673 12.673 0 0 1-12.645-12.683v-94.024a25.871 25.871 0 0 1 8.286-18.8l40.559-37.618a25.879 25.879 0 0 1 17.443-6.995h193.634L-471.1 6.9v-36.3l-40.992-38.046h-197.121L-754.134-25.9a11.977 11.977 0 0 1-17.443-.434 12.963 12.963 0 0 1 .437-17.93l44.917-41.547a25.193 25.193 0 0 1 17.01-6.561h197.125a25.473 25.473 0 0 1 17.443 6.561l40.559 37.608A25.878 25.878 0 0 1-445.8-29.4V6.9a25.878 25.878 0 0 1-8.286 18.8l-40.559 37.608a27.74 27.74 0 0 1-17.443 6.561h-193.637l-40.559 38.046v81.345h243.353z" class="cls-3" transform="translate(9726.532 3773.374)"/>
            <path d="M-502.93 210.626c5.132 0 10.388-1.98 14.814-5.575l44.382-41.452.011-.011.012-.011a9.097 9.097 0 0 0 2.92-6.471c.049-2.218-.722-4.24-2.171-5.693l-.062-.062-.059-.064c-1.722-1.885-4.014-2.922-6.452-2.922-2.108 0-4.154.813-5.763 2.291l-44.917 41.54-1.15 1.064h-248.919v-87.075l1.263-1.185 40.56-38.046 1.154-1.082h195.219c2.653 0 5.318-.515 7.922-1.531 2.444-.953 4.762-2.315 6.894-4.049l40.467-37.522.006-.006.007-.006c4.379-4.024 6.993-9.954 6.993-15.86V-29.4c0-5.907-2.614-11.836-6.993-15.86l-.007-.006-.006-.006-40.547-37.597c-3.958-3.601-9.053-5.505-14.736-5.505h-197.125c-5.324 0-10.404 1.956-14.306 5.508l-44.84 41.477a9.054 9.054 0 0 0-2.6 6.057 8.845 8.845 0 0 0 2.335 6.297c1.585 1.734 3.706 2.69 5.972 2.69 2.136 0 4.155-.846 5.686-2.382l.057-.057.06-.055 44.92-41.543 1.15-1.064h200.261l1.152 1.069 40.992 38.045 1.279 1.187V8.643l-1.28 1.187-40.56 37.612-1.15 1.067h-195.203c-2.683 0-5.33.525-7.865 1.56-2.482 1.014-4.794 2.487-6.87 4.38l-40.547 37.6-.008.006-.007.007c-4.378 4.02-6.992 9.948-6.992 15.856v94.025c0 4.788 3.878 8.683 8.645 8.683h256.001m0 4h-256.001c-6.976 0-12.645-5.684-12.645-12.683v-94.025c0-6.995 3.051-13.994 8.287-18.802l40.559-37.612c4.795-4.374 10.9-6.995 17.443-6.995h193.634l40.559-37.612V-29.4l-40.993-38.046h-197.125l-44.92 41.544a12.006 12.006 0 0 1-8.519 3.556c-3.23 0-6.476-1.31-8.925-3.99-4.798-5.25-4.362-13.122.437-17.93l44.917-41.547c4.799-4.374 10.904-6.561 17.01-6.561h197.125c6.543 0 12.645 2.187 17.444 6.56l40.558 37.608c5.236 4.812 8.287 11.807 8.287 18.806V6.897c0 7-3.05 13.994-8.287 18.806l-40.558 37.608c-4.8 3.936-10.9 6.56-17.444 6.56h-193.637l-40.559 38.047v81.342h243.353l44.92-41.544c2.446-2.25 5.465-3.351 8.476-3.351 3.43 0 6.851 1.43 9.405 4.224 4.799 4.812 4.362 13.121-.874 17.933l-44.48 41.543c-4.799 3.936-10.904 6.561-17.447 6.561z" class="cls-4" transform="translate(9726.532 3773.374)"/>
        </g>
        <g id="Path_2700" class="cls-2" data-name="Path 2700">
            <path d="M-352.625-44.011a11.732 11.732 0 0 1 3.925 11.353l.433 3.055V151.19c0 1.313-.433 2.184-.433 3.5a11.737 11.737 0 0 1-3.925 11.353l-44.488 41.488a27.582 27.582 0 0 1-13.955 6.548c-.87 0-2.181.438-3.488.438h-198a24.8 24.8 0 0 1-16.136-6.985l-40.559-37.558a3.413 3.413 0 0 1-1.744-1.746l-2.618-2.184a14.088 14.088 0 0 1-3.925-11.353V-32.658a14.08 14.08 0 0 1 3.925-11.353l44.92-41.488c3.925-3.5 8.283-6.114 13.518-6.551a10.813 10.813 0 0 1 3.488-.438h198.432a24.764 24.764 0 0 1 16.143 6.988l40.559 37.117c.437.875 1.311 1.313 1.744 2.184zm-20.935 195.2V-29.6l-40.559-37.554h-197.562l-40.559 37.988V151.19l40.559 37.992h197.125z" class="cls-3" transform="translate(10002.328 3773.488)"/>
            <path d="M-611.68-88.488c-.681 0-1.528 0-2.222.232l-.455.152-.478.04c-3.725.31-7.273 2.068-11.165 5.528l-44.83 41.405c-2.007 2.04-3.051 5.11-2.727 8.03l.025.221v187.788l-.025.22c-.32 2.887.698 5.922 2.665 7.967l2.465 2.056.64.534.362.722.48.24.417.387 40.559 37.558.057.053.054.054a19.078 19.078 0 0 0 6.136 4.106c2.212.93 4.674 1.504 7.32 1.707h197.847c.354 0 .868-.094 1.364-.186.55-.1 1.114-.205 1.714-.24a24.876 24.876 0 0 0 6.19-1.928 22.703 22.703 0 0 0 5.482-3.59l44.452-41.454.045-.042.046-.04c1.144-1.004 1.987-2.25 2.439-3.607.423-1.27.498-2.61.218-3.873l-.095-.428v-.438c0-1.049.17-1.903.293-2.526.092-.464.14-.718.14-.97V-29.321l-.393-2.776-.102-.718.157-.708a7.294 7.294 0 0 0-.218-3.877c-.451-1.355-1.294-2.6-2.437-3.602l-.1-.088-.095-.095-2.185-2.187-.46-.462-.215-.43c-.055-.058-.133-.136-.195-.199-.318-.318-.754-.754-1.162-1.352l-40.14-36.733-.067-.062-.065-.064a19.033 19.033 0 0 0-6.13-4.106c-2.212-.93-4.675-1.505-7.322-1.708h-198.285m198.694 281.67H-613.26l-1.154-1.081-40.56-37.992-1.265-1.185V-30.9l1.266-1.185 40.559-37.992 1.154-1.08H-412.551l1.15 1.064 40.56 37.554 1.282 1.188v184.288l-1.281 1.187-40.996 37.992-1.15 1.066m-198.695-285.67h198.433c6.11.438 11.778 2.621 16.136 6.989l40.559 37.117c.437.875 1.31 1.312 1.744 2.183l2.184 2.188c3.488 3.055 4.795 7.423 3.925 11.353l.433 3.055V151.19c0 1.313-.433 2.184-.433 3.496.87 3.927-.437 8.294-3.925 11.353l-44.487 41.488c-3.925 3.493-8.72 5.676-13.955 6.547-.87 0-2.181.438-3.488.438h-197.996c-6.105-.438-11.774-2.621-16.136-6.985l-40.559-37.558c-.873-.438-1.306-.875-1.743-1.746l-2.618-2.184c-3.055-3.059-4.362-7.426-3.925-11.353V-32.658c-.437-3.93.87-8.298 3.925-11.353l44.92-41.488c3.925-3.496 8.283-6.114 13.519-6.551 1.31-.438 2.617-.438 3.487-.438zm197.126 281.67l40.996-37.992V-29.603l-40.56-37.555H-611.68l-40.559 37.992V151.19l40.56 37.992h197.125z" class="cls-4" transform="translate(10002.328 3773.488)"/>
        </g>
    </g>
</svg>
