<svg xmlns="http://www.w3.org/2000/svg" width="23.11" height="18.931" viewBox="0 0 23.11 18.931">
    <defs>
        <style>
            .cls-1{fill:#f81894}
        </style>
    </defs>
    <g id="streamline-icon-social-media-twitter_24x24_2_" data-name="streamline-icon-social-media-twitter@24x24 (2)" transform="translate(-.39 -2.56)">
        <path id="Path_4267" d="M23.32 6.44a.5.5 0 0 0-.2-.87l-.79-.2a.5.5 0 0 1-.33-.7l.44-.89a.5.5 0 0 0-.58-.7l-2 .56a.5.5 0 0 1-.44-.08 5 5 0 0 0-8 4v.36a.25.25 0 0 1-.22.25c-2.81.33-5.5-1.1-8.4-4.44a.508.508 0 0 0-.51-.15A.5.5 0 0 0 2 4a7.575 7.575 0 0 0 .46 4.92.25.25 0 0 1-.26.36l-1.12-.22a.5.5 0 0 0-.573.414.52.52 0 0 0 0 .176 5.15 5.15 0 0 0 2.37 3.78.25.25 0 0 1 .123.334.246.246 0 0 1-.116.116l-.53.21a.5.5 0 0 0-.278.65.287.287 0 0 0 .018.04 4.359 4.359 0 0 0 3.2 2.48.25.25 0 0 1 0 .47A10.942 10.942 0 0 1 1 18.56a.51.51 0 1 0-.2 1 20.063 20.063 0 0 0 8.14 1.93 12.579 12.579 0 0 0 7-2A12.5 12.5 0 0 0 21.5 9.06v-.87a.5.5 0 0 1 .18-.38z" class="cls-1" data-name="Path 4267"/>
    </g>
</svg>
