<svg xmlns="http://www.w3.org/2000/svg" id="Group_4030" width="80.001" height="66.523" data-name="Group 4030" viewBox="0 0 80.001 66.523">
    <defs>
        <style>
            .cls-1{fill:url(#linear-gradient)}
        </style>
        <linearGradient id="linear-gradient" x2="1" y1=".5" y2=".5" gradientUnits="objectBoundingBox">
            <stop offset="0" stop-color="#f81894"/>
            <stop offset="1" stop-color="#27216e"/>
        </linearGradient>
    </defs>
    <path id="Path_2745" d="M58.254 67.83a53.239 53.239 0 0 1-25.83-6.917 3.325 3.325 0 0 1-1.593-3.81 3.262 3.262 0 0 1 3.343-2.433 35.309 35.309 0 0 0 16.25-3.217c-25.353-15.58-12.9-44.5-12.763-44.807a3.33 3.33 0 0 1 2.723-1.963 3.294 3.294 0 0 1 3.05 1.4 32.135 32.135 0 0 0 23.94 13.607A18.269 18.269 0 0 1 97.821 5.95a32.928 32.928 0 0 0 7.633-4.007 3.332 3.332 0 0 1 5.16 3.51 29.024 29.024 0 0 1-6.65 12.583c.047.537.073 1.077.077 1.62 0 18.28-8.093 33.52-22.2 41.823a46.265 46.265 0 0 1-23.587 6.351zm-11.02-8.093a40.976 40.976 0 0 0 31.22-4c12.027-7.073 18.92-20.22 18.92-36.067a11.488 11.488 0 0 0-.207-2.137 3.343 3.343 0 0 1 .933-3.007 22.727 22.727 0 0 0 2.06-2.33c-.757.277-1.517.533-2.293.767a3.333 3.333 0 0 1-3.473-1.007 11.6 11.6 0 0 0-20.353 7.77V23.1a3.335 3.335 0 0 1-3.25 3.333 38.917 38.917 0 0 1-28.76-11.647c-1.99 8.513-2.777 24.847 16.7 33.5a3.336 3.336 0 0 1 .52 5.807 42.167 42.167 0 0 1-12.017 5.644z" class="cls-1" data-name="Path 2745" transform="translate(-30.707 -1.307)"/>
</svg>
