<svg xmlns="http://www.w3.org/2000/svg" width="57.346" height="57.337" viewBox="0 0 57.346 57.337">
    <defs>
        <style>
            .cls-1{fill:url(#linear-gradient)}
        </style>
        <linearGradient id="linear-gradient" x1=".231" x2=".702" y1=".298" y2=".77" gradientUnits="objectBoundingBox">
            <stop offset="0" stop-color="#f81894"/>
            <stop offset="1" stop-color="#27216e"/>
        </linearGradient>
    </defs>
    <g id="Group_3986" data-name="Group 3986">
        <path id="Path_2735" d="M41.4 90.227a8.521 8.521 0 0 1-6.024-14.549l17.595-17.6A19.109 19.109 0 0 1 78.964 34.59a2.732 2.732 0 0 1 .805 4.416L69.506 49.269l-1.957-1.905 1.951 1.914 4.351 4.343L84.1 43.335a2.691 2.691 0 0 1 2.418-.756 2.737 2.737 0 0 1 2 1.561 19.106 19.106 0 0 1-23.496 25.986l-17.6 17.6a8.469 8.469 0 0 1-6.022 2.501zm29.687-51.879a13.649 13.649 0 0 0-12.436 19.274 2.728 2.728 0 0 1-.557 3.054L39.235 79.538a3.054 3.054 0 0 0 0 4.326 3.122 3.122 0 0 0 4.329 0l18.859-18.858a2.74 2.74 0 0 1 3.054-.557 13.659 13.659 0 0 0 19.2-13.97l-7.007 7A5.487 5.487 0 0 1 70 57.5l-4.384-4.381a5.49 5.49 0 0 1-.019-7.665l.019-.019 7-7a13.138 13.138 0 0 0-1.529-.087z" class="cls-1" data-name="Path 2735" transform="translate(-32.878 -32.89)"/>
    </g>
</svg>
