<svg xmlns="http://www.w3.org/2000/svg" width="1440" height="144" viewBox="0 0 1440 144">
    <defs>
        <style>
            .cls-1{fill:#1b1653;opacity:.039}
        </style>
    </defs>
    <path id="Path_5170" d="M202.636-141.415L169.069-.99h-42.108l-22.444-93.948L81.874-.99H39.767L6.2-141.415h36.943L61.218-39.721l24.629-101.694h37.142l24.629 101.694 18.273-101.694zm124.336-2.185a71.448 71.448 0 0 1 36.05 9.236 67.286 67.286 0 0 1 25.523 25.622q9.335 16.386 9.335 37.042t-9.434 37.142a67.8 67.8 0 0 1-25.623 25.722A71.063 71.063 0 0 1 326.972.4a71.063 71.063 0 0 1-35.851-9.236A67.8 67.8 0 0 1 265.5-34.557q-9.435-16.486-9.434-37.142t9.434-37.043a68 68 0 0 1 25.622-25.622 71.063 71.063 0 0 1 35.85-9.236zm0 31.581q-16.684 0-26.516 10.825t-9.832 29.5q0 18.472 9.832 29.4t26.516 10.924q16.485 0 26.417-10.924t9.931-29.4q0-18.472-9.832-29.4t-26.516-10.925zM528.771-.99l-30.389-53.032h-7.746V-.99h-33.964v-140.425h58q16.684 0 28.2 5.76a39.775 39.775 0 0 1 17.28 15.79 45.235 45.235 0 0 1 5.76 22.941q0 15.294-8.441 26.019t-24.53 14.7L566.31-.99zm-38.135-76.27h21.054q10.129 0 14.9-4.469t4.767-13.208q0-8.342-4.866-13.109t-14.8-4.767h-21.055zm198.223 4.568L745.466-.99h-41.114l-47.669-62.963V-.99h-33.964v-140.425h33.964v61.771l48.066-61.771h40.717zM900.39-40.516a38.716 38.716 0 0 1-5.661 20.458 39.922 39.922 0 0 1-16.684 14.9Q867.022.4 851.331.4 827.7.4 812.4-11.12T795.717-43.3h36.149q.794 7.945 5.661 12.513a17.413 17.413 0 0 0 12.414 4.568q6.554 0 10.328-3.575a12.516 12.516 0 0 0 3.774-9.534 12.31 12.31 0 0 0-3.476-8.938 27.252 27.252 0 0 0-8.64-5.859q-5.164-2.284-14.3-5.462a175.577 175.577 0 0 1-21.749-8.839 40.056 40.056 0 0 1-14.5-12.712q-6.058-8.441-6.058-21.948 0-12.513 6.356-21.65a40.4 40.4 0 0 1 17.578-14 64.113 64.113 0 0 1 25.721-4.866q23.437 0 37.241 11.123t15.592 30.588h-36.745A18.844 18.844 0 0 0 856-112.913q-4.072-4.072-11.023-4.072a14.2 14.2 0 0 0-9.633 3.178q-3.674 3.178-3.674 9.335a11.855 11.855 0 0 0 3.277 8.441 24.976 24.976 0 0 0 8.243 5.661q4.965 2.185 14.3 5.561a157.2 157.2 0 0 1 22.047 9.037 42.176 42.176 0 0 1 14.7 13.01q6.153 8.541 6.153 22.246zm179.95-100.9V-.99h-34.163v-58.593h-53.23V-.99h-33.964v-140.425h33.964v54.422h53.23v-54.422zm129.9-2.185a71.449 71.449 0 0 1 36.05 9.236 67.287 67.287 0 0 1 25.523 25.622q9.335 16.386 9.335 37.043t-9.434 37.142a67.8 67.8 0 0 1-25.622 25.721A71.062 71.062 0 0 1 1210.238.4a71.062 71.062 0 0 1-35.851-9.236 67.8 67.8 0 0 1-25.622-25.721q-9.435-16.486-9.434-37.142t9.434-37.043a68 68 0 0 1 25.622-25.622 71.062 71.062 0 0 1 35.851-9.236zm0 31.581q-16.684 0-26.516 10.825t-9.832 29.5q0 18.472 9.832 29.4t26.516 10.924q16.486 0 26.417-10.924t9.931-29.4q0-18.472-9.832-29.4t-26.518-10.924zm163.66 61.772V-.99h-33.964v-140.425h55.018q25.026 0 38.135 12.414t13.111 33.467a46.106 46.106 0 0 1-5.859 23.338 40.623 40.623 0 0 1-17.379 16.088q-11.52 5.859-28.006 5.859zm17.28-27.211q20.458 0 20.458-18.074 0-18.472-20.458-18.472h-17.28v36.546z" class="cls-1" data-name="Path 5170" transform="translate(-6.2 143.6)"/>
</svg>
